G75*
%MOIN*%
%OFA0B0*%
%FSLAX25Y25*%
%IPPOS*%
%LPD*%
%AMOC8*
5,1,8,0,0,1.08239X$1,22.5*
%
%ADD10C,0.12800*%
%ADD11R,0.07300X0.04737*%
%ADD12C,0.25800*%
%ADD13C,0.03900*%
D10*
X0098750Y0186250D03*
X0186250Y0098750D03*
X0273750Y0186250D03*
X0186250Y0273750D03*
D11*
G36*
X0102665Y0136696D02*
X0099871Y0143439D01*
X0104245Y0145252D01*
X0107039Y0138509D01*
X0102665Y0136696D01*
G37*
G36*
X0114305Y0141517D02*
X0111511Y0148260D01*
X0115885Y0150073D01*
X0118679Y0143330D01*
X0114305Y0141517D01*
G37*
G36*
X0094900Y0155442D02*
X0092106Y0162185D01*
X0096480Y0163998D01*
X0099274Y0157255D01*
X0094900Y0155442D01*
G37*
G36*
X0106540Y0160264D02*
X0103746Y0167007D01*
X0108120Y0168820D01*
X0110914Y0162077D01*
X0106540Y0160264D01*
G37*
G36*
X0103714Y0205552D02*
X0106508Y0212295D01*
X0110882Y0210482D01*
X0108088Y0203739D01*
X0103714Y0205552D01*
G37*
G36*
X0092074Y0210374D02*
X0094868Y0217117D01*
X0099242Y0215304D01*
X0096448Y0208561D01*
X0092074Y0210374D01*
G37*
G36*
X0099840Y0229120D02*
X0102634Y0235863D01*
X0107008Y0234050D01*
X0104214Y0227307D01*
X0099840Y0229120D01*
G37*
G36*
X0111479Y0224299D02*
X0114273Y0231042D01*
X0118647Y0229229D01*
X0115853Y0222486D01*
X0111479Y0224299D01*
G37*
G36*
X0141505Y0258229D02*
X0148248Y0261023D01*
X0150061Y0256649D01*
X0143318Y0253855D01*
X0141505Y0258229D01*
G37*
G36*
X0136683Y0269868D02*
X0143426Y0272662D01*
X0145239Y0268288D01*
X0138496Y0265494D01*
X0136683Y0269868D01*
G37*
G36*
X0155430Y0277633D02*
X0162173Y0280427D01*
X0163986Y0276053D01*
X0157243Y0273259D01*
X0155430Y0277633D01*
G37*
G36*
X0160251Y0265994D02*
X0166994Y0268788D01*
X0168807Y0264414D01*
X0162064Y0261620D01*
X0160251Y0265994D01*
G37*
G36*
X0205490Y0268802D02*
X0212233Y0266008D01*
X0210420Y0261634D01*
X0203677Y0264428D01*
X0205490Y0268802D01*
G37*
G36*
X0210311Y0280442D02*
X0217054Y0277648D01*
X0215241Y0273274D01*
X0208498Y0276068D01*
X0210311Y0280442D01*
G37*
G36*
X0229058Y0272677D02*
X0235801Y0269883D01*
X0233988Y0265509D01*
X0227245Y0268303D01*
X0229058Y0272677D01*
G37*
G36*
X0224237Y0261037D02*
X0230980Y0258243D01*
X0229167Y0253869D01*
X0222424Y0256663D01*
X0224237Y0261037D01*
G37*
G36*
X0258158Y0230979D02*
X0260952Y0224236D01*
X0256578Y0222423D01*
X0253784Y0229166D01*
X0258158Y0230979D01*
G37*
G36*
X0269797Y0235800D02*
X0272591Y0229057D01*
X0268217Y0227244D01*
X0265423Y0233987D01*
X0269797Y0235800D01*
G37*
G36*
X0277562Y0217054D02*
X0280356Y0210311D01*
X0275982Y0208498D01*
X0273188Y0215241D01*
X0277562Y0217054D01*
G37*
G36*
X0265923Y0212233D02*
X0268717Y0205490D01*
X0264343Y0203677D01*
X0261549Y0210420D01*
X0265923Y0212233D01*
G37*
G36*
X0268772Y0167063D02*
X0265978Y0160320D01*
X0261604Y0162133D01*
X0264398Y0168876D01*
X0268772Y0167063D01*
G37*
G36*
X0280411Y0162242D02*
X0277617Y0155499D01*
X0273243Y0157312D01*
X0276037Y0164055D01*
X0280411Y0162242D01*
G37*
G36*
X0272646Y0143495D02*
X0269852Y0136752D01*
X0265478Y0138565D01*
X0268272Y0145308D01*
X0272646Y0143495D01*
G37*
G36*
X0261007Y0148317D02*
X0258213Y0141574D01*
X0253839Y0143387D01*
X0256633Y0150130D01*
X0261007Y0148317D01*
G37*
G36*
X0230979Y0114308D02*
X0224236Y0111514D01*
X0222423Y0115888D01*
X0229166Y0118682D01*
X0230979Y0114308D01*
G37*
G36*
X0235800Y0102668D02*
X0229057Y0099874D01*
X0227244Y0104248D01*
X0233987Y0107042D01*
X0235800Y0102668D01*
G37*
G36*
X0217054Y0094903D02*
X0210311Y0092109D01*
X0208498Y0096483D01*
X0215241Y0099277D01*
X0217054Y0094903D01*
G37*
G36*
X0212232Y0106543D02*
X0205489Y0103749D01*
X0203676Y0108123D01*
X0210419Y0110917D01*
X0212232Y0106543D01*
G37*
G36*
X0166984Y0103785D02*
X0160241Y0106579D01*
X0162054Y0110953D01*
X0168797Y0108159D01*
X0166984Y0103785D01*
G37*
G36*
X0162163Y0092145D02*
X0155420Y0094939D01*
X0157233Y0099313D01*
X0163976Y0096519D01*
X0162163Y0092145D01*
G37*
G36*
X0143416Y0099911D02*
X0136673Y0102705D01*
X0138486Y0107079D01*
X0145229Y0104285D01*
X0143416Y0099911D01*
G37*
G36*
X0148238Y0111550D02*
X0141495Y0114344D01*
X0143308Y0118718D01*
X0150051Y0115924D01*
X0148238Y0111550D01*
G37*
D12*
X0186250Y0098750D03*
X0098750Y0186250D03*
X0186250Y0273750D03*
D13*
X0217750Y0261250D03*
X0260750Y0217250D03*
X0261250Y0155250D03*
X0217250Y0111250D03*
X0155250Y0111250D03*
X0111250Y0155250D03*
X0111250Y0217250D03*
X0155250Y0260750D03*
M02*
