G75*
%MOIN*%
%OFA0B0*%
%FSLAX25Y25*%
%IPPOS*%
%LPD*%
%AMOC8*
5,1,8,0,0,1.08239X$1,22.5*
%
%ADD10R,0.06500X0.03937*%
%ADD11C,0.25000*%
%ADD12C,0.00600*%
%ADD13C,0.01000*%
%ADD14C,0.03100*%
D10*
G36*
X0102881Y0137219D02*
X0100394Y0143223D01*
X0104029Y0144729D01*
X0106516Y0138725D01*
X0102881Y0137219D01*
G37*
G36*
X0114521Y0142040D02*
X0112034Y0148044D01*
X0115669Y0149550D01*
X0118156Y0143546D01*
X0114521Y0142040D01*
G37*
G36*
X0095116Y0155965D02*
X0092629Y0161969D01*
X0096264Y0163475D01*
X0098751Y0157471D01*
X0095116Y0155965D01*
G37*
G36*
X0106756Y0160787D02*
X0104269Y0166791D01*
X0107904Y0168297D01*
X0110391Y0162293D01*
X0106756Y0160787D01*
G37*
G36*
X0104237Y0205768D02*
X0106724Y0211772D01*
X0110359Y0210266D01*
X0107872Y0204262D01*
X0104237Y0205768D01*
G37*
G36*
X0092597Y0210590D02*
X0095084Y0216594D01*
X0098719Y0215088D01*
X0096232Y0209084D01*
X0092597Y0210590D01*
G37*
G36*
X0100363Y0229336D02*
X0102850Y0235340D01*
X0106485Y0233834D01*
X0103998Y0227830D01*
X0100363Y0229336D01*
G37*
G36*
X0112002Y0224515D02*
X0114489Y0230519D01*
X0118124Y0229013D01*
X0115637Y0223009D01*
X0112002Y0224515D01*
G37*
G36*
X0142028Y0258013D02*
X0148032Y0260500D01*
X0149538Y0256865D01*
X0143534Y0254378D01*
X0142028Y0258013D01*
G37*
G36*
X0137206Y0269652D02*
X0143210Y0272139D01*
X0144716Y0268504D01*
X0138712Y0266017D01*
X0137206Y0269652D01*
G37*
G36*
X0155953Y0277417D02*
X0161957Y0279904D01*
X0163463Y0276269D01*
X0157459Y0273782D01*
X0155953Y0277417D01*
G37*
G36*
X0160774Y0265778D02*
X0166778Y0268265D01*
X0168284Y0264630D01*
X0162280Y0262143D01*
X0160774Y0265778D01*
G37*
G36*
X0205706Y0268279D02*
X0211710Y0265792D01*
X0210204Y0262157D01*
X0204200Y0264644D01*
X0205706Y0268279D01*
G37*
G36*
X0210527Y0279919D02*
X0216531Y0277432D01*
X0215025Y0273797D01*
X0209021Y0276284D01*
X0210527Y0279919D01*
G37*
G36*
X0229274Y0272154D02*
X0235278Y0269667D01*
X0233772Y0266032D01*
X0227768Y0268519D01*
X0229274Y0272154D01*
G37*
G36*
X0224453Y0260514D02*
X0230457Y0258027D01*
X0228951Y0254392D01*
X0222947Y0256879D01*
X0224453Y0260514D01*
G37*
G36*
X0257942Y0230456D02*
X0260429Y0224452D01*
X0256794Y0222946D01*
X0254307Y0228950D01*
X0257942Y0230456D01*
G37*
G36*
X0269581Y0235277D02*
X0272068Y0229273D01*
X0268433Y0227767D01*
X0265946Y0233771D01*
X0269581Y0235277D01*
G37*
G36*
X0277346Y0216531D02*
X0279833Y0210527D01*
X0276198Y0209021D01*
X0273711Y0215025D01*
X0277346Y0216531D01*
G37*
G36*
X0265707Y0211710D02*
X0268194Y0205706D01*
X0264559Y0204200D01*
X0262072Y0210204D01*
X0265707Y0211710D01*
G37*
G36*
X0268249Y0166847D02*
X0265762Y0160843D01*
X0262127Y0162349D01*
X0264614Y0168353D01*
X0268249Y0166847D01*
G37*
G36*
X0279888Y0162026D02*
X0277401Y0156022D01*
X0273766Y0157528D01*
X0276253Y0163532D01*
X0279888Y0162026D01*
G37*
G36*
X0272123Y0143279D02*
X0269636Y0137275D01*
X0266001Y0138781D01*
X0268488Y0144785D01*
X0272123Y0143279D01*
G37*
G36*
X0260484Y0148101D02*
X0257997Y0142097D01*
X0254362Y0143603D01*
X0256849Y0149607D01*
X0260484Y0148101D01*
G37*
G36*
X0230456Y0114524D02*
X0224452Y0112037D01*
X0222946Y0115672D01*
X0228950Y0118159D01*
X0230456Y0114524D01*
G37*
G36*
X0235277Y0102884D02*
X0229273Y0100397D01*
X0227767Y0104032D01*
X0233771Y0106519D01*
X0235277Y0102884D01*
G37*
G36*
X0216531Y0095119D02*
X0210527Y0092632D01*
X0209021Y0096267D01*
X0215025Y0098754D01*
X0216531Y0095119D01*
G37*
G36*
X0211709Y0106759D02*
X0205705Y0104272D01*
X0204199Y0107907D01*
X0210203Y0110394D01*
X0211709Y0106759D01*
G37*
G36*
X0166768Y0104308D02*
X0160764Y0106795D01*
X0162270Y0110430D01*
X0168274Y0107943D01*
X0166768Y0104308D01*
G37*
G36*
X0161947Y0092668D02*
X0155943Y0095155D01*
X0157449Y0098790D01*
X0163453Y0096303D01*
X0161947Y0092668D01*
G37*
G36*
X0143200Y0100434D02*
X0137196Y0102921D01*
X0138702Y0106556D01*
X0144706Y0104069D01*
X0143200Y0100434D01*
G37*
G36*
X0148022Y0112073D02*
X0142018Y0114560D01*
X0143524Y0118195D01*
X0149528Y0115708D01*
X0148022Y0112073D01*
G37*
D11*
X0186250Y0098750D03*
X0098750Y0186250D03*
X0186250Y0273750D03*
D12*
X0140238Y0109641D02*
X0106930Y0109641D01*
X0106314Y0110239D02*
X0120936Y0110239D01*
X0122865Y0109772D02*
X0126861Y0109925D01*
X0130664Y0111160D01*
X0133988Y0113384D01*
X0134192Y0113624D01*
X0137256Y0111336D01*
X0146912Y0105845D01*
X0146912Y0105845D01*
X0151884Y0103785D01*
X0152308Y0103480D01*
X0152531Y0103517D01*
X0152732Y0103433D01*
X0153193Y0103624D01*
X0161302Y0104947D01*
X0166769Y0102683D01*
X0167917Y0103158D01*
X0169899Y0107944D01*
X0169649Y0108546D01*
X0175258Y0107557D01*
X0175047Y0107346D01*
X0173204Y0104154D01*
X0172250Y0100593D01*
X0172250Y0096907D01*
X0173204Y0093346D01*
X0175047Y0090154D01*
X0177654Y0087547D01*
X0180846Y0085704D01*
X0184117Y0084828D01*
X0184080Y0084829D01*
X0184070Y0084820D01*
X0178685Y0084985D01*
X0166646Y0086473D01*
X0154880Y0089426D01*
X0143566Y0093799D01*
X0139614Y0095763D01*
X0141284Y0099602D01*
X0143201Y0098809D01*
X0144349Y0099284D01*
X0146331Y0104069D01*
X0145855Y0105217D01*
X0138702Y0108180D01*
X0137554Y0107705D01*
X0135572Y0102920D01*
X0136047Y0101772D01*
X0137958Y0100980D01*
X0135660Y0095698D01*
X0135343Y0095105D01*
X0135367Y0095024D01*
X0135333Y0094947D01*
X0135580Y0094321D01*
X0135774Y0093678D01*
X0135849Y0093638D01*
X0135879Y0093559D01*
X0136496Y0093291D01*
X0141983Y0090352D01*
X0153733Y0085810D01*
X0165950Y0082744D01*
X0165950Y0082744D01*
X0178452Y0081199D01*
X0184732Y0081199D01*
X0187204Y0081096D01*
X0187205Y0081096D01*
X0192129Y0082271D01*
X0196547Y0084742D01*
X0196547Y0084742D01*
X0200126Y0088322D01*
X0200126Y0088322D01*
X0202596Y0092742D01*
X0203769Y0097666D01*
X0203769Y0097666D01*
X0203730Y0098604D01*
X0206845Y0099109D01*
X0216049Y0101807D01*
X0220274Y0103640D01*
X0220776Y0103722D01*
X0220919Y0103920D01*
X0221132Y0104012D01*
X0221311Y0104465D01*
X0226073Y0111083D01*
X0231605Y0113375D01*
X0232081Y0114523D01*
X0230099Y0119308D01*
X0229526Y0119545D01*
X0230762Y0120259D01*
X0239513Y0127096D01*
X0247227Y0135084D01*
X0252983Y0143007D01*
X0253212Y0142454D01*
X0257998Y0140472D01*
X0258865Y0140832D01*
X0258006Y0139321D01*
X0254989Y0135006D01*
X0254559Y0134524D01*
X0254564Y0134434D01*
X0254510Y0134361D01*
X0254606Y0133701D01*
X0254644Y0133035D01*
X0254711Y0132975D01*
X0254724Y0132886D01*
X0255259Y0132487D01*
X0255757Y0132042D01*
X0255771Y0132043D01*
X0256324Y0131502D01*
X0257977Y0129032D01*
X0258894Y0126206D01*
X0259008Y0123236D01*
X0258309Y0120348D01*
X0256851Y0117759D01*
X0255869Y0116639D01*
X0255844Y0116614D01*
X0251445Y0112478D01*
X0241880Y0105017D01*
X0231473Y0098785D01*
X0220379Y0093877D01*
X0216149Y0092455D01*
X0215828Y0093203D01*
X0217680Y0093970D01*
X0218155Y0095118D01*
X0216173Y0099904D01*
X0215025Y0100379D01*
X0207872Y0097416D01*
X0207396Y0096268D01*
X0209378Y0091483D01*
X0210526Y0091007D01*
X0212501Y0091825D01*
X0213455Y0089603D01*
X0213641Y0088986D01*
X0213743Y0088931D01*
X0213788Y0088826D01*
X0214387Y0088586D01*
X0214956Y0088282D01*
X0215066Y0088315D01*
X0215173Y0088272D01*
X0215766Y0088527D01*
X0221698Y0090320D01*
X0221698Y0090320D01*
X0233218Y0095417D01*
X0244025Y0101888D01*
X0244025Y0101888D01*
X0253957Y0109635D01*
X0253957Y0109635D01*
X0258411Y0114089D01*
X0258583Y0114261D01*
X0259825Y0115494D01*
X0259825Y0115495D01*
X0261787Y0118978D01*
X0261787Y0118978D01*
X0262728Y0122865D01*
X0262575Y0126861D01*
X0261340Y0130664D01*
X0259116Y0133988D01*
X0258876Y0134192D01*
X0261164Y0137256D01*
X0266655Y0146912D01*
X0268715Y0151885D01*
X0269020Y0152308D01*
X0268983Y0152531D01*
X0269066Y0152732D01*
X0268876Y0153193D01*
X0267560Y0161260D01*
X0269874Y0166848D01*
X0269398Y0167996D01*
X0264613Y0169978D01*
X0263909Y0169686D01*
X0265075Y0175172D01*
X0265419Y0180080D01*
X0265508Y0179926D01*
X0267426Y0178008D01*
X0269774Y0176652D01*
X0272394Y0175950D01*
X0275106Y0175950D01*
X0277726Y0176652D01*
X0280074Y0178008D01*
X0281992Y0179926D01*
X0283348Y0182274D01*
X0284050Y0184894D01*
X0284050Y0187606D01*
X0283348Y0190226D01*
X0281992Y0192574D01*
X0280074Y0194492D01*
X0277726Y0195848D01*
X0275106Y0196550D01*
X0272394Y0196550D01*
X0269774Y0195848D01*
X0267426Y0194492D01*
X0265508Y0192574D01*
X0265419Y0192420D01*
X0265075Y0197328D01*
X0263902Y0202847D01*
X0264558Y0202575D01*
X0269343Y0204557D01*
X0269718Y0205461D01*
X0270173Y0203805D01*
X0271091Y0198621D01*
X0271128Y0197976D01*
X0271195Y0197916D01*
X0271208Y0197827D01*
X0271743Y0197427D01*
X0272241Y0196983D01*
X0272331Y0196988D01*
X0272403Y0196935D01*
X0273063Y0197030D01*
X0273730Y0197069D01*
X0273739Y0197079D01*
X0274513Y0197087D01*
X0277428Y0196509D01*
X0280075Y0195160D01*
X0282255Y0193141D01*
X0283803Y0190604D01*
X0284603Y0187742D01*
X0284700Y0186256D01*
X0284700Y0186220D01*
X0284515Y0180185D01*
X0283027Y0168146D01*
X0280074Y0156380D01*
X0275701Y0145066D01*
X0273715Y0141068D01*
X0272957Y0141371D01*
X0273748Y0143280D01*
X0273273Y0144428D01*
X0268487Y0146410D01*
X0267339Y0145934D01*
X0264376Y0138781D01*
X0264852Y0137633D01*
X0269637Y0135651D01*
X0270785Y0136126D01*
X0271580Y0138045D01*
X0273826Y0137147D01*
X0274395Y0136843D01*
X0274505Y0136876D01*
X0274612Y0136833D01*
X0275205Y0137087D01*
X0275822Y0137274D01*
X0275877Y0137376D01*
X0275982Y0137421D01*
X0276222Y0138020D01*
X0279148Y0143483D01*
X0283690Y0155233D01*
X0286756Y0167450D01*
X0286756Y0167450D01*
X0288301Y0179952D01*
X0288301Y0186492D01*
X0288307Y0188243D01*
X0288307Y0188243D01*
X0287231Y0192095D01*
X0285148Y0195508D01*
X0285148Y0195508D01*
X0282214Y0198225D01*
X0282214Y0198225D01*
X0278651Y0200041D01*
X0274729Y0200819D01*
X0274415Y0200794D01*
X0273866Y0204578D01*
X0270921Y0215289D01*
X0268862Y0220262D01*
X0268778Y0220776D01*
X0268594Y0220909D01*
X0268511Y0221109D01*
X0268050Y0221300D01*
X0261368Y0226108D01*
X0259091Y0231605D01*
X0257943Y0232081D01*
X0253157Y0230099D01*
X0252934Y0229560D01*
X0247227Y0237416D01*
X0239513Y0245404D01*
X0230762Y0252241D01*
X0229475Y0252984D01*
X0230099Y0253243D01*
X0232081Y0258028D01*
X0231755Y0258816D01*
X0233179Y0258006D01*
X0237494Y0254989D01*
X0237976Y0254559D01*
X0238066Y0254564D01*
X0238139Y0254510D01*
X0238799Y0254606D01*
X0239465Y0254644D01*
X0239525Y0254711D01*
X0239614Y0254724D01*
X0240013Y0255259D01*
X0240458Y0255757D01*
X0240457Y0255771D01*
X0240998Y0256324D01*
X0243468Y0257977D01*
X0246294Y0258894D01*
X0249264Y0259008D01*
X0252152Y0258309D01*
X0254741Y0256851D01*
X0255861Y0255869D01*
X0255886Y0255844D01*
X0260022Y0251445D01*
X0267483Y0241880D01*
X0273715Y0231473D01*
X0278623Y0220379D01*
X0280045Y0216149D01*
X0279268Y0215815D01*
X0278495Y0217680D01*
X0277347Y0218155D01*
X0272562Y0216173D01*
X0272087Y0215025D01*
X0275049Y0207872D01*
X0276198Y0207396D01*
X0280983Y0209378D01*
X0281458Y0210526D01*
X0280646Y0212489D01*
X0282897Y0213455D01*
X0283514Y0213641D01*
X0283569Y0213743D01*
X0283674Y0213788D01*
X0283914Y0214387D01*
X0284218Y0214956D01*
X0284185Y0215066D01*
X0284228Y0215173D01*
X0283973Y0215766D01*
X0282180Y0221698D01*
X0282180Y0221698D01*
X0277083Y0233218D01*
X0270612Y0244025D01*
X0270612Y0244025D01*
X0262865Y0253957D01*
X0258411Y0258411D01*
X0258411Y0258411D01*
X0258240Y0258582D01*
X0257006Y0259825D01*
X0257005Y0259825D01*
X0253522Y0261787D01*
X0253522Y0261787D01*
X0249635Y0262728D01*
X0245639Y0262575D01*
X0241836Y0261340D01*
X0238512Y0259116D01*
X0238308Y0258876D01*
X0235244Y0261164D01*
X0225588Y0266655D01*
X0220616Y0268715D01*
X0220192Y0269020D01*
X0219969Y0268983D01*
X0219768Y0269066D01*
X0219307Y0268876D01*
X0211330Y0267574D01*
X0205706Y0269904D01*
X0204558Y0269429D01*
X0202576Y0264643D01*
X0202865Y0263944D01*
X0200072Y0264641D01*
X0196900Y0264974D01*
X0197348Y0265519D01*
X0198101Y0266647D01*
X0198740Y0267843D01*
X0199259Y0269095D01*
X0199653Y0270393D01*
X0199917Y0271723D01*
X0200050Y0273072D01*
X0200050Y0273450D01*
X0196550Y0273450D01*
X0196550Y0274050D01*
X0200050Y0274050D01*
X0200050Y0274428D01*
X0199917Y0275777D01*
X0199653Y0277107D01*
X0199259Y0278405D01*
X0198740Y0279657D01*
X0198101Y0280853D01*
X0197348Y0281981D01*
X0196487Y0283029D01*
X0195529Y0283987D01*
X0194481Y0284848D01*
X0193353Y0285601D01*
X0192157Y0286240D01*
X0190905Y0286759D01*
X0189695Y0287126D01*
X0193315Y0287015D01*
X0205354Y0285527D01*
X0217120Y0282574D01*
X0228434Y0278201D01*
X0232431Y0276215D01*
X0231147Y0273002D01*
X0229274Y0273778D01*
X0228126Y0273303D01*
X0226143Y0268518D01*
X0226619Y0267370D01*
X0233772Y0264407D01*
X0234920Y0264882D01*
X0236902Y0269667D01*
X0236427Y0270816D01*
X0234474Y0271625D01*
X0236353Y0276326D01*
X0236657Y0276895D01*
X0236624Y0277005D01*
X0236667Y0277112D01*
X0236413Y0277705D01*
X0236226Y0278322D01*
X0236125Y0278376D01*
X0236079Y0278482D01*
X0235480Y0278722D01*
X0230017Y0281648D01*
X0230017Y0281648D01*
X0218267Y0286190D01*
X0206050Y0289256D01*
X0206050Y0289256D01*
X0193548Y0290801D01*
X0187268Y0290801D01*
X0184862Y0290901D01*
X0180067Y0289757D01*
X0175765Y0287351D01*
X0172280Y0283865D01*
X0169876Y0279562D01*
X0168734Y0274767D01*
X0168770Y0273896D01*
X0165655Y0273391D01*
X0156451Y0270693D01*
X0152258Y0268874D01*
X0151744Y0268790D01*
X0151597Y0268587D01*
X0151368Y0268488D01*
X0151177Y0268003D01*
X0146476Y0261480D01*
X0140879Y0259162D01*
X0140403Y0258014D01*
X0142385Y0253228D01*
X0143106Y0252930D01*
X0137243Y0248976D01*
X0128991Y0241545D01*
X0128991Y0241545D01*
X0121852Y0233038D01*
X0121852Y0233038D01*
X0119585Y0229409D01*
X0119273Y0230161D01*
X0114488Y0232144D01*
X0113340Y0231668D01*
X0110377Y0224515D01*
X0110853Y0223367D01*
X0111633Y0223044D01*
X0110511Y0220245D01*
X0109522Y0219836D01*
X0108664Y0218978D01*
X0108200Y0217857D01*
X0108200Y0216643D01*
X0108664Y0215522D01*
X0109522Y0214664D01*
X0110643Y0214200D01*
X0111773Y0214200D01*
X0111450Y0213475D01*
X0110929Y0211655D01*
X0106723Y0213397D01*
X0105575Y0212921D01*
X0102612Y0205768D01*
X0103087Y0204620D01*
X0103753Y0204344D01*
X0101987Y0199877D01*
X0100593Y0200250D01*
X0096907Y0200250D01*
X0093346Y0199296D01*
X0090154Y0197453D01*
X0087547Y0194846D01*
X0085704Y0191654D01*
X0084814Y0188334D01*
X0084837Y0191270D01*
X0085649Y0201215D01*
X0087433Y0211031D01*
X0090173Y0220625D01*
X0093841Y0229903D01*
X0095295Y0232910D01*
X0099502Y0231182D01*
X0098738Y0229336D01*
X0099213Y0228188D01*
X0103998Y0226206D01*
X0105147Y0226681D01*
X0108109Y0233835D01*
X0107634Y0234983D01*
X0102849Y0236965D01*
X0101701Y0236489D01*
X0100880Y0234508D01*
X0095167Y0236855D01*
X0094572Y0237160D01*
X0094488Y0237134D01*
X0094407Y0237167D01*
X0093790Y0236909D01*
X0093153Y0236705D01*
X0093112Y0236626D01*
X0093031Y0236592D01*
X0092777Y0235974D01*
X0090447Y0231442D01*
X0086644Y0221823D01*
X0083803Y0211877D01*
X0081953Y0201700D01*
X0081112Y0191391D01*
X0081199Y0186220D01*
X0081200Y0186167D01*
X0081210Y0183809D01*
X0082555Y0179131D01*
X0085123Y0174996D01*
X0088719Y0171716D01*
X0093072Y0169539D01*
X0093072Y0169539D01*
X0097853Y0168629D01*
X0097853Y0168629D01*
X0098616Y0168696D01*
X0099109Y0165655D01*
X0101807Y0156451D01*
X0103640Y0152226D01*
X0103722Y0151724D01*
X0103920Y0151581D01*
X0104012Y0151368D01*
X0104465Y0151189D01*
X0111077Y0146432D01*
X0113372Y0140891D01*
X0114520Y0140415D01*
X0119305Y0142398D01*
X0119589Y0143084D01*
X0121852Y0139462D01*
X0128991Y0130955D01*
X0137243Y0123524D01*
X0137243Y0123524D01*
X0143035Y0119618D01*
X0142375Y0119344D01*
X0140393Y0114559D01*
X0140759Y0113676D01*
X0139321Y0114494D01*
X0135006Y0117511D01*
X0134524Y0117941D01*
X0134434Y0117936D01*
X0134361Y0117990D01*
X0133701Y0117894D01*
X0133035Y0117856D01*
X0132975Y0117789D01*
X0132886Y0117776D01*
X0132487Y0117241D01*
X0132042Y0116743D01*
X0132043Y0116729D01*
X0131502Y0116176D01*
X0129032Y0114523D01*
X0126206Y0113606D01*
X0123236Y0113492D01*
X0120348Y0114191D01*
X0117759Y0115649D01*
X0116639Y0116631D01*
X0116614Y0116656D01*
X0112478Y0121055D01*
X0105017Y0130620D01*
X0098785Y0141027D01*
X0093877Y0152121D01*
X0092455Y0156351D01*
X0093199Y0156671D01*
X0093967Y0154817D01*
X0095115Y0154341D01*
X0099901Y0156323D01*
X0100376Y0157471D01*
X0097413Y0164624D01*
X0096265Y0165100D01*
X0091480Y0163118D01*
X0091004Y0161970D01*
X0091821Y0159997D01*
X0089603Y0159045D01*
X0088986Y0158859D01*
X0088931Y0158757D01*
X0088826Y0158712D01*
X0088586Y0158113D01*
X0088282Y0157544D01*
X0088315Y0157434D01*
X0088272Y0157327D01*
X0088527Y0156734D01*
X0090320Y0150802D01*
X0095417Y0139282D01*
X0101888Y0128475D01*
X0101888Y0128475D01*
X0109635Y0118543D01*
X0114089Y0114089D01*
X0114260Y0113918D01*
X0115494Y0112675D01*
X0115494Y0112675D01*
X0118978Y0110713D01*
X0122865Y0109772D01*
X0122865Y0109772D01*
X0118978Y0110713D02*
X0118978Y0110713D01*
X0118757Y0110838D02*
X0105699Y0110838D01*
X0105083Y0111436D02*
X0117694Y0111436D01*
X0116632Y0112035D02*
X0104559Y0112035D01*
X0104914Y0111600D02*
X0096935Y0121359D01*
X0090120Y0131963D01*
X0084558Y0143275D01*
X0080322Y0155147D01*
X0077467Y0167424D01*
X0076030Y0179947D01*
X0076030Y0192553D01*
X0077467Y0205076D01*
X0080322Y0217353D01*
X0084558Y0229225D01*
X0090120Y0240537D01*
X0096935Y0251141D01*
X0104914Y0260900D01*
X0113953Y0269685D01*
X0123935Y0277382D01*
X0134730Y0283891D01*
X0146196Y0289128D01*
X0158184Y0293023D01*
X0170538Y0295526D01*
X0183097Y0296605D01*
X0195697Y0296245D01*
X0208174Y0294451D01*
X0220365Y0291247D01*
X0232112Y0286673D01*
X0243260Y0280791D01*
X0253666Y0273676D01*
X0263192Y0265421D01*
X0271715Y0256135D01*
X0279124Y0245937D01*
X0285323Y0234961D01*
X0290230Y0223350D01*
X0293781Y0211255D01*
X0295930Y0198835D01*
X0296650Y0186250D01*
X0288301Y0186250D01*
X0288302Y0186849D02*
X0296616Y0186849D01*
X0296582Y0187447D02*
X0288304Y0187447D01*
X0288306Y0188046D02*
X0296547Y0188046D01*
X0296513Y0188644D02*
X0288195Y0188644D01*
X0288028Y0189243D02*
X0296479Y0189243D01*
X0296445Y0189841D02*
X0287861Y0189841D01*
X0287693Y0190440D02*
X0296410Y0190440D01*
X0296376Y0191038D02*
X0287526Y0191038D01*
X0287359Y0191637D02*
X0296342Y0191637D01*
X0296308Y0192235D02*
X0287146Y0192235D01*
X0287231Y0192095D02*
X0287231Y0192095D01*
X0286780Y0192834D02*
X0296274Y0192834D01*
X0296239Y0193432D02*
X0286415Y0193432D01*
X0286050Y0194031D02*
X0296205Y0194031D01*
X0296171Y0194629D02*
X0285684Y0194629D01*
X0285319Y0195228D02*
X0296137Y0195228D01*
X0296102Y0195826D02*
X0284804Y0195826D01*
X0284158Y0196425D02*
X0296068Y0196425D01*
X0296034Y0197023D02*
X0283512Y0197023D01*
X0282866Y0197622D02*
X0296000Y0197622D01*
X0295966Y0198220D02*
X0282219Y0198220D01*
X0281050Y0198819D02*
X0295931Y0198819D01*
X0295830Y0199417D02*
X0279875Y0199417D01*
X0278701Y0200016D02*
X0295726Y0200016D01*
X0295622Y0200614D02*
X0275761Y0200614D01*
X0274354Y0201213D02*
X0295519Y0201213D01*
X0295415Y0201811D02*
X0274267Y0201811D01*
X0274181Y0202410D02*
X0295312Y0202410D01*
X0295208Y0203008D02*
X0274094Y0203008D01*
X0274007Y0203607D02*
X0295105Y0203607D01*
X0295001Y0204205D02*
X0273920Y0204205D01*
X0273866Y0204578D02*
X0273866Y0204578D01*
X0273804Y0204804D02*
X0294897Y0204804D01*
X0294794Y0205402D02*
X0273639Y0205402D01*
X0273475Y0206001D02*
X0294690Y0206001D01*
X0294587Y0206599D02*
X0273310Y0206599D01*
X0273145Y0207198D02*
X0294483Y0207198D01*
X0294379Y0207796D02*
X0277164Y0207796D01*
X0278609Y0208395D02*
X0294276Y0208395D01*
X0294172Y0208993D02*
X0280054Y0208993D01*
X0281071Y0209592D02*
X0294069Y0209592D01*
X0293965Y0210190D02*
X0281319Y0210190D01*
X0281350Y0210789D02*
X0293862Y0210789D01*
X0293742Y0211387D02*
X0281102Y0211387D01*
X0280854Y0211986D02*
X0293566Y0211986D01*
X0293391Y0212584D02*
X0280868Y0212584D01*
X0282263Y0213183D02*
X0293215Y0213183D01*
X0293039Y0213782D02*
X0283658Y0213782D01*
X0283911Y0214380D02*
X0292863Y0214380D01*
X0292688Y0214979D02*
X0284211Y0214979D01*
X0284054Y0215577D02*
X0292512Y0215577D01*
X0292336Y0216176D02*
X0283850Y0216176D01*
X0283669Y0216774D02*
X0292160Y0216774D01*
X0291985Y0217373D02*
X0283488Y0217373D01*
X0283307Y0217971D02*
X0291809Y0217971D01*
X0291633Y0218570D02*
X0283126Y0218570D01*
X0282945Y0219168D02*
X0291457Y0219168D01*
X0291282Y0219767D02*
X0282764Y0219767D01*
X0282583Y0220365D02*
X0291106Y0220365D01*
X0290930Y0220964D02*
X0282402Y0220964D01*
X0282221Y0221562D02*
X0290755Y0221562D01*
X0290579Y0222161D02*
X0281975Y0222161D01*
X0281710Y0222759D02*
X0290403Y0222759D01*
X0290226Y0223358D02*
X0281446Y0223358D01*
X0281181Y0223956D02*
X0289973Y0223956D01*
X0289720Y0224555D02*
X0280916Y0224555D01*
X0280651Y0225153D02*
X0289467Y0225153D01*
X0289215Y0225752D02*
X0280386Y0225752D01*
X0280122Y0226350D02*
X0288962Y0226350D01*
X0288709Y0226949D02*
X0279857Y0226949D01*
X0279592Y0227547D02*
X0288456Y0227547D01*
X0288203Y0228146D02*
X0279327Y0228146D01*
X0279062Y0228744D02*
X0287950Y0228744D01*
X0287697Y0229343D02*
X0278797Y0229343D01*
X0278533Y0229941D02*
X0287444Y0229941D01*
X0287191Y0230540D02*
X0278268Y0230540D01*
X0278003Y0231138D02*
X0286938Y0231138D01*
X0286685Y0231737D02*
X0277738Y0231737D01*
X0277473Y0232335D02*
X0286432Y0232335D01*
X0286179Y0232934D02*
X0277209Y0232934D01*
X0277083Y0233218D02*
X0277083Y0233218D01*
X0276895Y0233532D02*
X0285926Y0233532D01*
X0285673Y0234131D02*
X0276536Y0234131D01*
X0276178Y0234729D02*
X0285421Y0234729D01*
X0285115Y0235328D02*
X0275820Y0235328D01*
X0275461Y0235926D02*
X0284777Y0235926D01*
X0284439Y0236525D02*
X0275103Y0236525D01*
X0274744Y0237123D02*
X0284101Y0237123D01*
X0283763Y0237722D02*
X0274386Y0237722D01*
X0274028Y0238320D02*
X0283425Y0238320D01*
X0283087Y0238919D02*
X0273669Y0238919D01*
X0273311Y0239518D02*
X0282749Y0239518D01*
X0282411Y0240116D02*
X0272953Y0240116D01*
X0272594Y0240715D02*
X0282073Y0240715D01*
X0281736Y0241313D02*
X0272236Y0241313D01*
X0271878Y0241912D02*
X0281398Y0241912D01*
X0281060Y0242510D02*
X0271519Y0242510D01*
X0271161Y0243109D02*
X0280722Y0243109D01*
X0280384Y0243707D02*
X0270803Y0243707D01*
X0270393Y0244306D02*
X0280046Y0244306D01*
X0279708Y0244904D02*
X0269926Y0244904D01*
X0269460Y0245503D02*
X0279370Y0245503D01*
X0279005Y0246101D02*
X0268993Y0246101D01*
X0268526Y0246700D02*
X0278570Y0246700D01*
X0278135Y0247298D02*
X0268059Y0247298D01*
X0267592Y0247897D02*
X0277700Y0247897D01*
X0277266Y0248495D02*
X0267125Y0248495D01*
X0266658Y0249094D02*
X0276831Y0249094D01*
X0276396Y0249692D02*
X0266192Y0249692D01*
X0265725Y0250291D02*
X0275961Y0250291D01*
X0275526Y0250889D02*
X0265258Y0250889D01*
X0264791Y0251488D02*
X0275091Y0251488D01*
X0274657Y0252086D02*
X0264324Y0252086D01*
X0263857Y0252685D02*
X0274222Y0252685D01*
X0273787Y0253283D02*
X0263390Y0253283D01*
X0262924Y0253882D02*
X0273352Y0253882D01*
X0272917Y0254480D02*
X0262342Y0254480D01*
X0262865Y0253957D02*
X0262865Y0253957D01*
X0261743Y0255079D02*
X0272482Y0255079D01*
X0272047Y0255677D02*
X0261145Y0255677D01*
X0260546Y0256276D02*
X0271586Y0256276D01*
X0271036Y0256874D02*
X0259948Y0256874D01*
X0259349Y0257473D02*
X0270487Y0257473D01*
X0269938Y0258071D02*
X0258751Y0258071D01*
X0258153Y0258670D02*
X0269388Y0258670D01*
X0268839Y0259268D02*
X0257558Y0259268D01*
X0256931Y0259867D02*
X0268290Y0259867D01*
X0267740Y0260465D02*
X0255868Y0260465D01*
X0254806Y0261064D02*
X0267191Y0261064D01*
X0266642Y0261662D02*
X0253743Y0261662D01*
X0251564Y0262261D02*
X0266092Y0262261D01*
X0265543Y0262859D02*
X0232262Y0262859D01*
X0233314Y0262261D02*
X0244673Y0262261D01*
X0245639Y0262575D02*
X0245639Y0262575D01*
X0242830Y0261662D02*
X0234367Y0261662D01*
X0235244Y0261164D02*
X0235244Y0261164D01*
X0235377Y0261064D02*
X0241424Y0261064D01*
X0241836Y0261340D02*
X0241836Y0261340D01*
X0240529Y0260465D02*
X0236179Y0260465D01*
X0236981Y0259867D02*
X0239635Y0259867D01*
X0238740Y0259268D02*
X0237783Y0259268D01*
X0238512Y0259116D02*
X0238512Y0259116D01*
X0238586Y0256427D02*
X0238618Y0256399D01*
X0237366Y0255079D02*
X0230860Y0255079D01*
X0231108Y0255677D02*
X0236510Y0255677D01*
X0235654Y0256276D02*
X0231355Y0256276D01*
X0231603Y0256874D02*
X0234798Y0256874D01*
X0233942Y0257473D02*
X0231851Y0257473D01*
X0232063Y0258071D02*
X0233065Y0258071D01*
X0232012Y0258670D02*
X0231815Y0258670D01*
X0230612Y0254480D02*
X0257168Y0254480D01*
X0257731Y0253882D02*
X0230364Y0253882D01*
X0230116Y0253283D02*
X0258293Y0253283D01*
X0258856Y0252685D02*
X0229994Y0252685D01*
X0230960Y0252086D02*
X0259419Y0252086D01*
X0259982Y0251488D02*
X0231726Y0251488D01*
X0232492Y0250889D02*
X0260456Y0250889D01*
X0260922Y0250291D02*
X0233258Y0250291D01*
X0234025Y0249692D02*
X0261389Y0249692D01*
X0261856Y0249094D02*
X0234791Y0249094D01*
X0235557Y0248495D02*
X0262323Y0248495D01*
X0262790Y0247897D02*
X0236323Y0247897D01*
X0237089Y0247298D02*
X0263257Y0247298D01*
X0263724Y0246700D02*
X0237855Y0246700D01*
X0238621Y0246101D02*
X0264191Y0246101D01*
X0264657Y0245503D02*
X0239387Y0245503D01*
X0239996Y0244904D02*
X0265124Y0244904D01*
X0265591Y0244306D02*
X0240574Y0244306D01*
X0241152Y0243707D02*
X0266058Y0243707D01*
X0266525Y0243109D02*
X0241730Y0243109D01*
X0242308Y0242510D02*
X0266992Y0242510D01*
X0267459Y0241912D02*
X0242886Y0241912D01*
X0243464Y0241313D02*
X0267823Y0241313D01*
X0268181Y0240715D02*
X0244042Y0240715D01*
X0244620Y0240116D02*
X0268539Y0240116D01*
X0268898Y0239518D02*
X0245198Y0239518D01*
X0245776Y0238919D02*
X0269256Y0238919D01*
X0269614Y0238320D02*
X0246354Y0238320D01*
X0246932Y0237722D02*
X0269973Y0237722D01*
X0270331Y0237123D02*
X0247440Y0237123D01*
X0247227Y0237416D02*
X0247227Y0237416D01*
X0247874Y0236525D02*
X0269195Y0236525D01*
X0269243Y0236545D02*
X0267543Y0235841D01*
X0269170Y0231914D01*
X0271912Y0233050D01*
X0270718Y0235934D01*
X0270509Y0236206D01*
X0270238Y0236414D01*
X0269922Y0236545D01*
X0269582Y0236590D01*
X0269243Y0236545D01*
X0269970Y0236525D02*
X0270690Y0236525D01*
X0270721Y0235926D02*
X0271048Y0235926D01*
X0270969Y0235328D02*
X0271406Y0235328D01*
X0271217Y0234729D02*
X0271765Y0234729D01*
X0271465Y0234131D02*
X0272123Y0234131D01*
X0272481Y0233532D02*
X0271713Y0233532D01*
X0271631Y0232934D02*
X0272840Y0232934D01*
X0273198Y0232335D02*
X0272208Y0232335D01*
X0272142Y0232496D02*
X0269399Y0231360D01*
X0271026Y0227434D01*
X0272725Y0228138D01*
X0272997Y0228346D01*
X0273205Y0228618D01*
X0273336Y0228934D01*
X0273381Y0229273D01*
X0273336Y0229613D01*
X0272142Y0232496D01*
X0271754Y0232335D02*
X0270186Y0232335D01*
X0270309Y0231737D02*
X0269243Y0231737D01*
X0269170Y0231914D02*
X0269399Y0231360D01*
X0268845Y0231130D01*
X0270471Y0227204D01*
X0268772Y0226500D01*
X0268432Y0226455D01*
X0268093Y0226500D01*
X0267777Y0226631D01*
X0267505Y0226839D01*
X0267297Y0227111D01*
X0266102Y0229995D01*
X0268845Y0231131D01*
X0268615Y0231685D01*
X0266989Y0235611D01*
X0265289Y0234907D01*
X0265018Y0234699D01*
X0264809Y0234427D01*
X0264678Y0234111D01*
X0264634Y0233772D01*
X0264678Y0233432D01*
X0265873Y0230549D01*
X0268615Y0231685D01*
X0269170Y0231914D01*
X0268995Y0232335D02*
X0268346Y0232335D01*
X0268594Y0231737D02*
X0268741Y0231737D01*
X0268842Y0231138D02*
X0267296Y0231138D01*
X0267419Y0230540D02*
X0259532Y0230540D01*
X0259284Y0231138D02*
X0265629Y0231138D01*
X0265381Y0231737D02*
X0258773Y0231737D01*
X0257113Y0231737D02*
X0251353Y0231737D01*
X0250918Y0232335D02*
X0265133Y0232335D01*
X0264885Y0232934D02*
X0250483Y0232934D01*
X0250049Y0233532D02*
X0264665Y0233532D01*
X0264687Y0234131D02*
X0249614Y0234131D01*
X0249179Y0234729D02*
X0265057Y0234729D01*
X0266305Y0235328D02*
X0248744Y0235328D01*
X0248309Y0235926D02*
X0267750Y0235926D01*
X0267756Y0235328D02*
X0267106Y0235328D01*
X0267354Y0234729D02*
X0268004Y0234729D01*
X0268252Y0234131D02*
X0267602Y0234131D01*
X0267850Y0233532D02*
X0268499Y0233532D01*
X0268747Y0232934D02*
X0268098Y0232934D01*
X0268864Y0231138D02*
X0269491Y0231138D01*
X0269739Y0230540D02*
X0269090Y0230540D01*
X0269338Y0229941D02*
X0269987Y0229941D01*
X0270235Y0229343D02*
X0269585Y0229343D01*
X0269833Y0228744D02*
X0270483Y0228744D01*
X0270731Y0228146D02*
X0270081Y0228146D01*
X0270329Y0227547D02*
X0270979Y0227547D01*
X0271300Y0227547D02*
X0275451Y0227547D01*
X0275716Y0226949D02*
X0269855Y0226949D01*
X0267421Y0226949D02*
X0261020Y0226949D01*
X0260772Y0227547D02*
X0267116Y0227547D01*
X0266868Y0228146D02*
X0260524Y0228146D01*
X0260276Y0228744D02*
X0266620Y0228744D01*
X0266372Y0229343D02*
X0260028Y0229343D01*
X0259780Y0229941D02*
X0266124Y0229941D01*
X0262695Y0225153D02*
X0276511Y0225153D01*
X0276775Y0224555D02*
X0263527Y0224555D01*
X0264359Y0223956D02*
X0277040Y0223956D01*
X0277305Y0223358D02*
X0265190Y0223358D01*
X0266022Y0222759D02*
X0277570Y0222759D01*
X0277835Y0222161D02*
X0266854Y0222161D01*
X0267686Y0221562D02*
X0278099Y0221562D01*
X0278364Y0220964D02*
X0268571Y0220964D01*
X0268845Y0220365D02*
X0278628Y0220365D01*
X0278829Y0219767D02*
X0269067Y0219767D01*
X0269315Y0219168D02*
X0279030Y0219168D01*
X0279231Y0218570D02*
X0269562Y0218570D01*
X0269810Y0217971D02*
X0276903Y0217971D01*
X0277792Y0217971D02*
X0279432Y0217971D01*
X0279634Y0217373D02*
X0278623Y0217373D01*
X0278871Y0216774D02*
X0279835Y0216774D01*
X0280036Y0216176D02*
X0279118Y0216176D01*
X0282280Y0215149D02*
X0276841Y0212816D01*
X0273593Y0211387D02*
X0271994Y0211387D01*
X0272158Y0210789D02*
X0273841Y0210789D01*
X0274089Y0210190D02*
X0272323Y0210190D01*
X0272487Y0209592D02*
X0274337Y0209592D01*
X0274585Y0208993D02*
X0272652Y0208993D01*
X0272816Y0208395D02*
X0274833Y0208395D01*
X0275231Y0207796D02*
X0272981Y0207796D01*
X0269734Y0205402D02*
X0269694Y0205402D01*
X0269899Y0204804D02*
X0269446Y0204804D01*
X0270063Y0204205D02*
X0268494Y0204205D01*
X0267049Y0203607D02*
X0270208Y0203607D01*
X0270314Y0203008D02*
X0265604Y0203008D01*
X0263995Y0202410D02*
X0270420Y0202410D01*
X0270526Y0201811D02*
X0264122Y0201811D01*
X0264250Y0201213D02*
X0270632Y0201213D01*
X0270738Y0200614D02*
X0264377Y0200614D01*
X0264504Y0200016D02*
X0270844Y0200016D01*
X0270950Y0199417D02*
X0264631Y0199417D01*
X0264759Y0198819D02*
X0271056Y0198819D01*
X0271114Y0198220D02*
X0264886Y0198220D01*
X0265013Y0197622D02*
X0271482Y0197622D01*
X0272196Y0197023D02*
X0265097Y0197023D01*
X0265139Y0196425D02*
X0271926Y0196425D01*
X0273014Y0197023D02*
X0274835Y0197023D01*
X0275574Y0196425D02*
X0277593Y0196425D01*
X0277764Y0195826D02*
X0278767Y0195826D01*
X0278800Y0195228D02*
X0279942Y0195228D01*
X0279837Y0194629D02*
X0280648Y0194629D01*
X0280536Y0194031D02*
X0281294Y0194031D01*
X0281134Y0193432D02*
X0281940Y0193432D01*
X0281733Y0192834D02*
X0282442Y0192834D01*
X0282188Y0192235D02*
X0282808Y0192235D01*
X0282533Y0191637D02*
X0283173Y0191637D01*
X0282879Y0191038D02*
X0283538Y0191038D01*
X0283225Y0190440D02*
X0283849Y0190440D01*
X0284016Y0189841D02*
X0283451Y0189841D01*
X0283611Y0189243D02*
X0284184Y0189243D01*
X0284351Y0188644D02*
X0283772Y0188644D01*
X0283932Y0188046D02*
X0284518Y0188046D01*
X0284622Y0187447D02*
X0284050Y0187447D01*
X0284050Y0186849D02*
X0284661Y0186849D01*
X0284700Y0186250D02*
X0284050Y0186250D01*
X0284050Y0185651D02*
X0284683Y0185651D01*
X0284664Y0185053D02*
X0284050Y0185053D01*
X0283932Y0184454D02*
X0284646Y0184454D01*
X0284627Y0183856D02*
X0283772Y0183856D01*
X0283611Y0183257D02*
X0284609Y0183257D01*
X0284591Y0182659D02*
X0283451Y0182659D01*
X0283225Y0182060D02*
X0284572Y0182060D01*
X0284554Y0181462D02*
X0282879Y0181462D01*
X0282533Y0180863D02*
X0284535Y0180863D01*
X0284517Y0180265D02*
X0282188Y0180265D01*
X0281733Y0179666D02*
X0284450Y0179666D01*
X0284377Y0179068D02*
X0281134Y0179068D01*
X0280536Y0178469D02*
X0284303Y0178469D01*
X0284229Y0177871D02*
X0279837Y0177871D01*
X0278800Y0177272D02*
X0284155Y0177272D01*
X0284081Y0176674D02*
X0277764Y0176674D01*
X0275574Y0176075D02*
X0284007Y0176075D01*
X0283933Y0175477D02*
X0265097Y0175477D01*
X0265138Y0176075D02*
X0271926Y0176075D01*
X0269736Y0176674D02*
X0265180Y0176674D01*
X0265222Y0177272D02*
X0268700Y0177272D01*
X0267663Y0177871D02*
X0265264Y0177871D01*
X0265306Y0178469D02*
X0266964Y0178469D01*
X0266366Y0179068D02*
X0265348Y0179068D01*
X0265390Y0179666D02*
X0265767Y0179666D01*
X0265013Y0174878D02*
X0283859Y0174878D01*
X0283785Y0174280D02*
X0264886Y0174280D01*
X0264759Y0173681D02*
X0283711Y0173681D01*
X0283637Y0173083D02*
X0264631Y0173083D01*
X0264504Y0172484D02*
X0283563Y0172484D01*
X0283489Y0171886D02*
X0264377Y0171886D01*
X0264250Y0171287D02*
X0283415Y0171287D01*
X0283341Y0170689D02*
X0264122Y0170689D01*
X0263995Y0170090D02*
X0283267Y0170090D01*
X0283193Y0169492D02*
X0265787Y0169492D01*
X0267232Y0168893D02*
X0283119Y0168893D01*
X0283045Y0168295D02*
X0268677Y0168295D01*
X0269522Y0167696D02*
X0282914Y0167696D01*
X0282764Y0167098D02*
X0269770Y0167098D01*
X0269729Y0166499D02*
X0282614Y0166499D01*
X0282463Y0165901D02*
X0269482Y0165901D01*
X0269234Y0165302D02*
X0282313Y0165302D01*
X0282163Y0164704D02*
X0276824Y0164704D01*
X0276592Y0164800D02*
X0276252Y0164844D01*
X0275913Y0164800D01*
X0275597Y0164669D01*
X0275325Y0164460D01*
X0275117Y0164189D01*
X0273922Y0161305D01*
X0276665Y0160169D01*
X0276435Y0159615D01*
X0273693Y0160751D01*
X0272498Y0157867D01*
X0272454Y0157528D01*
X0272498Y0157189D01*
X0272629Y0156872D01*
X0272838Y0156601D01*
X0273109Y0156392D01*
X0274809Y0155688D01*
X0276435Y0159615D01*
X0276990Y0159385D01*
X0277219Y0159940D01*
X0276665Y0160169D01*
X0278291Y0164096D01*
X0276592Y0164800D01*
X0275681Y0164704D02*
X0268986Y0164704D01*
X0268738Y0164105D02*
X0275082Y0164105D01*
X0274834Y0163507D02*
X0268490Y0163507D01*
X0268242Y0162908D02*
X0274586Y0162908D01*
X0274338Y0162310D02*
X0267994Y0162310D01*
X0267746Y0161711D02*
X0274091Y0161711D01*
X0274387Y0161113D02*
X0267584Y0161113D01*
X0267681Y0160514D02*
X0273595Y0160514D01*
X0273347Y0159916D02*
X0267779Y0159916D01*
X0267877Y0159317D02*
X0273099Y0159317D01*
X0272851Y0158718D02*
X0267974Y0158718D01*
X0268072Y0158120D02*
X0272603Y0158120D01*
X0272455Y0157521D02*
X0268169Y0157521D01*
X0268267Y0156923D02*
X0272608Y0156923D01*
X0273273Y0156324D02*
X0268365Y0156324D01*
X0268462Y0155726D02*
X0274718Y0155726D01*
X0274824Y0155726D02*
X0275474Y0155726D01*
X0275363Y0155459D02*
X0277063Y0154755D01*
X0277402Y0154710D01*
X0277742Y0154755D01*
X0278058Y0154886D01*
X0278329Y0155094D01*
X0278538Y0155366D01*
X0279732Y0158249D01*
X0276990Y0159385D01*
X0275363Y0155459D01*
X0276163Y0155127D02*
X0268560Y0155127D01*
X0268658Y0154529D02*
X0279358Y0154529D01*
X0279127Y0153930D02*
X0268755Y0153930D01*
X0268853Y0153332D02*
X0278896Y0153332D01*
X0278664Y0152733D02*
X0269066Y0152733D01*
X0268895Y0152135D02*
X0278433Y0152135D01*
X0278202Y0151536D02*
X0268571Y0151536D01*
X0268323Y0150938D02*
X0277970Y0150938D01*
X0277739Y0150339D02*
X0268075Y0150339D01*
X0267827Y0149741D02*
X0277508Y0149741D01*
X0277276Y0149142D02*
X0267579Y0149142D01*
X0267331Y0148544D02*
X0277045Y0148544D01*
X0276814Y0147945D02*
X0267083Y0147945D01*
X0266835Y0147347D02*
X0276582Y0147347D01*
X0276351Y0146748D02*
X0266562Y0146748D01*
X0266221Y0146150D02*
X0267859Y0146150D01*
X0267180Y0145551D02*
X0265881Y0145551D01*
X0265541Y0144953D02*
X0266933Y0144953D01*
X0266685Y0144354D02*
X0265200Y0144354D01*
X0264860Y0143756D02*
X0266437Y0143756D01*
X0266189Y0143157D02*
X0264519Y0143157D01*
X0264179Y0142559D02*
X0265941Y0142559D01*
X0265693Y0141960D02*
X0263839Y0141960D01*
X0263498Y0141362D02*
X0265445Y0141362D01*
X0265197Y0140763D02*
X0263158Y0140763D01*
X0262818Y0140165D02*
X0264949Y0140165D01*
X0264701Y0139566D02*
X0262477Y0139566D01*
X0262137Y0138968D02*
X0264453Y0138968D01*
X0264547Y0138369D02*
X0261797Y0138369D01*
X0261456Y0137771D02*
X0264795Y0137771D01*
X0265965Y0137172D02*
X0261101Y0137172D01*
X0260654Y0136574D02*
X0267410Y0136574D01*
X0268855Y0135975D02*
X0260207Y0135975D01*
X0259760Y0135377D02*
X0284101Y0135377D01*
X0284439Y0135975D02*
X0270420Y0135975D01*
X0270970Y0136574D02*
X0284777Y0136574D01*
X0285115Y0137172D02*
X0275485Y0137172D01*
X0276122Y0137771D02*
X0285421Y0137771D01*
X0285323Y0137539D02*
X0279124Y0126563D01*
X0271715Y0116365D01*
X0263192Y0107079D01*
X0253666Y0098824D01*
X0243260Y0091709D01*
X0232112Y0085827D01*
X0220365Y0081253D01*
X0208174Y0078049D01*
X0195697Y0076255D01*
X0183097Y0075895D01*
X0170538Y0076974D01*
X0158184Y0079477D01*
X0146196Y0083372D01*
X0134730Y0088609D01*
X0123935Y0095118D01*
X0113953Y0102815D01*
X0104914Y0111600D01*
X0104069Y0112633D02*
X0115569Y0112633D01*
X0114942Y0113232D02*
X0103580Y0113232D01*
X0103090Y0113830D02*
X0114347Y0113830D01*
X0114089Y0114089D02*
X0114089Y0114089D01*
X0113749Y0114429D02*
X0102601Y0114429D01*
X0102112Y0115027D02*
X0113151Y0115027D01*
X0112552Y0115626D02*
X0101622Y0115626D01*
X0101133Y0116224D02*
X0111954Y0116224D01*
X0111355Y0116823D02*
X0100643Y0116823D01*
X0100154Y0117421D02*
X0110757Y0117421D01*
X0110158Y0118020D02*
X0099665Y0118020D01*
X0099175Y0118618D02*
X0109576Y0118618D01*
X0109635Y0118543D02*
X0109635Y0118543D01*
X0109110Y0119217D02*
X0098686Y0119217D01*
X0098196Y0119815D02*
X0108643Y0119815D01*
X0108176Y0120414D02*
X0097707Y0120414D01*
X0097218Y0121012D02*
X0107709Y0121012D01*
X0107242Y0121611D02*
X0096772Y0121611D01*
X0096388Y0122209D02*
X0106775Y0122209D01*
X0106308Y0122808D02*
X0096003Y0122808D01*
X0095618Y0123406D02*
X0105842Y0123406D01*
X0105375Y0124005D02*
X0095234Y0124005D01*
X0094849Y0124603D02*
X0104908Y0124603D01*
X0104441Y0125202D02*
X0094465Y0125202D01*
X0094080Y0125800D02*
X0103974Y0125800D01*
X0103507Y0126399D02*
X0093695Y0126399D01*
X0093311Y0126997D02*
X0103040Y0126997D01*
X0102574Y0127596D02*
X0092926Y0127596D01*
X0092541Y0128194D02*
X0102107Y0128194D01*
X0101697Y0128793D02*
X0092157Y0128793D01*
X0091772Y0129391D02*
X0101339Y0129391D01*
X0100981Y0129990D02*
X0091387Y0129990D01*
X0091003Y0130588D02*
X0100622Y0130588D01*
X0100264Y0131187D02*
X0090618Y0131187D01*
X0090234Y0131785D02*
X0099906Y0131785D01*
X0099547Y0132384D02*
X0089912Y0132384D01*
X0089618Y0132982D02*
X0099189Y0132982D01*
X0098831Y0133581D02*
X0089324Y0133581D01*
X0089030Y0134180D02*
X0098472Y0134180D01*
X0098114Y0134778D02*
X0088735Y0134778D01*
X0088441Y0135377D02*
X0097755Y0135377D01*
X0097397Y0135975D02*
X0088147Y0135975D01*
X0087853Y0136574D02*
X0097039Y0136574D01*
X0096680Y0137172D02*
X0087558Y0137172D01*
X0087264Y0137771D02*
X0096322Y0137771D01*
X0095964Y0138369D02*
X0086970Y0138369D01*
X0086676Y0138968D02*
X0095605Y0138968D01*
X0095417Y0139282D02*
X0095417Y0139282D01*
X0095291Y0139566D02*
X0086381Y0139566D01*
X0086087Y0140165D02*
X0095027Y0140165D01*
X0094762Y0140763D02*
X0085793Y0140763D01*
X0085498Y0141362D02*
X0094497Y0141362D01*
X0094232Y0141960D02*
X0085204Y0141960D01*
X0084910Y0142559D02*
X0093967Y0142559D01*
X0093702Y0143157D02*
X0084616Y0143157D01*
X0084386Y0143756D02*
X0093438Y0143756D01*
X0093173Y0144354D02*
X0084173Y0144354D01*
X0083959Y0144953D02*
X0092908Y0144953D01*
X0092643Y0145551D02*
X0083746Y0145551D01*
X0083532Y0146150D02*
X0092378Y0146150D01*
X0092114Y0146748D02*
X0083319Y0146748D01*
X0083105Y0147347D02*
X0091849Y0147347D01*
X0091584Y0147945D02*
X0082891Y0147945D01*
X0082678Y0148544D02*
X0091319Y0148544D01*
X0091054Y0149142D02*
X0082464Y0149142D01*
X0082251Y0149741D02*
X0090790Y0149741D01*
X0090525Y0150339D02*
X0082037Y0150339D01*
X0081824Y0150938D02*
X0090279Y0150938D01*
X0090098Y0151536D02*
X0081610Y0151536D01*
X0081397Y0152135D02*
X0089917Y0152135D01*
X0089736Y0152733D02*
X0081183Y0152733D01*
X0080970Y0153332D02*
X0089555Y0153332D01*
X0089374Y0153930D02*
X0080756Y0153930D01*
X0080542Y0154529D02*
X0089193Y0154529D01*
X0089012Y0155127D02*
X0080329Y0155127D01*
X0080187Y0155726D02*
X0088831Y0155726D01*
X0088650Y0156324D02*
X0080048Y0156324D01*
X0079909Y0156923D02*
X0088446Y0156923D01*
X0088289Y0157521D02*
X0079770Y0157521D01*
X0079631Y0158120D02*
X0088589Y0158120D01*
X0088842Y0158718D02*
X0079491Y0158718D01*
X0079352Y0159317D02*
X0090237Y0159317D01*
X0091632Y0159916D02*
X0079213Y0159916D01*
X0079074Y0160514D02*
X0091607Y0160514D01*
X0091359Y0161113D02*
X0078935Y0161113D01*
X0078796Y0161711D02*
X0091111Y0161711D01*
X0091145Y0162310D02*
X0078656Y0162310D01*
X0078517Y0162908D02*
X0091393Y0162908D01*
X0092418Y0163507D02*
X0078378Y0163507D01*
X0078239Y0164105D02*
X0093863Y0164105D01*
X0095308Y0164704D02*
X0078100Y0164704D01*
X0077960Y0165302D02*
X0099213Y0165302D01*
X0099070Y0165901D02*
X0077821Y0165901D01*
X0077682Y0166499D02*
X0098972Y0166499D01*
X0098875Y0167098D02*
X0077543Y0167098D01*
X0077436Y0167696D02*
X0098778Y0167696D01*
X0098681Y0168295D02*
X0077367Y0168295D01*
X0077298Y0168893D02*
X0096466Y0168893D01*
X0093321Y0169492D02*
X0077230Y0169492D01*
X0077161Y0170090D02*
X0091970Y0170090D01*
X0090774Y0170689D02*
X0077092Y0170689D01*
X0077024Y0171287D02*
X0089577Y0171287D01*
X0088719Y0171716D02*
X0088719Y0171716D01*
X0088533Y0171886D02*
X0076955Y0171886D01*
X0076886Y0172484D02*
X0087877Y0172484D01*
X0087221Y0173083D02*
X0076818Y0173083D01*
X0076749Y0173681D02*
X0086565Y0173681D01*
X0085908Y0174280D02*
X0076680Y0174280D01*
X0076612Y0174878D02*
X0085252Y0174878D01*
X0085123Y0174996D02*
X0085123Y0174996D01*
X0084824Y0175477D02*
X0076543Y0175477D01*
X0076474Y0176075D02*
X0084453Y0176075D01*
X0084081Y0176674D02*
X0076406Y0176674D01*
X0076337Y0177272D02*
X0083710Y0177272D01*
X0083338Y0177871D02*
X0076268Y0177871D01*
X0076200Y0178469D02*
X0082966Y0178469D01*
X0082595Y0179068D02*
X0076131Y0179068D01*
X0076062Y0179666D02*
X0082401Y0179666D01*
X0082555Y0179131D02*
X0082555Y0179131D01*
X0082229Y0180265D02*
X0076030Y0180265D01*
X0076030Y0180863D02*
X0082057Y0180863D01*
X0081885Y0181462D02*
X0076030Y0181462D01*
X0076030Y0182060D02*
X0081713Y0182060D01*
X0081541Y0182659D02*
X0076030Y0182659D01*
X0076030Y0183257D02*
X0081369Y0183257D01*
X0081210Y0183809D02*
X0081210Y0183809D01*
X0081210Y0183856D02*
X0076030Y0183856D01*
X0076030Y0184454D02*
X0081208Y0184454D01*
X0081205Y0185053D02*
X0076030Y0185053D01*
X0076030Y0185651D02*
X0081202Y0185651D01*
X0081199Y0186250D02*
X0076030Y0186250D01*
X0076030Y0186849D02*
X0081189Y0186849D01*
X0081178Y0187447D02*
X0076030Y0187447D01*
X0076030Y0188046D02*
X0081168Y0188046D01*
X0081158Y0188644D02*
X0076030Y0188644D01*
X0076030Y0189243D02*
X0081148Y0189243D01*
X0081138Y0189841D02*
X0076030Y0189841D01*
X0076030Y0190440D02*
X0081128Y0190440D01*
X0081118Y0191038D02*
X0076030Y0191038D01*
X0076030Y0191637D02*
X0081132Y0191637D01*
X0081112Y0191391D02*
X0081112Y0191391D01*
X0081181Y0192235D02*
X0076030Y0192235D01*
X0076062Y0192834D02*
X0081230Y0192834D01*
X0081278Y0193432D02*
X0076131Y0193432D01*
X0076200Y0194031D02*
X0081327Y0194031D01*
X0081376Y0194629D02*
X0076268Y0194629D01*
X0076337Y0195228D02*
X0081425Y0195228D01*
X0081474Y0195826D02*
X0076406Y0195826D01*
X0076474Y0196425D02*
X0081523Y0196425D01*
X0081572Y0197023D02*
X0076543Y0197023D01*
X0076612Y0197622D02*
X0081620Y0197622D01*
X0081669Y0198220D02*
X0076680Y0198220D01*
X0076749Y0198819D02*
X0081718Y0198819D01*
X0081767Y0199417D02*
X0076818Y0199417D01*
X0076886Y0200016D02*
X0081816Y0200016D01*
X0081865Y0200614D02*
X0076955Y0200614D01*
X0077024Y0201213D02*
X0081914Y0201213D01*
X0081953Y0201700D02*
X0081953Y0201700D01*
X0081974Y0201811D02*
X0077092Y0201811D01*
X0077161Y0202410D02*
X0082082Y0202410D01*
X0082191Y0203008D02*
X0077230Y0203008D01*
X0077298Y0203607D02*
X0082300Y0203607D01*
X0082409Y0204205D02*
X0077367Y0204205D01*
X0077436Y0204804D02*
X0082518Y0204804D01*
X0082626Y0205402D02*
X0077543Y0205402D01*
X0077682Y0206001D02*
X0082735Y0206001D01*
X0082844Y0206599D02*
X0077821Y0206599D01*
X0077960Y0207198D02*
X0082953Y0207198D01*
X0083062Y0207796D02*
X0078100Y0207796D01*
X0078239Y0208395D02*
X0083170Y0208395D01*
X0083279Y0208993D02*
X0078378Y0208993D01*
X0078517Y0209592D02*
X0083388Y0209592D01*
X0083497Y0210190D02*
X0078656Y0210190D01*
X0078795Y0210789D02*
X0083605Y0210789D01*
X0083714Y0211387D02*
X0078935Y0211387D01*
X0079074Y0211986D02*
X0083834Y0211986D01*
X0083803Y0211877D02*
X0083803Y0211877D01*
X0084005Y0212584D02*
X0079213Y0212584D01*
X0079352Y0213183D02*
X0084176Y0213183D01*
X0084347Y0213782D02*
X0079491Y0213782D01*
X0079631Y0214380D02*
X0084518Y0214380D01*
X0084689Y0214979D02*
X0079770Y0214979D01*
X0079909Y0215577D02*
X0084860Y0215577D01*
X0085031Y0216176D02*
X0080048Y0216176D01*
X0080187Y0216774D02*
X0085202Y0216774D01*
X0085373Y0217373D02*
X0080329Y0217373D01*
X0080542Y0217971D02*
X0085544Y0217971D01*
X0085714Y0218570D02*
X0080756Y0218570D01*
X0080970Y0219168D02*
X0085885Y0219168D01*
X0086056Y0219767D02*
X0081183Y0219767D01*
X0081397Y0220365D02*
X0086227Y0220365D01*
X0086398Y0220964D02*
X0081610Y0220964D01*
X0081824Y0221562D02*
X0086569Y0221562D01*
X0086644Y0221823D02*
X0086644Y0221823D01*
X0086777Y0222161D02*
X0082037Y0222161D01*
X0082251Y0222759D02*
X0087014Y0222759D01*
X0087250Y0223358D02*
X0082464Y0223358D01*
X0082678Y0223956D02*
X0087487Y0223956D01*
X0087724Y0224555D02*
X0082891Y0224555D01*
X0083105Y0225153D02*
X0087960Y0225153D01*
X0088197Y0225752D02*
X0083319Y0225752D01*
X0083532Y0226350D02*
X0088434Y0226350D01*
X0088670Y0226949D02*
X0083746Y0226949D01*
X0083959Y0227547D02*
X0088907Y0227547D01*
X0089144Y0228146D02*
X0084173Y0228146D01*
X0084386Y0228744D02*
X0089380Y0228744D01*
X0089617Y0229343D02*
X0084616Y0229343D01*
X0084910Y0229941D02*
X0089853Y0229941D01*
X0090090Y0230540D02*
X0085204Y0230540D01*
X0085498Y0231138D02*
X0090327Y0231138D01*
X0090447Y0231442D02*
X0090447Y0231442D01*
X0090598Y0231737D02*
X0085793Y0231737D01*
X0086087Y0232335D02*
X0090906Y0232335D01*
X0091214Y0232934D02*
X0086381Y0232934D01*
X0086676Y0233532D02*
X0091522Y0233532D01*
X0091829Y0234131D02*
X0086970Y0234131D01*
X0087264Y0234729D02*
X0092137Y0234729D01*
X0092445Y0235328D02*
X0087558Y0235328D01*
X0087853Y0235926D02*
X0092752Y0235926D01*
X0093003Y0236525D02*
X0088147Y0236525D01*
X0088441Y0237123D02*
X0094303Y0237123D01*
X0094644Y0237123D02*
X0125281Y0237123D01*
X0124778Y0236525D02*
X0103910Y0236525D01*
X0105355Y0235926D02*
X0124276Y0235926D01*
X0123774Y0235328D02*
X0106800Y0235328D01*
X0107739Y0234729D02*
X0123272Y0234729D01*
X0122770Y0234131D02*
X0107987Y0234131D01*
X0107984Y0233532D02*
X0122267Y0233532D01*
X0121787Y0232934D02*
X0107736Y0232934D01*
X0107488Y0232335D02*
X0121413Y0232335D01*
X0121039Y0231737D02*
X0115470Y0231737D01*
X0116915Y0231138D02*
X0120665Y0231138D01*
X0120291Y0230540D02*
X0118360Y0230540D01*
X0119365Y0229941D02*
X0119917Y0229941D01*
X0115063Y0226764D02*
X0111250Y0217250D01*
X0108394Y0216176D02*
X0099439Y0216176D01*
X0099376Y0216223D02*
X0097677Y0216927D01*
X0096050Y0213001D01*
X0095496Y0213231D01*
X0097122Y0217157D01*
X0095423Y0217861D01*
X0095083Y0217906D01*
X0094744Y0217861D01*
X0094428Y0217730D01*
X0094156Y0217522D01*
X0093948Y0217250D01*
X0092753Y0214366D01*
X0095496Y0213230D01*
X0095266Y0212676D01*
X0095821Y0212447D01*
X0096050Y0213001D01*
X0098793Y0211865D01*
X0099987Y0214748D01*
X0100032Y0215088D01*
X0099987Y0215427D01*
X0099856Y0215743D01*
X0099648Y0216015D01*
X0099376Y0216223D01*
X0099925Y0215577D02*
X0108642Y0215577D01*
X0109208Y0214979D02*
X0100018Y0214979D01*
X0099835Y0214380D02*
X0110209Y0214380D01*
X0111587Y0213782D02*
X0099587Y0213782D01*
X0099339Y0213183D02*
X0106207Y0213183D01*
X0105435Y0212584D02*
X0099091Y0212584D01*
X0098843Y0211986D02*
X0105187Y0211986D01*
X0104939Y0211387D02*
X0098378Y0211387D01*
X0098563Y0211311D02*
X0097369Y0208427D01*
X0097160Y0208155D01*
X0096889Y0207947D01*
X0096573Y0207816D01*
X0096233Y0207771D01*
X0095894Y0207816D01*
X0094194Y0208520D01*
X0095821Y0212447D01*
X0098563Y0211311D01*
X0098347Y0210789D02*
X0104692Y0210789D01*
X0104444Y0210190D02*
X0098099Y0210190D01*
X0097851Y0209592D02*
X0104196Y0209592D01*
X0103948Y0208993D02*
X0097603Y0208993D01*
X0097344Y0208395D02*
X0103700Y0208395D01*
X0103452Y0207796D02*
X0096423Y0207796D01*
X0096043Y0207796D02*
X0086845Y0207796D01*
X0086736Y0207198D02*
X0103204Y0207198D01*
X0102956Y0206599D02*
X0086628Y0206599D01*
X0086519Y0206001D02*
X0102708Y0206001D01*
X0102763Y0205402D02*
X0086410Y0205402D01*
X0086301Y0204804D02*
X0103011Y0204804D01*
X0103698Y0204205D02*
X0086192Y0204205D01*
X0086084Y0203607D02*
X0103461Y0203607D01*
X0103225Y0203008D02*
X0085975Y0203008D01*
X0085866Y0202410D02*
X0102988Y0202410D01*
X0102752Y0201811D02*
X0085757Y0201811D01*
X0085649Y0201213D02*
X0102515Y0201213D01*
X0102278Y0200614D02*
X0085600Y0200614D01*
X0085551Y0200016D02*
X0096033Y0200016D01*
X0093799Y0199417D02*
X0085502Y0199417D01*
X0085453Y0198819D02*
X0092520Y0198819D01*
X0091483Y0198220D02*
X0085404Y0198220D01*
X0085355Y0197622D02*
X0090446Y0197622D01*
X0089724Y0197023D02*
X0085307Y0197023D01*
X0085258Y0196425D02*
X0089126Y0196425D01*
X0088527Y0195826D02*
X0085209Y0195826D01*
X0085160Y0195228D02*
X0087929Y0195228D01*
X0087422Y0194629D02*
X0085111Y0194629D01*
X0085062Y0194031D02*
X0087076Y0194031D01*
X0086731Y0193432D02*
X0085013Y0193432D01*
X0084965Y0192834D02*
X0086385Y0192834D01*
X0086040Y0192235D02*
X0084916Y0192235D01*
X0084867Y0191637D02*
X0085699Y0191637D01*
X0085539Y0191038D02*
X0084835Y0191038D01*
X0084831Y0190440D02*
X0085379Y0190440D01*
X0085218Y0189841D02*
X0084826Y0189841D01*
X0084821Y0189243D02*
X0085058Y0189243D01*
X0084898Y0188644D02*
X0084817Y0188644D01*
X0083000Y0186250D02*
X0083006Y0185867D01*
X0083022Y0185484D01*
X0083047Y0185102D01*
X0083081Y0184721D01*
X0083125Y0184340D01*
X0083177Y0183961D01*
X0083239Y0183583D01*
X0083310Y0183207D01*
X0083391Y0182833D01*
X0083480Y0182460D01*
X0083578Y0182090D01*
X0083686Y0181723D01*
X0083802Y0181358D01*
X0083927Y0180996D01*
X0084061Y0180637D01*
X0084203Y0180282D01*
X0084354Y0179930D01*
X0084514Y0179582D01*
X0084682Y0179238D01*
X0084858Y0178898D01*
X0085043Y0178562D01*
X0085236Y0178231D01*
X0085436Y0177905D01*
X0085645Y0177584D01*
X0085861Y0177268D01*
X0086085Y0176957D01*
X0086317Y0176652D01*
X0086555Y0176353D01*
X0086801Y0176059D01*
X0087054Y0175772D01*
X0087314Y0175491D01*
X0087581Y0175216D01*
X0087854Y0174948D01*
X0088134Y0174686D01*
X0088420Y0174432D01*
X0088712Y0174184D01*
X0089010Y0173944D01*
X0089314Y0173711D01*
X0089624Y0173485D01*
X0089939Y0173267D01*
X0090259Y0173057D01*
X0090584Y0172854D01*
X0090913Y0172660D01*
X0091248Y0172474D01*
X0091587Y0172295D01*
X0091930Y0172126D01*
X0092277Y0171964D01*
X0092628Y0171811D01*
X0092983Y0171667D01*
X0093341Y0171531D01*
X0093702Y0171404D01*
X0094067Y0171286D01*
X0094434Y0171176D01*
X0094803Y0171076D01*
X0095175Y0170985D01*
X0095549Y0170902D01*
X0095925Y0170829D01*
X0096302Y0170765D01*
X0096681Y0170711D01*
X0097062Y0170665D01*
X0097443Y0170629D01*
X0097825Y0170602D01*
X0098207Y0170584D01*
X0098590Y0170576D01*
X0098973Y0170577D01*
X0099356Y0170587D01*
X0099738Y0170606D01*
X0100120Y0170635D01*
X0100118Y0170677D01*
X0099388Y0164704D02*
X0097222Y0164704D01*
X0097628Y0164105D02*
X0099564Y0164105D01*
X0099739Y0163507D02*
X0097876Y0163507D01*
X0098124Y0162908D02*
X0099915Y0162908D01*
X0100090Y0162310D02*
X0098372Y0162310D01*
X0098620Y0161711D02*
X0100265Y0161711D01*
X0100441Y0161113D02*
X0098868Y0161113D01*
X0099116Y0160514D02*
X0100616Y0160514D01*
X0100792Y0159916D02*
X0099364Y0159916D01*
X0099612Y0159317D02*
X0100967Y0159317D01*
X0101142Y0158718D02*
X0099859Y0158718D01*
X0100107Y0158120D02*
X0101318Y0158120D01*
X0101493Y0157521D02*
X0100355Y0157521D01*
X0100149Y0156923D02*
X0101669Y0156923D01*
X0101862Y0156324D02*
X0099901Y0156324D01*
X0098459Y0155726D02*
X0102122Y0155726D01*
X0102381Y0155127D02*
X0097014Y0155127D01*
X0095569Y0154529D02*
X0102641Y0154529D01*
X0102901Y0153930D02*
X0093269Y0153930D01*
X0093470Y0153332D02*
X0103160Y0153332D01*
X0103420Y0152733D02*
X0093671Y0152733D01*
X0093872Y0152135D02*
X0103655Y0152135D01*
X0103939Y0151536D02*
X0094136Y0151536D01*
X0094401Y0150938D02*
X0104814Y0150938D01*
X0105646Y0150339D02*
X0094665Y0150339D01*
X0094930Y0149741D02*
X0106478Y0149741D01*
X0107310Y0149142D02*
X0095195Y0149142D01*
X0095460Y0148544D02*
X0108141Y0148544D01*
X0108973Y0147945D02*
X0095725Y0147945D01*
X0095989Y0147347D02*
X0109805Y0147347D01*
X0110637Y0146748D02*
X0096254Y0146748D01*
X0096519Y0146150D02*
X0111193Y0146150D01*
X0111441Y0145551D02*
X0105038Y0145551D01*
X0104957Y0145657D02*
X0104686Y0145865D01*
X0104370Y0145996D01*
X0104030Y0146041D01*
X0103691Y0145996D01*
X0101991Y0145292D01*
X0103618Y0141366D01*
X0106360Y0142502D01*
X0105166Y0145385D01*
X0104957Y0145657D01*
X0105345Y0144953D02*
X0111689Y0144953D01*
X0111937Y0144354D02*
X0105593Y0144354D01*
X0105841Y0143756D02*
X0112185Y0143756D01*
X0112433Y0143157D02*
X0106089Y0143157D01*
X0106337Y0142559D02*
X0112681Y0142559D01*
X0112929Y0141960D02*
X0105053Y0141960D01*
X0105176Y0141362D02*
X0103619Y0141362D01*
X0103618Y0141366D02*
X0103847Y0140811D01*
X0105474Y0136885D01*
X0107173Y0137589D01*
X0107445Y0137797D01*
X0107653Y0138069D01*
X0107784Y0138385D01*
X0107829Y0138724D01*
X0107784Y0139064D01*
X0106590Y0141947D01*
X0103847Y0140811D01*
X0103293Y0140582D01*
X0104919Y0136655D01*
X0103220Y0135951D01*
X0102880Y0135907D01*
X0102541Y0135951D01*
X0102225Y0136082D01*
X0101953Y0136291D01*
X0101745Y0136562D01*
X0100550Y0139446D01*
X0103293Y0140582D01*
X0103063Y0141136D01*
X0100321Y0140000D01*
X0099126Y0142884D01*
X0099082Y0143223D01*
X0099126Y0143562D01*
X0099257Y0143879D01*
X0099466Y0144150D01*
X0099737Y0144359D01*
X0101437Y0145063D01*
X0103063Y0141136D01*
X0103618Y0141366D01*
X0103608Y0141362D02*
X0102970Y0141362D01*
X0102722Y0141960D02*
X0103371Y0141960D01*
X0103123Y0142559D02*
X0102474Y0142559D01*
X0102226Y0143157D02*
X0102876Y0143157D01*
X0102628Y0143756D02*
X0101978Y0143756D01*
X0101730Y0144354D02*
X0102380Y0144354D01*
X0102132Y0144953D02*
X0101482Y0144953D01*
X0101172Y0144953D02*
X0097049Y0144953D01*
X0096784Y0145551D02*
X0102617Y0145551D01*
X0099732Y0144354D02*
X0097313Y0144354D01*
X0097578Y0143756D02*
X0099206Y0143756D01*
X0099090Y0143157D02*
X0097843Y0143157D01*
X0098108Y0142559D02*
X0099261Y0142559D01*
X0099509Y0141960D02*
X0098373Y0141960D01*
X0098637Y0141362D02*
X0099757Y0141362D01*
X0100005Y0140763D02*
X0098944Y0140763D01*
X0099302Y0140165D02*
X0100253Y0140165D01*
X0100718Y0140165D02*
X0102286Y0140165D01*
X0102163Y0140763D02*
X0103218Y0140763D01*
X0103731Y0140763D02*
X0103867Y0140763D01*
X0104115Y0140165D02*
X0103466Y0140165D01*
X0103714Y0139566D02*
X0104363Y0139566D01*
X0104611Y0138968D02*
X0103962Y0138968D01*
X0104209Y0138369D02*
X0104859Y0138369D01*
X0105107Y0137771D02*
X0104457Y0137771D01*
X0104705Y0137172D02*
X0105355Y0137172D01*
X0106167Y0137172D02*
X0123774Y0137172D01*
X0124276Y0136574D02*
X0104722Y0136574D01*
X0103277Y0135975D02*
X0124778Y0135975D01*
X0125281Y0135377D02*
X0102169Y0135377D01*
X0102484Y0135975D02*
X0101810Y0135975D01*
X0101740Y0136574D02*
X0101452Y0136574D01*
X0101492Y0137172D02*
X0101094Y0137172D01*
X0101244Y0137771D02*
X0100735Y0137771D01*
X0100996Y0138369D02*
X0100377Y0138369D01*
X0100019Y0138968D02*
X0100748Y0138968D01*
X0100841Y0139566D02*
X0099660Y0139566D01*
X0102527Y0134778D02*
X0125783Y0134778D01*
X0126285Y0134180D02*
X0102886Y0134180D01*
X0103244Y0133581D02*
X0126787Y0133581D01*
X0127289Y0132982D02*
X0103602Y0132982D01*
X0103961Y0132384D02*
X0127792Y0132384D01*
X0128294Y0131785D02*
X0104319Y0131785D01*
X0104677Y0131187D02*
X0128796Y0131187D01*
X0128991Y0130955D02*
X0128991Y0130955D01*
X0128991Y0130955D01*
X0129398Y0130588D02*
X0105041Y0130588D01*
X0105508Y0129990D02*
X0130063Y0129990D01*
X0130727Y0129391D02*
X0105975Y0129391D01*
X0106442Y0128793D02*
X0131392Y0128793D01*
X0132057Y0128194D02*
X0106909Y0128194D01*
X0107376Y0127596D02*
X0132721Y0127596D01*
X0133386Y0126997D02*
X0107843Y0126997D01*
X0108309Y0126399D02*
X0134051Y0126399D01*
X0134716Y0125800D02*
X0108776Y0125800D01*
X0109243Y0125202D02*
X0135380Y0125202D01*
X0136045Y0124603D02*
X0109710Y0124603D01*
X0110177Y0124005D02*
X0136710Y0124005D01*
X0137418Y0123406D02*
X0110644Y0123406D01*
X0111111Y0122808D02*
X0138306Y0122808D01*
X0139193Y0122209D02*
X0111577Y0122209D01*
X0112044Y0121611D02*
X0140080Y0121611D01*
X0140968Y0121012D02*
X0112518Y0121012D01*
X0113081Y0120414D02*
X0141855Y0120414D01*
X0142742Y0119815D02*
X0113644Y0119815D01*
X0114207Y0119217D02*
X0142322Y0119217D01*
X0142074Y0118618D02*
X0114769Y0118618D01*
X0115332Y0118020D02*
X0141826Y0118020D01*
X0141579Y0117421D02*
X0135134Y0117421D01*
X0135990Y0116823D02*
X0141331Y0116823D01*
X0141083Y0116224D02*
X0136846Y0116224D01*
X0137702Y0115626D02*
X0140835Y0115626D01*
X0140587Y0115027D02*
X0138558Y0115027D01*
X0139435Y0114429D02*
X0140447Y0114429D01*
X0140488Y0113830D02*
X0140695Y0113830D01*
X0139186Y0110239D02*
X0127827Y0110239D01*
X0129670Y0110838D02*
X0138133Y0110838D01*
X0137256Y0111336D02*
X0137256Y0111336D01*
X0137123Y0111436D02*
X0131076Y0111436D01*
X0131971Y0112035D02*
X0136321Y0112035D01*
X0135519Y0112633D02*
X0132865Y0112633D01*
X0133760Y0113232D02*
X0134717Y0113232D01*
X0133988Y0113384D02*
X0133988Y0113384D01*
X0133914Y0116073D02*
X0133882Y0116101D01*
X0132621Y0117421D02*
X0115895Y0117421D01*
X0116458Y0116823D02*
X0132114Y0116823D01*
X0131549Y0116224D02*
X0117103Y0116224D01*
X0117801Y0115626D02*
X0130680Y0115626D01*
X0129785Y0115027D02*
X0118863Y0115027D01*
X0119926Y0114429D02*
X0128740Y0114429D01*
X0126897Y0113830D02*
X0121838Y0113830D01*
X0111857Y0104852D02*
X0136372Y0104852D01*
X0136125Y0104254D02*
X0112473Y0104254D01*
X0113089Y0103655D02*
X0135877Y0103655D01*
X0135629Y0103057D02*
X0113705Y0103057D01*
X0114416Y0102458D02*
X0135763Y0102458D01*
X0136011Y0101860D02*
X0115192Y0101860D01*
X0115968Y0101261D02*
X0137279Y0101261D01*
X0137820Y0100663D02*
X0116745Y0100663D01*
X0117521Y0100064D02*
X0137560Y0100064D01*
X0137299Y0099466D02*
X0118297Y0099466D01*
X0119073Y0098867D02*
X0137039Y0098867D01*
X0136778Y0098269D02*
X0119849Y0098269D01*
X0120625Y0097670D02*
X0136518Y0097670D01*
X0136258Y0097072D02*
X0121402Y0097072D01*
X0122178Y0096473D02*
X0135997Y0096473D01*
X0135737Y0095875D02*
X0122954Y0095875D01*
X0123730Y0095276D02*
X0135434Y0095276D01*
X0135439Y0094678D02*
X0124665Y0094678D01*
X0125658Y0094079D02*
X0135653Y0094079D01*
X0136060Y0093481D02*
X0126650Y0093481D01*
X0127643Y0092882D02*
X0137259Y0092882D01*
X0138377Y0092284D02*
X0128635Y0092284D01*
X0129628Y0091685D02*
X0139494Y0091685D01*
X0140611Y0091087D02*
X0130620Y0091087D01*
X0131613Y0090488D02*
X0141728Y0090488D01*
X0141983Y0090352D02*
X0141983Y0090352D01*
X0143178Y0089890D02*
X0132605Y0089890D01*
X0133598Y0089291D02*
X0144727Y0089291D01*
X0146275Y0088693D02*
X0134591Y0088693D01*
X0135856Y0088094D02*
X0147824Y0088094D01*
X0149372Y0087496D02*
X0137167Y0087496D01*
X0138478Y0086897D02*
X0150920Y0086897D01*
X0152469Y0086299D02*
X0139788Y0086299D01*
X0141099Y0085700D02*
X0154171Y0085700D01*
X0153733Y0085810D02*
X0153733Y0085810D01*
X0156556Y0085102D02*
X0142409Y0085102D01*
X0143720Y0084503D02*
X0158940Y0084503D01*
X0161325Y0083905D02*
X0145030Y0083905D01*
X0146400Y0083306D02*
X0163710Y0083306D01*
X0166244Y0082708D02*
X0148242Y0082708D01*
X0150084Y0082109D02*
X0171087Y0082109D01*
X0172901Y0085700D02*
X0180861Y0085700D01*
X0179816Y0086299D02*
X0168058Y0086299D01*
X0164956Y0086897D02*
X0178780Y0086897D01*
X0177743Y0087496D02*
X0162572Y0087496D01*
X0160187Y0088094D02*
X0177107Y0088094D01*
X0176508Y0088693D02*
X0157802Y0088693D01*
X0155417Y0089291D02*
X0175910Y0089291D01*
X0175311Y0089890D02*
X0153681Y0089890D01*
X0152132Y0090488D02*
X0174854Y0090488D01*
X0174509Y0091087D02*
X0150584Y0091087D01*
X0149035Y0091685D02*
X0160920Y0091685D01*
X0161608Y0091400D02*
X0161947Y0091356D01*
X0162287Y0091400D01*
X0162603Y0091531D01*
X0162875Y0091740D01*
X0163083Y0092011D01*
X0163787Y0093711D01*
X0159860Y0095337D01*
X0158724Y0092595D01*
X0161608Y0091400D01*
X0162803Y0091685D02*
X0174163Y0091685D01*
X0173817Y0092284D02*
X0163196Y0092284D01*
X0163444Y0092882D02*
X0173472Y0092882D01*
X0173168Y0093481D02*
X0163692Y0093481D01*
X0164016Y0094265D02*
X0160090Y0095892D01*
X0159536Y0096121D01*
X0160672Y0098864D01*
X0157788Y0100058D01*
X0157449Y0100103D01*
X0157109Y0100058D01*
X0156793Y0099927D01*
X0156522Y0099719D01*
X0156313Y0099447D01*
X0155609Y0097748D01*
X0159536Y0096121D01*
X0159306Y0095567D01*
X0155380Y0097193D01*
X0154676Y0095494D01*
X0154631Y0095154D01*
X0154676Y0094815D01*
X0154807Y0094499D01*
X0155015Y0094227D01*
X0155287Y0094019D01*
X0158170Y0092824D01*
X0159306Y0095567D01*
X0159860Y0095337D01*
X0160090Y0095892D01*
X0161226Y0098634D01*
X0164110Y0097440D01*
X0164381Y0097231D01*
X0164590Y0096960D01*
X0164721Y0096644D01*
X0164765Y0096304D01*
X0164721Y0095965D01*
X0164016Y0094265D01*
X0164187Y0094678D02*
X0172847Y0094678D01*
X0172687Y0095276D02*
X0164435Y0095276D01*
X0164683Y0095875D02*
X0172527Y0095875D01*
X0172366Y0096473D02*
X0164743Y0096473D01*
X0164504Y0097072D02*
X0172250Y0097072D01*
X0172250Y0097670D02*
X0163553Y0097670D01*
X0162108Y0098269D02*
X0172250Y0098269D01*
X0172250Y0098867D02*
X0160663Y0098867D01*
X0160425Y0098269D02*
X0161075Y0098269D01*
X0160827Y0097670D02*
X0160177Y0097670D01*
X0159929Y0097072D02*
X0160579Y0097072D01*
X0160331Y0096473D02*
X0159682Y0096473D01*
X0159434Y0095875D02*
X0158563Y0095875D01*
X0158686Y0096473D02*
X0157118Y0096473D01*
X0157241Y0097072D02*
X0155673Y0097072D01*
X0155329Y0097072D02*
X0140184Y0097072D01*
X0140444Y0097670D02*
X0155796Y0097670D01*
X0155825Y0098269D02*
X0140704Y0098269D01*
X0140965Y0098867D02*
X0143059Y0098867D01*
X0143343Y0098867D02*
X0156073Y0098867D01*
X0156327Y0099466D02*
X0144424Y0099466D01*
X0144672Y0100064D02*
X0157156Y0100064D01*
X0157742Y0100064D02*
X0172250Y0100064D01*
X0172250Y0099466D02*
X0159218Y0099466D01*
X0160083Y0095875D02*
X0160131Y0095875D01*
X0160008Y0095276D02*
X0161576Y0095276D01*
X0161453Y0094678D02*
X0163021Y0094678D01*
X0162898Y0094079D02*
X0173008Y0094079D01*
X0172269Y0100663D02*
X0144920Y0100663D01*
X0145168Y0101261D02*
X0172429Y0101261D01*
X0172589Y0101860D02*
X0145416Y0101860D01*
X0145663Y0102458D02*
X0172750Y0102458D01*
X0172910Y0103057D02*
X0167672Y0103057D01*
X0168122Y0103655D02*
X0173071Y0103655D01*
X0173262Y0104254D02*
X0168370Y0104254D01*
X0168618Y0104852D02*
X0173607Y0104852D01*
X0173953Y0105451D02*
X0168866Y0105451D01*
X0169114Y0106049D02*
X0174299Y0106049D01*
X0174644Y0106648D02*
X0169362Y0106648D01*
X0169610Y0107247D02*
X0174990Y0107247D01*
X0173625Y0107845D02*
X0169858Y0107845D01*
X0169692Y0108444D02*
X0170231Y0108444D01*
X0164527Y0107297D02*
X0152754Y0105377D01*
X0153383Y0103655D02*
X0164420Y0103655D01*
X0162976Y0104254D02*
X0157052Y0104254D01*
X0160721Y0104852D02*
X0161531Y0104852D01*
X0165865Y0103057D02*
X0145911Y0103057D01*
X0146159Y0103655D02*
X0152064Y0103655D01*
X0150752Y0104254D02*
X0146254Y0104254D01*
X0146006Y0104852D02*
X0149308Y0104852D01*
X0147863Y0105451D02*
X0145292Y0105451D01*
X0145500Y0106648D02*
X0142402Y0106648D01*
X0143396Y0107845D02*
X0139512Y0107845D01*
X0140957Y0107247D02*
X0144448Y0107247D01*
X0143847Y0106049D02*
X0146553Y0106049D01*
X0142343Y0108444D02*
X0108162Y0108444D01*
X0107546Y0109042D02*
X0141291Y0109042D01*
X0137892Y0107845D02*
X0108778Y0107845D01*
X0109394Y0107247D02*
X0137364Y0107247D01*
X0137116Y0106648D02*
X0110010Y0106648D01*
X0110625Y0106049D02*
X0136868Y0106049D01*
X0136620Y0105451D02*
X0111241Y0105451D01*
X0115363Y0115363D02*
X0115582Y0115148D01*
X0115806Y0114938D01*
X0116035Y0114734D01*
X0116269Y0114536D01*
X0116507Y0114343D01*
X0116751Y0114156D01*
X0116998Y0113975D01*
X0117250Y0113800D01*
X0117507Y0113632D01*
X0117767Y0113469D01*
X0118031Y0113313D01*
X0118299Y0113164D01*
X0118571Y0113021D01*
X0118845Y0112885D01*
X0119124Y0112755D01*
X0119405Y0112632D01*
X0119689Y0112516D01*
X0119976Y0112408D01*
X0120265Y0112306D01*
X0120557Y0112211D01*
X0120851Y0112123D01*
X0121147Y0112042D01*
X0121445Y0111969D01*
X0121744Y0111903D01*
X0122045Y0111844D01*
X0122348Y0111793D01*
X0122651Y0111749D01*
X0122956Y0111712D01*
X0123261Y0111683D01*
X0123567Y0111661D01*
X0123874Y0111647D01*
X0124181Y0111640D01*
X0124487Y0111640D01*
X0124794Y0111648D01*
X0125100Y0111664D01*
X0125406Y0111687D01*
X0125712Y0111717D01*
X0126016Y0111755D01*
X0126320Y0111800D01*
X0126622Y0111852D01*
X0126923Y0111912D01*
X0127222Y0111980D01*
X0127520Y0112054D01*
X0127815Y0112136D01*
X0128109Y0112224D01*
X0128401Y0112320D01*
X0128690Y0112423D01*
X0128976Y0112533D01*
X0129260Y0112650D01*
X0129540Y0112774D01*
X0129818Y0112905D01*
X0130092Y0113042D01*
X0130363Y0113186D01*
X0130631Y0113336D01*
X0130894Y0113493D01*
X0131154Y0113657D01*
X0131410Y0113826D01*
X0131661Y0114002D01*
X0131908Y0114184D01*
X0132151Y0114371D01*
X0132389Y0114565D01*
X0132622Y0114764D01*
X0132850Y0114969D01*
X0133074Y0115180D01*
X0133292Y0115396D01*
X0133504Y0115617D01*
X0133712Y0115843D01*
X0133913Y0116074D01*
X0145773Y0115134D02*
X0155250Y0111250D01*
X0141614Y0099466D02*
X0141225Y0099466D01*
X0139923Y0096473D02*
X0155081Y0096473D01*
X0154833Y0095875D02*
X0139663Y0095875D01*
X0140593Y0095276D02*
X0154647Y0095276D01*
X0154732Y0094678D02*
X0141798Y0094678D01*
X0143002Y0094079D02*
X0155208Y0094079D01*
X0156586Y0093481D02*
X0144390Y0093481D01*
X0145939Y0092882D02*
X0158031Y0092882D01*
X0158194Y0092882D02*
X0158843Y0092882D01*
X0159091Y0093481D02*
X0158442Y0093481D01*
X0158690Y0094079D02*
X0159339Y0094079D01*
X0159587Y0094678D02*
X0158938Y0094678D01*
X0159186Y0095276D02*
X0159835Y0095276D01*
X0159476Y0092284D02*
X0147487Y0092284D01*
X0137281Y0094912D02*
X0140977Y0103407D01*
X0151926Y0081511D02*
X0175930Y0081511D01*
X0177745Y0085102D02*
X0183095Y0085102D01*
X0188940Y0081511D02*
X0221026Y0081511D01*
X0222563Y0082109D02*
X0191449Y0082109D01*
X0192129Y0082271D02*
X0192129Y0082271D01*
X0192909Y0082708D02*
X0224101Y0082708D01*
X0225638Y0083306D02*
X0193979Y0083306D01*
X0195050Y0083905D02*
X0227175Y0083905D01*
X0228712Y0084503D02*
X0196120Y0084503D01*
X0196907Y0085102D02*
X0230250Y0085102D01*
X0231787Y0085700D02*
X0197505Y0085700D01*
X0198103Y0086299D02*
X0233006Y0086299D01*
X0234141Y0086897D02*
X0198702Y0086897D01*
X0199300Y0087496D02*
X0235275Y0087496D01*
X0236409Y0088094D02*
X0199898Y0088094D01*
X0200333Y0088693D02*
X0214121Y0088693D01*
X0213549Y0089291D02*
X0200668Y0089291D01*
X0201002Y0089890D02*
X0213332Y0089890D01*
X0213075Y0090488D02*
X0201337Y0090488D01*
X0201671Y0091087D02*
X0210335Y0091087D01*
X0210718Y0091087D02*
X0212818Y0091087D01*
X0212562Y0091685D02*
X0212163Y0091685D01*
X0209295Y0091685D02*
X0202006Y0091685D01*
X0202340Y0092284D02*
X0209047Y0092284D01*
X0208799Y0092882D02*
X0202629Y0092882D01*
X0202596Y0092742D02*
X0202596Y0092742D01*
X0202772Y0093481D02*
X0208551Y0093481D01*
X0208303Y0094079D02*
X0202915Y0094079D01*
X0203057Y0094678D02*
X0208055Y0094678D01*
X0207807Y0095276D02*
X0203200Y0095276D01*
X0203342Y0095875D02*
X0207559Y0095875D01*
X0207481Y0096473D02*
X0203485Y0096473D01*
X0203628Y0097072D02*
X0207729Y0097072D01*
X0208485Y0097670D02*
X0203769Y0097670D01*
X0203744Y0098269D02*
X0209930Y0098269D01*
X0211375Y0098867D02*
X0205354Y0098867D01*
X0206845Y0099109D02*
X0206845Y0099109D01*
X0208061Y0099466D02*
X0212820Y0099466D01*
X0212145Y0100663D02*
X0227755Y0100663D01*
X0227508Y0101261D02*
X0214187Y0101261D01*
X0214265Y0100064D02*
X0210103Y0100064D01*
X0212816Y0095659D02*
X0215149Y0090220D01*
X0216315Y0088693D02*
X0237544Y0088693D01*
X0238678Y0089291D02*
X0218295Y0089291D01*
X0220274Y0089890D02*
X0239812Y0089890D01*
X0240946Y0090488D02*
X0222078Y0090488D01*
X0223431Y0091087D02*
X0242081Y0091087D01*
X0243215Y0091685D02*
X0224783Y0091685D01*
X0226136Y0092284D02*
X0244101Y0092284D01*
X0244976Y0092882D02*
X0227489Y0092882D01*
X0228842Y0093481D02*
X0245851Y0093481D01*
X0246727Y0094079D02*
X0230194Y0094079D01*
X0231547Y0094678D02*
X0247602Y0094678D01*
X0248477Y0095276D02*
X0232900Y0095276D01*
X0233218Y0095417D02*
X0233218Y0095417D01*
X0233982Y0095875D02*
X0249352Y0095875D01*
X0250228Y0096473D02*
X0234982Y0096473D01*
X0235982Y0097072D02*
X0251103Y0097072D01*
X0251978Y0097670D02*
X0236981Y0097670D01*
X0237981Y0098269D02*
X0252854Y0098269D01*
X0253716Y0098867D02*
X0238980Y0098867D01*
X0239980Y0099466D02*
X0254406Y0099466D01*
X0255097Y0100064D02*
X0240980Y0100064D01*
X0241979Y0100663D02*
X0255788Y0100663D01*
X0256478Y0101261D02*
X0242979Y0101261D01*
X0243978Y0101860D02*
X0257169Y0101860D01*
X0257860Y0102458D02*
X0244757Y0102458D01*
X0245524Y0103057D02*
X0258551Y0103057D01*
X0259241Y0103655D02*
X0246291Y0103655D01*
X0247058Y0104254D02*
X0259932Y0104254D01*
X0260623Y0104852D02*
X0247826Y0104852D01*
X0248593Y0105451D02*
X0261313Y0105451D01*
X0262004Y0106049D02*
X0249360Y0106049D01*
X0250127Y0106648D02*
X0262695Y0106648D01*
X0263346Y0107247D02*
X0250895Y0107247D01*
X0251662Y0107845D02*
X0263895Y0107845D01*
X0264445Y0108444D02*
X0252429Y0108444D01*
X0253197Y0109042D02*
X0264994Y0109042D01*
X0265543Y0109641D02*
X0253962Y0109641D01*
X0254561Y0110239D02*
X0266093Y0110239D01*
X0266642Y0110838D02*
X0255160Y0110838D01*
X0255758Y0111436D02*
X0267191Y0111436D01*
X0267740Y0112035D02*
X0256357Y0112035D01*
X0256955Y0112633D02*
X0268290Y0112633D01*
X0268839Y0113232D02*
X0257554Y0113232D01*
X0258152Y0113830D02*
X0269388Y0113830D01*
X0269938Y0114429D02*
X0258752Y0114429D01*
X0259354Y0115027D02*
X0270487Y0115027D01*
X0271036Y0115626D02*
X0259899Y0115626D01*
X0260236Y0116224D02*
X0271586Y0116224D01*
X0272047Y0116823D02*
X0260573Y0116823D01*
X0260910Y0117421D02*
X0272482Y0117421D01*
X0272917Y0118020D02*
X0261247Y0118020D01*
X0261584Y0118618D02*
X0273352Y0118618D01*
X0273787Y0119217D02*
X0261845Y0119217D01*
X0261990Y0119815D02*
X0274222Y0119815D01*
X0274657Y0120414D02*
X0262135Y0120414D01*
X0262279Y0121012D02*
X0275091Y0121012D01*
X0275526Y0121611D02*
X0262424Y0121611D01*
X0262569Y0122209D02*
X0275961Y0122209D01*
X0276396Y0122808D02*
X0262714Y0122808D01*
X0262728Y0122865D02*
X0262728Y0122865D01*
X0262707Y0123406D02*
X0276831Y0123406D01*
X0277266Y0124005D02*
X0262684Y0124005D01*
X0262661Y0124603D02*
X0277700Y0124603D01*
X0278135Y0125202D02*
X0262638Y0125202D01*
X0262615Y0125800D02*
X0278570Y0125800D01*
X0279005Y0126399D02*
X0262592Y0126399D01*
X0262575Y0126861D02*
X0262575Y0126861D01*
X0262530Y0126997D02*
X0279370Y0126997D01*
X0279708Y0127596D02*
X0262336Y0127596D01*
X0262142Y0128194D02*
X0280046Y0128194D01*
X0280384Y0128793D02*
X0261947Y0128793D01*
X0261753Y0129391D02*
X0280722Y0129391D01*
X0281060Y0129990D02*
X0261558Y0129990D01*
X0261364Y0130588D02*
X0281398Y0130588D01*
X0281736Y0131187D02*
X0260990Y0131187D01*
X0261340Y0130664D02*
X0261340Y0130664D01*
X0260589Y0131785D02*
X0282074Y0131785D01*
X0282412Y0132384D02*
X0260189Y0132384D01*
X0259788Y0132982D02*
X0282750Y0132982D01*
X0283088Y0133581D02*
X0259388Y0133581D01*
X0259116Y0133988D02*
X0259116Y0133988D01*
X0258891Y0134180D02*
X0283425Y0134180D01*
X0283763Y0134778D02*
X0259314Y0134778D01*
X0256427Y0133914D02*
X0256399Y0133882D01*
X0254613Y0133581D02*
X0245776Y0133581D01*
X0246354Y0134180D02*
X0254537Y0134180D01*
X0254786Y0134778D02*
X0246932Y0134778D01*
X0247440Y0135377D02*
X0255248Y0135377D01*
X0255667Y0135975D02*
X0247874Y0135975D01*
X0248309Y0136574D02*
X0256085Y0136574D01*
X0256504Y0137172D02*
X0248744Y0137172D01*
X0249179Y0137771D02*
X0256922Y0137771D01*
X0257341Y0138369D02*
X0249614Y0138369D01*
X0250049Y0138968D02*
X0257759Y0138968D01*
X0258146Y0139566D02*
X0250483Y0139566D01*
X0250918Y0140165D02*
X0258486Y0140165D01*
X0258700Y0140763D02*
X0258827Y0140763D01*
X0257295Y0140763D02*
X0251353Y0140763D01*
X0251788Y0141362D02*
X0255850Y0141362D01*
X0254405Y0141960D02*
X0252223Y0141960D01*
X0252658Y0142559D02*
X0253169Y0142559D01*
X0257423Y0145852D02*
X0261250Y0155250D01*
X0267123Y0152754D02*
X0265203Y0164527D01*
X0274265Y0160514D02*
X0275832Y0160514D01*
X0275710Y0159916D02*
X0276560Y0159916D01*
X0276808Y0160514D02*
X0277457Y0160514D01*
X0277219Y0159940D02*
X0278846Y0163866D01*
X0280545Y0163162D01*
X0280817Y0162954D01*
X0281025Y0162682D01*
X0281156Y0162366D01*
X0281201Y0162026D01*
X0281156Y0161687D01*
X0279962Y0158804D01*
X0277219Y0159940D01*
X0277209Y0159916D02*
X0277277Y0159916D01*
X0277154Y0159317D02*
X0278722Y0159317D01*
X0278599Y0158718D02*
X0280661Y0158718D01*
X0280511Y0158120D02*
X0279679Y0158120D01*
X0279431Y0157521D02*
X0280360Y0157521D01*
X0280210Y0156923D02*
X0279183Y0156923D01*
X0278935Y0156324D02*
X0280052Y0156324D01*
X0279821Y0155726D02*
X0278687Y0155726D01*
X0278355Y0155127D02*
X0279590Y0155127D01*
X0283187Y0153930D02*
X0291633Y0153930D01*
X0291457Y0153332D02*
X0282955Y0153332D01*
X0282724Y0152733D02*
X0291282Y0152733D01*
X0291106Y0152135D02*
X0282492Y0152135D01*
X0282261Y0151536D02*
X0290930Y0151536D01*
X0290755Y0150938D02*
X0282030Y0150938D01*
X0281798Y0150339D02*
X0290579Y0150339D01*
X0290403Y0149741D02*
X0281567Y0149741D01*
X0281336Y0149142D02*
X0290226Y0149142D01*
X0290230Y0149150D02*
X0285323Y0137539D01*
X0285674Y0138369D02*
X0276409Y0138369D01*
X0276729Y0138968D02*
X0285926Y0138968D01*
X0286179Y0139566D02*
X0277050Y0139566D01*
X0277371Y0140165D02*
X0286432Y0140165D01*
X0286685Y0140763D02*
X0277691Y0140763D01*
X0278012Y0141362D02*
X0286938Y0141362D01*
X0287191Y0141960D02*
X0278332Y0141960D01*
X0278653Y0142559D02*
X0287444Y0142559D01*
X0287697Y0143157D02*
X0278974Y0143157D01*
X0279254Y0143756D02*
X0287950Y0143756D01*
X0288203Y0144354D02*
X0279485Y0144354D01*
X0279716Y0144953D02*
X0288456Y0144953D01*
X0288709Y0145551D02*
X0279948Y0145551D01*
X0280179Y0146150D02*
X0288962Y0146150D01*
X0289215Y0146748D02*
X0280410Y0146748D01*
X0280642Y0147347D02*
X0289468Y0147347D01*
X0289720Y0147945D02*
X0280873Y0147945D01*
X0281104Y0148544D02*
X0289973Y0148544D01*
X0290230Y0149150D02*
X0293781Y0161245D01*
X0295930Y0173665D01*
X0296650Y0186250D01*
X0296616Y0185651D02*
X0288301Y0185651D01*
X0288301Y0185053D02*
X0296582Y0185053D01*
X0296547Y0184454D02*
X0288301Y0184454D01*
X0288301Y0183856D02*
X0296513Y0183856D01*
X0296479Y0183257D02*
X0288301Y0183257D01*
X0288301Y0182659D02*
X0296445Y0182659D01*
X0296410Y0182060D02*
X0288301Y0182060D01*
X0288301Y0181462D02*
X0296376Y0181462D01*
X0296342Y0180863D02*
X0288301Y0180863D01*
X0288301Y0180265D02*
X0296308Y0180265D01*
X0296274Y0179666D02*
X0288266Y0179666D01*
X0288192Y0179068D02*
X0296239Y0179068D01*
X0296205Y0178469D02*
X0288118Y0178469D01*
X0288044Y0177871D02*
X0296171Y0177871D01*
X0296137Y0177272D02*
X0287970Y0177272D01*
X0287896Y0176674D02*
X0296102Y0176674D01*
X0296068Y0176075D02*
X0287822Y0176075D01*
X0287748Y0175477D02*
X0296034Y0175477D01*
X0296000Y0174878D02*
X0287674Y0174878D01*
X0287600Y0174280D02*
X0295966Y0174280D01*
X0295931Y0173681D02*
X0287526Y0173681D01*
X0287452Y0173083D02*
X0295830Y0173083D01*
X0295726Y0172484D02*
X0287378Y0172484D01*
X0287304Y0171886D02*
X0295622Y0171886D01*
X0295519Y0171287D02*
X0287230Y0171287D01*
X0287156Y0170689D02*
X0295415Y0170689D01*
X0295312Y0170090D02*
X0287082Y0170090D01*
X0287008Y0169492D02*
X0295208Y0169492D01*
X0295105Y0168893D02*
X0286934Y0168893D01*
X0286861Y0168295D02*
X0295001Y0168295D01*
X0294897Y0167696D02*
X0286787Y0167696D01*
X0286668Y0167098D02*
X0294794Y0167098D01*
X0294690Y0166499D02*
X0286517Y0166499D01*
X0286367Y0165901D02*
X0294587Y0165901D01*
X0294483Y0165302D02*
X0286217Y0165302D01*
X0286067Y0164704D02*
X0294380Y0164704D01*
X0294276Y0164105D02*
X0285917Y0164105D01*
X0285766Y0163507D02*
X0294172Y0163507D01*
X0294069Y0162908D02*
X0285616Y0162908D01*
X0285466Y0162310D02*
X0293965Y0162310D01*
X0293862Y0161711D02*
X0285316Y0161711D01*
X0285166Y0161113D02*
X0293742Y0161113D01*
X0293566Y0160514D02*
X0285015Y0160514D01*
X0284865Y0159916D02*
X0293391Y0159916D01*
X0293215Y0159317D02*
X0284715Y0159317D01*
X0284565Y0158718D02*
X0293039Y0158718D01*
X0292863Y0158120D02*
X0284415Y0158120D01*
X0284264Y0157521D02*
X0292688Y0157521D01*
X0292512Y0156923D02*
X0284114Y0156923D01*
X0283964Y0156324D02*
X0292336Y0156324D01*
X0292160Y0155726D02*
X0283814Y0155726D01*
X0283690Y0155233D02*
X0283690Y0155233D01*
X0283649Y0155127D02*
X0291985Y0155127D01*
X0291809Y0154529D02*
X0283418Y0154529D01*
X0280811Y0159317D02*
X0280174Y0159317D01*
X0280422Y0159916D02*
X0280961Y0159916D01*
X0281111Y0160514D02*
X0280670Y0160514D01*
X0280918Y0161113D02*
X0281262Y0161113D01*
X0281159Y0161711D02*
X0281412Y0161711D01*
X0281562Y0162310D02*
X0281164Y0162310D01*
X0280852Y0162908D02*
X0281712Y0162908D01*
X0281863Y0163507D02*
X0279713Y0163507D01*
X0278697Y0163507D02*
X0278047Y0163507D01*
X0278269Y0164105D02*
X0282013Y0164105D01*
X0278449Y0162908D02*
X0277799Y0162908D01*
X0277552Y0162310D02*
X0278201Y0162310D01*
X0277953Y0161711D02*
X0277304Y0161711D01*
X0277056Y0161113D02*
X0277705Y0161113D01*
X0276961Y0159317D02*
X0276312Y0159317D01*
X0276064Y0158718D02*
X0276713Y0158718D01*
X0276466Y0158120D02*
X0275816Y0158120D01*
X0275568Y0157521D02*
X0276218Y0157521D01*
X0275970Y0156923D02*
X0275320Y0156923D01*
X0275072Y0156324D02*
X0275722Y0156324D01*
X0276120Y0146150D02*
X0269115Y0146150D01*
X0270560Y0145551D02*
X0275888Y0145551D01*
X0275644Y0144953D02*
X0272005Y0144953D01*
X0273303Y0144354D02*
X0275347Y0144354D01*
X0275050Y0143756D02*
X0273551Y0143756D01*
X0273697Y0143157D02*
X0274752Y0143157D01*
X0274455Y0142559D02*
X0273449Y0142559D01*
X0273201Y0141960D02*
X0274158Y0141960D01*
X0273861Y0141362D02*
X0272981Y0141362D01*
X0274588Y0138781D02*
X0269093Y0140977D01*
X0271466Y0137771D02*
X0272266Y0137771D01*
X0271218Y0137172D02*
X0273764Y0137172D01*
X0258054Y0128793D02*
X0241152Y0128793D01*
X0241730Y0129391D02*
X0257736Y0129391D01*
X0257336Y0129990D02*
X0242308Y0129990D01*
X0242886Y0130588D02*
X0256935Y0130588D01*
X0256535Y0131187D02*
X0243464Y0131187D01*
X0244042Y0131785D02*
X0256034Y0131785D01*
X0255374Y0132384D02*
X0244620Y0132384D01*
X0245198Y0132982D02*
X0254703Y0132982D01*
X0258249Y0128194D02*
X0240574Y0128194D01*
X0239996Y0127596D02*
X0258443Y0127596D01*
X0258637Y0126997D02*
X0239387Y0126997D01*
X0239513Y0127096D02*
X0239513Y0127096D01*
X0238621Y0126399D02*
X0258832Y0126399D01*
X0258910Y0125800D02*
X0237855Y0125800D01*
X0237089Y0125202D02*
X0258933Y0125202D01*
X0258956Y0124603D02*
X0236323Y0124603D01*
X0235557Y0124005D02*
X0258979Y0124005D01*
X0259002Y0123406D02*
X0234791Y0123406D01*
X0234025Y0122808D02*
X0258904Y0122808D01*
X0258760Y0122209D02*
X0233259Y0122209D01*
X0232492Y0121611D02*
X0258615Y0121611D01*
X0258470Y0121012D02*
X0231726Y0121012D01*
X0230960Y0120414D02*
X0258325Y0120414D01*
X0258009Y0119815D02*
X0229994Y0119815D01*
X0230136Y0119217D02*
X0257672Y0119217D01*
X0257335Y0118618D02*
X0230384Y0118618D01*
X0230632Y0118020D02*
X0256998Y0118020D01*
X0256554Y0117421D02*
X0230880Y0117421D01*
X0231128Y0116823D02*
X0256030Y0116823D01*
X0255429Y0116224D02*
X0231376Y0116224D01*
X0231624Y0115626D02*
X0254792Y0115626D01*
X0254156Y0115027D02*
X0231872Y0115027D01*
X0232042Y0114429D02*
X0253519Y0114429D01*
X0252883Y0113830D02*
X0231794Y0113830D01*
X0231259Y0113232D02*
X0252247Y0113232D01*
X0251610Y0112633D02*
X0229814Y0112633D01*
X0228369Y0112035D02*
X0250877Y0112035D01*
X0250109Y0111436D02*
X0226924Y0111436D01*
X0225896Y0110838D02*
X0249342Y0110838D01*
X0248575Y0110239D02*
X0225465Y0110239D01*
X0225035Y0109641D02*
X0247808Y0109641D01*
X0247040Y0109042D02*
X0224604Y0109042D01*
X0224174Y0108444D02*
X0246273Y0108444D01*
X0245506Y0107845D02*
X0223743Y0107845D01*
X0223312Y0107247D02*
X0232127Y0107247D01*
X0233432Y0107787D02*
X0230549Y0106593D01*
X0231685Y0103850D01*
X0235611Y0105477D01*
X0234907Y0107176D01*
X0234699Y0107448D01*
X0234427Y0107656D01*
X0234111Y0107787D01*
X0233772Y0107832D01*
X0233432Y0107787D01*
X0234853Y0107247D02*
X0244738Y0107247D01*
X0243971Y0106648D02*
X0235126Y0106648D01*
X0235374Y0106049D02*
X0243204Y0106049D01*
X0242437Y0105451D02*
X0235549Y0105451D01*
X0235841Y0104923D02*
X0231914Y0103296D01*
X0233050Y0100554D01*
X0235934Y0101748D01*
X0236205Y0101956D01*
X0236414Y0102228D01*
X0236545Y0102544D01*
X0236590Y0102884D01*
X0236545Y0103223D01*
X0235841Y0104923D01*
X0235870Y0104852D02*
X0241605Y0104852D01*
X0240606Y0104254D02*
X0236118Y0104254D01*
X0236366Y0103655D02*
X0239606Y0103655D01*
X0238607Y0103057D02*
X0236567Y0103057D01*
X0236509Y0102458D02*
X0237607Y0102458D01*
X0236607Y0101860D02*
X0236080Y0101860D01*
X0235608Y0101261D02*
X0234759Y0101261D01*
X0234608Y0100663D02*
X0233314Y0100663D01*
X0233005Y0100663D02*
X0232356Y0100663D01*
X0232496Y0100324D02*
X0231360Y0103066D01*
X0231914Y0103296D01*
X0231685Y0103850D01*
X0231130Y0103621D01*
X0229994Y0106363D01*
X0227111Y0105169D01*
X0226839Y0104961D01*
X0226631Y0104689D01*
X0226500Y0104373D01*
X0226455Y0104033D01*
X0226500Y0103694D01*
X0227204Y0101994D01*
X0231130Y0103621D01*
X0231360Y0103066D01*
X0227434Y0101440D01*
X0228138Y0099740D01*
X0228346Y0099469D01*
X0228618Y0099261D01*
X0228934Y0099130D01*
X0229273Y0099085D01*
X0229612Y0099130D01*
X0232496Y0100324D01*
X0231869Y0100064D02*
X0233609Y0100064D01*
X0232609Y0099466D02*
X0230424Y0099466D01*
X0230305Y0098269D02*
X0216850Y0098269D01*
X0216602Y0098867D02*
X0231609Y0098867D01*
X0232108Y0101261D02*
X0232757Y0101261D01*
X0232509Y0101860D02*
X0231860Y0101860D01*
X0231612Y0102458D02*
X0232261Y0102458D01*
X0232013Y0103057D02*
X0231364Y0103057D01*
X0231337Y0103057D02*
X0229769Y0103057D01*
X0229892Y0102458D02*
X0228324Y0102458D01*
X0228447Y0101860D02*
X0216171Y0101860D01*
X0216049Y0101807D02*
X0216049Y0101807D01*
X0217550Y0102458D02*
X0227012Y0102458D01*
X0226764Y0103057D02*
X0218930Y0103057D01*
X0220368Y0103655D02*
X0226516Y0103655D01*
X0226484Y0104254D02*
X0221228Y0104254D01*
X0221590Y0104852D02*
X0226756Y0104852D01*
X0227792Y0105451D02*
X0222020Y0105451D01*
X0222451Y0106049D02*
X0229237Y0106049D01*
X0230124Y0106049D02*
X0230774Y0106049D01*
X0230682Y0106648D02*
X0222882Y0106648D01*
X0219751Y0105379D02*
X0226717Y0115061D01*
X0217250Y0111250D02*
X0207954Y0107333D01*
X0201865Y0100120D02*
X0201823Y0100118D01*
X0215785Y0100064D02*
X0228003Y0100064D01*
X0228350Y0099466D02*
X0216354Y0099466D01*
X0217098Y0097670D02*
X0228952Y0097670D01*
X0227600Y0097072D02*
X0217346Y0097072D01*
X0217594Y0096473D02*
X0226247Y0096473D01*
X0224894Y0095875D02*
X0217842Y0095875D01*
X0218090Y0095276D02*
X0223541Y0095276D01*
X0222189Y0094678D02*
X0217973Y0094678D01*
X0217725Y0094079D02*
X0220836Y0094079D01*
X0219200Y0093481D02*
X0216498Y0093481D01*
X0215965Y0092882D02*
X0217420Y0092882D01*
X0219067Y0080912D02*
X0153768Y0080912D01*
X0155610Y0080313D02*
X0216790Y0080313D01*
X0214513Y0079715D02*
X0157452Y0079715D01*
X0159963Y0079116D02*
X0212236Y0079116D01*
X0209959Y0078518D02*
X0162917Y0078518D01*
X0165871Y0077919D02*
X0207274Y0077919D01*
X0203112Y0077321D02*
X0168825Y0077321D01*
X0173464Y0076722D02*
X0198949Y0076722D01*
X0191110Y0076124D02*
X0180432Y0076124D01*
X0184750Y0083000D02*
X0185150Y0082988D01*
X0185550Y0082986D01*
X0185950Y0082994D01*
X0186350Y0083012D01*
X0186749Y0083039D01*
X0187147Y0083076D01*
X0187545Y0083122D01*
X0187941Y0083178D01*
X0188335Y0083244D01*
X0188728Y0083320D01*
X0189119Y0083405D01*
X0189508Y0083499D01*
X0189894Y0083603D01*
X0190278Y0083716D01*
X0190659Y0083839D01*
X0191036Y0083970D01*
X0191411Y0084111D01*
X0191782Y0084261D01*
X0192149Y0084420D01*
X0192512Y0084588D01*
X0192871Y0084764D01*
X0193226Y0084950D01*
X0193575Y0085144D01*
X0193921Y0085346D01*
X0194261Y0085556D01*
X0194596Y0085775D01*
X0194925Y0086002D01*
X0195249Y0086237D01*
X0195567Y0086480D01*
X0195879Y0086730D01*
X0196185Y0086988D01*
X0196484Y0087253D01*
X0196777Y0087526D01*
X0197064Y0087805D01*
X0197343Y0088091D01*
X0197615Y0088384D01*
X0197880Y0088684D01*
X0198138Y0088990D01*
X0198388Y0089302D01*
X0198631Y0089620D01*
X0198866Y0089944D01*
X0199093Y0090274D01*
X0199311Y0090609D01*
X0199522Y0090949D01*
X0199724Y0091294D01*
X0199918Y0091644D01*
X0200103Y0091999D01*
X0200279Y0092358D01*
X0200447Y0092721D01*
X0200606Y0093088D01*
X0200756Y0093459D01*
X0200896Y0093834D01*
X0201028Y0094211D01*
X0201150Y0094592D01*
X0201264Y0094976D01*
X0201367Y0095362D01*
X0201462Y0095751D01*
X0201546Y0096142D01*
X0201622Y0096535D01*
X0201687Y0096930D01*
X0201743Y0097326D01*
X0201790Y0097723D01*
X0201827Y0098121D01*
X0201854Y0098521D01*
X0201871Y0098920D01*
X0201879Y0099320D01*
X0201876Y0099720D01*
X0201865Y0100120D01*
X0230372Y0105451D02*
X0231022Y0105451D01*
X0231270Y0104852D02*
X0230620Y0104852D01*
X0230868Y0104254D02*
X0231518Y0104254D01*
X0231766Y0103655D02*
X0232782Y0103655D01*
X0232659Y0104254D02*
X0234227Y0104254D01*
X0234104Y0104852D02*
X0235672Y0104852D01*
X0231214Y0103655D02*
X0231116Y0103655D01*
X0257137Y0115363D02*
X0257352Y0115582D01*
X0257562Y0115806D01*
X0257766Y0116035D01*
X0257964Y0116269D01*
X0258157Y0116507D01*
X0258344Y0116751D01*
X0258525Y0116998D01*
X0258700Y0117250D01*
X0258868Y0117507D01*
X0259031Y0117767D01*
X0259187Y0118031D01*
X0259336Y0118299D01*
X0259479Y0118571D01*
X0259615Y0118845D01*
X0259745Y0119124D01*
X0259868Y0119405D01*
X0259984Y0119689D01*
X0260092Y0119976D01*
X0260194Y0120265D01*
X0260289Y0120557D01*
X0260377Y0120851D01*
X0260458Y0121147D01*
X0260531Y0121445D01*
X0260597Y0121744D01*
X0260656Y0122045D01*
X0260707Y0122348D01*
X0260751Y0122651D01*
X0260788Y0122956D01*
X0260817Y0123261D01*
X0260839Y0123567D01*
X0260853Y0123874D01*
X0260860Y0124181D01*
X0260860Y0124487D01*
X0260852Y0124794D01*
X0260836Y0125100D01*
X0260813Y0125406D01*
X0260783Y0125712D01*
X0260745Y0126016D01*
X0260700Y0126320D01*
X0260648Y0126622D01*
X0260588Y0126923D01*
X0260520Y0127222D01*
X0260446Y0127520D01*
X0260364Y0127815D01*
X0260276Y0128109D01*
X0260180Y0128401D01*
X0260077Y0128690D01*
X0259967Y0128976D01*
X0259850Y0129260D01*
X0259726Y0129540D01*
X0259595Y0129818D01*
X0259458Y0130092D01*
X0259314Y0130363D01*
X0259164Y0130631D01*
X0259007Y0130894D01*
X0258843Y0131154D01*
X0258674Y0131410D01*
X0258498Y0131661D01*
X0258316Y0131908D01*
X0258129Y0132151D01*
X0257935Y0132389D01*
X0257736Y0132622D01*
X0257531Y0132850D01*
X0257320Y0133074D01*
X0257104Y0133292D01*
X0256883Y0133504D01*
X0256657Y0133712D01*
X0256426Y0133913D01*
X0286500Y0186250D02*
X0286497Y0186557D01*
X0286487Y0186863D01*
X0286469Y0187170D01*
X0286444Y0187476D01*
X0286412Y0187781D01*
X0286372Y0188085D01*
X0286325Y0188388D01*
X0286270Y0188690D01*
X0286208Y0188990D01*
X0286139Y0189289D01*
X0286062Y0189586D01*
X0285978Y0189881D01*
X0285888Y0190174D01*
X0285790Y0190465D01*
X0285685Y0190753D01*
X0285573Y0191039D01*
X0285454Y0191322D01*
X0285328Y0191602D01*
X0285195Y0191878D01*
X0285056Y0192152D01*
X0284910Y0192422D01*
X0284758Y0192688D01*
X0284599Y0192951D01*
X0284434Y0193209D01*
X0284263Y0193464D01*
X0284085Y0193714D01*
X0283902Y0193960D01*
X0283712Y0194201D01*
X0283517Y0194438D01*
X0283316Y0194669D01*
X0283110Y0194896D01*
X0282898Y0195118D01*
X0282680Y0195335D01*
X0282458Y0195546D01*
X0282230Y0195751D01*
X0281997Y0195952D01*
X0281760Y0196146D01*
X0281518Y0196335D01*
X0281272Y0196517D01*
X0281021Y0196694D01*
X0280766Y0196864D01*
X0280506Y0197028D01*
X0280243Y0197186D01*
X0279977Y0197338D01*
X0279706Y0197482D01*
X0279432Y0197621D01*
X0279155Y0197752D01*
X0278875Y0197877D01*
X0278592Y0197995D01*
X0278305Y0198106D01*
X0278017Y0198210D01*
X0277726Y0198307D01*
X0277432Y0198396D01*
X0277137Y0198479D01*
X0276840Y0198555D01*
X0276540Y0198623D01*
X0276240Y0198684D01*
X0275938Y0198737D01*
X0275634Y0198783D01*
X0275330Y0198822D01*
X0275025Y0198854D01*
X0274719Y0198878D01*
X0274413Y0198894D01*
X0274106Y0198903D01*
X0273799Y0198905D01*
X0273492Y0198899D01*
X0273186Y0198886D01*
X0272880Y0198865D01*
X0272882Y0198823D01*
X0269736Y0195826D02*
X0265180Y0195826D01*
X0265222Y0195228D02*
X0268700Y0195228D01*
X0267663Y0194629D02*
X0265264Y0194629D01*
X0265306Y0194031D02*
X0266964Y0194031D01*
X0266366Y0193432D02*
X0265348Y0193432D01*
X0265390Y0192834D02*
X0265767Y0192834D01*
X0265133Y0207955D02*
X0260750Y0217250D01*
X0267121Y0219751D02*
X0257439Y0226717D01*
X0261268Y0226350D02*
X0275981Y0226350D01*
X0276246Y0225752D02*
X0261863Y0225752D01*
X0255668Y0231138D02*
X0251788Y0231138D01*
X0252223Y0230540D02*
X0254223Y0230540D01*
X0253092Y0229941D02*
X0252658Y0229941D01*
X0257137Y0257137D02*
X0256918Y0257352D01*
X0256694Y0257562D01*
X0256465Y0257766D01*
X0256231Y0257964D01*
X0255993Y0258157D01*
X0255749Y0258344D01*
X0255502Y0258525D01*
X0255250Y0258700D01*
X0254993Y0258868D01*
X0254733Y0259031D01*
X0254469Y0259187D01*
X0254201Y0259336D01*
X0253929Y0259479D01*
X0253655Y0259615D01*
X0253376Y0259745D01*
X0253095Y0259868D01*
X0252811Y0259984D01*
X0252524Y0260092D01*
X0252235Y0260194D01*
X0251943Y0260289D01*
X0251649Y0260377D01*
X0251353Y0260458D01*
X0251055Y0260531D01*
X0250756Y0260597D01*
X0250455Y0260656D01*
X0250152Y0260707D01*
X0249849Y0260751D01*
X0249544Y0260788D01*
X0249239Y0260817D01*
X0248933Y0260839D01*
X0248626Y0260853D01*
X0248319Y0260860D01*
X0248013Y0260860D01*
X0247706Y0260852D01*
X0247400Y0260836D01*
X0247094Y0260813D01*
X0246788Y0260783D01*
X0246484Y0260745D01*
X0246180Y0260700D01*
X0245878Y0260648D01*
X0245577Y0260588D01*
X0245278Y0260520D01*
X0244980Y0260446D01*
X0244685Y0260364D01*
X0244391Y0260276D01*
X0244099Y0260180D01*
X0243810Y0260077D01*
X0243524Y0259967D01*
X0243240Y0259850D01*
X0242960Y0259726D01*
X0242682Y0259595D01*
X0242408Y0259458D01*
X0242137Y0259314D01*
X0241869Y0259164D01*
X0241606Y0259007D01*
X0241346Y0258843D01*
X0241090Y0258674D01*
X0240839Y0258498D01*
X0240592Y0258316D01*
X0240349Y0258129D01*
X0240111Y0257935D01*
X0239878Y0257736D01*
X0239650Y0257531D01*
X0239426Y0257320D01*
X0239208Y0257104D01*
X0238996Y0256883D01*
X0238788Y0256657D01*
X0238587Y0256426D01*
X0239879Y0255079D02*
X0256605Y0255079D01*
X0256042Y0255677D02*
X0240386Y0255677D01*
X0240951Y0256276D02*
X0255397Y0256276D01*
X0254699Y0256874D02*
X0241820Y0256874D01*
X0242715Y0257473D02*
X0253637Y0257473D01*
X0252574Y0258071D02*
X0243760Y0258071D01*
X0245603Y0258670D02*
X0250662Y0258670D01*
X0249635Y0262728D02*
X0249635Y0262728D01*
X0256478Y0271239D02*
X0235405Y0271239D01*
X0234559Y0271837D02*
X0255788Y0271837D01*
X0255097Y0272436D02*
X0234798Y0272436D01*
X0235037Y0273034D02*
X0254406Y0273034D01*
X0253716Y0273633D02*
X0235276Y0273633D01*
X0235515Y0274231D02*
X0252854Y0274231D01*
X0251978Y0274830D02*
X0235755Y0274830D01*
X0235994Y0275428D02*
X0251103Y0275428D01*
X0250228Y0276027D02*
X0236233Y0276027D01*
X0236513Y0276625D02*
X0249352Y0276625D01*
X0248477Y0277224D02*
X0236619Y0277224D01*
X0236377Y0277822D02*
X0247602Y0277822D01*
X0246727Y0278421D02*
X0236106Y0278421D01*
X0234925Y0279019D02*
X0245851Y0279019D01*
X0244976Y0279618D02*
X0233807Y0279618D01*
X0232690Y0280216D02*
X0244101Y0280216D01*
X0243215Y0280815D02*
X0231573Y0280815D01*
X0230456Y0281413D02*
X0242081Y0281413D01*
X0240946Y0282012D02*
X0229076Y0282012D01*
X0227528Y0282610D02*
X0239812Y0282610D01*
X0238678Y0283209D02*
X0225980Y0283209D01*
X0224431Y0283807D02*
X0237544Y0283807D01*
X0236409Y0284406D02*
X0222883Y0284406D01*
X0221334Y0285004D02*
X0235275Y0285004D01*
X0234141Y0285603D02*
X0219786Y0285603D01*
X0218267Y0286190D02*
X0218267Y0286190D01*
X0218222Y0286201D02*
X0233006Y0286201D01*
X0231787Y0286800D02*
X0215837Y0286800D01*
X0213452Y0287398D02*
X0230250Y0287398D01*
X0228712Y0287997D02*
X0211067Y0287997D01*
X0208683Y0288595D02*
X0227175Y0288595D01*
X0225638Y0289194D02*
X0206298Y0289194D01*
X0204739Y0285603D02*
X0193350Y0285603D01*
X0194246Y0285004D02*
X0207436Y0285004D01*
X0209821Y0284406D02*
X0195019Y0284406D01*
X0195709Y0283807D02*
X0212206Y0283807D01*
X0214590Y0283209D02*
X0196307Y0283209D01*
X0196831Y0282610D02*
X0216975Y0282610D01*
X0218574Y0282012D02*
X0197322Y0282012D01*
X0197727Y0281413D02*
X0220123Y0281413D01*
X0221671Y0280815D02*
X0211764Y0280815D01*
X0210866Y0281187D02*
X0210527Y0281231D01*
X0210188Y0281187D01*
X0209871Y0281056D01*
X0209600Y0280847D01*
X0209391Y0280576D01*
X0208687Y0278876D01*
X0212614Y0277250D01*
X0213750Y0279992D01*
X0210866Y0281187D01*
X0209575Y0280815D02*
X0198121Y0280815D01*
X0198441Y0280216D02*
X0209243Y0280216D01*
X0208995Y0279618D02*
X0198756Y0279618D01*
X0199004Y0279019D02*
X0208747Y0279019D01*
X0208458Y0278322D02*
X0207754Y0276622D01*
X0207709Y0276283D01*
X0207754Y0275943D01*
X0207885Y0275627D01*
X0208093Y0275356D01*
X0208365Y0275147D01*
X0211248Y0273953D01*
X0212384Y0276695D01*
X0212939Y0276466D01*
X0213168Y0277020D01*
X0212614Y0277250D01*
X0212384Y0276695D01*
X0208458Y0278322D01*
X0208251Y0277822D02*
X0199436Y0277822D01*
X0199617Y0277224D02*
X0208003Y0277224D01*
X0207755Y0276625D02*
X0199748Y0276625D01*
X0199867Y0276027D02*
X0207743Y0276027D01*
X0208037Y0275428D02*
X0199951Y0275428D01*
X0200010Y0274830D02*
X0209131Y0274830D01*
X0210576Y0274231D02*
X0200050Y0274231D01*
X0200046Y0273034D02*
X0213466Y0273034D01*
X0214686Y0272529D02*
X0215026Y0272484D01*
X0215365Y0272529D01*
X0215681Y0272660D01*
X0215953Y0272868D01*
X0216161Y0273140D01*
X0216865Y0274839D01*
X0212939Y0276466D01*
X0211803Y0273723D01*
X0214686Y0272529D01*
X0216080Y0273034D02*
X0228014Y0273034D01*
X0227766Y0272436D02*
X0199987Y0272436D01*
X0199928Y0271837D02*
X0227518Y0271837D01*
X0227271Y0271239D02*
X0199821Y0271239D01*
X0199702Y0270640D02*
X0227023Y0270640D01*
X0226775Y0270042D02*
X0199546Y0270042D01*
X0199364Y0269443D02*
X0204592Y0269443D01*
X0204316Y0268845D02*
X0199155Y0268845D01*
X0198907Y0268246D02*
X0204068Y0268246D01*
X0203820Y0267648D02*
X0198636Y0267648D01*
X0198316Y0267049D02*
X0203572Y0267049D01*
X0203324Y0266451D02*
X0197970Y0266451D01*
X0197570Y0265852D02*
X0203076Y0265852D01*
X0202828Y0265253D02*
X0197129Y0265253D01*
X0199936Y0264655D02*
X0202580Y0264655D01*
X0202416Y0264056D02*
X0202819Y0264056D01*
X0200072Y0264641D02*
X0200072Y0264641D01*
X0207973Y0265203D02*
X0219746Y0267123D01*
X0219117Y0268845D02*
X0208264Y0268845D01*
X0206819Y0269443D02*
X0226527Y0269443D01*
X0226279Y0268845D02*
X0220436Y0268845D01*
X0221748Y0268246D02*
X0226256Y0268246D01*
X0226504Y0267648D02*
X0223192Y0267648D01*
X0224636Y0267049D02*
X0227393Y0267049D01*
X0227000Y0265852D02*
X0230283Y0265852D01*
X0231728Y0265253D02*
X0228052Y0265253D01*
X0229104Y0264655D02*
X0233173Y0264655D01*
X0234372Y0264655D02*
X0263895Y0264655D01*
X0263346Y0265253D02*
X0235074Y0265253D01*
X0235322Y0265852D02*
X0262695Y0265852D01*
X0262004Y0266451D02*
X0235570Y0266451D01*
X0235818Y0267049D02*
X0261313Y0267049D01*
X0260623Y0267648D02*
X0236066Y0267648D01*
X0236314Y0268246D02*
X0259932Y0268246D01*
X0259241Y0268845D02*
X0236562Y0268845D01*
X0236810Y0269443D02*
X0258551Y0269443D01*
X0257860Y0270042D02*
X0236748Y0270042D01*
X0236500Y0270640D02*
X0257169Y0270640D01*
X0264445Y0264056D02*
X0230157Y0264056D01*
X0231209Y0263458D02*
X0264994Y0263458D01*
X0272456Y0231737D02*
X0273556Y0231737D01*
X0273863Y0231138D02*
X0272704Y0231138D01*
X0272952Y0230540D02*
X0274127Y0230540D01*
X0274392Y0229941D02*
X0273200Y0229941D01*
X0273372Y0229343D02*
X0274657Y0229343D01*
X0274922Y0228744D02*
X0273258Y0228744D01*
X0272736Y0228146D02*
X0275187Y0228146D01*
X0275458Y0217373D02*
X0270058Y0217373D01*
X0270306Y0216774D02*
X0274013Y0216774D01*
X0272568Y0216176D02*
X0270554Y0216176D01*
X0270801Y0215577D02*
X0272315Y0215577D01*
X0272106Y0214979D02*
X0271006Y0214979D01*
X0270921Y0215289D02*
X0270921Y0215289D01*
X0271171Y0214380D02*
X0272354Y0214380D01*
X0272602Y0213782D02*
X0271335Y0213782D01*
X0271500Y0213183D02*
X0272849Y0213183D01*
X0273097Y0212584D02*
X0271664Y0212584D01*
X0271829Y0211986D02*
X0273345Y0211986D01*
X0226702Y0257453D02*
X0217750Y0261250D01*
X0215448Y0268246D02*
X0209709Y0268246D01*
X0211154Y0267648D02*
X0211779Y0267648D01*
X0212021Y0273633D02*
X0196550Y0273633D01*
X0199252Y0278421D02*
X0209786Y0278421D01*
X0209664Y0277822D02*
X0211231Y0277822D01*
X0211109Y0277224D02*
X0212603Y0277224D01*
X0212677Y0277224D02*
X0213253Y0277224D01*
X0213168Y0277020D02*
X0214304Y0279763D01*
X0217188Y0278568D01*
X0217459Y0278360D01*
X0217668Y0278088D01*
X0217799Y0277772D01*
X0217843Y0277433D01*
X0217799Y0277093D01*
X0217095Y0275394D01*
X0213168Y0277020D01*
X0213005Y0276625D02*
X0214121Y0276625D01*
X0213998Y0276027D02*
X0215566Y0276027D01*
X0215443Y0275428D02*
X0217011Y0275428D01*
X0217109Y0275428D02*
X0232117Y0275428D01*
X0231878Y0274830D02*
X0216861Y0274830D01*
X0216613Y0274231D02*
X0231639Y0274231D01*
X0231399Y0273633D02*
X0229626Y0273633D01*
X0228922Y0273633D02*
X0216365Y0273633D01*
X0217357Y0276027D02*
X0232356Y0276027D01*
X0231605Y0276625D02*
X0217605Y0276625D01*
X0217816Y0277224D02*
X0230401Y0277224D01*
X0229196Y0277822D02*
X0217778Y0277822D01*
X0217380Y0278421D02*
X0227865Y0278421D01*
X0226316Y0279019D02*
X0216099Y0279019D01*
X0214654Y0279618D02*
X0224768Y0279618D01*
X0223219Y0280216D02*
X0213209Y0280216D01*
X0213595Y0279618D02*
X0214244Y0279618D01*
X0213996Y0279019D02*
X0213347Y0279019D01*
X0213099Y0278421D02*
X0213748Y0278421D01*
X0213500Y0277822D02*
X0212851Y0277822D01*
X0212553Y0276625D02*
X0212355Y0276625D01*
X0212107Y0276027D02*
X0212757Y0276027D01*
X0212509Y0275428D02*
X0211859Y0275428D01*
X0211612Y0274830D02*
X0212261Y0274830D01*
X0212013Y0274231D02*
X0211364Y0274231D01*
X0199896Y0286201D02*
X0192230Y0286201D01*
X0190770Y0286800D02*
X0195052Y0286800D01*
X0196867Y0290391D02*
X0222563Y0290391D01*
X0221026Y0290989D02*
X0151926Y0290989D01*
X0153768Y0291588D02*
X0219067Y0291588D01*
X0216790Y0292187D02*
X0155610Y0292187D01*
X0157452Y0292785D02*
X0214513Y0292785D01*
X0212236Y0293384D02*
X0159963Y0293384D01*
X0162917Y0293982D02*
X0209959Y0293982D01*
X0207274Y0294581D02*
X0165871Y0294581D01*
X0168825Y0295179D02*
X0203111Y0295179D01*
X0198949Y0295778D02*
X0173464Y0295778D01*
X0180432Y0296376D02*
X0191110Y0296376D01*
X0184862Y0290901D02*
X0184862Y0290901D01*
X0182725Y0290391D02*
X0150084Y0290391D01*
X0148242Y0289792D02*
X0180217Y0289792D01*
X0180067Y0289757D02*
X0180067Y0289757D01*
X0179061Y0289194D02*
X0146400Y0289194D01*
X0145030Y0288595D02*
X0177991Y0288595D01*
X0176920Y0287997D02*
X0143720Y0287997D01*
X0142409Y0287398D02*
X0175850Y0287398D01*
X0175765Y0287351D02*
X0175765Y0287351D01*
X0175214Y0286800D02*
X0141099Y0286800D01*
X0139788Y0286201D02*
X0174616Y0286201D01*
X0174018Y0285603D02*
X0138478Y0285603D01*
X0137167Y0285004D02*
X0173419Y0285004D01*
X0172821Y0284406D02*
X0135856Y0284406D01*
X0134591Y0283807D02*
X0172248Y0283807D01*
X0172280Y0283865D02*
X0172280Y0283865D01*
X0171914Y0283209D02*
X0133598Y0283209D01*
X0132605Y0282610D02*
X0171579Y0282610D01*
X0171245Y0282012D02*
X0131613Y0282012D01*
X0130620Y0281413D02*
X0161677Y0281413D01*
X0161957Y0281529D02*
X0154804Y0278566D01*
X0154329Y0277418D01*
X0156311Y0272633D01*
X0157459Y0272157D01*
X0164612Y0275120D01*
X0165088Y0276269D01*
X0163105Y0281054D01*
X0161957Y0281529D01*
X0162238Y0281413D02*
X0170910Y0281413D01*
X0170576Y0280815D02*
X0163204Y0280815D01*
X0163452Y0280216D02*
X0170242Y0280216D01*
X0169907Y0279618D02*
X0163700Y0279618D01*
X0163948Y0279019D02*
X0169747Y0279019D01*
X0169876Y0279562D02*
X0169876Y0279562D01*
X0169604Y0278421D02*
X0164196Y0278421D01*
X0164444Y0277822D02*
X0169461Y0277822D01*
X0169319Y0277224D02*
X0164692Y0277224D01*
X0164940Y0276625D02*
X0169176Y0276625D01*
X0169034Y0276027D02*
X0164987Y0276027D01*
X0164740Y0275428D02*
X0168891Y0275428D01*
X0168749Y0274830D02*
X0163910Y0274830D01*
X0162465Y0274231D02*
X0168756Y0274231D01*
X0168734Y0274767D02*
X0168734Y0274767D01*
X0167146Y0273633D02*
X0161020Y0273633D01*
X0159575Y0273034D02*
X0164439Y0273034D01*
X0162397Y0272436D02*
X0158130Y0272436D01*
X0158313Y0271239D02*
X0144991Y0271239D01*
X0145050Y0271097D02*
X0144346Y0272796D01*
X0144138Y0273068D01*
X0143866Y0273276D01*
X0143550Y0273407D01*
X0143211Y0273452D01*
X0142871Y0273407D01*
X0139988Y0272213D01*
X0141124Y0269470D01*
X0145050Y0271097D01*
X0145280Y0270542D02*
X0141353Y0268916D01*
X0142489Y0266173D01*
X0145373Y0267368D01*
X0145644Y0267576D01*
X0145853Y0267848D01*
X0145984Y0268164D01*
X0146028Y0268503D01*
X0145984Y0268843D01*
X0145280Y0270542D01*
X0145487Y0270042D02*
X0154950Y0270042D01*
X0156329Y0270640D02*
X0143948Y0270640D01*
X0144071Y0270042D02*
X0142503Y0270042D01*
X0142626Y0269443D02*
X0141135Y0269443D01*
X0141124Y0269470D02*
X0141353Y0268916D01*
X0140799Y0268686D01*
X0141935Y0265944D01*
X0139051Y0264749D01*
X0138712Y0264705D01*
X0138373Y0264749D01*
X0138056Y0264880D01*
X0137785Y0265089D01*
X0137577Y0265360D01*
X0136873Y0267060D01*
X0140799Y0268686D01*
X0140569Y0269241D01*
X0139433Y0271983D01*
X0136550Y0270789D01*
X0136278Y0270580D01*
X0136070Y0270309D01*
X0135939Y0269993D01*
X0135894Y0269653D01*
X0135939Y0269314D01*
X0136643Y0267614D01*
X0140569Y0269241D01*
X0141124Y0269470D01*
X0141058Y0269443D02*
X0140486Y0269443D01*
X0140733Y0268845D02*
X0139613Y0268845D01*
X0139736Y0268246D02*
X0138168Y0268246D01*
X0138291Y0267648D02*
X0136723Y0267648D01*
X0136629Y0267648D02*
X0111857Y0267648D01*
X0112473Y0268246D02*
X0136381Y0268246D01*
X0136133Y0268845D02*
X0113089Y0268845D01*
X0113705Y0269443D02*
X0135922Y0269443D01*
X0135959Y0270042D02*
X0114416Y0270042D01*
X0115192Y0270640D02*
X0136356Y0270640D01*
X0137636Y0271239D02*
X0115968Y0271239D01*
X0116745Y0271837D02*
X0139081Y0271837D01*
X0139494Y0271837D02*
X0140143Y0271837D01*
X0140391Y0271239D02*
X0139742Y0271239D01*
X0139990Y0270640D02*
X0140639Y0270640D01*
X0140887Y0270042D02*
X0140238Y0270042D01*
X0141181Y0268845D02*
X0141383Y0268845D01*
X0141631Y0268246D02*
X0140981Y0268246D01*
X0141229Y0267648D02*
X0141879Y0267648D01*
X0142127Y0267049D02*
X0141477Y0267049D01*
X0141725Y0266451D02*
X0142374Y0266451D01*
X0143158Y0266451D02*
X0150058Y0266451D01*
X0150489Y0267049D02*
X0144603Y0267049D01*
X0145699Y0267648D02*
X0150920Y0267648D01*
X0151272Y0268246D02*
X0145995Y0268246D01*
X0145983Y0268845D02*
X0152078Y0268845D01*
X0153570Y0269443D02*
X0145735Y0269443D01*
X0144743Y0271837D02*
X0160355Y0271837D01*
X0156787Y0272436D02*
X0144496Y0272436D01*
X0144164Y0273034D02*
X0156145Y0273034D01*
X0155897Y0273633D02*
X0119073Y0273633D01*
X0119849Y0274231D02*
X0155649Y0274231D01*
X0155401Y0274830D02*
X0120625Y0274830D01*
X0121402Y0275428D02*
X0155153Y0275428D01*
X0154905Y0276027D02*
X0122178Y0276027D01*
X0122954Y0276625D02*
X0154657Y0276625D01*
X0154409Y0277224D02*
X0123730Y0277224D01*
X0124665Y0277822D02*
X0154496Y0277822D01*
X0154744Y0278421D02*
X0125658Y0278421D01*
X0126650Y0279019D02*
X0155897Y0279019D01*
X0157342Y0279618D02*
X0127643Y0279618D01*
X0128635Y0280216D02*
X0158787Y0280216D01*
X0160232Y0280815D02*
X0129628Y0280815D01*
X0118297Y0273034D02*
X0141971Y0273034D01*
X0140526Y0272436D02*
X0117521Y0272436D01*
X0111241Y0267049D02*
X0136877Y0267049D01*
X0137125Y0266451D02*
X0110625Y0266451D01*
X0110010Y0265852D02*
X0137373Y0265852D01*
X0137658Y0265253D02*
X0109394Y0265253D01*
X0108778Y0264655D02*
X0148764Y0264655D01*
X0149195Y0265253D02*
X0140268Y0265253D01*
X0141713Y0265852D02*
X0149626Y0265852D01*
X0148333Y0264056D02*
X0108162Y0264056D01*
X0107546Y0263458D02*
X0147901Y0263458D01*
X0147470Y0262859D02*
X0106930Y0262859D01*
X0106314Y0262261D02*
X0147039Y0262261D01*
X0146607Y0261662D02*
X0105699Y0261662D01*
X0105083Y0261064D02*
X0145471Y0261064D01*
X0144026Y0260465D02*
X0104559Y0260465D01*
X0104914Y0260900D02*
X0104914Y0260900D01*
X0104069Y0259867D02*
X0142581Y0259867D01*
X0141136Y0259268D02*
X0103580Y0259268D01*
X0103090Y0258670D02*
X0140675Y0258670D01*
X0140427Y0258071D02*
X0102601Y0258071D01*
X0102112Y0257473D02*
X0140627Y0257473D01*
X0140875Y0256874D02*
X0101622Y0256874D01*
X0101133Y0256276D02*
X0141123Y0256276D01*
X0141371Y0255677D02*
X0100643Y0255677D01*
X0100154Y0255079D02*
X0141619Y0255079D01*
X0141867Y0254480D02*
X0099665Y0254480D01*
X0099175Y0253882D02*
X0142115Y0253882D01*
X0142362Y0253283D02*
X0098686Y0253283D01*
X0098196Y0252685D02*
X0142742Y0252685D01*
X0141855Y0252086D02*
X0097707Y0252086D01*
X0097218Y0251488D02*
X0140968Y0251488D01*
X0140080Y0250889D02*
X0096772Y0250889D01*
X0096388Y0250291D02*
X0139193Y0250291D01*
X0138306Y0249692D02*
X0096003Y0249692D01*
X0095618Y0249094D02*
X0137418Y0249094D01*
X0137243Y0248976D02*
X0137243Y0248976D01*
X0136710Y0248495D02*
X0095234Y0248495D01*
X0094849Y0247897D02*
X0136045Y0247897D01*
X0135380Y0247298D02*
X0094465Y0247298D01*
X0094080Y0246700D02*
X0134716Y0246700D01*
X0134051Y0246101D02*
X0093695Y0246101D01*
X0093311Y0245503D02*
X0133386Y0245503D01*
X0132721Y0244904D02*
X0092926Y0244904D01*
X0092541Y0244306D02*
X0132057Y0244306D01*
X0131392Y0243707D02*
X0092157Y0243707D01*
X0091772Y0243109D02*
X0130727Y0243109D01*
X0130063Y0242510D02*
X0091387Y0242510D01*
X0091003Y0241912D02*
X0129398Y0241912D01*
X0128796Y0241313D02*
X0090618Y0241313D01*
X0090234Y0240715D02*
X0128294Y0240715D01*
X0127792Y0240116D02*
X0089912Y0240116D01*
X0089618Y0239518D02*
X0127289Y0239518D01*
X0126787Y0238919D02*
X0089324Y0238919D01*
X0089030Y0238320D02*
X0126285Y0238320D01*
X0125783Y0237722D02*
X0088735Y0237722D01*
X0094412Y0235219D02*
X0103407Y0231523D01*
X0106497Y0229941D02*
X0112625Y0229941D01*
X0112377Y0229343D02*
X0106249Y0229343D01*
X0106001Y0228744D02*
X0112129Y0228744D01*
X0111881Y0228146D02*
X0105753Y0228146D01*
X0105505Y0227547D02*
X0111633Y0227547D01*
X0111385Y0226949D02*
X0105257Y0226949D01*
X0104347Y0226350D02*
X0111137Y0226350D01*
X0110889Y0225752D02*
X0092200Y0225752D01*
X0092437Y0226350D02*
X0103650Y0226350D01*
X0102205Y0226949D02*
X0092673Y0226949D01*
X0092910Y0227547D02*
X0100760Y0227547D01*
X0099315Y0228146D02*
X0093147Y0228146D01*
X0093383Y0228744D02*
X0098983Y0228744D01*
X0098740Y0229343D02*
X0093620Y0229343D01*
X0093860Y0229941D02*
X0098988Y0229941D01*
X0099236Y0230540D02*
X0094149Y0230540D01*
X0094439Y0231138D02*
X0099484Y0231138D01*
X0098151Y0231737D02*
X0094728Y0231737D01*
X0095017Y0232335D02*
X0096694Y0232335D01*
X0097426Y0235926D02*
X0101467Y0235926D01*
X0101220Y0235328D02*
X0098883Y0235328D01*
X0100340Y0234729D02*
X0100972Y0234729D01*
X0101787Y0236525D02*
X0095970Y0236525D01*
X0091963Y0225153D02*
X0110641Y0225153D01*
X0110394Y0224555D02*
X0091727Y0224555D01*
X0091490Y0223956D02*
X0110608Y0223956D01*
X0110874Y0223358D02*
X0091253Y0223358D01*
X0091017Y0222759D02*
X0111519Y0222759D01*
X0111279Y0222161D02*
X0090780Y0222161D01*
X0090543Y0221562D02*
X0111039Y0221562D01*
X0110799Y0220964D02*
X0090307Y0220964D01*
X0090099Y0220365D02*
X0110559Y0220365D01*
X0109453Y0219767D02*
X0089928Y0219767D01*
X0089757Y0219168D02*
X0108855Y0219168D01*
X0108495Y0218570D02*
X0089586Y0218570D01*
X0089415Y0217971D02*
X0108247Y0217971D01*
X0108200Y0217373D02*
X0096602Y0217373D01*
X0096964Y0216774D02*
X0097613Y0216774D01*
X0098047Y0216774D02*
X0108200Y0216774D01*
X0107239Y0213183D02*
X0111367Y0213183D01*
X0111450Y0213475D02*
X0111450Y0213475D01*
X0111195Y0212584D02*
X0108684Y0212584D01*
X0110129Y0211986D02*
X0111024Y0211986D01*
X0098500Y0211986D02*
X0096933Y0211986D01*
X0097055Y0212584D02*
X0095878Y0212584D01*
X0095658Y0212839D02*
X0092750Y0206250D01*
X0093640Y0208750D02*
X0091940Y0209454D01*
X0091669Y0209662D01*
X0091460Y0209934D01*
X0091329Y0210250D01*
X0091285Y0210589D01*
X0091329Y0210929D01*
X0092524Y0213812D01*
X0095266Y0212676D01*
X0093640Y0208750D01*
X0093741Y0208993D02*
X0094390Y0208993D01*
X0094496Y0208395D02*
X0086954Y0208395D01*
X0087063Y0208993D02*
X0093052Y0208993D01*
X0093989Y0209592D02*
X0094638Y0209592D01*
X0094886Y0210190D02*
X0094237Y0210190D01*
X0094485Y0210789D02*
X0095134Y0210789D01*
X0095382Y0211387D02*
X0094733Y0211387D01*
X0094981Y0211986D02*
X0095630Y0211986D01*
X0095488Y0212584D02*
X0095228Y0212584D01*
X0095476Y0213183D02*
X0094043Y0213183D01*
X0094166Y0213782D02*
X0092598Y0213782D01*
X0092511Y0213782D02*
X0088219Y0213782D01*
X0088390Y0214380D02*
X0092759Y0214380D01*
X0093007Y0214979D02*
X0088560Y0214979D01*
X0088731Y0215577D02*
X0093255Y0215577D01*
X0093503Y0216176D02*
X0088902Y0216176D01*
X0089073Y0216774D02*
X0093751Y0216774D01*
X0094042Y0217373D02*
X0089244Y0217373D01*
X0088048Y0213183D02*
X0092263Y0213183D01*
X0092015Y0212584D02*
X0087877Y0212584D01*
X0087706Y0211986D02*
X0091767Y0211986D01*
X0091520Y0211387D02*
X0087535Y0211387D01*
X0087389Y0210789D02*
X0091311Y0210789D01*
X0091354Y0210190D02*
X0087280Y0210190D01*
X0087172Y0209592D02*
X0091760Y0209592D01*
X0095611Y0213183D02*
X0096126Y0213183D01*
X0096374Y0213782D02*
X0095724Y0213782D01*
X0095972Y0214380D02*
X0096622Y0214380D01*
X0096869Y0214979D02*
X0096220Y0214979D01*
X0096468Y0215577D02*
X0097117Y0215577D01*
X0097365Y0216176D02*
X0096716Y0216176D01*
X0106745Y0230540D02*
X0112873Y0230540D01*
X0113121Y0231138D02*
X0106993Y0231138D01*
X0107241Y0231737D02*
X0113506Y0231737D01*
X0102042Y0200016D02*
X0101467Y0200016D01*
X0107330Y0164542D02*
X0111250Y0155250D01*
X0105379Y0152749D02*
X0115061Y0145783D01*
X0118249Y0141960D02*
X0120291Y0141960D01*
X0119917Y0142559D02*
X0119372Y0142559D01*
X0120665Y0141362D02*
X0116804Y0141362D01*
X0115359Y0140763D02*
X0121039Y0140763D01*
X0121413Y0140165D02*
X0107328Y0140165D01*
X0107080Y0140763D02*
X0113680Y0140763D01*
X0113177Y0141362D02*
X0106832Y0141362D01*
X0107576Y0139566D02*
X0121787Y0139566D01*
X0121852Y0139462D02*
X0121852Y0139462D01*
X0122267Y0138968D02*
X0107797Y0138968D01*
X0107778Y0138369D02*
X0122770Y0138369D01*
X0123272Y0137771D02*
X0107410Y0137771D01*
X0094661Y0154529D02*
X0093068Y0154529D01*
X0092866Y0155127D02*
X0093838Y0155127D01*
X0093590Y0155726D02*
X0092665Y0155726D01*
X0092464Y0156324D02*
X0093343Y0156324D01*
X0090220Y0157351D02*
X0095659Y0159684D01*
X0100118Y0170677D02*
X0100409Y0169001D01*
X0100739Y0167333D01*
X0101106Y0165672D01*
X0101510Y0164020D01*
X0101951Y0162377D01*
X0102430Y0160745D01*
X0102945Y0159124D01*
X0103496Y0157515D01*
X0104084Y0155919D01*
X0104708Y0154336D01*
X0105367Y0152768D01*
X0182714Y0182714D02*
X0189786Y0189786D01*
X0182714Y0182714D01*
X0189786Y0189786D01*
X0182714Y0182714D01*
X0137281Y0094912D02*
X0139369Y0093825D01*
X0141482Y0092787D01*
X0143619Y0091799D01*
X0145778Y0090861D01*
X0147959Y0089974D01*
X0150159Y0089138D01*
X0152379Y0088354D01*
X0154616Y0087622D01*
X0156870Y0086942D01*
X0159140Y0086316D01*
X0161423Y0085743D01*
X0163719Y0085224D01*
X0166027Y0084758D01*
X0168345Y0084347D01*
X0170671Y0083990D01*
X0173006Y0083687D01*
X0175347Y0083440D01*
X0177693Y0083247D01*
X0180043Y0083109D01*
X0182396Y0083027D01*
X0184750Y0082999D01*
X0201823Y0100118D02*
X0203499Y0100409D01*
X0205167Y0100739D01*
X0206828Y0101106D01*
X0208480Y0101510D01*
X0210123Y0101951D01*
X0211755Y0102430D01*
X0213376Y0102945D01*
X0214985Y0103496D01*
X0216581Y0104084D01*
X0218164Y0104708D01*
X0219732Y0105367D01*
X0189786Y0182714D02*
X0182714Y0189786D01*
X0094413Y0235218D02*
X0093333Y0233055D01*
X0092303Y0230866D01*
X0091325Y0228654D01*
X0090399Y0226420D01*
X0089525Y0224165D01*
X0088705Y0221889D01*
X0087938Y0219596D01*
X0087225Y0217285D01*
X0086566Y0214957D01*
X0085962Y0212615D01*
X0085413Y0210260D01*
X0084920Y0207892D01*
X0084482Y0205514D01*
X0084099Y0203126D01*
X0083773Y0200729D01*
X0083503Y0198326D01*
X0083289Y0195917D01*
X0083132Y0193503D01*
X0083031Y0191087D01*
X0082987Y0188668D01*
X0083000Y0186250D01*
X0145783Y0257439D02*
X0152768Y0267133D01*
X0155250Y0260750D02*
X0164529Y0265204D01*
X0170635Y0272380D02*
X0170677Y0272382D01*
X0170635Y0272380D02*
X0170623Y0272768D01*
X0170621Y0273156D01*
X0170629Y0273545D01*
X0170646Y0273933D01*
X0170672Y0274320D01*
X0170708Y0274707D01*
X0170753Y0275093D01*
X0170807Y0275477D01*
X0170871Y0275860D01*
X0170944Y0276242D01*
X0171026Y0276621D01*
X0171118Y0276999D01*
X0171218Y0277374D01*
X0171328Y0277746D01*
X0171447Y0278116D01*
X0171575Y0278483D01*
X0171711Y0278847D01*
X0171857Y0279207D01*
X0172011Y0279563D01*
X0172174Y0279916D01*
X0172345Y0280264D01*
X0172525Y0280609D01*
X0172713Y0280948D01*
X0172909Y0281283D01*
X0173114Y0281614D01*
X0173326Y0281939D01*
X0173546Y0282259D01*
X0173774Y0282573D01*
X0174010Y0282882D01*
X0174253Y0283185D01*
X0174503Y0283482D01*
X0174760Y0283773D01*
X0175025Y0284058D01*
X0175296Y0284336D01*
X0175574Y0284607D01*
X0175858Y0284871D01*
X0176149Y0285129D01*
X0176446Y0285379D01*
X0176749Y0285622D01*
X0177057Y0285858D01*
X0177372Y0286086D01*
X0177692Y0286306D01*
X0178017Y0286518D01*
X0178347Y0286723D01*
X0178682Y0286919D01*
X0179022Y0287108D01*
X0179366Y0287287D01*
X0179715Y0287459D01*
X0180067Y0287622D01*
X0180424Y0287776D01*
X0180784Y0287922D01*
X0181147Y0288058D01*
X0181514Y0288186D01*
X0181884Y0288305D01*
X0182256Y0288415D01*
X0182631Y0288516D01*
X0183008Y0288608D01*
X0183388Y0288690D01*
X0183769Y0288763D01*
X0184153Y0288827D01*
X0184537Y0288882D01*
X0184923Y0288927D01*
X0185310Y0288963D01*
X0185697Y0288989D01*
X0186085Y0289006D01*
X0186473Y0289014D01*
X0186862Y0289012D01*
X0187250Y0289000D01*
X0201710Y0289792D02*
X0224101Y0289792D01*
X0234719Y0277088D02*
X0231523Y0269093D01*
X0228838Y0266451D02*
X0225947Y0266451D01*
X0225588Y0266655D02*
X0225588Y0266655D01*
X0231071Y0273034D02*
X0231160Y0273034D01*
X0170677Y0272382D02*
X0169001Y0272091D01*
X0167333Y0271761D01*
X0165672Y0271394D01*
X0164020Y0270990D01*
X0162377Y0270549D01*
X0160745Y0270070D01*
X0159124Y0269555D01*
X0157515Y0269004D01*
X0155919Y0268416D01*
X0154336Y0267792D01*
X0152768Y0267133D01*
X0187250Y0289001D02*
X0189604Y0288973D01*
X0191957Y0288891D01*
X0194307Y0288753D01*
X0196653Y0288560D01*
X0198994Y0288313D01*
X0201329Y0288010D01*
X0203655Y0287653D01*
X0205973Y0287242D01*
X0208281Y0286776D01*
X0210577Y0286257D01*
X0212860Y0285684D01*
X0215130Y0285058D01*
X0217384Y0284378D01*
X0219621Y0283646D01*
X0221841Y0282862D01*
X0224041Y0282026D01*
X0226222Y0281139D01*
X0228381Y0280201D01*
X0230518Y0279213D01*
X0232631Y0278175D01*
X0234719Y0277088D01*
X0090221Y0157352D02*
X0090928Y0155106D01*
X0091688Y0152878D01*
X0092500Y0150669D01*
X0093364Y0148479D01*
X0094278Y0146309D01*
X0095244Y0144162D01*
X0096259Y0142038D01*
X0097323Y0139938D01*
X0098437Y0137864D01*
X0099598Y0135817D01*
X0100808Y0133797D01*
X0102064Y0131806D01*
X0103367Y0129845D01*
X0104715Y0127915D01*
X0106108Y0126018D01*
X0107545Y0124153D01*
X0109025Y0122323D01*
X0110548Y0120527D01*
X0112112Y0118768D01*
X0113717Y0117046D01*
X0115362Y0115362D01*
X0282279Y0215148D02*
X0281572Y0217394D01*
X0280812Y0219622D01*
X0280000Y0221831D01*
X0279136Y0224021D01*
X0278222Y0226191D01*
X0277256Y0228338D01*
X0276241Y0230462D01*
X0275177Y0232562D01*
X0274063Y0234636D01*
X0272902Y0236683D01*
X0271692Y0238703D01*
X0270436Y0240694D01*
X0269133Y0242655D01*
X0267785Y0244585D01*
X0266392Y0246482D01*
X0264955Y0248347D01*
X0263475Y0250177D01*
X0261952Y0251973D01*
X0260388Y0253732D01*
X0258783Y0255454D01*
X0257138Y0257138D01*
X0238619Y0256399D02*
X0237022Y0257563D01*
X0235399Y0258691D01*
X0233751Y0259782D01*
X0232079Y0260836D01*
X0230383Y0261851D01*
X0228665Y0262828D01*
X0226925Y0263766D01*
X0225165Y0264665D01*
X0223385Y0265523D01*
X0221586Y0266341D01*
X0219768Y0267118D01*
X0257138Y0115362D02*
X0255454Y0113717D01*
X0253732Y0112112D01*
X0251973Y0110548D01*
X0250177Y0109025D01*
X0248347Y0107545D01*
X0246482Y0106108D01*
X0244585Y0104715D01*
X0242655Y0103367D01*
X0240694Y0102064D01*
X0238703Y0100808D01*
X0236683Y0099598D01*
X0234636Y0098437D01*
X0232561Y0097323D01*
X0230462Y0096259D01*
X0228338Y0095244D01*
X0226191Y0094278D01*
X0224021Y0093364D01*
X0221831Y0092500D01*
X0219622Y0091688D01*
X0217394Y0090928D01*
X0215148Y0090221D01*
X0256399Y0133882D02*
X0257563Y0135479D01*
X0258691Y0137101D01*
X0259782Y0138749D01*
X0260836Y0140422D01*
X0261851Y0142117D01*
X0262828Y0143835D01*
X0263766Y0145575D01*
X0264665Y0147335D01*
X0265523Y0149115D01*
X0266341Y0150914D01*
X0267118Y0152732D01*
X0272883Y0198823D02*
X0272577Y0200776D01*
X0272227Y0202721D01*
X0271833Y0204658D01*
X0271396Y0206585D01*
X0270915Y0208502D01*
X0270391Y0210408D01*
X0269824Y0212301D01*
X0269214Y0214181D01*
X0268563Y0216047D01*
X0267869Y0217898D01*
X0267133Y0219732D01*
X0152732Y0105382D02*
X0150914Y0106159D01*
X0149115Y0106977D01*
X0147335Y0107835D01*
X0145575Y0108734D01*
X0143835Y0109672D01*
X0142117Y0110649D01*
X0140421Y0111664D01*
X0138749Y0112718D01*
X0137101Y0113809D01*
X0135478Y0114937D01*
X0133881Y0116101D01*
X0274588Y0138781D02*
X0275675Y0140869D01*
X0276713Y0142982D01*
X0277701Y0145119D01*
X0278639Y0147278D01*
X0279526Y0149459D01*
X0280362Y0151659D01*
X0281146Y0153879D01*
X0281878Y0156116D01*
X0282558Y0158370D01*
X0283184Y0160640D01*
X0283757Y0162923D01*
X0284276Y0165219D01*
X0284742Y0167527D01*
X0285153Y0169845D01*
X0285510Y0172171D01*
X0285813Y0174506D01*
X0286060Y0176847D01*
X0286253Y0179193D01*
X0286391Y0181543D01*
X0286473Y0183896D01*
X0286501Y0186250D01*
D13*
X0208750Y0107750D02*
X0186250Y0098750D01*
X0098750Y0186250D02*
X0107250Y0207750D01*
X0186250Y0273750D02*
X0201750Y0273750D01*
D14*
X0217750Y0261250D03*
X0260750Y0217250D03*
X0261250Y0155250D03*
X0217250Y0111250D03*
X0155250Y0111250D03*
X0111250Y0155250D03*
X0111250Y0217250D03*
X0155250Y0260750D03*
M02*
