G75*
%MOIN*%
%OFA0B0*%
%FSLAX25Y25*%
%IPPOS*%
%LPD*%
%AMOC8*
5,1,8,0,0,1.08239X$1,22.5*
%
%ADD10C,0.50000*%
D10*
X0066250Y0186250D02*
X0066286Y0189195D01*
X0066395Y0192138D01*
X0066575Y0195078D01*
X0066828Y0198012D01*
X0067152Y0200939D01*
X0067549Y0203858D01*
X0068017Y0206765D01*
X0068556Y0209661D01*
X0069166Y0212542D01*
X0069846Y0215408D01*
X0070597Y0218256D01*
X0071417Y0221084D01*
X0072307Y0223892D01*
X0073265Y0226677D01*
X0074291Y0229437D01*
X0075384Y0232172D01*
X0076545Y0234879D01*
X0077771Y0237557D01*
X0079063Y0240203D01*
X0080419Y0242818D01*
X0081840Y0245398D01*
X0083323Y0247942D01*
X0084868Y0250450D01*
X0086474Y0252918D01*
X0088140Y0255347D01*
X0089865Y0257734D01*
X0091648Y0260078D01*
X0093489Y0262377D01*
X0095385Y0264631D01*
X0097336Y0266837D01*
X0099340Y0268995D01*
X0101397Y0271103D01*
X0103505Y0273160D01*
X0105663Y0275164D01*
X0107869Y0277115D01*
X0110123Y0279011D01*
X0112422Y0280852D01*
X0114766Y0282635D01*
X0117153Y0284360D01*
X0119582Y0286026D01*
X0122050Y0287632D01*
X0124558Y0289177D01*
X0127102Y0290660D01*
X0129682Y0292081D01*
X0132297Y0293437D01*
X0134943Y0294729D01*
X0137621Y0295955D01*
X0140328Y0297116D01*
X0143063Y0298209D01*
X0145823Y0299235D01*
X0148608Y0300193D01*
X0151416Y0301083D01*
X0154244Y0301903D01*
X0157092Y0302654D01*
X0159958Y0303334D01*
X0162839Y0303944D01*
X0165735Y0304483D01*
X0168642Y0304951D01*
X0171561Y0305348D01*
X0174488Y0305672D01*
X0177422Y0305925D01*
X0180362Y0306105D01*
X0183305Y0306214D01*
X0186250Y0306250D01*
X0189195Y0306214D01*
X0192138Y0306105D01*
X0195078Y0305925D01*
X0198012Y0305672D01*
X0200939Y0305348D01*
X0203858Y0304951D01*
X0206765Y0304483D01*
X0209661Y0303944D01*
X0212542Y0303334D01*
X0215408Y0302654D01*
X0218256Y0301903D01*
X0221084Y0301083D01*
X0223892Y0300193D01*
X0226677Y0299235D01*
X0229437Y0298209D01*
X0232172Y0297116D01*
X0234879Y0295955D01*
X0237557Y0294729D01*
X0240203Y0293437D01*
X0242818Y0292081D01*
X0245398Y0290660D01*
X0247942Y0289177D01*
X0250450Y0287632D01*
X0252918Y0286026D01*
X0255347Y0284360D01*
X0257734Y0282635D01*
X0260078Y0280852D01*
X0262377Y0279011D01*
X0264631Y0277115D01*
X0266837Y0275164D01*
X0268995Y0273160D01*
X0271103Y0271103D01*
X0273160Y0268995D01*
X0275164Y0266837D01*
X0277115Y0264631D01*
X0279011Y0262377D01*
X0280852Y0260078D01*
X0282635Y0257734D01*
X0284360Y0255347D01*
X0286026Y0252918D01*
X0287632Y0250450D01*
X0289177Y0247942D01*
X0290660Y0245398D01*
X0292081Y0242818D01*
X0293437Y0240203D01*
X0294729Y0237557D01*
X0295955Y0234879D01*
X0297116Y0232172D01*
X0298209Y0229437D01*
X0299235Y0226677D01*
X0300193Y0223892D01*
X0301083Y0221084D01*
X0301903Y0218256D01*
X0302654Y0215408D01*
X0303334Y0212542D01*
X0303944Y0209661D01*
X0304483Y0206765D01*
X0304951Y0203858D01*
X0305348Y0200939D01*
X0305672Y0198012D01*
X0305925Y0195078D01*
X0306105Y0192138D01*
X0306214Y0189195D01*
X0306250Y0186250D01*
X0306214Y0183305D01*
X0306105Y0180362D01*
X0305925Y0177422D01*
X0305672Y0174488D01*
X0305348Y0171561D01*
X0304951Y0168642D01*
X0304483Y0165735D01*
X0303944Y0162839D01*
X0303334Y0159958D01*
X0302654Y0157092D01*
X0301903Y0154244D01*
X0301083Y0151416D01*
X0300193Y0148608D01*
X0299235Y0145823D01*
X0298209Y0143063D01*
X0297116Y0140328D01*
X0295955Y0137621D01*
X0294729Y0134943D01*
X0293437Y0132297D01*
X0292081Y0129682D01*
X0290660Y0127102D01*
X0289177Y0124558D01*
X0287632Y0122050D01*
X0286026Y0119582D01*
X0284360Y0117153D01*
X0282635Y0114766D01*
X0280852Y0112422D01*
X0279011Y0110123D01*
X0277115Y0107869D01*
X0275164Y0105663D01*
X0273160Y0103505D01*
X0271103Y0101397D01*
X0268995Y0099340D01*
X0266837Y0097336D01*
X0264631Y0095385D01*
X0262377Y0093489D01*
X0260078Y0091648D01*
X0257734Y0089865D01*
X0255347Y0088140D01*
X0252918Y0086474D01*
X0250450Y0084868D01*
X0247942Y0083323D01*
X0245398Y0081840D01*
X0242818Y0080419D01*
X0240203Y0079063D01*
X0237557Y0077771D01*
X0234879Y0076545D01*
X0232172Y0075384D01*
X0229437Y0074291D01*
X0226677Y0073265D01*
X0223892Y0072307D01*
X0221084Y0071417D01*
X0218256Y0070597D01*
X0215408Y0069846D01*
X0212542Y0069166D01*
X0209661Y0068556D01*
X0206765Y0068017D01*
X0203858Y0067549D01*
X0200939Y0067152D01*
X0198012Y0066828D01*
X0195078Y0066575D01*
X0192138Y0066395D01*
X0189195Y0066286D01*
X0186250Y0066250D01*
X0183305Y0066286D01*
X0180362Y0066395D01*
X0177422Y0066575D01*
X0174488Y0066828D01*
X0171561Y0067152D01*
X0168642Y0067549D01*
X0165735Y0068017D01*
X0162839Y0068556D01*
X0159958Y0069166D01*
X0157092Y0069846D01*
X0154244Y0070597D01*
X0151416Y0071417D01*
X0148608Y0072307D01*
X0145823Y0073265D01*
X0143063Y0074291D01*
X0140328Y0075384D01*
X0137621Y0076545D01*
X0134943Y0077771D01*
X0132297Y0079063D01*
X0129682Y0080419D01*
X0127102Y0081840D01*
X0124558Y0083323D01*
X0122050Y0084868D01*
X0119582Y0086474D01*
X0117153Y0088140D01*
X0114766Y0089865D01*
X0112422Y0091648D01*
X0110123Y0093489D01*
X0107869Y0095385D01*
X0105663Y0097336D01*
X0103505Y0099340D01*
X0101397Y0101397D01*
X0099340Y0103505D01*
X0097336Y0105663D01*
X0095385Y0107869D01*
X0093489Y0110123D01*
X0091648Y0112422D01*
X0089865Y0114766D01*
X0088140Y0117153D01*
X0086474Y0119582D01*
X0084868Y0122050D01*
X0083323Y0124558D01*
X0081840Y0127102D01*
X0080419Y0129682D01*
X0079063Y0132297D01*
X0077771Y0134943D01*
X0076545Y0137621D01*
X0075384Y0140328D01*
X0074291Y0143063D01*
X0073265Y0145823D01*
X0072307Y0148608D01*
X0071417Y0151416D01*
X0070597Y0154244D01*
X0069846Y0157092D01*
X0069166Y0159958D01*
X0068556Y0162839D01*
X0068017Y0165735D01*
X0067549Y0168642D01*
X0067152Y0171561D01*
X0066828Y0174488D01*
X0066575Y0177422D01*
X0066395Y0180362D01*
X0066286Y0183305D01*
X0066250Y0186250D01*
M02*
