G75*
%MOIN*%
%OFA0B0*%
%FSLAX25Y25*%
%IPPOS*%
%LPD*%
%AMOC8*
5,1,8,0,0,1.08239X$1,22.5*
%
%ADD10C,0.08000*%
D10*
X0076250Y0186250D02*
X0076283Y0188950D01*
X0076382Y0191647D01*
X0076548Y0194342D01*
X0076780Y0197032D01*
X0077077Y0199715D01*
X0077441Y0202390D01*
X0077869Y0205056D01*
X0078364Y0207710D01*
X0078923Y0210351D01*
X0079547Y0212978D01*
X0080235Y0215588D01*
X0080987Y0218181D01*
X0081802Y0220755D01*
X0082680Y0223308D01*
X0083621Y0225838D01*
X0084623Y0228345D01*
X0085687Y0230827D01*
X0086811Y0233281D01*
X0087995Y0235707D01*
X0089239Y0238104D01*
X0090540Y0240469D01*
X0091900Y0242801D01*
X0093316Y0245100D01*
X0094788Y0247363D01*
X0096316Y0249589D01*
X0097897Y0251777D01*
X0099532Y0253925D01*
X0101219Y0256033D01*
X0102957Y0258099D01*
X0104745Y0260121D01*
X0106583Y0262099D01*
X0108468Y0264032D01*
X0110401Y0265917D01*
X0112379Y0267755D01*
X0114401Y0269543D01*
X0116467Y0271281D01*
X0118575Y0272968D01*
X0120723Y0274603D01*
X0122911Y0276184D01*
X0125137Y0277712D01*
X0127400Y0279184D01*
X0129699Y0280600D01*
X0132031Y0281960D01*
X0134396Y0283261D01*
X0136793Y0284505D01*
X0139219Y0285689D01*
X0141673Y0286813D01*
X0144155Y0287877D01*
X0146662Y0288879D01*
X0149192Y0289820D01*
X0151745Y0290698D01*
X0154319Y0291513D01*
X0156912Y0292265D01*
X0159522Y0292953D01*
X0162149Y0293577D01*
X0164790Y0294136D01*
X0167444Y0294631D01*
X0170110Y0295059D01*
X0172785Y0295423D01*
X0175468Y0295720D01*
X0178158Y0295952D01*
X0180853Y0296118D01*
X0183550Y0296217D01*
X0186250Y0296250D01*
X0188950Y0296217D01*
X0191647Y0296118D01*
X0194342Y0295952D01*
X0197032Y0295720D01*
X0199715Y0295423D01*
X0202390Y0295059D01*
X0205056Y0294631D01*
X0207710Y0294136D01*
X0210351Y0293577D01*
X0212978Y0292953D01*
X0215588Y0292265D01*
X0218181Y0291513D01*
X0220755Y0290698D01*
X0223308Y0289820D01*
X0225838Y0288879D01*
X0228345Y0287877D01*
X0230827Y0286813D01*
X0233281Y0285689D01*
X0235707Y0284505D01*
X0238104Y0283261D01*
X0240469Y0281960D01*
X0242801Y0280600D01*
X0245100Y0279184D01*
X0247363Y0277712D01*
X0249589Y0276184D01*
X0251777Y0274603D01*
X0253925Y0272968D01*
X0256033Y0271281D01*
X0258099Y0269543D01*
X0260121Y0267755D01*
X0262099Y0265917D01*
X0264032Y0264032D01*
X0265917Y0262099D01*
X0267755Y0260121D01*
X0269543Y0258099D01*
X0271281Y0256033D01*
X0272968Y0253925D01*
X0274603Y0251777D01*
X0276184Y0249589D01*
X0277712Y0247363D01*
X0279184Y0245100D01*
X0280600Y0242801D01*
X0281960Y0240469D01*
X0283261Y0238104D01*
X0284505Y0235707D01*
X0285689Y0233281D01*
X0286813Y0230827D01*
X0287877Y0228345D01*
X0288879Y0225838D01*
X0289820Y0223308D01*
X0290698Y0220755D01*
X0291513Y0218181D01*
X0292265Y0215588D01*
X0292953Y0212978D01*
X0293577Y0210351D01*
X0294136Y0207710D01*
X0294631Y0205056D01*
X0295059Y0202390D01*
X0295423Y0199715D01*
X0295720Y0197032D01*
X0295952Y0194342D01*
X0296118Y0191647D01*
X0296217Y0188950D01*
X0296250Y0186250D01*
X0296217Y0183550D01*
X0296118Y0180853D01*
X0295952Y0178158D01*
X0295720Y0175468D01*
X0295423Y0172785D01*
X0295059Y0170110D01*
X0294631Y0167444D01*
X0294136Y0164790D01*
X0293577Y0162149D01*
X0292953Y0159522D01*
X0292265Y0156912D01*
X0291513Y0154319D01*
X0290698Y0151745D01*
X0289820Y0149192D01*
X0288879Y0146662D01*
X0287877Y0144155D01*
X0286813Y0141673D01*
X0285689Y0139219D01*
X0284505Y0136793D01*
X0283261Y0134396D01*
X0281960Y0132031D01*
X0280600Y0129699D01*
X0279184Y0127400D01*
X0277712Y0125137D01*
X0276184Y0122911D01*
X0274603Y0120723D01*
X0272968Y0118575D01*
X0271281Y0116467D01*
X0269543Y0114401D01*
X0267755Y0112379D01*
X0265917Y0110401D01*
X0264032Y0108468D01*
X0262099Y0106583D01*
X0260121Y0104745D01*
X0258099Y0102957D01*
X0256033Y0101219D01*
X0253925Y0099532D01*
X0251777Y0097897D01*
X0249589Y0096316D01*
X0247363Y0094788D01*
X0245100Y0093316D01*
X0242801Y0091900D01*
X0240469Y0090540D01*
X0238104Y0089239D01*
X0235707Y0087995D01*
X0233281Y0086811D01*
X0230827Y0085687D01*
X0228345Y0084623D01*
X0225838Y0083621D01*
X0223308Y0082680D01*
X0220755Y0081802D01*
X0218181Y0080987D01*
X0215588Y0080235D01*
X0212978Y0079547D01*
X0210351Y0078923D01*
X0207710Y0078364D01*
X0205056Y0077869D01*
X0202390Y0077441D01*
X0199715Y0077077D01*
X0197032Y0076780D01*
X0194342Y0076548D01*
X0191647Y0076382D01*
X0188950Y0076283D01*
X0186250Y0076250D01*
X0183550Y0076283D01*
X0180853Y0076382D01*
X0178158Y0076548D01*
X0175468Y0076780D01*
X0172785Y0077077D01*
X0170110Y0077441D01*
X0167444Y0077869D01*
X0164790Y0078364D01*
X0162149Y0078923D01*
X0159522Y0079547D01*
X0156912Y0080235D01*
X0154319Y0080987D01*
X0151745Y0081802D01*
X0149192Y0082680D01*
X0146662Y0083621D01*
X0144155Y0084623D01*
X0141673Y0085687D01*
X0139219Y0086811D01*
X0136793Y0087995D01*
X0134396Y0089239D01*
X0132031Y0090540D01*
X0129699Y0091900D01*
X0127400Y0093316D01*
X0125137Y0094788D01*
X0122911Y0096316D01*
X0120723Y0097897D01*
X0118575Y0099532D01*
X0116467Y0101219D01*
X0114401Y0102957D01*
X0112379Y0104745D01*
X0110401Y0106583D01*
X0108468Y0108468D01*
X0106583Y0110401D01*
X0104745Y0112379D01*
X0102957Y0114401D01*
X0101219Y0116467D01*
X0099532Y0118575D01*
X0097897Y0120723D01*
X0096316Y0122911D01*
X0094788Y0125137D01*
X0093316Y0127400D01*
X0091900Y0129699D01*
X0090540Y0132031D01*
X0089239Y0134396D01*
X0087995Y0136793D01*
X0086811Y0139219D01*
X0085687Y0141673D01*
X0084623Y0144155D01*
X0083621Y0146662D01*
X0082680Y0149192D01*
X0081802Y0151745D01*
X0080987Y0154319D01*
X0080235Y0156912D01*
X0079547Y0159522D01*
X0078923Y0162149D01*
X0078364Y0164790D01*
X0077869Y0167444D01*
X0077441Y0170110D01*
X0077077Y0172785D01*
X0076780Y0175468D01*
X0076548Y0178158D01*
X0076382Y0180853D01*
X0076283Y0183550D01*
X0076250Y0186250D01*
X0061250Y0186250D02*
X0061288Y0189318D01*
X0061401Y0192383D01*
X0061589Y0195446D01*
X0061852Y0198502D01*
X0062190Y0201551D01*
X0062603Y0204591D01*
X0063090Y0207620D01*
X0063652Y0210636D01*
X0064287Y0213638D01*
X0064996Y0216623D01*
X0065778Y0219589D01*
X0066632Y0222536D01*
X0067559Y0225460D01*
X0068557Y0228361D01*
X0069626Y0231237D01*
X0070765Y0234085D01*
X0071974Y0236905D01*
X0073251Y0239694D01*
X0074597Y0242451D01*
X0076010Y0245175D01*
X0077489Y0247862D01*
X0079034Y0250513D01*
X0080643Y0253125D01*
X0082316Y0255696D01*
X0084052Y0258226D01*
X0085849Y0260712D01*
X0087707Y0263154D01*
X0089624Y0265549D01*
X0091599Y0267897D01*
X0093631Y0270195D01*
X0095719Y0272443D01*
X0097862Y0274638D01*
X0100057Y0276781D01*
X0102305Y0278869D01*
X0104603Y0280901D01*
X0106951Y0282876D01*
X0109346Y0284793D01*
X0111788Y0286651D01*
X0114274Y0288448D01*
X0116804Y0290184D01*
X0119375Y0291857D01*
X0121987Y0293466D01*
X0124638Y0295011D01*
X0127325Y0296490D01*
X0130049Y0297903D01*
X0132806Y0299249D01*
X0135595Y0300526D01*
X0138415Y0301735D01*
X0141263Y0302874D01*
X0144139Y0303943D01*
X0147040Y0304941D01*
X0149964Y0305868D01*
X0152911Y0306722D01*
X0155877Y0307504D01*
X0158862Y0308213D01*
X0161864Y0308848D01*
X0164880Y0309410D01*
X0167909Y0309897D01*
X0170949Y0310310D01*
X0173998Y0310648D01*
X0177054Y0310911D01*
X0180117Y0311099D01*
X0183182Y0311212D01*
X0186250Y0311250D01*
X0189318Y0311212D01*
X0192383Y0311099D01*
X0195446Y0310911D01*
X0198502Y0310648D01*
X0201551Y0310310D01*
X0204591Y0309897D01*
X0207620Y0309410D01*
X0210636Y0308848D01*
X0213638Y0308213D01*
X0216623Y0307504D01*
X0219589Y0306722D01*
X0222536Y0305868D01*
X0225460Y0304941D01*
X0228361Y0303943D01*
X0231237Y0302874D01*
X0234085Y0301735D01*
X0236905Y0300526D01*
X0239694Y0299249D01*
X0242451Y0297903D01*
X0245175Y0296490D01*
X0247862Y0295011D01*
X0250513Y0293466D01*
X0253125Y0291857D01*
X0255696Y0290184D01*
X0258226Y0288448D01*
X0260712Y0286651D01*
X0263154Y0284793D01*
X0265549Y0282876D01*
X0267897Y0280901D01*
X0270195Y0278869D01*
X0272443Y0276781D01*
X0274638Y0274638D01*
X0276781Y0272443D01*
X0278869Y0270195D01*
X0280901Y0267897D01*
X0282876Y0265549D01*
X0284793Y0263154D01*
X0286651Y0260712D01*
X0288448Y0258226D01*
X0290184Y0255696D01*
X0291857Y0253125D01*
X0293466Y0250513D01*
X0295011Y0247862D01*
X0296490Y0245175D01*
X0297903Y0242451D01*
X0299249Y0239694D01*
X0300526Y0236905D01*
X0301735Y0234085D01*
X0302874Y0231237D01*
X0303943Y0228361D01*
X0304941Y0225460D01*
X0305868Y0222536D01*
X0306722Y0219589D01*
X0307504Y0216623D01*
X0308213Y0213638D01*
X0308848Y0210636D01*
X0309410Y0207620D01*
X0309897Y0204591D01*
X0310310Y0201551D01*
X0310648Y0198502D01*
X0310911Y0195446D01*
X0311099Y0192383D01*
X0311212Y0189318D01*
X0311250Y0186250D01*
X0311212Y0183182D01*
X0311099Y0180117D01*
X0310911Y0177054D01*
X0310648Y0173998D01*
X0310310Y0170949D01*
X0309897Y0167909D01*
X0309410Y0164880D01*
X0308848Y0161864D01*
X0308213Y0158862D01*
X0307504Y0155877D01*
X0306722Y0152911D01*
X0305868Y0149964D01*
X0304941Y0147040D01*
X0303943Y0144139D01*
X0302874Y0141263D01*
X0301735Y0138415D01*
X0300526Y0135595D01*
X0299249Y0132806D01*
X0297903Y0130049D01*
X0296490Y0127325D01*
X0295011Y0124638D01*
X0293466Y0121987D01*
X0291857Y0119375D01*
X0290184Y0116804D01*
X0288448Y0114274D01*
X0286651Y0111788D01*
X0284793Y0109346D01*
X0282876Y0106951D01*
X0280901Y0104603D01*
X0278869Y0102305D01*
X0276781Y0100057D01*
X0274638Y0097862D01*
X0272443Y0095719D01*
X0270195Y0093631D01*
X0267897Y0091599D01*
X0265549Y0089624D01*
X0263154Y0087707D01*
X0260712Y0085849D01*
X0258226Y0084052D01*
X0255696Y0082316D01*
X0253125Y0080643D01*
X0250513Y0079034D01*
X0247862Y0077489D01*
X0245175Y0076010D01*
X0242451Y0074597D01*
X0239694Y0073251D01*
X0236905Y0071974D01*
X0234085Y0070765D01*
X0231237Y0069626D01*
X0228361Y0068557D01*
X0225460Y0067559D01*
X0222536Y0066632D01*
X0219589Y0065778D01*
X0216623Y0064996D01*
X0213638Y0064287D01*
X0210636Y0063652D01*
X0207620Y0063090D01*
X0204591Y0062603D01*
X0201551Y0062190D01*
X0198502Y0061852D01*
X0195446Y0061589D01*
X0192383Y0061401D01*
X0189318Y0061288D01*
X0186250Y0061250D01*
X0183182Y0061288D01*
X0180117Y0061401D01*
X0177054Y0061589D01*
X0173998Y0061852D01*
X0170949Y0062190D01*
X0167909Y0062603D01*
X0164880Y0063090D01*
X0161864Y0063652D01*
X0158862Y0064287D01*
X0155877Y0064996D01*
X0152911Y0065778D01*
X0149964Y0066632D01*
X0147040Y0067559D01*
X0144139Y0068557D01*
X0141263Y0069626D01*
X0138415Y0070765D01*
X0135595Y0071974D01*
X0132806Y0073251D01*
X0130049Y0074597D01*
X0127325Y0076010D01*
X0124638Y0077489D01*
X0121987Y0079034D01*
X0119375Y0080643D01*
X0116804Y0082316D01*
X0114274Y0084052D01*
X0111788Y0085849D01*
X0109346Y0087707D01*
X0106951Y0089624D01*
X0104603Y0091599D01*
X0102305Y0093631D01*
X0100057Y0095719D01*
X0097862Y0097862D01*
X0095719Y0100057D01*
X0093631Y0102305D01*
X0091599Y0104603D01*
X0089624Y0106951D01*
X0087707Y0109346D01*
X0085849Y0111788D01*
X0084052Y0114274D01*
X0082316Y0116804D01*
X0080643Y0119375D01*
X0079034Y0121987D01*
X0077489Y0124638D01*
X0076010Y0127325D01*
X0074597Y0130049D01*
X0073251Y0132806D01*
X0071974Y0135595D01*
X0070765Y0138415D01*
X0069626Y0141263D01*
X0068557Y0144139D01*
X0067559Y0147040D01*
X0066632Y0149964D01*
X0065778Y0152911D01*
X0064996Y0155877D01*
X0064287Y0158862D01*
X0063652Y0161864D01*
X0063090Y0164880D01*
X0062603Y0167909D01*
X0062190Y0170949D01*
X0061852Y0173998D01*
X0061589Y0177054D01*
X0061401Y0180117D01*
X0061288Y0183182D01*
X0061250Y0186250D01*
M02*
