G75*
%MOIN*%
%OFA0B0*%
%FSLAX25Y25*%
%IPPOS*%
%LPD*%
%AMOC8*
5,1,8,0,0,1.08239X$1,22.5*
%
%ADD10C,0.00500*%
D10*
X0101516Y0074758D02*
X0101034Y0075870D01*
X0100524Y0076970D01*
X0099989Y0078057D01*
X0099427Y0079132D01*
X0098839Y0080192D01*
X0098226Y0081238D01*
X0097587Y0082268D01*
X0096924Y0083283D01*
X0096236Y0084281D01*
X0095525Y0085263D01*
X0094789Y0086227D01*
X0094031Y0087173D01*
X0093250Y0088100D01*
X0092447Y0089008D01*
X0091622Y0089896D01*
X0090775Y0090764D01*
X0090790Y0090790D02*
X0089922Y0091638D01*
X0089034Y0092464D01*
X0088125Y0093268D01*
X0087198Y0094050D01*
X0086251Y0094809D01*
X0085287Y0095546D01*
X0084305Y0096258D01*
X0083306Y0096946D01*
X0082291Y0097610D01*
X0081259Y0098250D01*
X0080213Y0098864D01*
X0079152Y0099452D01*
X0078077Y0100015D01*
X0076989Y0100551D01*
X0075888Y0101060D01*
X0074775Y0101543D01*
X0061526Y0134588D02*
X0061048Y0135703D01*
X0060543Y0136807D01*
X0060012Y0137897D01*
X0059454Y0138975D01*
X0058871Y0140038D01*
X0058261Y0141087D01*
X0057627Y0142121D01*
X0056967Y0143140D01*
X0056283Y0144142D01*
X0055575Y0145127D01*
X0054843Y0146095D01*
X0054088Y0147044D01*
X0053310Y0147975D01*
X0052510Y0148887D01*
X0051688Y0149779D01*
X0050845Y0150651D01*
X0061503Y0134568D02*
X0061952Y0133443D01*
X0062375Y0132306D01*
X0062769Y0131160D01*
X0063136Y0130004D01*
X0063475Y0128840D01*
X0063785Y0127668D01*
X0064067Y0126489D01*
X0064320Y0125304D01*
X0064545Y0124112D01*
X0064740Y0122916D01*
X0064907Y0121715D01*
X0065044Y0120511D01*
X0065152Y0119303D01*
X0065231Y0118093D01*
X0065280Y0116882D01*
X0065300Y0115670D01*
X0051250Y0186250D02*
X0051235Y0187463D01*
X0051191Y0188676D01*
X0051118Y0189887D01*
X0051015Y0191095D01*
X0050882Y0192301D01*
X0050721Y0193504D01*
X0050530Y0194702D01*
X0050311Y0195895D01*
X0050062Y0197083D01*
X0049785Y0198264D01*
X0049479Y0199438D01*
X0049145Y0200604D01*
X0048783Y0201762D01*
X0048393Y0202911D01*
X0047974Y0204050D01*
X0047529Y0205178D01*
X0051221Y0186241D02*
X0051206Y0185029D01*
X0051161Y0183818D01*
X0051087Y0182608D01*
X0050984Y0181400D01*
X0050851Y0180195D01*
X0050689Y0178993D01*
X0050498Y0177796D01*
X0050279Y0176604D01*
X0050030Y0175417D01*
X0049753Y0174237D01*
X0049447Y0173064D01*
X0049113Y0171898D01*
X0048751Y0170742D01*
X0048361Y0169594D01*
X0047943Y0168456D01*
X0047497Y0167328D01*
X0061526Y0237912D02*
X0061977Y0239038D01*
X0062400Y0240175D01*
X0062795Y0241322D01*
X0063163Y0242478D01*
X0063502Y0243643D01*
X0063813Y0244816D01*
X0064096Y0245996D01*
X0064349Y0247182D01*
X0064574Y0248374D01*
X0064770Y0249572D01*
X0064937Y0250773D01*
X0065075Y0251979D01*
X0065183Y0253187D01*
X0065262Y0254398D01*
X0065311Y0255610D01*
X0065332Y0256823D01*
X0061496Y0237916D02*
X0061018Y0236801D01*
X0060513Y0235699D01*
X0059981Y0234610D01*
X0059423Y0233533D01*
X0058840Y0232471D01*
X0058231Y0231423D01*
X0057596Y0230390D01*
X0056937Y0229372D01*
X0056253Y0228371D01*
X0055545Y0227387D01*
X0054814Y0226420D01*
X0054059Y0225471D01*
X0053282Y0224541D01*
X0052482Y0223630D01*
X0051661Y0222738D01*
X0050818Y0221867D01*
X0090790Y0281710D02*
X0091638Y0282578D01*
X0092464Y0283466D01*
X0093268Y0284375D01*
X0094050Y0285302D01*
X0094809Y0286249D01*
X0095546Y0287213D01*
X0096258Y0288195D01*
X0096946Y0289194D01*
X0097610Y0290209D01*
X0098250Y0291241D01*
X0098864Y0292287D01*
X0099452Y0293348D01*
X0100015Y0294423D01*
X0100551Y0295511D01*
X0101060Y0296612D01*
X0101543Y0297725D01*
X0090764Y0281725D02*
X0089896Y0280878D01*
X0089008Y0280053D01*
X0088100Y0279250D01*
X0087173Y0278469D01*
X0086227Y0277711D01*
X0085263Y0276975D01*
X0084281Y0276264D01*
X0083283Y0275576D01*
X0082268Y0274913D01*
X0081238Y0274274D01*
X0080192Y0273661D01*
X0079132Y0273073D01*
X0078057Y0272511D01*
X0076970Y0271976D01*
X0075870Y0271466D01*
X0074758Y0270984D01*
X0134588Y0310974D02*
X0135703Y0311452D01*
X0136807Y0311957D01*
X0137897Y0312488D01*
X0138975Y0313046D01*
X0140038Y0313629D01*
X0141087Y0314239D01*
X0142121Y0314873D01*
X0143140Y0315533D01*
X0144142Y0316217D01*
X0145127Y0316925D01*
X0146095Y0317657D01*
X0147044Y0318412D01*
X0147975Y0319190D01*
X0148887Y0319990D01*
X0149779Y0320812D01*
X0150651Y0321655D01*
X0134568Y0310997D02*
X0133443Y0310548D01*
X0132306Y0310125D01*
X0131160Y0309731D01*
X0130004Y0309364D01*
X0128840Y0309025D01*
X0127668Y0308715D01*
X0126489Y0308433D01*
X0125304Y0308180D01*
X0124112Y0307955D01*
X0122916Y0307760D01*
X0121715Y0307593D01*
X0120511Y0307456D01*
X0119303Y0307348D01*
X0118093Y0307269D01*
X0116882Y0307220D01*
X0115670Y0307200D01*
X0186250Y0321250D02*
X0187463Y0321265D01*
X0188676Y0321309D01*
X0189887Y0321382D01*
X0191095Y0321485D01*
X0192301Y0321618D01*
X0193504Y0321779D01*
X0194702Y0321970D01*
X0195895Y0322189D01*
X0197083Y0322438D01*
X0198264Y0322715D01*
X0199438Y0323021D01*
X0200604Y0323355D01*
X0201762Y0323717D01*
X0202911Y0324107D01*
X0204050Y0324526D01*
X0205178Y0324971D01*
X0186241Y0321279D02*
X0185029Y0321294D01*
X0183818Y0321339D01*
X0182608Y0321413D01*
X0181400Y0321516D01*
X0180195Y0321649D01*
X0178993Y0321811D01*
X0177796Y0322002D01*
X0176604Y0322221D01*
X0175417Y0322470D01*
X0174237Y0322747D01*
X0173064Y0323053D01*
X0171898Y0323387D01*
X0170742Y0323749D01*
X0169594Y0324139D01*
X0168456Y0324557D01*
X0167328Y0325003D01*
X0237912Y0310974D02*
X0239038Y0310523D01*
X0240175Y0310100D01*
X0241322Y0309705D01*
X0242478Y0309337D01*
X0243643Y0308998D01*
X0244816Y0308687D01*
X0245996Y0308404D01*
X0247182Y0308151D01*
X0248374Y0307926D01*
X0249572Y0307730D01*
X0250774Y0307563D01*
X0251979Y0307425D01*
X0253187Y0307317D01*
X0254398Y0307238D01*
X0255610Y0307189D01*
X0256823Y0307168D01*
X0237916Y0311004D02*
X0236801Y0311482D01*
X0235699Y0311987D01*
X0234610Y0312519D01*
X0233533Y0313077D01*
X0232471Y0313660D01*
X0231423Y0314269D01*
X0230390Y0314904D01*
X0229372Y0315563D01*
X0228371Y0316247D01*
X0227387Y0316955D01*
X0226420Y0317686D01*
X0225471Y0318441D01*
X0224541Y0319218D01*
X0223630Y0320018D01*
X0222738Y0320839D01*
X0221867Y0321682D01*
X0281710Y0281710D02*
X0282578Y0280862D01*
X0283466Y0280036D01*
X0284375Y0279232D01*
X0285302Y0278450D01*
X0286249Y0277691D01*
X0287213Y0276954D01*
X0288195Y0276242D01*
X0289194Y0275554D01*
X0290209Y0274890D01*
X0291241Y0274250D01*
X0292287Y0273636D01*
X0293348Y0273048D01*
X0294423Y0272485D01*
X0295511Y0271949D01*
X0296612Y0271440D01*
X0297725Y0270957D01*
X0281725Y0281736D02*
X0280878Y0282604D01*
X0280053Y0283492D01*
X0279250Y0284400D01*
X0278469Y0285327D01*
X0277711Y0286273D01*
X0276975Y0287237D01*
X0276264Y0288219D01*
X0275576Y0289217D01*
X0274913Y0290232D01*
X0274274Y0291262D01*
X0273661Y0292308D01*
X0273073Y0293368D01*
X0272511Y0294443D01*
X0271976Y0295530D01*
X0271466Y0296630D01*
X0270984Y0297742D01*
X0310974Y0237912D02*
X0311452Y0236797D01*
X0311957Y0235693D01*
X0312488Y0234603D01*
X0313046Y0233525D01*
X0313629Y0232462D01*
X0314239Y0231413D01*
X0314873Y0230379D01*
X0315533Y0229360D01*
X0316217Y0228358D01*
X0316925Y0227373D01*
X0317657Y0226405D01*
X0318412Y0225456D01*
X0319190Y0224525D01*
X0319990Y0223613D01*
X0320812Y0222721D01*
X0321655Y0221849D01*
X0310997Y0237932D02*
X0310548Y0239057D01*
X0310125Y0240194D01*
X0309731Y0241340D01*
X0309364Y0242496D01*
X0309025Y0243660D01*
X0308715Y0244832D01*
X0308433Y0246011D01*
X0308180Y0247196D01*
X0307955Y0248388D01*
X0307760Y0249584D01*
X0307593Y0250785D01*
X0307456Y0251989D01*
X0307348Y0253197D01*
X0307269Y0254407D01*
X0307220Y0255618D01*
X0307200Y0256830D01*
X0321250Y0186250D02*
X0321265Y0185037D01*
X0321309Y0183824D01*
X0321382Y0182613D01*
X0321485Y0181405D01*
X0321618Y0180199D01*
X0321779Y0178996D01*
X0321970Y0177798D01*
X0322189Y0176605D01*
X0322438Y0175417D01*
X0322715Y0174236D01*
X0323021Y0173062D01*
X0323355Y0171896D01*
X0323717Y0170738D01*
X0324107Y0169589D01*
X0324526Y0168450D01*
X0324971Y0167322D01*
X0321279Y0186259D02*
X0321294Y0187471D01*
X0321339Y0188682D01*
X0321413Y0189892D01*
X0321516Y0191100D01*
X0321649Y0192305D01*
X0321811Y0193507D01*
X0322002Y0194704D01*
X0322221Y0195896D01*
X0322470Y0197083D01*
X0322747Y0198263D01*
X0323053Y0199436D01*
X0323387Y0200602D01*
X0323749Y0201758D01*
X0324139Y0202906D01*
X0324557Y0204044D01*
X0325003Y0205172D01*
X0310974Y0134588D02*
X0310523Y0133462D01*
X0310100Y0132325D01*
X0309705Y0131178D01*
X0309337Y0130022D01*
X0308998Y0128857D01*
X0308687Y0127684D01*
X0308404Y0126504D01*
X0308151Y0125318D01*
X0307926Y0124126D01*
X0307730Y0122928D01*
X0307563Y0121726D01*
X0307425Y0120521D01*
X0307317Y0119313D01*
X0307238Y0118102D01*
X0307189Y0116890D01*
X0307168Y0115677D01*
X0311004Y0134584D02*
X0311482Y0135699D01*
X0311987Y0136801D01*
X0312519Y0137890D01*
X0313077Y0138967D01*
X0313660Y0140029D01*
X0314269Y0141077D01*
X0314904Y0142110D01*
X0315563Y0143128D01*
X0316247Y0144129D01*
X0316955Y0145113D01*
X0317686Y0146080D01*
X0318441Y0147029D01*
X0319218Y0147959D01*
X0320018Y0148870D01*
X0320839Y0149762D01*
X0321682Y0150633D01*
X0281710Y0090790D02*
X0280862Y0089922D01*
X0280036Y0089034D01*
X0279232Y0088125D01*
X0278450Y0087198D01*
X0277691Y0086251D01*
X0276954Y0085287D01*
X0276242Y0084305D01*
X0275554Y0083306D01*
X0274890Y0082291D01*
X0274250Y0081259D01*
X0273636Y0080213D01*
X0273048Y0079152D01*
X0272485Y0078077D01*
X0271949Y0076989D01*
X0271440Y0075888D01*
X0270957Y0074775D01*
X0281736Y0090775D02*
X0282604Y0091622D01*
X0283492Y0092447D01*
X0284400Y0093250D01*
X0285327Y0094031D01*
X0286273Y0094789D01*
X0287237Y0095525D01*
X0288219Y0096236D01*
X0289217Y0096924D01*
X0290232Y0097587D01*
X0291262Y0098226D01*
X0292308Y0098839D01*
X0293368Y0099427D01*
X0294443Y0099989D01*
X0295530Y0100524D01*
X0296630Y0101034D01*
X0297742Y0101516D01*
X0237912Y0061526D02*
X0236797Y0061048D01*
X0235693Y0060543D01*
X0234603Y0060012D01*
X0233525Y0059454D01*
X0232462Y0058871D01*
X0231413Y0058261D01*
X0230379Y0057627D01*
X0229360Y0056967D01*
X0228358Y0056283D01*
X0227373Y0055575D01*
X0226405Y0054843D01*
X0225456Y0054088D01*
X0224525Y0053310D01*
X0223613Y0052510D01*
X0222721Y0051688D01*
X0221849Y0050845D01*
X0237932Y0061503D02*
X0239057Y0061952D01*
X0240194Y0062375D01*
X0241340Y0062769D01*
X0242496Y0063136D01*
X0243660Y0063475D01*
X0244832Y0063785D01*
X0246011Y0064067D01*
X0247196Y0064320D01*
X0248388Y0064545D01*
X0249584Y0064740D01*
X0250785Y0064907D01*
X0251989Y0065044D01*
X0253197Y0065152D01*
X0254407Y0065231D01*
X0255618Y0065280D01*
X0256830Y0065300D01*
X0186250Y0051250D02*
X0185037Y0051235D01*
X0183824Y0051191D01*
X0182613Y0051118D01*
X0181405Y0051015D01*
X0180199Y0050882D01*
X0178996Y0050721D01*
X0177798Y0050530D01*
X0176605Y0050311D01*
X0175417Y0050062D01*
X0174236Y0049785D01*
X0173062Y0049479D01*
X0171896Y0049145D01*
X0170738Y0048783D01*
X0169589Y0048393D01*
X0168450Y0047974D01*
X0167322Y0047529D01*
X0186259Y0051221D02*
X0187471Y0051206D01*
X0188682Y0051161D01*
X0189892Y0051087D01*
X0191100Y0050984D01*
X0192305Y0050851D01*
X0193507Y0050689D01*
X0194704Y0050498D01*
X0195896Y0050279D01*
X0197083Y0050030D01*
X0198263Y0049753D01*
X0199436Y0049447D01*
X0200602Y0049113D01*
X0201758Y0048751D01*
X0202906Y0048361D01*
X0204044Y0047943D01*
X0205172Y0047497D01*
X0134588Y0061526D02*
X0133462Y0061977D01*
X0132325Y0062400D01*
X0131178Y0062795D01*
X0130022Y0063163D01*
X0128857Y0063502D01*
X0127684Y0063813D01*
X0126504Y0064096D01*
X0125318Y0064349D01*
X0124126Y0064574D01*
X0122928Y0064770D01*
X0121727Y0064937D01*
X0120521Y0065075D01*
X0119313Y0065183D01*
X0118102Y0065262D01*
X0116890Y0065311D01*
X0115677Y0065332D01*
X0134584Y0061496D02*
X0135699Y0061018D01*
X0136801Y0060513D01*
X0137890Y0059981D01*
X0138967Y0059423D01*
X0140029Y0058840D01*
X0141077Y0058231D01*
X0142110Y0057596D01*
X0143128Y0056937D01*
X0144129Y0056253D01*
X0145113Y0055545D01*
X0146080Y0054814D01*
X0147029Y0054059D01*
X0147959Y0053282D01*
X0148870Y0052482D01*
X0149762Y0051661D01*
X0150633Y0050818D01*
X0205158Y0047500D02*
X0208520Y0048000D01*
X0211869Y0048582D01*
X0215202Y0049244D01*
X0218519Y0049988D01*
X0221816Y0050812D01*
X0297732Y0101509D02*
X0299755Y0104240D01*
X0301712Y0107020D01*
X0303600Y0109845D01*
X0305420Y0112716D01*
X0307169Y0115631D01*
X0325000Y0205158D02*
X0324500Y0208520D01*
X0323918Y0211869D01*
X0323256Y0215202D01*
X0322512Y0218519D01*
X0321688Y0221816D01*
X0270991Y0297732D02*
X0268260Y0299755D01*
X0265480Y0301712D01*
X0262655Y0303600D01*
X0259784Y0305420D01*
X0256869Y0307169D01*
X0167342Y0325000D02*
X0163980Y0324500D01*
X0160631Y0323918D01*
X0157298Y0323256D01*
X0153981Y0322512D01*
X0150684Y0321688D01*
X0074768Y0270991D02*
X0072745Y0268260D01*
X0070788Y0265480D01*
X0068900Y0262655D01*
X0067080Y0259784D01*
X0065331Y0256869D01*
X0047500Y0167342D02*
X0048000Y0163980D01*
X0048582Y0160631D01*
X0049244Y0157298D01*
X0049988Y0153981D01*
X0050812Y0150684D01*
X0101509Y0074768D02*
X0104240Y0072745D01*
X0107020Y0070788D01*
X0109845Y0068900D01*
X0112716Y0067080D01*
X0115631Y0065331D01*
X0150622Y0050826D02*
X0153920Y0050002D01*
X0157236Y0049258D01*
X0160570Y0048594D01*
X0163918Y0048012D01*
X0167280Y0047512D01*
X0256816Y0065298D02*
X0259731Y0067046D01*
X0262602Y0068865D01*
X0265428Y0070753D01*
X0268208Y0072710D01*
X0270939Y0074733D01*
X0321674Y0150622D02*
X0322498Y0153920D01*
X0323242Y0157236D01*
X0323906Y0160570D01*
X0324488Y0163918D01*
X0324988Y0167280D01*
X0307202Y0256816D02*
X0305454Y0259731D01*
X0303635Y0262602D01*
X0301747Y0265428D01*
X0299790Y0268208D01*
X0297767Y0270939D01*
X0221878Y0321674D02*
X0218580Y0322498D01*
X0215264Y0323242D01*
X0211930Y0323906D01*
X0208582Y0324488D01*
X0205220Y0324988D01*
X0115684Y0307202D02*
X0112769Y0305454D01*
X0109898Y0303635D01*
X0107072Y0301747D01*
X0104292Y0299790D01*
X0101561Y0297767D01*
X0050826Y0221878D02*
X0050002Y0218580D01*
X0049258Y0215264D01*
X0048594Y0211930D01*
X0048012Y0208582D01*
X0047512Y0205220D01*
X0065298Y0115684D02*
X0067046Y0112769D01*
X0068865Y0109898D01*
X0070753Y0107072D01*
X0072710Y0104292D01*
X0074733Y0101561D01*
X0086250Y0186250D02*
X0086280Y0188704D01*
X0086370Y0191157D01*
X0086521Y0193606D01*
X0086732Y0196052D01*
X0087002Y0198491D01*
X0087332Y0200923D01*
X0087722Y0203346D01*
X0088171Y0205759D01*
X0088680Y0208160D01*
X0089247Y0210548D01*
X0089872Y0212921D01*
X0090556Y0215278D01*
X0091297Y0217618D01*
X0092096Y0219939D01*
X0092951Y0222240D01*
X0093862Y0224518D01*
X0094829Y0226774D01*
X0095851Y0229006D01*
X0096928Y0231211D01*
X0098058Y0233390D01*
X0099241Y0235540D01*
X0100477Y0237660D01*
X0101765Y0239750D01*
X0103103Y0241807D01*
X0104492Y0243831D01*
X0105929Y0245820D01*
X0107415Y0247773D01*
X0108949Y0249689D01*
X0110529Y0251567D01*
X0112155Y0253406D01*
X0113825Y0255204D01*
X0115539Y0256961D01*
X0117296Y0258675D01*
X0119094Y0260345D01*
X0120933Y0261971D01*
X0122811Y0263551D01*
X0124727Y0265085D01*
X0126680Y0266571D01*
X0128669Y0268008D01*
X0130693Y0269397D01*
X0132750Y0270735D01*
X0134840Y0272023D01*
X0136960Y0273259D01*
X0139110Y0274442D01*
X0141289Y0275572D01*
X0143494Y0276649D01*
X0145726Y0277671D01*
X0147982Y0278638D01*
X0150260Y0279549D01*
X0152561Y0280404D01*
X0154882Y0281203D01*
X0157222Y0281944D01*
X0159579Y0282628D01*
X0161952Y0283253D01*
X0164340Y0283820D01*
X0166741Y0284329D01*
X0169154Y0284778D01*
X0171577Y0285168D01*
X0174009Y0285498D01*
X0176448Y0285768D01*
X0178894Y0285979D01*
X0181343Y0286130D01*
X0183796Y0286220D01*
X0186250Y0286250D01*
X0188704Y0286220D01*
X0191157Y0286130D01*
X0193606Y0285979D01*
X0196052Y0285768D01*
X0198491Y0285498D01*
X0200923Y0285168D01*
X0203346Y0284778D01*
X0205759Y0284329D01*
X0208160Y0283820D01*
X0210548Y0283253D01*
X0212921Y0282628D01*
X0215278Y0281944D01*
X0217618Y0281203D01*
X0219939Y0280404D01*
X0222240Y0279549D01*
X0224518Y0278638D01*
X0226774Y0277671D01*
X0229006Y0276649D01*
X0231211Y0275572D01*
X0233390Y0274442D01*
X0235540Y0273259D01*
X0237660Y0272023D01*
X0239750Y0270735D01*
X0241807Y0269397D01*
X0243831Y0268008D01*
X0245820Y0266571D01*
X0247773Y0265085D01*
X0249689Y0263551D01*
X0251567Y0261971D01*
X0253406Y0260345D01*
X0255204Y0258675D01*
X0256961Y0256961D01*
X0258675Y0255204D01*
X0260345Y0253406D01*
X0261971Y0251567D01*
X0263551Y0249689D01*
X0265085Y0247773D01*
X0266571Y0245820D01*
X0268008Y0243831D01*
X0269397Y0241807D01*
X0270735Y0239750D01*
X0272023Y0237660D01*
X0273259Y0235540D01*
X0274442Y0233390D01*
X0275572Y0231211D01*
X0276649Y0229006D01*
X0277671Y0226774D01*
X0278638Y0224518D01*
X0279549Y0222240D01*
X0280404Y0219939D01*
X0281203Y0217618D01*
X0281944Y0215278D01*
X0282628Y0212921D01*
X0283253Y0210548D01*
X0283820Y0208160D01*
X0284329Y0205759D01*
X0284778Y0203346D01*
X0285168Y0200923D01*
X0285498Y0198491D01*
X0285768Y0196052D01*
X0285979Y0193606D01*
X0286130Y0191157D01*
X0286220Y0188704D01*
X0286250Y0186250D01*
X0286220Y0183796D01*
X0286130Y0181343D01*
X0285979Y0178894D01*
X0285768Y0176448D01*
X0285498Y0174009D01*
X0285168Y0171577D01*
X0284778Y0169154D01*
X0284329Y0166741D01*
X0283820Y0164340D01*
X0283253Y0161952D01*
X0282628Y0159579D01*
X0281944Y0157222D01*
X0281203Y0154882D01*
X0280404Y0152561D01*
X0279549Y0150260D01*
X0278638Y0147982D01*
X0277671Y0145726D01*
X0276649Y0143494D01*
X0275572Y0141289D01*
X0274442Y0139110D01*
X0273259Y0136960D01*
X0272023Y0134840D01*
X0270735Y0132750D01*
X0269397Y0130693D01*
X0268008Y0128669D01*
X0266571Y0126680D01*
X0265085Y0124727D01*
X0263551Y0122811D01*
X0261971Y0120933D01*
X0260345Y0119094D01*
X0258675Y0117296D01*
X0256961Y0115539D01*
X0255204Y0113825D01*
X0253406Y0112155D01*
X0251567Y0110529D01*
X0249689Y0108949D01*
X0247773Y0107415D01*
X0245820Y0105929D01*
X0243831Y0104492D01*
X0241807Y0103103D01*
X0239750Y0101765D01*
X0237660Y0100477D01*
X0235540Y0099241D01*
X0233390Y0098058D01*
X0231211Y0096928D01*
X0229006Y0095851D01*
X0226774Y0094829D01*
X0224518Y0093862D01*
X0222240Y0092951D01*
X0219939Y0092096D01*
X0217618Y0091297D01*
X0215278Y0090556D01*
X0212921Y0089872D01*
X0210548Y0089247D01*
X0208160Y0088680D01*
X0205759Y0088171D01*
X0203346Y0087722D01*
X0200923Y0087332D01*
X0198491Y0087002D01*
X0196052Y0086732D01*
X0193606Y0086521D01*
X0191157Y0086370D01*
X0188704Y0086280D01*
X0186250Y0086250D01*
X0183796Y0086280D01*
X0181343Y0086370D01*
X0178894Y0086521D01*
X0176448Y0086732D01*
X0174009Y0087002D01*
X0171577Y0087332D01*
X0169154Y0087722D01*
X0166741Y0088171D01*
X0164340Y0088680D01*
X0161952Y0089247D01*
X0159579Y0089872D01*
X0157222Y0090556D01*
X0154882Y0091297D01*
X0152561Y0092096D01*
X0150260Y0092951D01*
X0147982Y0093862D01*
X0145726Y0094829D01*
X0143494Y0095851D01*
X0141289Y0096928D01*
X0139110Y0098058D01*
X0136960Y0099241D01*
X0134840Y0100477D01*
X0132750Y0101765D01*
X0130693Y0103103D01*
X0128669Y0104492D01*
X0126680Y0105929D01*
X0124727Y0107415D01*
X0122811Y0108949D01*
X0120933Y0110529D01*
X0119094Y0112155D01*
X0117296Y0113825D01*
X0115539Y0115539D01*
X0113825Y0117296D01*
X0112155Y0119094D01*
X0110529Y0120933D01*
X0108949Y0122811D01*
X0107415Y0124727D01*
X0105929Y0126680D01*
X0104492Y0128669D01*
X0103103Y0130693D01*
X0101765Y0132750D01*
X0100477Y0134840D01*
X0099241Y0136960D01*
X0098058Y0139110D01*
X0096928Y0141289D01*
X0095851Y0143494D01*
X0094829Y0145726D01*
X0093862Y0147982D01*
X0092951Y0150260D01*
X0092096Y0152561D01*
X0091297Y0154882D01*
X0090556Y0157222D01*
X0089872Y0159579D01*
X0089247Y0161952D01*
X0088680Y0164340D01*
X0088171Y0166741D01*
X0087722Y0169154D01*
X0087332Y0171577D01*
X0087002Y0174009D01*
X0086732Y0176448D01*
X0086521Y0178894D01*
X0086370Y0181343D01*
X0086280Y0183796D01*
X0086250Y0186250D01*
M02*
