G75*
%MOIN*%
%OFA0B0*%
%FSLAX25Y25*%
%IPPOS*%
%LPD*%
%AMOC8*
5,1,8,0,0,1.08239X$1,22.5*
%
%ADD10C,0.10000*%
%ADD11C,0.05000*%
%ADD12C,0.01000*%
D10*
X0076250Y0186250D02*
X0076283Y0188950D01*
X0076382Y0191647D01*
X0076548Y0194342D01*
X0076780Y0197032D01*
X0077077Y0199715D01*
X0077441Y0202390D01*
X0077869Y0205056D01*
X0078364Y0207710D01*
X0078923Y0210351D01*
X0079547Y0212978D01*
X0080235Y0215588D01*
X0080987Y0218181D01*
X0081802Y0220755D01*
X0082680Y0223308D01*
X0083621Y0225838D01*
X0084623Y0228345D01*
X0085687Y0230827D01*
X0086811Y0233281D01*
X0087995Y0235707D01*
X0089239Y0238104D01*
X0090540Y0240469D01*
X0091900Y0242801D01*
X0093316Y0245100D01*
X0094788Y0247363D01*
X0096316Y0249589D01*
X0097897Y0251777D01*
X0099532Y0253925D01*
X0101219Y0256033D01*
X0102957Y0258099D01*
X0104745Y0260121D01*
X0106583Y0262099D01*
X0108468Y0264032D01*
X0110401Y0265917D01*
X0112379Y0267755D01*
X0114401Y0269543D01*
X0116467Y0271281D01*
X0118575Y0272968D01*
X0120723Y0274603D01*
X0122911Y0276184D01*
X0125137Y0277712D01*
X0127400Y0279184D01*
X0129699Y0280600D01*
X0132031Y0281960D01*
X0134396Y0283261D01*
X0136793Y0284505D01*
X0139219Y0285689D01*
X0141673Y0286813D01*
X0144155Y0287877D01*
X0146662Y0288879D01*
X0149192Y0289820D01*
X0151745Y0290698D01*
X0154319Y0291513D01*
X0156912Y0292265D01*
X0159522Y0292953D01*
X0162149Y0293577D01*
X0164790Y0294136D01*
X0167444Y0294631D01*
X0170110Y0295059D01*
X0172785Y0295423D01*
X0175468Y0295720D01*
X0178158Y0295952D01*
X0180853Y0296118D01*
X0183550Y0296217D01*
X0186250Y0296250D01*
X0188950Y0296217D01*
X0191647Y0296118D01*
X0194342Y0295952D01*
X0197032Y0295720D01*
X0199715Y0295423D01*
X0202390Y0295059D01*
X0205056Y0294631D01*
X0207710Y0294136D01*
X0210351Y0293577D01*
X0212978Y0292953D01*
X0215588Y0292265D01*
X0218181Y0291513D01*
X0220755Y0290698D01*
X0223308Y0289820D01*
X0225838Y0288879D01*
X0228345Y0287877D01*
X0230827Y0286813D01*
X0233281Y0285689D01*
X0235707Y0284505D01*
X0238104Y0283261D01*
X0240469Y0281960D01*
X0242801Y0280600D01*
X0245100Y0279184D01*
X0247363Y0277712D01*
X0249589Y0276184D01*
X0251777Y0274603D01*
X0253925Y0272968D01*
X0256033Y0271281D01*
X0258099Y0269543D01*
X0260121Y0267755D01*
X0262099Y0265917D01*
X0264032Y0264032D01*
X0265917Y0262099D01*
X0267755Y0260121D01*
X0269543Y0258099D01*
X0271281Y0256033D01*
X0272968Y0253925D01*
X0274603Y0251777D01*
X0276184Y0249589D01*
X0277712Y0247363D01*
X0279184Y0245100D01*
X0280600Y0242801D01*
X0281960Y0240469D01*
X0283261Y0238104D01*
X0284505Y0235707D01*
X0285689Y0233281D01*
X0286813Y0230827D01*
X0287877Y0228345D01*
X0288879Y0225838D01*
X0289820Y0223308D01*
X0290698Y0220755D01*
X0291513Y0218181D01*
X0292265Y0215588D01*
X0292953Y0212978D01*
X0293577Y0210351D01*
X0294136Y0207710D01*
X0294631Y0205056D01*
X0295059Y0202390D01*
X0295423Y0199715D01*
X0295720Y0197032D01*
X0295952Y0194342D01*
X0296118Y0191647D01*
X0296217Y0188950D01*
X0296250Y0186250D01*
X0296217Y0183550D01*
X0296118Y0180853D01*
X0295952Y0178158D01*
X0295720Y0175468D01*
X0295423Y0172785D01*
X0295059Y0170110D01*
X0294631Y0167444D01*
X0294136Y0164790D01*
X0293577Y0162149D01*
X0292953Y0159522D01*
X0292265Y0156912D01*
X0291513Y0154319D01*
X0290698Y0151745D01*
X0289820Y0149192D01*
X0288879Y0146662D01*
X0287877Y0144155D01*
X0286813Y0141673D01*
X0285689Y0139219D01*
X0284505Y0136793D01*
X0283261Y0134396D01*
X0281960Y0132031D01*
X0280600Y0129699D01*
X0279184Y0127400D01*
X0277712Y0125137D01*
X0276184Y0122911D01*
X0274603Y0120723D01*
X0272968Y0118575D01*
X0271281Y0116467D01*
X0269543Y0114401D01*
X0267755Y0112379D01*
X0265917Y0110401D01*
X0264032Y0108468D01*
X0262099Y0106583D01*
X0260121Y0104745D01*
X0258099Y0102957D01*
X0256033Y0101219D01*
X0253925Y0099532D01*
X0251777Y0097897D01*
X0249589Y0096316D01*
X0247363Y0094788D01*
X0245100Y0093316D01*
X0242801Y0091900D01*
X0240469Y0090540D01*
X0238104Y0089239D01*
X0235707Y0087995D01*
X0233281Y0086811D01*
X0230827Y0085687D01*
X0228345Y0084623D01*
X0225838Y0083621D01*
X0223308Y0082680D01*
X0220755Y0081802D01*
X0218181Y0080987D01*
X0215588Y0080235D01*
X0212978Y0079547D01*
X0210351Y0078923D01*
X0207710Y0078364D01*
X0205056Y0077869D01*
X0202390Y0077441D01*
X0199715Y0077077D01*
X0197032Y0076780D01*
X0194342Y0076548D01*
X0191647Y0076382D01*
X0188950Y0076283D01*
X0186250Y0076250D01*
X0183550Y0076283D01*
X0180853Y0076382D01*
X0178158Y0076548D01*
X0175468Y0076780D01*
X0172785Y0077077D01*
X0170110Y0077441D01*
X0167444Y0077869D01*
X0164790Y0078364D01*
X0162149Y0078923D01*
X0159522Y0079547D01*
X0156912Y0080235D01*
X0154319Y0080987D01*
X0151745Y0081802D01*
X0149192Y0082680D01*
X0146662Y0083621D01*
X0144155Y0084623D01*
X0141673Y0085687D01*
X0139219Y0086811D01*
X0136793Y0087995D01*
X0134396Y0089239D01*
X0132031Y0090540D01*
X0129699Y0091900D01*
X0127400Y0093316D01*
X0125137Y0094788D01*
X0122911Y0096316D01*
X0120723Y0097897D01*
X0118575Y0099532D01*
X0116467Y0101219D01*
X0114401Y0102957D01*
X0112379Y0104745D01*
X0110401Y0106583D01*
X0108468Y0108468D01*
X0106583Y0110401D01*
X0104745Y0112379D01*
X0102957Y0114401D01*
X0101219Y0116467D01*
X0099532Y0118575D01*
X0097897Y0120723D01*
X0096316Y0122911D01*
X0094788Y0125137D01*
X0093316Y0127400D01*
X0091900Y0129699D01*
X0090540Y0132031D01*
X0089239Y0134396D01*
X0087995Y0136793D01*
X0086811Y0139219D01*
X0085687Y0141673D01*
X0084623Y0144155D01*
X0083621Y0146662D01*
X0082680Y0149192D01*
X0081802Y0151745D01*
X0080987Y0154319D01*
X0080235Y0156912D01*
X0079547Y0159522D01*
X0078923Y0162149D01*
X0078364Y0164790D01*
X0077869Y0167444D01*
X0077441Y0170110D01*
X0077077Y0172785D01*
X0076780Y0175468D01*
X0076548Y0178158D01*
X0076382Y0180853D01*
X0076283Y0183550D01*
X0076250Y0186250D01*
D11*
X0068750Y0186250D02*
X0068785Y0189134D01*
X0068892Y0192015D01*
X0069068Y0194894D01*
X0069316Y0197767D01*
X0069634Y0200633D01*
X0070022Y0203491D01*
X0070480Y0206338D01*
X0071008Y0209173D01*
X0071605Y0211994D01*
X0072271Y0214800D01*
X0073006Y0217589D01*
X0073810Y0220358D01*
X0074680Y0223108D01*
X0075619Y0225835D01*
X0076623Y0228538D01*
X0077694Y0231215D01*
X0078830Y0233866D01*
X0080031Y0236488D01*
X0081296Y0239079D01*
X0082624Y0241639D01*
X0084015Y0244166D01*
X0085467Y0246657D01*
X0086980Y0249112D01*
X0088552Y0251530D01*
X0090184Y0253907D01*
X0091873Y0256245D01*
X0093619Y0258540D01*
X0095421Y0260791D01*
X0097278Y0262998D01*
X0099188Y0265158D01*
X0101151Y0267271D01*
X0103165Y0269335D01*
X0105229Y0271349D01*
X0107342Y0273312D01*
X0109502Y0275222D01*
X0111709Y0277079D01*
X0113960Y0278881D01*
X0116255Y0280627D01*
X0118593Y0282316D01*
X0120970Y0283948D01*
X0123388Y0285520D01*
X0125843Y0287033D01*
X0128334Y0288485D01*
X0130861Y0289876D01*
X0133421Y0291204D01*
X0136012Y0292469D01*
X0138634Y0293670D01*
X0141285Y0294806D01*
X0143962Y0295877D01*
X0146665Y0296881D01*
X0149392Y0297820D01*
X0152142Y0298690D01*
X0154911Y0299494D01*
X0157700Y0300229D01*
X0160506Y0300895D01*
X0163327Y0301492D01*
X0166162Y0302020D01*
X0169009Y0302478D01*
X0171867Y0302866D01*
X0174733Y0303184D01*
X0177606Y0303432D01*
X0180485Y0303608D01*
X0183366Y0303715D01*
X0186250Y0303750D01*
X0189134Y0303715D01*
X0192015Y0303608D01*
X0194894Y0303432D01*
X0197767Y0303184D01*
X0200633Y0302866D01*
X0203491Y0302478D01*
X0206338Y0302020D01*
X0209173Y0301492D01*
X0211994Y0300895D01*
X0214800Y0300229D01*
X0217589Y0299494D01*
X0220358Y0298690D01*
X0223108Y0297820D01*
X0225835Y0296881D01*
X0228538Y0295877D01*
X0231215Y0294806D01*
X0233866Y0293670D01*
X0236488Y0292469D01*
X0239079Y0291204D01*
X0241639Y0289876D01*
X0244166Y0288485D01*
X0246657Y0287033D01*
X0249112Y0285520D01*
X0251530Y0283948D01*
X0253907Y0282316D01*
X0256245Y0280627D01*
X0258540Y0278881D01*
X0260791Y0277079D01*
X0262998Y0275222D01*
X0265158Y0273312D01*
X0267271Y0271349D01*
X0269335Y0269335D01*
X0271349Y0267271D01*
X0273312Y0265158D01*
X0275222Y0262998D01*
X0277079Y0260791D01*
X0278881Y0258540D01*
X0280627Y0256245D01*
X0282316Y0253907D01*
X0283948Y0251530D01*
X0285520Y0249112D01*
X0287033Y0246657D01*
X0288485Y0244166D01*
X0289876Y0241639D01*
X0291204Y0239079D01*
X0292469Y0236488D01*
X0293670Y0233866D01*
X0294806Y0231215D01*
X0295877Y0228538D01*
X0296881Y0225835D01*
X0297820Y0223108D01*
X0298690Y0220358D01*
X0299494Y0217589D01*
X0300229Y0214800D01*
X0300895Y0211994D01*
X0301492Y0209173D01*
X0302020Y0206338D01*
X0302478Y0203491D01*
X0302866Y0200633D01*
X0303184Y0197767D01*
X0303432Y0194894D01*
X0303608Y0192015D01*
X0303715Y0189134D01*
X0303750Y0186250D01*
X0303715Y0183366D01*
X0303608Y0180485D01*
X0303432Y0177606D01*
X0303184Y0174733D01*
X0302866Y0171867D01*
X0302478Y0169009D01*
X0302020Y0166162D01*
X0301492Y0163327D01*
X0300895Y0160506D01*
X0300229Y0157700D01*
X0299494Y0154911D01*
X0298690Y0152142D01*
X0297820Y0149392D01*
X0296881Y0146665D01*
X0295877Y0143962D01*
X0294806Y0141285D01*
X0293670Y0138634D01*
X0292469Y0136012D01*
X0291204Y0133421D01*
X0289876Y0130861D01*
X0288485Y0128334D01*
X0287033Y0125843D01*
X0285520Y0123388D01*
X0283948Y0120970D01*
X0282316Y0118593D01*
X0280627Y0116255D01*
X0278881Y0113960D01*
X0277079Y0111709D01*
X0275222Y0109502D01*
X0273312Y0107342D01*
X0271349Y0105229D01*
X0269335Y0103165D01*
X0267271Y0101151D01*
X0265158Y0099188D01*
X0262998Y0097278D01*
X0260791Y0095421D01*
X0258540Y0093619D01*
X0256245Y0091873D01*
X0253907Y0090184D01*
X0251530Y0088552D01*
X0249112Y0086980D01*
X0246657Y0085467D01*
X0244166Y0084015D01*
X0241639Y0082624D01*
X0239079Y0081296D01*
X0236488Y0080031D01*
X0233866Y0078830D01*
X0231215Y0077694D01*
X0228538Y0076623D01*
X0225835Y0075619D01*
X0223108Y0074680D01*
X0220358Y0073810D01*
X0217589Y0073006D01*
X0214800Y0072271D01*
X0211994Y0071605D01*
X0209173Y0071008D01*
X0206338Y0070480D01*
X0203491Y0070022D01*
X0200633Y0069634D01*
X0197767Y0069316D01*
X0194894Y0069068D01*
X0192015Y0068892D01*
X0189134Y0068785D01*
X0186250Y0068750D01*
X0183366Y0068785D01*
X0180485Y0068892D01*
X0177606Y0069068D01*
X0174733Y0069316D01*
X0171867Y0069634D01*
X0169009Y0070022D01*
X0166162Y0070480D01*
X0163327Y0071008D01*
X0160506Y0071605D01*
X0157700Y0072271D01*
X0154911Y0073006D01*
X0152142Y0073810D01*
X0149392Y0074680D01*
X0146665Y0075619D01*
X0143962Y0076623D01*
X0141285Y0077694D01*
X0138634Y0078830D01*
X0136012Y0080031D01*
X0133421Y0081296D01*
X0130861Y0082624D01*
X0128334Y0084015D01*
X0125843Y0085467D01*
X0123388Y0086980D01*
X0120970Y0088552D01*
X0118593Y0090184D01*
X0116255Y0091873D01*
X0113960Y0093619D01*
X0111709Y0095421D01*
X0109502Y0097278D01*
X0107342Y0099188D01*
X0105229Y0101151D01*
X0103165Y0103165D01*
X0101151Y0105229D01*
X0099188Y0107342D01*
X0097278Y0109502D01*
X0095421Y0111709D01*
X0093619Y0113960D01*
X0091873Y0116255D01*
X0090184Y0118593D01*
X0088552Y0120970D01*
X0086980Y0123388D01*
X0085467Y0125843D01*
X0084015Y0128334D01*
X0082624Y0130861D01*
X0081296Y0133421D01*
X0080031Y0136012D01*
X0078830Y0138634D01*
X0077694Y0141285D01*
X0076623Y0143962D01*
X0075619Y0146665D01*
X0074680Y0149392D01*
X0073810Y0152142D01*
X0073006Y0154911D01*
X0072271Y0157700D01*
X0071605Y0160506D01*
X0071008Y0163327D01*
X0070480Y0166162D01*
X0070022Y0169009D01*
X0069634Y0171867D01*
X0069316Y0174733D01*
X0069068Y0177606D01*
X0068892Y0180485D01*
X0068785Y0183366D01*
X0068750Y0186250D01*
D12*
X0236235Y0066745D02*
X0232788Y0075059D01*
X0232789Y0075058D02*
X0235448Y0076212D01*
X0238079Y0077429D01*
X0240679Y0078709D01*
X0243249Y0080051D01*
X0245785Y0081454D01*
X0248287Y0082918D01*
X0250752Y0084442D01*
X0253181Y0086025D01*
X0255571Y0087665D01*
X0257920Y0089363D01*
X0260228Y0091117D01*
X0262493Y0092925D01*
X0264714Y0094788D01*
X0266890Y0096703D01*
X0269019Y0098670D01*
X0271100Y0100688D01*
X0277468Y0094330D01*
X0277469Y0094329D01*
X0275230Y0092157D01*
X0272939Y0090039D01*
X0270598Y0087977D01*
X0268208Y0085972D01*
X0265770Y0084025D01*
X0263286Y0082137D01*
X0260757Y0080310D01*
X0258185Y0078544D01*
X0255572Y0076841D01*
X0252918Y0075201D01*
X0250225Y0073625D01*
X0247495Y0072115D01*
X0244729Y0070671D01*
X0241930Y0069294D01*
X0239098Y0067985D01*
X0236236Y0066745D01*
X0235872Y0067621D01*
X0238713Y0068853D01*
X0241524Y0070152D01*
X0244302Y0071519D01*
X0247047Y0072952D01*
X0249757Y0074451D01*
X0252429Y0076015D01*
X0255063Y0077642D01*
X0257658Y0079333D01*
X0260210Y0081086D01*
X0262720Y0082899D01*
X0265185Y0084773D01*
X0267605Y0086705D01*
X0269977Y0088695D01*
X0272301Y0090742D01*
X0274575Y0092844D01*
X0276797Y0095000D01*
X0276126Y0095670D01*
X0273920Y0093530D01*
X0271663Y0091444D01*
X0269357Y0089413D01*
X0267003Y0087438D01*
X0264601Y0085520D01*
X0262154Y0083661D01*
X0259663Y0081861D01*
X0257130Y0080122D01*
X0254555Y0078444D01*
X0251941Y0076828D01*
X0249288Y0075276D01*
X0246599Y0073789D01*
X0243875Y0072366D01*
X0241118Y0071010D01*
X0238328Y0069720D01*
X0235509Y0068498D01*
X0235145Y0069374D01*
X0237943Y0070587D01*
X0240712Y0071867D01*
X0243448Y0073214D01*
X0246152Y0074625D01*
X0248820Y0076102D01*
X0251453Y0077642D01*
X0254047Y0079245D01*
X0256602Y0080911D01*
X0259117Y0082637D01*
X0261589Y0084423D01*
X0264017Y0086268D01*
X0266400Y0088171D01*
X0268737Y0090131D01*
X0271025Y0092147D01*
X0273265Y0094217D01*
X0275454Y0096341D01*
X0274783Y0097011D01*
X0272610Y0094904D01*
X0270388Y0092850D01*
X0268116Y0090850D01*
X0265797Y0088905D01*
X0263432Y0087016D01*
X0261023Y0085185D01*
X0258570Y0083412D01*
X0256075Y0081699D01*
X0253539Y0080047D01*
X0250964Y0078456D01*
X0248352Y0076927D01*
X0245704Y0075462D01*
X0243021Y0074061D01*
X0240306Y0072725D01*
X0237559Y0071455D01*
X0234782Y0070251D01*
X0234418Y0071128D01*
X0237174Y0072322D01*
X0239899Y0073583D01*
X0242594Y0074909D01*
X0245256Y0076299D01*
X0247884Y0077753D01*
X0250476Y0079270D01*
X0253031Y0080848D01*
X0255547Y0082488D01*
X0258023Y0084188D01*
X0260457Y0085947D01*
X0262848Y0087764D01*
X0265195Y0089638D01*
X0267496Y0091568D01*
X0269750Y0093552D01*
X0271955Y0095591D01*
X0274111Y0097682D01*
X0273439Y0098352D01*
X0271300Y0096278D01*
X0269112Y0094255D01*
X0266876Y0092286D01*
X0264592Y0090371D01*
X0262264Y0088512D01*
X0259891Y0086709D01*
X0257476Y0084963D01*
X0255019Y0083277D01*
X0252523Y0081650D01*
X0249988Y0080083D01*
X0247416Y0078578D01*
X0244808Y0077136D01*
X0242167Y0075756D01*
X0239493Y0074441D01*
X0236789Y0073190D01*
X0234055Y0072004D01*
X0233691Y0072881D01*
X0236404Y0074057D01*
X0239087Y0075298D01*
X0241740Y0076604D01*
X0244361Y0077972D01*
X0246948Y0079404D01*
X0249499Y0080897D01*
X0252015Y0082451D01*
X0254492Y0084066D01*
X0256929Y0085739D01*
X0259325Y0087471D01*
X0261679Y0089259D01*
X0263990Y0091104D01*
X0266255Y0093004D01*
X0268474Y0094958D01*
X0270645Y0096965D01*
X0272768Y0099023D01*
X0272096Y0099693D01*
X0269991Y0097651D01*
X0267836Y0095661D01*
X0265635Y0093722D01*
X0263387Y0091837D01*
X0261095Y0090007D01*
X0258760Y0088232D01*
X0256382Y0086515D01*
X0253964Y0084854D01*
X0251506Y0083253D01*
X0249011Y0081711D01*
X0246480Y0080229D01*
X0243913Y0078809D01*
X0241313Y0077451D01*
X0238681Y0076156D01*
X0236019Y0074925D01*
X0233328Y0073758D01*
X0232964Y0074634D01*
X0235634Y0075792D01*
X0238275Y0077014D01*
X0240886Y0078299D01*
X0243465Y0079646D01*
X0246011Y0081055D01*
X0248523Y0082525D01*
X0250998Y0084054D01*
X0253436Y0085643D01*
X0255835Y0087290D01*
X0258194Y0088994D01*
X0260511Y0090755D01*
X0262785Y0092571D01*
X0265014Y0094440D01*
X0267199Y0096363D01*
X0269336Y0098338D01*
X0271425Y0100364D01*
X0305755Y0236235D02*
X0297441Y0232788D01*
X0297442Y0232789D02*
X0296288Y0235448D01*
X0295071Y0238079D01*
X0293791Y0240679D01*
X0292449Y0243249D01*
X0291046Y0245785D01*
X0289582Y0248287D01*
X0288058Y0250752D01*
X0286475Y0253181D01*
X0284835Y0255571D01*
X0283137Y0257920D01*
X0281383Y0260228D01*
X0279575Y0262493D01*
X0277712Y0264714D01*
X0275797Y0266890D01*
X0273830Y0269019D01*
X0271812Y0271100D01*
X0278170Y0277468D01*
X0278171Y0277469D01*
X0280343Y0275230D01*
X0282461Y0272939D01*
X0284523Y0270598D01*
X0286528Y0268208D01*
X0288475Y0265770D01*
X0290363Y0263286D01*
X0292190Y0260757D01*
X0293956Y0258185D01*
X0295659Y0255572D01*
X0297299Y0252918D01*
X0298875Y0250225D01*
X0300385Y0247495D01*
X0301829Y0244729D01*
X0303206Y0241930D01*
X0304515Y0239098D01*
X0305755Y0236236D01*
X0304879Y0235872D01*
X0303647Y0238713D01*
X0302348Y0241524D01*
X0300981Y0244302D01*
X0299548Y0247047D01*
X0298049Y0249757D01*
X0296485Y0252429D01*
X0294858Y0255063D01*
X0293167Y0257658D01*
X0291414Y0260210D01*
X0289601Y0262720D01*
X0287727Y0265185D01*
X0285795Y0267605D01*
X0283805Y0269977D01*
X0281758Y0272301D01*
X0279656Y0274575D01*
X0277500Y0276797D01*
X0276830Y0276126D01*
X0278970Y0273920D01*
X0281056Y0271663D01*
X0283087Y0269357D01*
X0285062Y0267003D01*
X0286980Y0264601D01*
X0288839Y0262154D01*
X0290639Y0259663D01*
X0292378Y0257130D01*
X0294056Y0254555D01*
X0295672Y0251941D01*
X0297224Y0249288D01*
X0298711Y0246599D01*
X0300134Y0243875D01*
X0301490Y0241118D01*
X0302780Y0238328D01*
X0304002Y0235509D01*
X0303126Y0235145D01*
X0301913Y0237943D01*
X0300633Y0240712D01*
X0299286Y0243448D01*
X0297875Y0246152D01*
X0296398Y0248820D01*
X0294858Y0251453D01*
X0293255Y0254047D01*
X0291589Y0256602D01*
X0289863Y0259117D01*
X0288077Y0261589D01*
X0286232Y0264017D01*
X0284329Y0266400D01*
X0282369Y0268737D01*
X0280353Y0271025D01*
X0278283Y0273265D01*
X0276159Y0275454D01*
X0275489Y0274783D01*
X0277596Y0272610D01*
X0279650Y0270388D01*
X0281650Y0268116D01*
X0283595Y0265797D01*
X0285484Y0263432D01*
X0287315Y0261023D01*
X0289088Y0258570D01*
X0290801Y0256075D01*
X0292453Y0253539D01*
X0294044Y0250964D01*
X0295573Y0248352D01*
X0297038Y0245704D01*
X0298439Y0243021D01*
X0299775Y0240306D01*
X0301045Y0237559D01*
X0302249Y0234782D01*
X0301372Y0234418D01*
X0300178Y0237174D01*
X0298917Y0239899D01*
X0297591Y0242594D01*
X0296201Y0245256D01*
X0294747Y0247884D01*
X0293230Y0250476D01*
X0291652Y0253031D01*
X0290012Y0255547D01*
X0288312Y0258023D01*
X0286553Y0260457D01*
X0284736Y0262848D01*
X0282862Y0265195D01*
X0280932Y0267496D01*
X0278948Y0269750D01*
X0276909Y0271955D01*
X0274818Y0274111D01*
X0274148Y0273439D01*
X0276222Y0271300D01*
X0278245Y0269112D01*
X0280214Y0266876D01*
X0282129Y0264592D01*
X0283988Y0262264D01*
X0285791Y0259891D01*
X0287537Y0257476D01*
X0289223Y0255019D01*
X0290850Y0252523D01*
X0292417Y0249988D01*
X0293922Y0247416D01*
X0295364Y0244808D01*
X0296744Y0242167D01*
X0298059Y0239493D01*
X0299310Y0236789D01*
X0300496Y0234055D01*
X0299619Y0233691D01*
X0298443Y0236404D01*
X0297202Y0239087D01*
X0295896Y0241740D01*
X0294528Y0244361D01*
X0293096Y0246948D01*
X0291603Y0249499D01*
X0290049Y0252015D01*
X0288434Y0254492D01*
X0286761Y0256929D01*
X0285029Y0259325D01*
X0283241Y0261679D01*
X0281396Y0263990D01*
X0279496Y0266255D01*
X0277542Y0268474D01*
X0275535Y0270645D01*
X0273477Y0272768D01*
X0272807Y0272096D01*
X0274849Y0269991D01*
X0276839Y0267836D01*
X0278778Y0265635D01*
X0280663Y0263387D01*
X0282493Y0261095D01*
X0284268Y0258760D01*
X0285985Y0256382D01*
X0287646Y0253964D01*
X0289247Y0251506D01*
X0290789Y0249011D01*
X0292271Y0246480D01*
X0293691Y0243913D01*
X0295049Y0241313D01*
X0296344Y0238681D01*
X0297575Y0236019D01*
X0298742Y0233328D01*
X0297866Y0232964D01*
X0296708Y0235634D01*
X0295486Y0238275D01*
X0294201Y0240886D01*
X0292854Y0243465D01*
X0291445Y0246011D01*
X0289975Y0248523D01*
X0288446Y0250998D01*
X0286857Y0253436D01*
X0285210Y0255835D01*
X0283506Y0258194D01*
X0281745Y0260511D01*
X0279929Y0262785D01*
X0278060Y0265014D01*
X0276137Y0267199D01*
X0274162Y0269336D01*
X0272136Y0271425D01*
X0136265Y0305755D02*
X0139712Y0297441D01*
X0139711Y0297442D02*
X0137052Y0296288D01*
X0134421Y0295071D01*
X0131821Y0293791D01*
X0129251Y0292449D01*
X0126715Y0291046D01*
X0124213Y0289582D01*
X0121748Y0288058D01*
X0119319Y0286475D01*
X0116929Y0284835D01*
X0114580Y0283137D01*
X0112272Y0281383D01*
X0110007Y0279575D01*
X0107786Y0277712D01*
X0105610Y0275797D01*
X0103481Y0273830D01*
X0101400Y0271812D01*
X0095032Y0278170D01*
X0095031Y0278171D01*
X0097270Y0280343D01*
X0099561Y0282461D01*
X0101902Y0284523D01*
X0104292Y0286528D01*
X0106730Y0288475D01*
X0109214Y0290363D01*
X0111743Y0292190D01*
X0114315Y0293956D01*
X0116928Y0295659D01*
X0119582Y0297299D01*
X0122275Y0298875D01*
X0125005Y0300385D01*
X0127771Y0301829D01*
X0130570Y0303206D01*
X0133402Y0304515D01*
X0136264Y0305755D01*
X0136628Y0304879D01*
X0133787Y0303647D01*
X0130976Y0302348D01*
X0128198Y0300981D01*
X0125453Y0299548D01*
X0122743Y0298049D01*
X0120071Y0296485D01*
X0117437Y0294858D01*
X0114842Y0293167D01*
X0112290Y0291414D01*
X0109780Y0289601D01*
X0107315Y0287727D01*
X0104895Y0285795D01*
X0102523Y0283805D01*
X0100199Y0281758D01*
X0097925Y0279656D01*
X0095703Y0277500D01*
X0096374Y0276830D01*
X0098580Y0278970D01*
X0100837Y0281056D01*
X0103143Y0283087D01*
X0105497Y0285062D01*
X0107899Y0286980D01*
X0110346Y0288839D01*
X0112837Y0290639D01*
X0115370Y0292378D01*
X0117945Y0294056D01*
X0120559Y0295672D01*
X0123212Y0297224D01*
X0125901Y0298711D01*
X0128625Y0300134D01*
X0131382Y0301490D01*
X0134172Y0302780D01*
X0136991Y0304002D01*
X0137355Y0303126D01*
X0134557Y0301913D01*
X0131788Y0300633D01*
X0129052Y0299286D01*
X0126348Y0297875D01*
X0123680Y0296398D01*
X0121047Y0294858D01*
X0118453Y0293255D01*
X0115898Y0291589D01*
X0113383Y0289863D01*
X0110911Y0288077D01*
X0108483Y0286232D01*
X0106100Y0284329D01*
X0103763Y0282369D01*
X0101475Y0280353D01*
X0099235Y0278283D01*
X0097046Y0276159D01*
X0097717Y0275489D01*
X0099890Y0277596D01*
X0102112Y0279650D01*
X0104384Y0281650D01*
X0106703Y0283595D01*
X0109068Y0285484D01*
X0111477Y0287315D01*
X0113930Y0289088D01*
X0116425Y0290801D01*
X0118961Y0292453D01*
X0121536Y0294044D01*
X0124148Y0295573D01*
X0126796Y0297038D01*
X0129479Y0298439D01*
X0132194Y0299775D01*
X0134941Y0301045D01*
X0137718Y0302249D01*
X0138082Y0301372D01*
X0135326Y0300178D01*
X0132601Y0298917D01*
X0129906Y0297591D01*
X0127244Y0296201D01*
X0124616Y0294747D01*
X0122024Y0293230D01*
X0119469Y0291652D01*
X0116953Y0290012D01*
X0114477Y0288312D01*
X0112043Y0286553D01*
X0109652Y0284736D01*
X0107305Y0282862D01*
X0105004Y0280932D01*
X0102750Y0278948D01*
X0100545Y0276909D01*
X0098389Y0274818D01*
X0099061Y0274148D01*
X0101200Y0276222D01*
X0103388Y0278245D01*
X0105624Y0280214D01*
X0107908Y0282129D01*
X0110236Y0283988D01*
X0112609Y0285791D01*
X0115024Y0287537D01*
X0117481Y0289223D01*
X0119977Y0290850D01*
X0122512Y0292417D01*
X0125084Y0293922D01*
X0127692Y0295364D01*
X0130333Y0296744D01*
X0133007Y0298059D01*
X0135711Y0299310D01*
X0138445Y0300496D01*
X0138809Y0299619D01*
X0136096Y0298443D01*
X0133413Y0297202D01*
X0130760Y0295896D01*
X0128139Y0294528D01*
X0125552Y0293096D01*
X0123001Y0291603D01*
X0120485Y0290049D01*
X0118008Y0288434D01*
X0115571Y0286761D01*
X0113175Y0285029D01*
X0110821Y0283241D01*
X0108510Y0281396D01*
X0106245Y0279496D01*
X0104026Y0277542D01*
X0101855Y0275535D01*
X0099732Y0273477D01*
X0100404Y0272807D01*
X0102509Y0274849D01*
X0104664Y0276839D01*
X0106865Y0278778D01*
X0109113Y0280663D01*
X0111405Y0282493D01*
X0113740Y0284268D01*
X0116118Y0285985D01*
X0118536Y0287646D01*
X0120994Y0289247D01*
X0123489Y0290789D01*
X0126020Y0292271D01*
X0128587Y0293691D01*
X0131187Y0295049D01*
X0133819Y0296344D01*
X0136481Y0297575D01*
X0139172Y0298742D01*
X0139536Y0297866D01*
X0136866Y0296708D01*
X0134225Y0295486D01*
X0131614Y0294201D01*
X0129035Y0292854D01*
X0126489Y0291445D01*
X0123977Y0289975D01*
X0121502Y0288446D01*
X0119064Y0286857D01*
X0116665Y0285210D01*
X0114306Y0283506D01*
X0111989Y0281745D01*
X0109715Y0279929D01*
X0107486Y0278060D01*
X0105301Y0276137D01*
X0103164Y0274162D01*
X0101075Y0272136D01*
X0066745Y0136265D02*
X0075059Y0139712D01*
X0075058Y0139711D02*
X0076212Y0137052D01*
X0077429Y0134421D01*
X0078709Y0131821D01*
X0080051Y0129251D01*
X0081454Y0126715D01*
X0082918Y0124213D01*
X0084442Y0121748D01*
X0086025Y0119319D01*
X0087665Y0116929D01*
X0089363Y0114580D01*
X0091117Y0112272D01*
X0092925Y0110007D01*
X0094788Y0107786D01*
X0096703Y0105610D01*
X0098670Y0103481D01*
X0100688Y0101400D01*
X0094330Y0095032D01*
X0094329Y0095031D01*
X0092157Y0097270D01*
X0090039Y0099561D01*
X0087977Y0101902D01*
X0085972Y0104292D01*
X0084025Y0106730D01*
X0082137Y0109214D01*
X0080310Y0111743D01*
X0078544Y0114315D01*
X0076841Y0116928D01*
X0075201Y0119582D01*
X0073625Y0122275D01*
X0072115Y0125005D01*
X0070671Y0127771D01*
X0069294Y0130570D01*
X0067985Y0133402D01*
X0066745Y0136264D01*
X0067621Y0136628D01*
X0068853Y0133787D01*
X0070152Y0130976D01*
X0071519Y0128198D01*
X0072952Y0125453D01*
X0074451Y0122743D01*
X0076015Y0120071D01*
X0077642Y0117437D01*
X0079333Y0114842D01*
X0081086Y0112290D01*
X0082899Y0109780D01*
X0084773Y0107315D01*
X0086705Y0104895D01*
X0088695Y0102523D01*
X0090742Y0100199D01*
X0092844Y0097925D01*
X0095000Y0095703D01*
X0095670Y0096374D01*
X0093530Y0098580D01*
X0091444Y0100837D01*
X0089413Y0103143D01*
X0087438Y0105497D01*
X0085520Y0107899D01*
X0083661Y0110346D01*
X0081861Y0112837D01*
X0080122Y0115370D01*
X0078444Y0117945D01*
X0076828Y0120559D01*
X0075276Y0123212D01*
X0073789Y0125901D01*
X0072366Y0128625D01*
X0071010Y0131382D01*
X0069720Y0134172D01*
X0068498Y0136991D01*
X0069374Y0137355D01*
X0070587Y0134557D01*
X0071867Y0131788D01*
X0073214Y0129052D01*
X0074625Y0126348D01*
X0076102Y0123680D01*
X0077642Y0121047D01*
X0079245Y0118453D01*
X0080911Y0115898D01*
X0082637Y0113383D01*
X0084423Y0110911D01*
X0086268Y0108483D01*
X0088171Y0106100D01*
X0090131Y0103763D01*
X0092147Y0101475D01*
X0094217Y0099235D01*
X0096341Y0097046D01*
X0097011Y0097717D01*
X0094904Y0099890D01*
X0092850Y0102112D01*
X0090850Y0104384D01*
X0088905Y0106703D01*
X0087016Y0109068D01*
X0085185Y0111477D01*
X0083412Y0113930D01*
X0081699Y0116425D01*
X0080047Y0118961D01*
X0078456Y0121536D01*
X0076927Y0124148D01*
X0075462Y0126796D01*
X0074061Y0129479D01*
X0072725Y0132194D01*
X0071455Y0134941D01*
X0070251Y0137718D01*
X0071128Y0138082D01*
X0072322Y0135326D01*
X0073583Y0132601D01*
X0074909Y0129906D01*
X0076299Y0127244D01*
X0077753Y0124616D01*
X0079270Y0122024D01*
X0080848Y0119469D01*
X0082488Y0116953D01*
X0084188Y0114477D01*
X0085947Y0112043D01*
X0087764Y0109652D01*
X0089638Y0107305D01*
X0091568Y0105004D01*
X0093552Y0102750D01*
X0095591Y0100545D01*
X0097682Y0098389D01*
X0098352Y0099061D01*
X0096278Y0101200D01*
X0094255Y0103388D01*
X0092286Y0105624D01*
X0090371Y0107908D01*
X0088512Y0110236D01*
X0086709Y0112609D01*
X0084963Y0115024D01*
X0083277Y0117481D01*
X0081650Y0119977D01*
X0080083Y0122512D01*
X0078578Y0125084D01*
X0077136Y0127692D01*
X0075756Y0130333D01*
X0074441Y0133007D01*
X0073190Y0135711D01*
X0072004Y0138445D01*
X0072881Y0138809D01*
X0074057Y0136096D01*
X0075298Y0133413D01*
X0076604Y0130760D01*
X0077972Y0128139D01*
X0079404Y0125552D01*
X0080897Y0123001D01*
X0082451Y0120485D01*
X0084066Y0118008D01*
X0085739Y0115571D01*
X0087471Y0113175D01*
X0089259Y0110821D01*
X0091104Y0108510D01*
X0093004Y0106245D01*
X0094958Y0104026D01*
X0096965Y0101855D01*
X0099023Y0099732D01*
X0099693Y0100404D01*
X0097651Y0102509D01*
X0095661Y0104664D01*
X0093722Y0106865D01*
X0091837Y0109113D01*
X0090007Y0111405D01*
X0088232Y0113740D01*
X0086515Y0116118D01*
X0084854Y0118536D01*
X0083253Y0120994D01*
X0081711Y0123489D01*
X0080229Y0126020D01*
X0078809Y0128587D01*
X0077451Y0131187D01*
X0076156Y0133819D01*
X0074925Y0136481D01*
X0073758Y0139172D01*
X0074634Y0139536D01*
X0075792Y0136866D01*
X0077014Y0134225D01*
X0078299Y0131614D01*
X0079646Y0129035D01*
X0081055Y0126489D01*
X0082525Y0123977D01*
X0084054Y0121502D01*
X0085643Y0119064D01*
X0087290Y0116665D01*
X0088994Y0114306D01*
X0090755Y0111989D01*
X0092571Y0109715D01*
X0094440Y0107486D01*
X0096363Y0105301D01*
X0098338Y0103164D01*
X0100364Y0101075D01*
X0306098Y0137092D02*
X0297782Y0140534D01*
X0297782Y0140533D02*
X0298847Y0143229D01*
X0299847Y0145950D01*
X0300781Y0148694D01*
X0301649Y0151460D01*
X0302450Y0154246D01*
X0303183Y0157050D01*
X0303849Y0159871D01*
X0304447Y0162707D01*
X0304977Y0165557D01*
X0305438Y0168419D01*
X0305830Y0171291D01*
X0306153Y0174171D01*
X0306406Y0177059D01*
X0306590Y0179952D01*
X0306705Y0182848D01*
X0306749Y0185747D01*
X0315749Y0185754D01*
X0315749Y0185753D01*
X0315702Y0182634D01*
X0315580Y0179517D01*
X0315383Y0176403D01*
X0315110Y0173295D01*
X0314763Y0170195D01*
X0314341Y0167104D01*
X0313845Y0164024D01*
X0313275Y0160956D01*
X0312632Y0157904D01*
X0311915Y0154867D01*
X0311125Y0151849D01*
X0310262Y0148851D01*
X0309328Y0145875D01*
X0308322Y0142921D01*
X0307245Y0139993D01*
X0306098Y0137092D01*
X0305221Y0137455D01*
X0306360Y0140334D01*
X0307428Y0143241D01*
X0308427Y0146172D01*
X0309354Y0149126D01*
X0310210Y0152102D01*
X0310994Y0155097D01*
X0311706Y0158111D01*
X0312345Y0161141D01*
X0312910Y0164185D01*
X0313403Y0167242D01*
X0313821Y0170310D01*
X0314166Y0173388D01*
X0314436Y0176472D01*
X0314632Y0179563D01*
X0314753Y0182657D01*
X0314800Y0185753D01*
X0313851Y0185752D01*
X0313805Y0182679D01*
X0313684Y0179608D01*
X0313490Y0176541D01*
X0313221Y0173480D01*
X0312879Y0170426D01*
X0312464Y0167381D01*
X0311975Y0164347D01*
X0311414Y0161326D01*
X0310780Y0158319D01*
X0310073Y0155328D01*
X0309295Y0152355D01*
X0308446Y0149401D01*
X0307525Y0146469D01*
X0306535Y0143560D01*
X0305474Y0140676D01*
X0304345Y0137818D01*
X0303468Y0138180D01*
X0304589Y0141017D01*
X0305641Y0143879D01*
X0306624Y0146766D01*
X0307537Y0149676D01*
X0308380Y0152607D01*
X0309153Y0155558D01*
X0309854Y0158526D01*
X0310483Y0161510D01*
X0311040Y0164509D01*
X0311525Y0167520D01*
X0311937Y0170542D01*
X0312277Y0173572D01*
X0312543Y0176611D01*
X0312736Y0179654D01*
X0312856Y0182702D01*
X0312902Y0185751D01*
X0311953Y0185751D01*
X0311907Y0182724D01*
X0311788Y0179700D01*
X0311597Y0176680D01*
X0311332Y0173665D01*
X0310995Y0170657D01*
X0310586Y0167658D01*
X0310105Y0164670D01*
X0309552Y0161695D01*
X0308928Y0158733D01*
X0308232Y0155788D01*
X0307466Y0152860D01*
X0306629Y0149951D01*
X0305723Y0147064D01*
X0304747Y0144199D01*
X0303703Y0141358D01*
X0302591Y0138543D01*
X0301714Y0138906D01*
X0302818Y0141699D01*
X0303854Y0144518D01*
X0304822Y0147361D01*
X0305721Y0150226D01*
X0306551Y0153113D01*
X0307311Y0156018D01*
X0308001Y0158941D01*
X0308621Y0161879D01*
X0309170Y0164832D01*
X0309647Y0167797D01*
X0310053Y0170773D01*
X0310388Y0173757D01*
X0310650Y0176749D01*
X0310840Y0179746D01*
X0310959Y0182747D01*
X0311004Y0185750D01*
X0310055Y0185749D01*
X0310010Y0182770D01*
X0309893Y0179792D01*
X0309704Y0176818D01*
X0309443Y0173850D01*
X0309111Y0170888D01*
X0308709Y0167936D01*
X0308235Y0164994D01*
X0307690Y0162064D01*
X0307075Y0159148D01*
X0306391Y0156248D01*
X0305636Y0153365D01*
X0304813Y0150501D01*
X0303920Y0147658D01*
X0302960Y0144837D01*
X0301932Y0142040D01*
X0300837Y0139269D01*
X0299960Y0139632D01*
X0301046Y0142382D01*
X0302066Y0145157D01*
X0303019Y0147956D01*
X0303904Y0150777D01*
X0304721Y0153618D01*
X0305470Y0156478D01*
X0306149Y0159356D01*
X0306759Y0162249D01*
X0307300Y0165155D01*
X0307770Y0168074D01*
X0308170Y0171004D01*
X0308499Y0173942D01*
X0308757Y0176887D01*
X0308945Y0179838D01*
X0309061Y0182792D01*
X0309106Y0185748D01*
X0308157Y0185748D01*
X0308112Y0182815D01*
X0307997Y0179884D01*
X0307811Y0176956D01*
X0307554Y0174034D01*
X0307228Y0171119D01*
X0306831Y0168213D01*
X0306365Y0165317D01*
X0305829Y0162433D01*
X0305223Y0159563D01*
X0304549Y0156708D01*
X0303807Y0153871D01*
X0302996Y0151052D01*
X0302118Y0148253D01*
X0301173Y0145476D01*
X0300161Y0142723D01*
X0299083Y0139995D01*
X0298206Y0140358D01*
X0299275Y0143064D01*
X0300279Y0145795D01*
X0301217Y0148550D01*
X0302088Y0151327D01*
X0302892Y0154123D01*
X0303629Y0156938D01*
X0304297Y0159771D01*
X0304898Y0162618D01*
X0305429Y0165479D01*
X0305892Y0168352D01*
X0306286Y0171235D01*
X0306610Y0174127D01*
X0306864Y0177026D01*
X0307049Y0179930D01*
X0307164Y0182837D01*
X0307208Y0185747D01*
X0235408Y0306098D02*
X0231966Y0297782D01*
X0231967Y0297782D02*
X0229271Y0298847D01*
X0226550Y0299847D01*
X0223806Y0300781D01*
X0221040Y0301649D01*
X0218254Y0302450D01*
X0215450Y0303183D01*
X0212629Y0303849D01*
X0209793Y0304447D01*
X0206943Y0304977D01*
X0204081Y0305438D01*
X0201209Y0305830D01*
X0198329Y0306153D01*
X0195441Y0306406D01*
X0192548Y0306590D01*
X0189652Y0306705D01*
X0186753Y0306749D01*
X0186746Y0315749D01*
X0186747Y0315749D01*
X0189866Y0315702D01*
X0192983Y0315580D01*
X0196097Y0315383D01*
X0199205Y0315110D01*
X0202305Y0314763D01*
X0205396Y0314341D01*
X0208476Y0313845D01*
X0211544Y0313275D01*
X0214596Y0312632D01*
X0217633Y0311915D01*
X0220651Y0311125D01*
X0223649Y0310262D01*
X0226625Y0309328D01*
X0229579Y0308322D01*
X0232507Y0307245D01*
X0235408Y0306098D01*
X0235045Y0305221D01*
X0232166Y0306360D01*
X0229259Y0307428D01*
X0226328Y0308427D01*
X0223374Y0309354D01*
X0220398Y0310210D01*
X0217403Y0310994D01*
X0214389Y0311706D01*
X0211359Y0312345D01*
X0208315Y0312910D01*
X0205258Y0313403D01*
X0202190Y0313821D01*
X0199112Y0314166D01*
X0196028Y0314436D01*
X0192937Y0314632D01*
X0189843Y0314753D01*
X0186747Y0314800D01*
X0186748Y0313851D01*
X0189821Y0313805D01*
X0192892Y0313684D01*
X0195959Y0313490D01*
X0199020Y0313221D01*
X0202074Y0312879D01*
X0205119Y0312464D01*
X0208153Y0311975D01*
X0211174Y0311414D01*
X0214181Y0310780D01*
X0217172Y0310073D01*
X0220145Y0309295D01*
X0223099Y0308446D01*
X0226031Y0307525D01*
X0228940Y0306535D01*
X0231824Y0305474D01*
X0234682Y0304345D01*
X0234320Y0303468D01*
X0231483Y0304589D01*
X0228621Y0305641D01*
X0225734Y0306624D01*
X0222824Y0307537D01*
X0219893Y0308380D01*
X0216942Y0309153D01*
X0213974Y0309854D01*
X0210990Y0310483D01*
X0207991Y0311040D01*
X0204980Y0311525D01*
X0201958Y0311937D01*
X0198928Y0312277D01*
X0195889Y0312543D01*
X0192846Y0312736D01*
X0189798Y0312856D01*
X0186749Y0312902D01*
X0186749Y0311953D01*
X0189776Y0311907D01*
X0192800Y0311788D01*
X0195820Y0311597D01*
X0198835Y0311332D01*
X0201843Y0310995D01*
X0204842Y0310586D01*
X0207830Y0310105D01*
X0210805Y0309552D01*
X0213767Y0308928D01*
X0216712Y0308232D01*
X0219640Y0307466D01*
X0222549Y0306629D01*
X0225436Y0305723D01*
X0228301Y0304747D01*
X0231142Y0303703D01*
X0233957Y0302591D01*
X0233594Y0301714D01*
X0230801Y0302818D01*
X0227982Y0303854D01*
X0225139Y0304822D01*
X0222274Y0305721D01*
X0219387Y0306551D01*
X0216482Y0307311D01*
X0213559Y0308001D01*
X0210621Y0308621D01*
X0207668Y0309170D01*
X0204703Y0309647D01*
X0201727Y0310053D01*
X0198743Y0310388D01*
X0195751Y0310650D01*
X0192754Y0310840D01*
X0189753Y0310959D01*
X0186750Y0311004D01*
X0186751Y0310055D01*
X0189730Y0310010D01*
X0192708Y0309893D01*
X0195682Y0309704D01*
X0198650Y0309443D01*
X0201612Y0309111D01*
X0204564Y0308709D01*
X0207506Y0308235D01*
X0210436Y0307690D01*
X0213352Y0307075D01*
X0216252Y0306391D01*
X0219135Y0305636D01*
X0221999Y0304813D01*
X0224842Y0303920D01*
X0227663Y0302960D01*
X0230460Y0301932D01*
X0233231Y0300837D01*
X0232868Y0299960D01*
X0230118Y0301046D01*
X0227343Y0302066D01*
X0224544Y0303019D01*
X0221723Y0303904D01*
X0218882Y0304721D01*
X0216022Y0305470D01*
X0213144Y0306149D01*
X0210251Y0306759D01*
X0207345Y0307300D01*
X0204426Y0307770D01*
X0201496Y0308170D01*
X0198558Y0308499D01*
X0195613Y0308757D01*
X0192662Y0308945D01*
X0189708Y0309061D01*
X0186752Y0309106D01*
X0186752Y0308157D01*
X0189685Y0308112D01*
X0192616Y0307997D01*
X0195544Y0307811D01*
X0198466Y0307554D01*
X0201381Y0307228D01*
X0204287Y0306831D01*
X0207183Y0306365D01*
X0210067Y0305829D01*
X0212937Y0305223D01*
X0215792Y0304549D01*
X0218629Y0303807D01*
X0221448Y0302996D01*
X0224247Y0302118D01*
X0227024Y0301173D01*
X0229777Y0300161D01*
X0232505Y0299083D01*
X0232142Y0298206D01*
X0229436Y0299275D01*
X0226705Y0300279D01*
X0223950Y0301217D01*
X0221173Y0302088D01*
X0218377Y0302892D01*
X0215562Y0303629D01*
X0212729Y0304297D01*
X0209882Y0304898D01*
X0207021Y0305429D01*
X0204148Y0305892D01*
X0201265Y0306286D01*
X0198373Y0306610D01*
X0195474Y0306864D01*
X0192570Y0307049D01*
X0189663Y0307164D01*
X0186753Y0307208D01*
X0066402Y0235408D02*
X0074718Y0231966D01*
X0074718Y0231967D02*
X0073653Y0229271D01*
X0072653Y0226550D01*
X0071719Y0223806D01*
X0070851Y0221040D01*
X0070050Y0218254D01*
X0069317Y0215450D01*
X0068651Y0212629D01*
X0068053Y0209793D01*
X0067523Y0206943D01*
X0067062Y0204081D01*
X0066670Y0201209D01*
X0066347Y0198329D01*
X0066094Y0195441D01*
X0065910Y0192548D01*
X0065795Y0189652D01*
X0065751Y0186753D01*
X0056751Y0186746D01*
X0056751Y0186747D01*
X0056798Y0189866D01*
X0056920Y0192983D01*
X0057117Y0196097D01*
X0057390Y0199205D01*
X0057737Y0202305D01*
X0058159Y0205396D01*
X0058655Y0208476D01*
X0059225Y0211544D01*
X0059868Y0214596D01*
X0060585Y0217633D01*
X0061375Y0220651D01*
X0062238Y0223649D01*
X0063172Y0226625D01*
X0064178Y0229579D01*
X0065255Y0232507D01*
X0066402Y0235408D01*
X0067279Y0235045D01*
X0066140Y0232166D01*
X0065072Y0229259D01*
X0064073Y0226328D01*
X0063146Y0223374D01*
X0062290Y0220398D01*
X0061506Y0217403D01*
X0060794Y0214389D01*
X0060155Y0211359D01*
X0059590Y0208315D01*
X0059097Y0205258D01*
X0058679Y0202190D01*
X0058334Y0199112D01*
X0058064Y0196028D01*
X0057868Y0192937D01*
X0057747Y0189843D01*
X0057700Y0186747D01*
X0058649Y0186748D01*
X0058695Y0189821D01*
X0058816Y0192892D01*
X0059010Y0195959D01*
X0059279Y0199020D01*
X0059621Y0202074D01*
X0060036Y0205119D01*
X0060525Y0208153D01*
X0061086Y0211174D01*
X0061720Y0214181D01*
X0062427Y0217172D01*
X0063205Y0220145D01*
X0064054Y0223099D01*
X0064975Y0226031D01*
X0065965Y0228940D01*
X0067026Y0231824D01*
X0068155Y0234682D01*
X0069032Y0234320D01*
X0067911Y0231483D01*
X0066859Y0228621D01*
X0065876Y0225734D01*
X0064963Y0222824D01*
X0064120Y0219893D01*
X0063347Y0216942D01*
X0062646Y0213974D01*
X0062017Y0210990D01*
X0061460Y0207991D01*
X0060975Y0204980D01*
X0060563Y0201958D01*
X0060223Y0198928D01*
X0059957Y0195889D01*
X0059764Y0192846D01*
X0059644Y0189798D01*
X0059598Y0186749D01*
X0060547Y0186749D01*
X0060593Y0189776D01*
X0060712Y0192800D01*
X0060903Y0195820D01*
X0061168Y0198835D01*
X0061505Y0201843D01*
X0061914Y0204842D01*
X0062395Y0207830D01*
X0062948Y0210805D01*
X0063572Y0213767D01*
X0064268Y0216712D01*
X0065034Y0219640D01*
X0065871Y0222549D01*
X0066777Y0225436D01*
X0067753Y0228301D01*
X0068797Y0231142D01*
X0069909Y0233957D01*
X0070786Y0233594D01*
X0069682Y0230801D01*
X0068646Y0227982D01*
X0067678Y0225139D01*
X0066779Y0222274D01*
X0065949Y0219387D01*
X0065189Y0216482D01*
X0064499Y0213559D01*
X0063879Y0210621D01*
X0063330Y0207668D01*
X0062853Y0204703D01*
X0062447Y0201727D01*
X0062112Y0198743D01*
X0061850Y0195751D01*
X0061660Y0192754D01*
X0061541Y0189753D01*
X0061496Y0186750D01*
X0062445Y0186751D01*
X0062490Y0189730D01*
X0062607Y0192708D01*
X0062796Y0195682D01*
X0063057Y0198650D01*
X0063389Y0201612D01*
X0063791Y0204564D01*
X0064265Y0207506D01*
X0064810Y0210436D01*
X0065425Y0213352D01*
X0066109Y0216252D01*
X0066864Y0219135D01*
X0067687Y0221999D01*
X0068580Y0224842D01*
X0069540Y0227663D01*
X0070568Y0230460D01*
X0071663Y0233231D01*
X0072540Y0232868D01*
X0071454Y0230118D01*
X0070434Y0227343D01*
X0069481Y0224544D01*
X0068596Y0221723D01*
X0067779Y0218882D01*
X0067030Y0216022D01*
X0066351Y0213144D01*
X0065741Y0210251D01*
X0065200Y0207345D01*
X0064730Y0204426D01*
X0064330Y0201496D01*
X0064001Y0198558D01*
X0063743Y0195613D01*
X0063555Y0192662D01*
X0063439Y0189708D01*
X0063394Y0186752D01*
X0064343Y0186752D01*
X0064388Y0189685D01*
X0064503Y0192616D01*
X0064689Y0195544D01*
X0064946Y0198466D01*
X0065272Y0201381D01*
X0065669Y0204287D01*
X0066135Y0207183D01*
X0066671Y0210067D01*
X0067277Y0212937D01*
X0067951Y0215792D01*
X0068693Y0218629D01*
X0069504Y0221448D01*
X0070382Y0224247D01*
X0071327Y0227024D01*
X0072339Y0229777D01*
X0073417Y0232505D01*
X0074294Y0232142D01*
X0073225Y0229436D01*
X0072221Y0226705D01*
X0071283Y0223950D01*
X0070412Y0221173D01*
X0069608Y0218377D01*
X0068871Y0215562D01*
X0068203Y0212729D01*
X0067602Y0209882D01*
X0067071Y0207021D01*
X0066608Y0204148D01*
X0066214Y0201265D01*
X0065890Y0198373D01*
X0065636Y0195474D01*
X0065451Y0192570D01*
X0065336Y0189663D01*
X0065292Y0186753D01*
X0137092Y0066402D02*
X0140534Y0074718D01*
X0140533Y0074718D02*
X0143229Y0073653D01*
X0145950Y0072653D01*
X0148694Y0071719D01*
X0151460Y0070851D01*
X0154246Y0070050D01*
X0157050Y0069317D01*
X0159871Y0068651D01*
X0162707Y0068053D01*
X0165557Y0067523D01*
X0168419Y0067062D01*
X0171291Y0066670D01*
X0174171Y0066347D01*
X0177059Y0066094D01*
X0179952Y0065910D01*
X0182848Y0065795D01*
X0185747Y0065751D01*
X0185754Y0056751D01*
X0185753Y0056751D01*
X0182634Y0056798D01*
X0179517Y0056920D01*
X0176403Y0057117D01*
X0173295Y0057390D01*
X0170195Y0057737D01*
X0167104Y0058159D01*
X0164024Y0058655D01*
X0160956Y0059225D01*
X0157904Y0059868D01*
X0154867Y0060585D01*
X0151849Y0061375D01*
X0148851Y0062238D01*
X0145875Y0063172D01*
X0142921Y0064178D01*
X0139993Y0065255D01*
X0137092Y0066402D01*
X0137455Y0067279D01*
X0140334Y0066140D01*
X0143241Y0065072D01*
X0146172Y0064073D01*
X0149126Y0063146D01*
X0152102Y0062290D01*
X0155097Y0061506D01*
X0158111Y0060794D01*
X0161141Y0060155D01*
X0164185Y0059590D01*
X0167242Y0059097D01*
X0170310Y0058679D01*
X0173388Y0058334D01*
X0176472Y0058064D01*
X0179563Y0057868D01*
X0182657Y0057747D01*
X0185753Y0057700D01*
X0185752Y0058649D01*
X0182679Y0058695D01*
X0179608Y0058816D01*
X0176541Y0059010D01*
X0173480Y0059279D01*
X0170426Y0059621D01*
X0167381Y0060036D01*
X0164347Y0060525D01*
X0161326Y0061086D01*
X0158319Y0061720D01*
X0155328Y0062427D01*
X0152355Y0063205D01*
X0149401Y0064054D01*
X0146469Y0064975D01*
X0143560Y0065965D01*
X0140676Y0067026D01*
X0137818Y0068155D01*
X0138180Y0069032D01*
X0141017Y0067911D01*
X0143879Y0066859D01*
X0146766Y0065876D01*
X0149676Y0064963D01*
X0152607Y0064120D01*
X0155558Y0063347D01*
X0158526Y0062646D01*
X0161510Y0062017D01*
X0164509Y0061460D01*
X0167520Y0060975D01*
X0170542Y0060563D01*
X0173572Y0060223D01*
X0176611Y0059957D01*
X0179654Y0059764D01*
X0182702Y0059644D01*
X0185751Y0059598D01*
X0185751Y0060547D01*
X0182724Y0060593D01*
X0179700Y0060712D01*
X0176680Y0060903D01*
X0173665Y0061168D01*
X0170657Y0061505D01*
X0167658Y0061914D01*
X0164670Y0062395D01*
X0161695Y0062948D01*
X0158733Y0063572D01*
X0155788Y0064268D01*
X0152860Y0065034D01*
X0149951Y0065871D01*
X0147064Y0066777D01*
X0144199Y0067753D01*
X0141358Y0068797D01*
X0138543Y0069909D01*
X0138906Y0070786D01*
X0141699Y0069682D01*
X0144518Y0068646D01*
X0147361Y0067678D01*
X0150226Y0066779D01*
X0153113Y0065949D01*
X0156018Y0065189D01*
X0158941Y0064499D01*
X0161879Y0063879D01*
X0164832Y0063330D01*
X0167797Y0062853D01*
X0170773Y0062447D01*
X0173757Y0062112D01*
X0176749Y0061850D01*
X0179746Y0061660D01*
X0182747Y0061541D01*
X0185750Y0061496D01*
X0185749Y0062445D01*
X0182770Y0062490D01*
X0179792Y0062607D01*
X0176818Y0062796D01*
X0173850Y0063057D01*
X0170888Y0063389D01*
X0167936Y0063791D01*
X0164994Y0064265D01*
X0162064Y0064810D01*
X0159148Y0065425D01*
X0156248Y0066109D01*
X0153365Y0066864D01*
X0150501Y0067687D01*
X0147658Y0068580D01*
X0144837Y0069540D01*
X0142040Y0070568D01*
X0139269Y0071663D01*
X0139632Y0072540D01*
X0142382Y0071454D01*
X0145157Y0070434D01*
X0147956Y0069481D01*
X0150777Y0068596D01*
X0153618Y0067779D01*
X0156478Y0067030D01*
X0159356Y0066351D01*
X0162249Y0065741D01*
X0165155Y0065200D01*
X0168074Y0064730D01*
X0171004Y0064330D01*
X0173942Y0064001D01*
X0176887Y0063743D01*
X0179838Y0063555D01*
X0182792Y0063439D01*
X0185748Y0063394D01*
X0185748Y0064343D01*
X0182815Y0064388D01*
X0179884Y0064503D01*
X0176956Y0064689D01*
X0174034Y0064946D01*
X0171119Y0065272D01*
X0168213Y0065669D01*
X0165317Y0066135D01*
X0162433Y0066671D01*
X0159563Y0067277D01*
X0156708Y0067951D01*
X0153871Y0068693D01*
X0151052Y0069504D01*
X0148253Y0070382D01*
X0145476Y0071327D01*
X0142723Y0072339D01*
X0139995Y0073417D01*
X0140358Y0074294D01*
X0143064Y0073225D01*
X0145795Y0072221D01*
X0148550Y0071283D01*
X0151327Y0070412D01*
X0154123Y0069608D01*
X0156938Y0068871D01*
X0159771Y0068203D01*
X0162618Y0067602D01*
X0165479Y0067071D01*
X0168352Y0066608D01*
X0171235Y0066214D01*
X0174127Y0065890D01*
X0177026Y0065636D01*
X0179930Y0065451D01*
X0182837Y0065336D01*
X0185747Y0065292D01*
M02*
