G75*
%MOIN*%
%OFA0B0*%
%FSLAX25Y25*%
%IPPOS*%
%LPD*%
%AMOC8*
5,1,8,0,0,1.08239X$1,22.5*
%
%ADD10C,0.02000*%
%ADD11C,0.01000*%
%ADD12C,0.08200*%
%ADD13C,0.25800*%
%ADD14C,0.12800*%
D10*
X0137990Y0125621D02*
X0131490Y0136879D01*
X0140369Y0134500D02*
X0129111Y0128000D01*
X0230003Y0304750D02*
X0230003Y0317750D01*
X0223503Y0311250D02*
X0236503Y0311250D01*
X0332627Y0127000D02*
X0343885Y0120500D01*
X0341506Y0129379D02*
X0335006Y0118121D01*
D11*
X0336256Y0120286D02*
X0335685Y0120686D01*
X0335192Y0121179D01*
X0334792Y0121750D01*
X0334497Y0122382D01*
X0334317Y0123055D01*
X0334256Y0123750D01*
X0334317Y0124445D01*
X0334497Y0125118D01*
X0334792Y0125750D01*
X0335248Y0126387D01*
X0335821Y0126923D01*
X0336487Y0127337D01*
X0337221Y0127614D01*
X0337994Y0127741D01*
X0338778Y0127716D01*
X0339542Y0127538D01*
X0340256Y0127214D01*
X0340827Y0126814D01*
X0341320Y0126321D01*
X0341720Y0125750D01*
X0342015Y0125118D01*
X0342195Y0124445D01*
X0342256Y0123750D01*
X0342195Y0123055D01*
X0342015Y0122382D01*
X0341720Y0121750D01*
X0341320Y0121179D01*
X0340827Y0120686D01*
X0340256Y0120286D01*
X0339624Y0119991D01*
X0338950Y0119811D01*
X0338256Y0119750D01*
X0337561Y0119811D01*
X0336888Y0119991D01*
X0336256Y0120286D01*
X0336167Y0120348D02*
X0340345Y0120348D01*
X0341438Y0121347D02*
X0335074Y0121347D01*
X0334514Y0122345D02*
X0341998Y0122345D01*
X0342220Y0123344D02*
X0334291Y0123344D01*
X0334308Y0124342D02*
X0342204Y0124342D01*
X0341911Y0125341D02*
X0334601Y0125341D01*
X0335214Y0126339D02*
X0341302Y0126339D01*
X0339983Y0127338D02*
X0336488Y0127338D01*
X0138740Y0131250D02*
X0138679Y0130555D01*
X0138499Y0129882D01*
X0138204Y0129250D01*
X0137804Y0128679D01*
X0137311Y0128186D01*
X0136740Y0127786D01*
X0136108Y0127491D01*
X0135434Y0127311D01*
X0134740Y0127250D01*
X0134045Y0127311D01*
X0133372Y0127491D01*
X0132740Y0127786D01*
X0132169Y0128186D01*
X0131676Y0128679D01*
X0131276Y0129250D01*
X0130981Y0129882D01*
X0130801Y0130555D01*
X0130740Y0131250D01*
X0130801Y0131945D01*
X0130981Y0132618D01*
X0131276Y0133250D01*
X0131676Y0133821D01*
X0132169Y0134314D01*
X0132740Y0134714D01*
X0133372Y0135009D01*
X0134045Y0135189D01*
X0134740Y0135250D01*
X0135434Y0135189D01*
X0136108Y0135009D01*
X0136740Y0134714D01*
X0137311Y0134314D01*
X0137804Y0133821D01*
X0138204Y0133250D01*
X0138499Y0132618D01*
X0138679Y0131945D01*
X0138740Y0131250D01*
X0138733Y0131332D02*
X0130747Y0131332D01*
X0130860Y0130333D02*
X0138620Y0130333D01*
X0138244Y0129335D02*
X0131236Y0129335D01*
X0132018Y0128336D02*
X0137462Y0128336D01*
X0135535Y0127338D02*
X0133944Y0127338D01*
X0130904Y0132330D02*
X0138576Y0132330D01*
X0138149Y0133329D02*
X0131331Y0133329D01*
X0132188Y0134327D02*
X0137292Y0134327D01*
X0228003Y0307786D02*
X0227432Y0308186D01*
X0226939Y0308679D01*
X0226539Y0309250D01*
X0226244Y0309882D01*
X0226063Y0310555D01*
X0226003Y0311250D01*
X0226063Y0311945D01*
X0226244Y0312618D01*
X0226539Y0313250D01*
X0226939Y0313821D01*
X0227432Y0314314D01*
X0228003Y0314714D01*
X0228635Y0315009D01*
X0229308Y0315189D01*
X0230003Y0315250D01*
X0230697Y0315189D01*
X0231371Y0315009D01*
X0232003Y0314714D01*
X0232574Y0314314D01*
X0233067Y0313821D01*
X0233467Y0313250D01*
X0233761Y0312618D01*
X0233942Y0311945D01*
X0234003Y0311250D01*
X0233942Y0310555D01*
X0233761Y0309882D01*
X0233467Y0309250D01*
X0233067Y0308679D01*
X0232574Y0308186D01*
X0232003Y0307786D01*
X0231371Y0307491D01*
X0230697Y0307311D01*
X0230003Y0307250D01*
X0229308Y0307311D01*
X0228635Y0307491D01*
X0228003Y0307786D01*
X0227599Y0308068D02*
X0232406Y0308068D01*
X0233339Y0309067D02*
X0226667Y0309067D01*
X0226195Y0310065D02*
X0233811Y0310065D01*
X0233986Y0311064D02*
X0226019Y0311064D01*
X0226095Y0312062D02*
X0233910Y0312062D01*
X0233555Y0313061D02*
X0226450Y0313061D01*
X0227177Y0314059D02*
X0232829Y0314059D01*
X0231187Y0315058D02*
X0228818Y0315058D01*
D12*
X0230003Y0061250D03*
X0240003Y0061250D03*
X0250003Y0061250D03*
X0220003Y0061250D03*
X0210003Y0061250D03*
D13*
X0230003Y0098750D03*
X0317503Y0186250D03*
X0230003Y0273750D03*
D14*
X0142503Y0186250D03*
M02*
