G75*
%MOIN*%
%OFA0B0*%
%FSLAX25Y25*%
%IPPOS*%
%LPD*%
%AMOC8*
5,1,8,0,0,1.08239X$1,22.5*
%
%ADD10C,0.02000*%
%ADD11C,0.01000*%
%ADD12C,0.08200*%
%ADD13C,0.25800*%
D10*
X0094237Y0125621D02*
X0087737Y0136879D01*
X0096616Y0134500D02*
X0085358Y0128000D01*
X0186250Y0304750D02*
X0186250Y0317750D01*
X0179750Y0311250D02*
X0192750Y0311250D01*
X0288874Y0127000D02*
X0300132Y0120500D01*
X0297753Y0129379D02*
X0291253Y0118121D01*
D11*
X0292503Y0120286D02*
X0291932Y0120686D01*
X0291439Y0121179D01*
X0291039Y0121750D01*
X0290744Y0122382D01*
X0290564Y0123055D01*
X0290503Y0123750D01*
X0290564Y0124445D01*
X0290744Y0125118D01*
X0291039Y0125750D01*
X0291496Y0126387D01*
X0292068Y0126923D01*
X0292734Y0127337D01*
X0293468Y0127614D01*
X0294242Y0127741D01*
X0295025Y0127716D01*
X0295789Y0127538D01*
X0296503Y0127214D01*
X0297074Y0126814D01*
X0297567Y0126321D01*
X0297967Y0125750D01*
X0298262Y0125118D01*
X0298442Y0124445D01*
X0298503Y0123750D01*
X0298442Y0123055D01*
X0298262Y0122382D01*
X0297967Y0121750D01*
X0297567Y0121179D01*
X0297074Y0120686D01*
X0296503Y0120286D01*
X0295871Y0119991D01*
X0295198Y0119811D01*
X0294503Y0119750D01*
X0293809Y0119811D01*
X0293135Y0119991D01*
X0292503Y0120286D01*
X0292414Y0120348D02*
X0296592Y0120348D01*
X0297685Y0121347D02*
X0291321Y0121347D01*
X0290761Y0122345D02*
X0298245Y0122345D01*
X0298468Y0123344D02*
X0290539Y0123344D01*
X0290555Y0124342D02*
X0298451Y0124342D01*
X0298158Y0125341D02*
X0290848Y0125341D01*
X0291461Y0126339D02*
X0297549Y0126339D01*
X0296230Y0127338D02*
X0292735Y0127338D01*
X0188250Y0307786D02*
X0187618Y0307491D01*
X0186945Y0307311D01*
X0186250Y0307250D01*
X0185555Y0307311D01*
X0184882Y0307491D01*
X0184250Y0307786D01*
X0183679Y0308186D01*
X0183186Y0308679D01*
X0182786Y0309250D01*
X0182491Y0309882D01*
X0182311Y0310555D01*
X0182250Y0311250D01*
X0182311Y0311945D01*
X0182491Y0312618D01*
X0182786Y0313250D01*
X0183186Y0313821D01*
X0183679Y0314314D01*
X0184250Y0314714D01*
X0184882Y0315009D01*
X0185555Y0315189D01*
X0186250Y0315250D01*
X0186945Y0315189D01*
X0187618Y0315009D01*
X0188250Y0314714D01*
X0188821Y0314314D01*
X0189314Y0313821D01*
X0189714Y0313250D01*
X0190009Y0312618D01*
X0190189Y0311945D01*
X0190250Y0311250D01*
X0190189Y0310555D01*
X0190009Y0309882D01*
X0189714Y0309250D01*
X0189314Y0308679D01*
X0188821Y0308186D01*
X0188250Y0307786D01*
X0188653Y0308068D02*
X0183847Y0308068D01*
X0182914Y0309067D02*
X0189586Y0309067D01*
X0190058Y0310065D02*
X0182442Y0310065D01*
X0182266Y0311064D02*
X0190234Y0311064D01*
X0190158Y0312062D02*
X0182342Y0312062D01*
X0182698Y0313061D02*
X0189802Y0313061D01*
X0189076Y0314059D02*
X0183424Y0314059D01*
X0185065Y0315058D02*
X0187435Y0315058D01*
X0092987Y0134714D02*
X0093558Y0134314D01*
X0094051Y0133821D01*
X0094451Y0133250D01*
X0094746Y0132618D01*
X0094926Y0131945D01*
X0094987Y0131250D01*
X0094926Y0130555D01*
X0094746Y0129882D01*
X0094451Y0129250D01*
X0094051Y0128679D01*
X0093558Y0128186D01*
X0092987Y0127786D01*
X0092355Y0127491D01*
X0091682Y0127311D01*
X0090987Y0127250D01*
X0090293Y0127311D01*
X0089619Y0127491D01*
X0088987Y0127786D01*
X0088416Y0128186D01*
X0087923Y0128679D01*
X0087523Y0129250D01*
X0087228Y0129882D01*
X0087048Y0130555D01*
X0086987Y0131250D01*
X0087048Y0131945D01*
X0087228Y0132618D01*
X0087523Y0133250D01*
X0087923Y0133821D01*
X0088416Y0134314D01*
X0088987Y0134714D01*
X0089619Y0135009D01*
X0090293Y0135189D01*
X0090987Y0135250D01*
X0091682Y0135189D01*
X0092355Y0135009D01*
X0092987Y0134714D01*
X0093539Y0134327D02*
X0088435Y0134327D01*
X0087578Y0133329D02*
X0094396Y0133329D01*
X0094823Y0132330D02*
X0087151Y0132330D01*
X0086994Y0131332D02*
X0094980Y0131332D01*
X0094867Y0130333D02*
X0087107Y0130333D01*
X0087484Y0129335D02*
X0094491Y0129335D01*
X0093709Y0128336D02*
X0088266Y0128336D01*
X0090192Y0127338D02*
X0091783Y0127338D01*
D12*
X0166250Y0061250D03*
X0176250Y0061250D03*
X0186250Y0061250D03*
X0196250Y0061250D03*
X0206250Y0061250D03*
D13*
X0186250Y0098750D03*
X0098750Y0186250D03*
X0186250Y0273750D03*
X0273750Y0186250D03*
M02*
