G75*
%MOIN*%
%OFA0B0*%
%FSLAX25Y25*%
%IPPOS*%
%LPD*%
%AMOC8*
5,1,8,0,0,1.08239X$1,22.5*
%
%ADD10C,0.01000*%
%ADD11R,0.00118X0.17598*%
%ADD12R,0.00118X0.17480*%
%ADD13R,0.00079X0.17362*%
%ADD14R,0.00157X0.17244*%
%ADD15R,0.00118X0.17126*%
%ADD16R,0.00118X0.17008*%
%ADD17R,0.00079X0.16890*%
%ADD18R,0.00118X0.09567*%
%ADD19R,0.00118X0.06850*%
%ADD20R,0.00157X0.02480*%
%ADD21R,0.00157X0.00354*%
%ADD22R,0.00157X0.01417*%
%ADD23R,0.00157X0.01299*%
%ADD24R,0.00157X0.02953*%
%ADD25R,0.00157X0.02835*%
%ADD26R,0.00118X0.02480*%
%ADD27R,0.00118X0.00354*%
%ADD28R,0.00118X0.01181*%
%ADD29R,0.00118X0.01063*%
%ADD30R,0.00118X0.02598*%
%ADD31R,0.00118X0.00945*%
%ADD32R,0.00118X0.02362*%
%ADD33R,0.00118X0.00827*%
%ADD34R,0.00118X0.02244*%
%ADD35R,0.00157X0.00945*%
%ADD36R,0.00157X0.00709*%
%ADD37R,0.00157X0.02362*%
%ADD38R,0.00157X0.02008*%
%ADD39R,0.00118X0.00472*%
%ADD40R,0.00118X0.00591*%
%ADD41R,0.00118X0.01890*%
%ADD42R,0.00118X0.02008*%
%ADD43R,0.00118X0.00709*%
%ADD44R,0.00118X0.01654*%
%ADD45R,0.00118X0.01535*%
%ADD46R,0.00157X0.00591*%
%ADD47R,0.00157X0.00472*%
%ADD48R,0.00157X0.03780*%
%ADD49R,0.00118X0.03898*%
%ADD50R,0.00118X0.03780*%
%ADD51R,0.00118X0.00236*%
%ADD52R,0.00118X0.00118*%
%ADD53R,0.00157X0.00827*%
%ADD54R,0.00157X0.00118*%
%ADD55R,0.00157X0.00236*%
%ADD56R,0.00157X0.01063*%
%ADD57R,0.00118X0.03661*%
%ADD58R,0.00118X0.03543*%
%ADD59R,0.00157X0.03425*%
%ADD60R,0.00118X0.03307*%
%ADD61R,0.00118X0.01772*%
%ADD62R,0.00157X0.01181*%
%ADD63R,0.00118X0.01417*%
%ADD64R,0.00118X0.01299*%
%ADD65R,0.00157X0.01654*%
%ADD66R,0.00157X0.01535*%
%ADD67R,0.00118X0.16890*%
%ADD68R,0.00118X0.17244*%
%ADD69R,0.00118X0.17362*%
%ADD70R,0.00157X0.16772*%
%ADD71R,0.00118X0.16654*%
%ADD72R,0.00118X0.16535*%
%ADD73R,0.00079X0.16417*%
%ADD74R,0.00118X0.06378*%
%ADD75R,0.00157X0.01890*%
%ADD76R,0.00157X0.02126*%
%ADD77R,0.00157X0.03071*%
%ADD78R,0.00118X0.03189*%
%ADD79R,0.00157X0.03307*%
%ADD80R,0.00157X0.03189*%
%ADD81R,0.00118X0.03071*%
%ADD82R,0.00157X0.01772*%
%ADD83R,0.00118X0.16417*%
%ADD84R,0.00118X0.16772*%
%ADD85R,0.00118X0.16063*%
%ADD86R,0.00118X0.16181*%
%ADD87R,0.00157X0.16535*%
%ADD88R,0.00118X0.02126*%
%ADD89R,0.00157X0.02598*%
%ADD90R,0.00157X0.02244*%
%ADD91R,0.00118X0.09094*%
%ADD92R,0.00079X0.09094*%
%ADD93R,0.00157X0.09094*%
%ADD94R,0.00157X0.02717*%
%ADD95R,0.00157X0.03661*%
%ADD96R,0.00118X0.02717*%
%ADD97R,0.00118X0.02835*%
%ADD98R,0.00118X0.12638*%
%ADD99R,0.00079X0.12638*%
%ADD100R,0.00157X0.12638*%
%ADD101R,0.00118X0.08268*%
%ADD102R,0.00118X0.02953*%
%ADD103R,0.00118X0.03425*%
D10*
X0153398Y0121971D02*
X0148087Y0128892D01*
X0143400Y0136250D01*
X0139372Y0143988D01*
X0136033Y0152048D01*
X0133410Y0160368D01*
X0131522Y0168885D01*
X0130383Y0177534D01*
X0130003Y0186250D01*
X0330003Y0186250D01*
X0329622Y0177534D01*
X0328483Y0168885D01*
X0326595Y0160368D01*
X0323972Y0152048D01*
X0320633Y0143988D01*
X0316605Y0136250D01*
X0311918Y0128892D01*
X0306607Y0121971D01*
X0300713Y0115539D01*
X0294281Y0109646D01*
X0287360Y0104335D01*
X0280003Y0099647D01*
X0272265Y0095619D01*
X0264205Y0092281D01*
X0255885Y0089657D01*
X0247367Y0087769D01*
X0238718Y0086631D01*
X0230003Y0086250D01*
X0221287Y0086631D01*
X0212638Y0087769D01*
X0204121Y0089657D01*
X0195801Y0092281D01*
X0187741Y0095619D01*
X0180003Y0099647D01*
X0172645Y0104335D01*
X0165724Y0109646D01*
X0159292Y0115539D01*
X0153398Y0121971D01*
X0153111Y0122345D02*
X0306894Y0122345D01*
X0307660Y0123344D02*
X0152345Y0123344D01*
X0151579Y0124342D02*
X0308427Y0124342D01*
X0309193Y0125341D02*
X0150813Y0125341D01*
X0150046Y0126339D02*
X0309959Y0126339D01*
X0310725Y0127338D02*
X0149280Y0127338D01*
X0148514Y0128336D02*
X0311491Y0128336D01*
X0312200Y0129335D02*
X0147806Y0129335D01*
X0147169Y0130333D02*
X0312836Y0130333D01*
X0313472Y0131332D02*
X0146533Y0131332D01*
X0145897Y0132330D02*
X0314108Y0132330D01*
X0314744Y0133329D02*
X0145261Y0133329D01*
X0144625Y0134327D02*
X0315380Y0134327D01*
X0316017Y0135326D02*
X0143989Y0135326D01*
X0143361Y0136324D02*
X0316644Y0136324D01*
X0317164Y0137323D02*
X0142842Y0137323D01*
X0142322Y0138321D02*
X0317684Y0138321D01*
X0318203Y0139320D02*
X0141802Y0139320D01*
X0141282Y0140318D02*
X0318723Y0140318D01*
X0319243Y0141317D02*
X0140762Y0141317D01*
X0140243Y0142316D02*
X0319763Y0142316D01*
X0320283Y0143314D02*
X0139723Y0143314D01*
X0139238Y0144313D02*
X0320768Y0144313D01*
X0321181Y0145311D02*
X0138824Y0145311D01*
X0138410Y0146310D02*
X0321595Y0146310D01*
X0322009Y0147308D02*
X0137997Y0147308D01*
X0137583Y0148307D02*
X0322422Y0148307D01*
X0322836Y0149305D02*
X0137170Y0149305D01*
X0136756Y0150304D02*
X0323249Y0150304D01*
X0323663Y0151302D02*
X0136342Y0151302D01*
X0135954Y0152301D02*
X0324052Y0152301D01*
X0324366Y0153299D02*
X0135639Y0153299D01*
X0135324Y0154298D02*
X0324681Y0154298D01*
X0324996Y0155296D02*
X0135009Y0155296D01*
X0134694Y0156295D02*
X0325311Y0156295D01*
X0325626Y0157293D02*
X0134380Y0157293D01*
X0134065Y0158292D02*
X0325941Y0158292D01*
X0326255Y0159290D02*
X0133750Y0159290D01*
X0133435Y0160289D02*
X0326570Y0160289D01*
X0326799Y0161287D02*
X0133206Y0161287D01*
X0132985Y0162286D02*
X0327020Y0162286D01*
X0327242Y0163284D02*
X0132764Y0163284D01*
X0132542Y0164283D02*
X0327463Y0164283D01*
X0327684Y0165281D02*
X0132321Y0165281D01*
X0132100Y0166280D02*
X0327906Y0166280D01*
X0328127Y0167278D02*
X0131878Y0167278D01*
X0131657Y0168277D02*
X0328349Y0168277D01*
X0328535Y0169275D02*
X0131471Y0169275D01*
X0131339Y0170274D02*
X0328666Y0170274D01*
X0328798Y0171272D02*
X0131208Y0171272D01*
X0131076Y0172271D02*
X0328929Y0172271D01*
X0329061Y0173269D02*
X0130945Y0173269D01*
X0130813Y0174268D02*
X0329192Y0174268D01*
X0329324Y0175266D02*
X0130682Y0175266D01*
X0130550Y0176265D02*
X0329455Y0176265D01*
X0329586Y0177263D02*
X0130419Y0177263D01*
X0130351Y0178262D02*
X0329654Y0178262D01*
X0329698Y0179260D02*
X0130308Y0179260D01*
X0130264Y0180259D02*
X0329741Y0180259D01*
X0329785Y0181257D02*
X0130221Y0181257D01*
X0130177Y0182256D02*
X0329828Y0182256D01*
X0329872Y0183254D02*
X0130133Y0183254D01*
X0130090Y0184253D02*
X0329916Y0184253D01*
X0329959Y0185251D02*
X0130046Y0185251D01*
X0130003Y0186250D02*
X0130383Y0194966D01*
X0131522Y0203615D01*
X0133410Y0212132D01*
X0136033Y0220452D01*
X0139372Y0228512D01*
X0143400Y0236250D01*
X0148087Y0243608D01*
X0153398Y0250529D01*
X0159292Y0256961D01*
X0165724Y0262854D01*
X0172645Y0268165D01*
X0180003Y0272853D01*
X0187741Y0276881D01*
X0195801Y0280219D01*
X0204121Y0282843D01*
X0212638Y0284731D01*
X0221287Y0285869D01*
X0230003Y0286250D01*
X0238718Y0285869D01*
X0247367Y0284731D01*
X0255885Y0282843D01*
X0264205Y0280219D01*
X0272265Y0276881D01*
X0280003Y0272853D01*
X0287360Y0268165D01*
X0294281Y0262854D01*
X0300713Y0256961D01*
X0306607Y0250529D01*
X0311918Y0243608D01*
X0316605Y0236250D01*
X0320633Y0228512D01*
X0323972Y0220452D01*
X0326595Y0212132D01*
X0328483Y0203615D01*
X0329622Y0194966D01*
X0330003Y0186250D01*
X0329959Y0187249D02*
X0130046Y0187249D01*
X0130090Y0188247D02*
X0329915Y0188247D01*
X0329872Y0189246D02*
X0130133Y0189246D01*
X0130177Y0190244D02*
X0329828Y0190244D01*
X0329785Y0191243D02*
X0130221Y0191243D01*
X0130264Y0192241D02*
X0329741Y0192241D01*
X0329698Y0193240D02*
X0130308Y0193240D01*
X0130351Y0194238D02*
X0329654Y0194238D01*
X0329586Y0195237D02*
X0130419Y0195237D01*
X0130550Y0196235D02*
X0329455Y0196235D01*
X0329324Y0197234D02*
X0130682Y0197234D01*
X0130813Y0198232D02*
X0329192Y0198232D01*
X0329061Y0199231D02*
X0130945Y0199231D01*
X0131076Y0200229D02*
X0328929Y0200229D01*
X0328798Y0201228D02*
X0131208Y0201228D01*
X0131339Y0202226D02*
X0328666Y0202226D01*
X0328535Y0203225D02*
X0131471Y0203225D01*
X0131657Y0204223D02*
X0328349Y0204223D01*
X0328127Y0205222D02*
X0131878Y0205222D01*
X0132100Y0206220D02*
X0327906Y0206220D01*
X0327684Y0207219D02*
X0132321Y0207219D01*
X0132542Y0208217D02*
X0327463Y0208217D01*
X0327242Y0209216D02*
X0132764Y0209216D01*
X0132985Y0210214D02*
X0327020Y0210214D01*
X0326799Y0211213D02*
X0133206Y0211213D01*
X0133435Y0212211D02*
X0326570Y0212211D01*
X0326255Y0213210D02*
X0133750Y0213210D01*
X0134065Y0214208D02*
X0325941Y0214208D01*
X0325626Y0215207D02*
X0134380Y0215207D01*
X0134694Y0216205D02*
X0325311Y0216205D01*
X0324996Y0217204D02*
X0135009Y0217204D01*
X0135324Y0218202D02*
X0324681Y0218202D01*
X0324366Y0219201D02*
X0135639Y0219201D01*
X0135954Y0220199D02*
X0324052Y0220199D01*
X0323663Y0221198D02*
X0136342Y0221198D01*
X0136756Y0222196D02*
X0323249Y0222196D01*
X0322836Y0223195D02*
X0137170Y0223195D01*
X0137583Y0224193D02*
X0322422Y0224193D01*
X0322009Y0225192D02*
X0137997Y0225192D01*
X0138410Y0226190D02*
X0321595Y0226190D01*
X0321181Y0227189D02*
X0138824Y0227189D01*
X0139238Y0228187D02*
X0320768Y0228187D01*
X0320283Y0229186D02*
X0139723Y0229186D01*
X0140243Y0230184D02*
X0319763Y0230184D01*
X0319243Y0231183D02*
X0140762Y0231183D01*
X0141282Y0232182D02*
X0318723Y0232182D01*
X0318203Y0233180D02*
X0141802Y0233180D01*
X0142322Y0234179D02*
X0317684Y0234179D01*
X0317164Y0235177D02*
X0142842Y0235177D01*
X0143361Y0236176D02*
X0316644Y0236176D01*
X0316017Y0237174D02*
X0143989Y0237174D01*
X0144625Y0238173D02*
X0315380Y0238173D01*
X0314744Y0239171D02*
X0145261Y0239171D01*
X0145897Y0240170D02*
X0314108Y0240170D01*
X0313472Y0241168D02*
X0146533Y0241168D01*
X0147169Y0242167D02*
X0312836Y0242167D01*
X0312200Y0243165D02*
X0147806Y0243165D01*
X0148514Y0244164D02*
X0311491Y0244164D01*
X0310725Y0245162D02*
X0149280Y0245162D01*
X0150046Y0246161D02*
X0309959Y0246161D01*
X0309193Y0247159D02*
X0150813Y0247159D01*
X0151579Y0248158D02*
X0308427Y0248158D01*
X0307660Y0249156D02*
X0152345Y0249156D01*
X0153111Y0250155D02*
X0306894Y0250155D01*
X0306035Y0251153D02*
X0153970Y0251153D01*
X0154885Y0252152D02*
X0305120Y0252152D01*
X0304205Y0253150D02*
X0155800Y0253150D01*
X0156715Y0254149D02*
X0303290Y0254149D01*
X0302375Y0255147D02*
X0157630Y0255147D01*
X0158545Y0256146D02*
X0301460Y0256146D01*
X0300513Y0257144D02*
X0159492Y0257144D01*
X0160582Y0258143D02*
X0299423Y0258143D01*
X0298334Y0259141D02*
X0161672Y0259141D01*
X0162761Y0260140D02*
X0297244Y0260140D01*
X0296154Y0261138D02*
X0163851Y0261138D01*
X0164941Y0262137D02*
X0295065Y0262137D01*
X0293915Y0263135D02*
X0166090Y0263135D01*
X0167391Y0264134D02*
X0292614Y0264134D01*
X0291313Y0265132D02*
X0168693Y0265132D01*
X0169994Y0266131D02*
X0290011Y0266131D01*
X0288710Y0267129D02*
X0171295Y0267129D01*
X0172596Y0268128D02*
X0287409Y0268128D01*
X0285851Y0269126D02*
X0174154Y0269126D01*
X0175721Y0270125D02*
X0284284Y0270125D01*
X0282717Y0271123D02*
X0177289Y0271123D01*
X0178856Y0272122D02*
X0281149Y0272122D01*
X0279488Y0273120D02*
X0180517Y0273120D01*
X0182436Y0274119D02*
X0277570Y0274119D01*
X0275652Y0275118D02*
X0184354Y0275118D01*
X0186272Y0276116D02*
X0273734Y0276116D01*
X0271700Y0277115D02*
X0188305Y0277115D01*
X0190716Y0278113D02*
X0269290Y0278113D01*
X0266879Y0279112D02*
X0193126Y0279112D01*
X0195537Y0280110D02*
X0264468Y0280110D01*
X0261384Y0281109D02*
X0198621Y0281109D01*
X0201788Y0282107D02*
X0258217Y0282107D01*
X0254698Y0283106D02*
X0205307Y0283106D01*
X0209811Y0284104D02*
X0250194Y0284104D01*
X0244543Y0285103D02*
X0215462Y0285103D01*
X0226593Y0286101D02*
X0233412Y0286101D01*
X0306035Y0121347D02*
X0153970Y0121347D01*
X0154885Y0120348D02*
X0305120Y0120348D01*
X0304205Y0119350D02*
X0155800Y0119350D01*
X0156715Y0118351D02*
X0303290Y0118351D01*
X0302375Y0117353D02*
X0157630Y0117353D01*
X0158545Y0116354D02*
X0301460Y0116354D01*
X0300513Y0115356D02*
X0159492Y0115356D01*
X0160582Y0114357D02*
X0299423Y0114357D01*
X0298334Y0113359D02*
X0161672Y0113359D01*
X0162761Y0112360D02*
X0297244Y0112360D01*
X0296154Y0111362D02*
X0163851Y0111362D01*
X0164941Y0110363D02*
X0295065Y0110363D01*
X0293915Y0109365D02*
X0166090Y0109365D01*
X0167391Y0108366D02*
X0292614Y0108366D01*
X0291313Y0107368D02*
X0168693Y0107368D01*
X0169994Y0106369D02*
X0290011Y0106369D01*
X0288710Y0105371D02*
X0171295Y0105371D01*
X0172596Y0104372D02*
X0287409Y0104372D01*
X0285851Y0103374D02*
X0174154Y0103374D01*
X0175721Y0102375D02*
X0284284Y0102375D01*
X0282717Y0101377D02*
X0177289Y0101377D01*
X0178856Y0100378D02*
X0281149Y0100378D01*
X0279488Y0099380D02*
X0180517Y0099380D01*
X0182436Y0098381D02*
X0277570Y0098381D01*
X0275652Y0097382D02*
X0184354Y0097382D01*
X0186272Y0096384D02*
X0273734Y0096384D01*
X0271700Y0095385D02*
X0188305Y0095385D01*
X0190716Y0094387D02*
X0269290Y0094387D01*
X0266879Y0093388D02*
X0193126Y0093388D01*
X0195537Y0092390D02*
X0264468Y0092390D01*
X0261384Y0091391D02*
X0198621Y0091391D01*
X0201788Y0090393D02*
X0258217Y0090393D01*
X0254698Y0089394D02*
X0205307Y0089394D01*
X0209811Y0088396D02*
X0250194Y0088396D01*
X0244543Y0087397D02*
X0215462Y0087397D01*
X0226593Y0086399D02*
X0233412Y0086399D01*
D11*
X0247660Y0072785D03*
X0252345Y0072785D03*
D12*
X0252227Y0072726D03*
X0247778Y0072726D03*
D13*
X0247877Y0072667D03*
D14*
X0247995Y0072607D03*
D15*
X0248133Y0072548D03*
X0251912Y0072548D03*
X0242345Y0072630D03*
X0237660Y0072630D03*
D16*
X0237778Y0072571D03*
X0242227Y0072571D03*
X0248251Y0072489D03*
X0251794Y0072489D03*
X0228448Y0072571D03*
D17*
X0228349Y0072512D03*
X0237877Y0072512D03*
X0248349Y0072430D03*
D18*
X0248448Y0068769D03*
X0238448Y0068851D03*
D19*
X0248448Y0077332D03*
D20*
X0248585Y0065226D03*
X0249058Y0065226D03*
X0249530Y0065226D03*
X0250003Y0065226D03*
X0250475Y0065226D03*
X0250948Y0065226D03*
X0251420Y0065226D03*
X0241420Y0065307D03*
X0240948Y0065307D03*
X0240475Y0065307D03*
X0240003Y0065307D03*
X0239530Y0065307D03*
X0239058Y0065307D03*
X0238585Y0065307D03*
X0231420Y0065307D03*
X0230948Y0065307D03*
X0230475Y0065307D03*
X0230003Y0065307D03*
X0229530Y0065307D03*
X0229058Y0065307D03*
X0228585Y0065307D03*
X0220948Y0065507D03*
X0220003Y0065507D03*
X0219530Y0065507D03*
X0210475Y0065307D03*
X0209530Y0065307D03*
X0228585Y0074638D03*
X0229530Y0080780D03*
X0230475Y0080780D03*
D21*
X0230475Y0076764D03*
X0230003Y0076764D03*
X0229530Y0076764D03*
X0229058Y0076764D03*
X0230948Y0076764D03*
X0230948Y0071567D03*
X0231420Y0071567D03*
X0229058Y0071567D03*
X0228585Y0071567D03*
X0231420Y0068851D03*
X0238585Y0069087D03*
X0239058Y0069087D03*
X0240948Y0069087D03*
X0241420Y0069087D03*
X0239530Y0072158D03*
X0248585Y0069005D03*
X0249058Y0069005D03*
X0250948Y0069005D03*
X0251420Y0069005D03*
X0250475Y0071958D03*
X0250003Y0071958D03*
X0219058Y0068815D03*
X0218585Y0068815D03*
X0210948Y0069441D03*
X0210475Y0069441D03*
X0210003Y0069441D03*
X0210003Y0072512D03*
X0210475Y0072512D03*
X0210948Y0072512D03*
X0211420Y0072512D03*
X0209530Y0072512D03*
X0209058Y0072512D03*
D22*
X0209530Y0075996D03*
X0210475Y0075996D03*
X0218585Y0072653D03*
X0219058Y0072653D03*
X0219058Y0070527D03*
X0229530Y0075052D03*
X0230475Y0075052D03*
X0228585Y0078241D03*
X0239058Y0075524D03*
X0240948Y0075524D03*
X0248585Y0070481D03*
X0250948Y0075442D03*
X0249530Y0078985D03*
D23*
X0248585Y0072430D03*
X0238585Y0072512D03*
X0238585Y0070622D03*
X0230003Y0075111D03*
X0220948Y0069287D03*
X0208585Y0070977D03*
X0210003Y0076056D03*
D24*
X0248585Y0075856D03*
D25*
X0248585Y0079222D03*
D26*
X0248802Y0075974D03*
X0249392Y0075737D03*
X0249392Y0065226D03*
X0249274Y0065226D03*
X0249196Y0065226D03*
X0248920Y0065226D03*
X0248802Y0065226D03*
X0248723Y0065226D03*
X0249668Y0065226D03*
X0249786Y0065226D03*
X0249865Y0065226D03*
X0250140Y0065226D03*
X0250219Y0065226D03*
X0250337Y0065226D03*
X0250613Y0065226D03*
X0250731Y0065226D03*
X0250810Y0065226D03*
X0251085Y0065226D03*
X0251164Y0065226D03*
X0251282Y0065226D03*
X0251558Y0065226D03*
X0241282Y0065307D03*
X0241164Y0065307D03*
X0241085Y0065307D03*
X0240810Y0065307D03*
X0240731Y0065307D03*
X0240613Y0065307D03*
X0240337Y0065307D03*
X0240219Y0065307D03*
X0240140Y0065307D03*
X0239865Y0065307D03*
X0239786Y0065307D03*
X0239668Y0065307D03*
X0239392Y0065307D03*
X0239274Y0065307D03*
X0239196Y0065307D03*
X0238920Y0065307D03*
X0238802Y0065307D03*
X0238723Y0065307D03*
X0231282Y0065307D03*
X0231164Y0065307D03*
X0231085Y0065307D03*
X0230810Y0065307D03*
X0230731Y0065307D03*
X0230613Y0065307D03*
X0230337Y0065307D03*
X0230219Y0065307D03*
X0230140Y0065307D03*
X0229865Y0065307D03*
X0229786Y0065307D03*
X0229668Y0065307D03*
X0229392Y0065307D03*
X0229274Y0065307D03*
X0229196Y0065307D03*
X0228920Y0065307D03*
X0228802Y0065307D03*
X0228723Y0065307D03*
X0221282Y0065507D03*
X0220810Y0065507D03*
X0220219Y0065507D03*
X0220140Y0065507D03*
X0219865Y0065507D03*
X0219786Y0065507D03*
X0219668Y0065507D03*
X0219392Y0065507D03*
X0219274Y0065507D03*
X0221164Y0072122D03*
X0221282Y0072122D03*
X0211558Y0075465D03*
X0210613Y0065307D03*
X0210337Y0065307D03*
X0210219Y0065307D03*
X0210140Y0065307D03*
X0209865Y0065307D03*
X0209786Y0065307D03*
X0209668Y0065307D03*
X0209392Y0065307D03*
D27*
X0210140Y0069441D03*
X0210219Y0069441D03*
X0210337Y0069441D03*
X0210613Y0069441D03*
X0210731Y0069441D03*
X0210810Y0069441D03*
X0211085Y0069441D03*
X0210219Y0070504D03*
X0209865Y0071449D03*
X0209865Y0072512D03*
X0209786Y0072512D03*
X0209668Y0072512D03*
X0209392Y0072512D03*
X0209274Y0072512D03*
X0209196Y0072512D03*
X0208920Y0072512D03*
X0208802Y0072512D03*
X0208723Y0072512D03*
X0210140Y0072512D03*
X0210219Y0072512D03*
X0210337Y0072512D03*
X0210613Y0072512D03*
X0210731Y0072512D03*
X0210810Y0072512D03*
X0211085Y0072512D03*
X0211164Y0072512D03*
X0211282Y0072512D03*
X0220140Y0070468D03*
X0220219Y0070468D03*
X0220337Y0067633D03*
X0228723Y0071567D03*
X0228802Y0071567D03*
X0228920Y0071567D03*
X0231085Y0071567D03*
X0231164Y0071567D03*
X0231282Y0071567D03*
X0231282Y0068851D03*
X0231164Y0068851D03*
X0231085Y0068851D03*
X0238723Y0069087D03*
X0238802Y0069087D03*
X0238920Y0069087D03*
X0240219Y0070150D03*
X0239865Y0071095D03*
X0239392Y0072158D03*
X0239274Y0072158D03*
X0240613Y0072158D03*
X0240731Y0072158D03*
X0241085Y0069087D03*
X0241164Y0069087D03*
X0241282Y0069087D03*
X0248723Y0069005D03*
X0248802Y0069005D03*
X0248920Y0069005D03*
X0250219Y0070068D03*
X0250337Y0070068D03*
X0249786Y0070895D03*
X0249786Y0071958D03*
X0249865Y0071958D03*
X0249668Y0071958D03*
X0250140Y0071958D03*
X0250219Y0071958D03*
X0250337Y0071958D03*
X0251085Y0069005D03*
X0251164Y0069005D03*
X0251282Y0069005D03*
X0250140Y0077627D03*
X0240140Y0077237D03*
X0239786Y0077237D03*
X0231282Y0076764D03*
X0231164Y0076764D03*
X0231085Y0076764D03*
X0230810Y0076764D03*
X0230731Y0076764D03*
X0230613Y0076764D03*
X0230337Y0076764D03*
X0230219Y0076764D03*
X0230140Y0076764D03*
X0229865Y0076764D03*
X0229786Y0076764D03*
X0229668Y0076764D03*
X0229392Y0076764D03*
X0229274Y0076764D03*
X0229196Y0076764D03*
X0228920Y0076764D03*
X0228802Y0076764D03*
X0230219Y0077827D03*
X0230337Y0077827D03*
X0229786Y0078654D03*
D28*
X0228723Y0078241D03*
X0229668Y0073044D03*
X0229786Y0073044D03*
X0229865Y0073044D03*
X0230140Y0073044D03*
X0230219Y0073044D03*
X0230337Y0073044D03*
X0238802Y0070681D03*
X0241282Y0070563D03*
X0248723Y0070481D03*
X0249668Y0078985D03*
X0249786Y0078985D03*
X0251085Y0079694D03*
X0220810Y0069228D03*
X0219274Y0070527D03*
X0211282Y0070918D03*
X0208802Y0071036D03*
X0209668Y0073989D03*
X0209786Y0073989D03*
X0209865Y0073989D03*
X0210140Y0073989D03*
X0210219Y0073989D03*
X0210337Y0073989D03*
X0210337Y0067847D03*
D29*
X0211558Y0069205D03*
X0211164Y0070859D03*
X0208920Y0071095D03*
X0210613Y0073930D03*
X0219392Y0070468D03*
X0219786Y0068815D03*
X0219668Y0068696D03*
X0220731Y0069287D03*
X0230613Y0072985D03*
X0231164Y0078181D03*
X0231282Y0078181D03*
X0228802Y0078300D03*
X0239196Y0079126D03*
X0239392Y0073811D03*
X0240731Y0073811D03*
X0241164Y0070504D03*
X0238920Y0070741D03*
X0248802Y0070541D03*
X0248723Y0072312D03*
X0249392Y0073730D03*
X0250731Y0073730D03*
X0251164Y0070422D03*
X0251282Y0070422D03*
X0249865Y0079044D03*
X0250731Y0079399D03*
X0250810Y0079517D03*
D30*
X0248723Y0079222D03*
X0248723Y0075915D03*
X0241558Y0065367D03*
X0231558Y0065367D03*
X0231558Y0074579D03*
X0230337Y0080839D03*
X0230219Y0080839D03*
X0230140Y0080839D03*
X0229865Y0080839D03*
X0229786Y0080839D03*
X0229668Y0080839D03*
X0220337Y0065567D03*
X0219196Y0065567D03*
X0218920Y0065567D03*
X0218802Y0065567D03*
X0218723Y0065567D03*
X0210810Y0065367D03*
X0210731Y0065367D03*
X0209274Y0065367D03*
X0209196Y0065367D03*
D31*
X0210613Y0067965D03*
X0211085Y0070800D03*
X0209196Y0071154D03*
X0209392Y0073870D03*
X0219865Y0068874D03*
X0220219Y0069110D03*
X0220337Y0069110D03*
X0220613Y0069228D03*
X0229392Y0072926D03*
X0230337Y0071272D03*
X0231085Y0078122D03*
X0228920Y0078359D03*
X0239274Y0079067D03*
X0240810Y0079185D03*
X0240731Y0077532D03*
X0240613Y0077532D03*
X0240337Y0077532D03*
X0238723Y0072453D03*
X0239196Y0070800D03*
X0241085Y0070445D03*
X0240337Y0068792D03*
X0248920Y0070600D03*
X0248802Y0072253D03*
X0251282Y0072253D03*
X0251085Y0070363D03*
X0250337Y0068710D03*
X0250219Y0079104D03*
X0250140Y0079104D03*
X0250613Y0079340D03*
D32*
X0248802Y0079222D03*
X0248920Y0075915D03*
X0249196Y0075915D03*
X0249274Y0075796D03*
X0230731Y0080721D03*
X0230613Y0080721D03*
X0229392Y0080721D03*
X0229274Y0080721D03*
X0221085Y0072181D03*
X0221085Y0065448D03*
X0221164Y0065448D03*
X0209668Y0068437D03*
D33*
X0209274Y0068024D03*
X0210731Y0068024D03*
X0210810Y0070741D03*
X0209274Y0071213D03*
X0210731Y0073811D03*
X0219668Y0070468D03*
X0219786Y0070468D03*
X0220140Y0069051D03*
X0229786Y0071331D03*
X0229865Y0071331D03*
X0230140Y0071331D03*
X0230219Y0071331D03*
X0230731Y0072867D03*
X0229196Y0078418D03*
X0239274Y0077473D03*
X0239392Y0077473D03*
X0239392Y0079008D03*
X0240731Y0079126D03*
X0239274Y0073811D03*
X0238802Y0072394D03*
X0239274Y0070859D03*
X0240810Y0070386D03*
X0240219Y0068851D03*
X0240140Y0068851D03*
X0239865Y0068851D03*
X0239786Y0068851D03*
X0241282Y0072394D03*
X0248920Y0072194D03*
X0249196Y0070659D03*
X0249786Y0068769D03*
X0249865Y0068769D03*
X0250140Y0068769D03*
X0250219Y0068769D03*
X0251164Y0072194D03*
X0249274Y0073730D03*
X0250337Y0079163D03*
D34*
X0248920Y0079163D03*
X0241558Y0079244D03*
X0230810Y0080662D03*
X0229196Y0080662D03*
X0220810Y0072240D03*
X0220731Y0072240D03*
D35*
X0219530Y0070527D03*
X0220003Y0068992D03*
X0220475Y0069228D03*
X0209058Y0071154D03*
X0229058Y0078359D03*
X0240475Y0077532D03*
X0239058Y0070800D03*
X0249058Y0070600D03*
X0250475Y0079222D03*
D36*
X0249058Y0072135D03*
X0240003Y0078831D03*
X0239530Y0078949D03*
X0211420Y0069264D03*
D37*
X0210003Y0065248D03*
X0208585Y0075524D03*
X0220948Y0072181D03*
X0249058Y0075915D03*
D38*
X0249058Y0079163D03*
X0249530Y0068178D03*
X0250475Y0068178D03*
X0240475Y0068260D03*
X0239530Y0068260D03*
X0230475Y0070741D03*
X0229530Y0070741D03*
D39*
X0229196Y0071508D03*
X0231558Y0068910D03*
X0239196Y0069028D03*
X0240337Y0070209D03*
X0239786Y0071036D03*
X0239196Y0072217D03*
X0240810Y0072217D03*
X0240219Y0077296D03*
X0240219Y0078949D03*
X0240337Y0078949D03*
X0231558Y0076705D03*
X0229668Y0078595D03*
X0228723Y0076705D03*
X0220810Y0067574D03*
X0219196Y0068756D03*
X0211164Y0069382D03*
X0209865Y0069382D03*
X0209786Y0069382D03*
X0208920Y0069382D03*
X0210337Y0070563D03*
X0209786Y0071390D03*
X0249196Y0068946D03*
X0249668Y0070836D03*
X0249392Y0072017D03*
X0249274Y0072017D03*
X0250613Y0072017D03*
X0250731Y0072017D03*
X0251558Y0068946D03*
X0250219Y0077568D03*
D40*
X0250810Y0073730D03*
X0250810Y0072076D03*
X0249196Y0072076D03*
X0249392Y0070777D03*
X0250613Y0070186D03*
X0241558Y0069087D03*
X0240613Y0070268D03*
X0239668Y0070977D03*
X0241085Y0072276D03*
X0240810Y0073811D03*
X0240140Y0078890D03*
X0239786Y0078890D03*
X0239668Y0078890D03*
X0230613Y0077945D03*
X0229392Y0078536D03*
X0230810Y0072748D03*
X0231558Y0071567D03*
X0219865Y0070468D03*
X0211558Y0072512D03*
X0210810Y0073693D03*
X0209668Y0071331D03*
X0210613Y0070622D03*
X0211282Y0069323D03*
X0209196Y0069323D03*
X0208802Y0069323D03*
X0209865Y0067552D03*
X0210140Y0067552D03*
D41*
X0211164Y0075760D03*
X0208802Y0075760D03*
X0220140Y0072417D03*
X0228802Y0074815D03*
X0231164Y0074815D03*
X0231164Y0080485D03*
X0228802Y0080485D03*
X0249196Y0079104D03*
D42*
X0251558Y0075265D03*
X0250810Y0068178D03*
X0250731Y0068178D03*
X0250613Y0068178D03*
X0249668Y0068178D03*
X0249392Y0068178D03*
X0249274Y0068178D03*
X0240810Y0068260D03*
X0240731Y0068260D03*
X0240613Y0068260D03*
X0239668Y0068260D03*
X0239392Y0068260D03*
X0239274Y0068260D03*
X0241558Y0075347D03*
X0231282Y0074756D03*
X0231085Y0080544D03*
X0228920Y0080544D03*
X0220337Y0072358D03*
X0220219Y0072358D03*
X0211282Y0075701D03*
X0229274Y0070741D03*
X0229392Y0070741D03*
X0229668Y0070741D03*
X0230613Y0070741D03*
X0230731Y0070741D03*
X0230810Y0070741D03*
D43*
X0229274Y0072807D03*
X0230731Y0078004D03*
X0230810Y0078004D03*
X0229274Y0078477D03*
X0239668Y0077414D03*
X0240810Y0077414D03*
X0240613Y0079067D03*
X0239865Y0078831D03*
X0238920Y0072335D03*
X0239392Y0070918D03*
X0240731Y0070327D03*
X0241164Y0072335D03*
X0249274Y0070718D03*
X0250731Y0070245D03*
X0250810Y0070245D03*
X0251085Y0072135D03*
X0220731Y0067574D03*
X0210810Y0068083D03*
X0210219Y0067611D03*
X0209786Y0067611D03*
X0209274Y0069264D03*
X0208723Y0069264D03*
X0209392Y0071272D03*
X0210731Y0070681D03*
X0209274Y0073752D03*
D44*
X0219668Y0072535D03*
X0221282Y0069228D03*
X0231558Y0080248D03*
X0239392Y0075406D03*
X0240731Y0075406D03*
X0241282Y0079304D03*
X0249274Y0079104D03*
X0250810Y0075442D03*
D45*
X0251282Y0077627D03*
X0249392Y0079044D03*
X0251558Y0072430D03*
X0240810Y0075465D03*
X0239274Y0075465D03*
X0238723Y0075465D03*
X0238802Y0079244D03*
X0230810Y0074993D03*
X0230731Y0074993D03*
X0229274Y0074993D03*
X0229196Y0074993D03*
X0221164Y0069287D03*
X0219392Y0068342D03*
X0219274Y0068342D03*
X0218920Y0070468D03*
X0218802Y0070468D03*
X0219274Y0072594D03*
X0219392Y0072594D03*
X0210810Y0075937D03*
X0210731Y0075937D03*
X0209274Y0075937D03*
X0209196Y0075937D03*
D46*
X0209530Y0071331D03*
X0210003Y0067552D03*
X0220003Y0070468D03*
X0229530Y0078536D03*
X0240475Y0079008D03*
X0239058Y0072276D03*
X0239530Y0070977D03*
X0249530Y0070777D03*
X0250948Y0072076D03*
D47*
X0249530Y0072017D03*
X0250475Y0070127D03*
X0240948Y0072217D03*
X0240475Y0070209D03*
X0231420Y0076705D03*
X0230475Y0077886D03*
X0228585Y0076705D03*
X0210475Y0070563D03*
X0209058Y0069382D03*
X0208585Y0072453D03*
D48*
X0249530Y0074970D03*
X0250003Y0074733D03*
D49*
X0249865Y0074793D03*
X0249668Y0074911D03*
D50*
X0249786Y0074852D03*
X0250140Y0074733D03*
D51*
X0249865Y0070954D03*
X0250140Y0070009D03*
X0240140Y0070091D03*
X0240140Y0071154D03*
X0240140Y0072099D03*
X0240219Y0072099D03*
X0240337Y0072099D03*
X0239865Y0072099D03*
X0239786Y0072099D03*
X0239668Y0072099D03*
X0239865Y0077178D03*
X0230140Y0077768D03*
X0229865Y0078713D03*
X0218920Y0068756D03*
X0218802Y0068756D03*
X0218723Y0068756D03*
X0210140Y0070445D03*
X0210140Y0071508D03*
D52*
X0220337Y0070468D03*
X0230140Y0078772D03*
X0249865Y0077627D03*
X0250140Y0071013D03*
D53*
X0250948Y0070304D03*
X0250003Y0068769D03*
X0240948Y0070386D03*
X0240003Y0068851D03*
X0239530Y0077473D03*
X0230948Y0078063D03*
X0230003Y0071331D03*
X0210948Y0070741D03*
X0208585Y0069205D03*
D54*
X0210003Y0070386D03*
X0220475Y0070468D03*
X0230003Y0077709D03*
X0240003Y0070032D03*
X0250003Y0069950D03*
D55*
X0250003Y0070954D03*
X0250003Y0077568D03*
X0240003Y0077178D03*
X0240003Y0072099D03*
X0240475Y0072099D03*
X0240003Y0071154D03*
X0230003Y0078713D03*
X0210003Y0071508D03*
D56*
X0210475Y0073930D03*
X0209530Y0073930D03*
X0210475Y0067906D03*
X0229530Y0072985D03*
X0230475Y0072985D03*
X0241420Y0072512D03*
X0240948Y0079244D03*
X0250003Y0079044D03*
D57*
X0250219Y0074674D03*
X0220613Y0066098D03*
X0208448Y0065898D03*
D58*
X0250337Y0074733D03*
D59*
X0250475Y0074674D03*
D60*
X0250613Y0074733D03*
X0240219Y0074579D03*
X0240140Y0074579D03*
X0239865Y0074579D03*
D61*
X0238723Y0079244D03*
X0231282Y0080426D03*
X0228723Y0080426D03*
X0228920Y0074874D03*
X0231085Y0074874D03*
X0230810Y0068142D03*
X0230731Y0068142D03*
X0230613Y0068142D03*
X0230337Y0068142D03*
X0230219Y0068142D03*
X0230140Y0068142D03*
X0229865Y0068142D03*
X0229786Y0068142D03*
X0229668Y0068142D03*
X0229392Y0068142D03*
X0229274Y0068142D03*
X0229196Y0068142D03*
X0228920Y0068142D03*
X0228802Y0068142D03*
X0228723Y0068142D03*
X0219865Y0072476D03*
X0219786Y0072476D03*
X0218723Y0070468D03*
X0211085Y0075819D03*
X0208920Y0075819D03*
X0250731Y0075383D03*
X0251558Y0077627D03*
X0251558Y0079871D03*
D62*
X0250948Y0079576D03*
X0250948Y0077568D03*
X0251420Y0072371D03*
X0251420Y0070481D03*
X0241420Y0070563D03*
X0230003Y0073044D03*
X0231420Y0078241D03*
X0239058Y0079185D03*
X0211420Y0070918D03*
X0210003Y0073989D03*
D63*
X0210337Y0075996D03*
X0210613Y0075996D03*
X0209668Y0075996D03*
X0209392Y0075996D03*
X0211558Y0070918D03*
X0219196Y0072653D03*
X0229392Y0075052D03*
X0229668Y0075052D03*
X0230337Y0075052D03*
X0230613Y0075052D03*
X0231558Y0078241D03*
X0238920Y0079185D03*
X0241164Y0079304D03*
X0241164Y0075524D03*
X0241085Y0075524D03*
X0241282Y0075524D03*
X0239196Y0075524D03*
X0238920Y0075524D03*
X0238802Y0075524D03*
X0241558Y0072571D03*
X0241558Y0070563D03*
X0251558Y0070481D03*
X0251085Y0075442D03*
X0251164Y0077568D03*
X0251282Y0079812D03*
D64*
X0251164Y0079753D03*
X0251085Y0077627D03*
X0251164Y0075383D03*
X0251282Y0075383D03*
X0241085Y0079244D03*
X0230219Y0075111D03*
X0230140Y0075111D03*
X0229865Y0075111D03*
X0229786Y0075111D03*
X0238723Y0070622D03*
X0221085Y0069287D03*
X0219196Y0070468D03*
X0218920Y0072712D03*
X0218802Y0072712D03*
X0218723Y0072712D03*
X0210219Y0076056D03*
X0210140Y0076056D03*
X0209865Y0076056D03*
X0209786Y0076056D03*
X0208723Y0070977D03*
D65*
X0209058Y0075878D03*
X0210948Y0075878D03*
X0219530Y0072535D03*
X0219530Y0068401D03*
X0229058Y0074933D03*
X0230948Y0074933D03*
X0231420Y0080367D03*
X0228585Y0080367D03*
X0251420Y0077568D03*
X0251420Y0075324D03*
D66*
X0251420Y0079871D03*
D67*
X0251676Y0072430D03*
X0242109Y0072512D03*
X0231676Y0072512D03*
D68*
X0251991Y0072607D03*
D69*
X0252109Y0072667D03*
D70*
X0237995Y0072453D03*
D71*
X0238133Y0072394D03*
X0241912Y0072394D03*
X0231912Y0072394D03*
X0228133Y0072394D03*
D72*
X0231991Y0072335D03*
X0238251Y0072335D03*
X0241794Y0072335D03*
D73*
X0238349Y0072276D03*
X0227877Y0072276D03*
D74*
X0238448Y0077178D03*
D75*
X0238585Y0075406D03*
X0241420Y0079304D03*
X0221420Y0069228D03*
X0220003Y0072417D03*
D76*
X0220475Y0072299D03*
X0211420Y0075642D03*
X0229058Y0080603D03*
X0230948Y0080603D03*
X0238585Y0079185D03*
D77*
X0239530Y0074697D03*
D78*
X0239668Y0074638D03*
X0239786Y0074638D03*
X0240337Y0074638D03*
D79*
X0240003Y0074579D03*
X0208585Y0065721D03*
D80*
X0211420Y0065662D03*
X0240475Y0074638D03*
D81*
X0240613Y0074697D03*
X0211282Y0065603D03*
X0208723Y0065603D03*
D82*
X0218585Y0070468D03*
X0228585Y0068142D03*
X0229058Y0068142D03*
X0229530Y0068142D03*
X0230003Y0068142D03*
X0230475Y0068142D03*
X0230948Y0068142D03*
X0241420Y0075465D03*
D83*
X0241676Y0072276D03*
X0232109Y0072276D03*
D84*
X0231794Y0072453D03*
X0228251Y0072453D03*
X0241991Y0072453D03*
D85*
X0232345Y0072099D03*
X0227660Y0072099D03*
D86*
X0227778Y0072158D03*
X0232227Y0072158D03*
D87*
X0227995Y0072335D03*
D88*
X0228723Y0074697D03*
X0220613Y0072299D03*
X0221558Y0069228D03*
X0209392Y0068556D03*
X0208723Y0075642D03*
D89*
X0221420Y0072063D03*
X0221420Y0065567D03*
X0219058Y0065567D03*
X0230003Y0080839D03*
D90*
X0231420Y0074756D03*
X0209530Y0068496D03*
D91*
X0217660Y0068815D03*
X0217778Y0068815D03*
X0218133Y0068815D03*
X0218251Y0068815D03*
X0218448Y0068815D03*
X0221676Y0068815D03*
X0221794Y0068815D03*
X0221912Y0068815D03*
X0221991Y0068815D03*
X0222109Y0068815D03*
X0222227Y0068815D03*
X0222345Y0068815D03*
D92*
X0218349Y0068815D03*
X0217877Y0068815D03*
D93*
X0217995Y0068815D03*
D94*
X0218585Y0065626D03*
X0210948Y0065426D03*
X0209058Y0065426D03*
D95*
X0220475Y0066098D03*
D96*
X0220731Y0065626D03*
X0221558Y0072004D03*
D97*
X0221558Y0065685D03*
X0211085Y0065485D03*
X0208920Y0065485D03*
D98*
X0208251Y0070386D03*
X0208133Y0070386D03*
X0207778Y0070386D03*
X0207660Y0070386D03*
X0211676Y0070386D03*
X0211794Y0070386D03*
X0211912Y0070386D03*
X0211991Y0070386D03*
X0212109Y0070386D03*
X0212227Y0070386D03*
X0212345Y0070386D03*
D99*
X0208349Y0070386D03*
X0207877Y0070386D03*
D100*
X0207995Y0070386D03*
D101*
X0208448Y0072571D03*
D102*
X0208802Y0065544D03*
X0211164Y0065544D03*
D103*
X0211558Y0065780D03*
M02*
