G75*
%MOIN*%
%OFA0B0*%
%FSLAX25Y25*%
%IPPOS*%
%LPD*%
%AMOC8*
5,1,8,0,0,1.08239X$1,22.5*
%
%ADD10C,0.01000*%
%ADD11C,0.00600*%
%ADD12C,0.01100*%
%ADD13C,0.00000*%
D10*
X0095003Y0186250D02*
X0095044Y0189563D01*
X0095166Y0192874D01*
X0095369Y0196181D01*
X0095653Y0199482D01*
X0096018Y0202775D01*
X0096464Y0206059D01*
X0096991Y0209330D01*
X0097597Y0212587D01*
X0098283Y0215829D01*
X0099049Y0219052D01*
X0099893Y0222256D01*
X0100816Y0225438D01*
X0101817Y0228597D01*
X0102895Y0231730D01*
X0104049Y0234836D01*
X0105279Y0237912D01*
X0106585Y0240958D01*
X0107964Y0243970D01*
X0109418Y0246948D01*
X0110944Y0249889D01*
X0112541Y0252791D01*
X0114210Y0255654D01*
X0115948Y0258475D01*
X0117755Y0261252D01*
X0119629Y0263984D01*
X0121570Y0266669D01*
X0123576Y0269306D01*
X0125647Y0271893D01*
X0127780Y0274428D01*
X0129975Y0276910D01*
X0132230Y0279338D01*
X0134544Y0281709D01*
X0136915Y0284023D01*
X0139343Y0286278D01*
X0141825Y0288473D01*
X0144360Y0290606D01*
X0146947Y0292677D01*
X0149584Y0294683D01*
X0152269Y0296624D01*
X0155001Y0298498D01*
X0157778Y0300305D01*
X0160599Y0302043D01*
X0163462Y0303712D01*
X0166364Y0305309D01*
X0169305Y0306835D01*
X0172283Y0308289D01*
X0175295Y0309668D01*
X0178341Y0310974D01*
X0181417Y0312204D01*
X0184523Y0313358D01*
X0187656Y0314436D01*
X0190815Y0315437D01*
X0193997Y0316360D01*
X0197201Y0317204D01*
X0200424Y0317970D01*
X0203666Y0318656D01*
X0206923Y0319262D01*
X0210194Y0319789D01*
X0213478Y0320235D01*
X0216771Y0320600D01*
X0220072Y0320884D01*
X0223379Y0321087D01*
X0226690Y0321209D01*
X0230003Y0321250D01*
X0233316Y0321209D01*
X0236627Y0321087D01*
X0239934Y0320884D01*
X0243235Y0320600D01*
X0246528Y0320235D01*
X0249812Y0319789D01*
X0253083Y0319262D01*
X0256340Y0318656D01*
X0259582Y0317970D01*
X0262805Y0317204D01*
X0266009Y0316360D01*
X0269191Y0315437D01*
X0272350Y0314436D01*
X0275483Y0313358D01*
X0278589Y0312204D01*
X0281665Y0310974D01*
X0284711Y0309668D01*
X0287723Y0308289D01*
X0290701Y0306835D01*
X0293642Y0305309D01*
X0296544Y0303712D01*
X0299407Y0302043D01*
X0302228Y0300305D01*
X0305005Y0298498D01*
X0307737Y0296624D01*
X0310422Y0294683D01*
X0313059Y0292677D01*
X0315646Y0290606D01*
X0318181Y0288473D01*
X0320663Y0286278D01*
X0323091Y0284023D01*
X0325462Y0281709D01*
X0327776Y0279338D01*
X0330031Y0276910D01*
X0332226Y0274428D01*
X0334359Y0271893D01*
X0336430Y0269306D01*
X0338436Y0266669D01*
X0340377Y0263984D01*
X0342251Y0261252D01*
X0344058Y0258475D01*
X0345796Y0255654D01*
X0347465Y0252791D01*
X0349062Y0249889D01*
X0350588Y0246948D01*
X0352042Y0243970D01*
X0353421Y0240958D01*
X0354727Y0237912D01*
X0355957Y0234836D01*
X0357111Y0231730D01*
X0358189Y0228597D01*
X0359190Y0225438D01*
X0360113Y0222256D01*
X0360957Y0219052D01*
X0361723Y0215829D01*
X0362409Y0212587D01*
X0363015Y0209330D01*
X0363542Y0206059D01*
X0363988Y0202775D01*
X0364353Y0199482D01*
X0364637Y0196181D01*
X0364840Y0192874D01*
X0364962Y0189563D01*
X0365003Y0186250D01*
X0364962Y0182937D01*
X0364840Y0179626D01*
X0364637Y0176319D01*
X0364353Y0173018D01*
X0363988Y0169725D01*
X0363542Y0166441D01*
X0363015Y0163170D01*
X0362409Y0159913D01*
X0361723Y0156671D01*
X0360957Y0153448D01*
X0360113Y0150244D01*
X0359190Y0147062D01*
X0358189Y0143903D01*
X0357111Y0140770D01*
X0355957Y0137664D01*
X0354727Y0134588D01*
X0353421Y0131542D01*
X0352042Y0128530D01*
X0350588Y0125552D01*
X0349062Y0122611D01*
X0347465Y0119709D01*
X0345796Y0116846D01*
X0344058Y0114025D01*
X0342251Y0111248D01*
X0340377Y0108516D01*
X0338436Y0105831D01*
X0336430Y0103194D01*
X0334359Y0100607D01*
X0332226Y0098072D01*
X0330031Y0095590D01*
X0327776Y0093162D01*
X0325462Y0090791D01*
X0323091Y0088477D01*
X0320663Y0086222D01*
X0318181Y0084027D01*
X0315646Y0081894D01*
X0313059Y0079823D01*
X0310422Y0077817D01*
X0307737Y0075876D01*
X0305005Y0074002D01*
X0302228Y0072195D01*
X0299407Y0070457D01*
X0296544Y0068788D01*
X0293642Y0067191D01*
X0290701Y0065665D01*
X0287723Y0064211D01*
X0284711Y0062832D01*
X0281665Y0061526D01*
X0278589Y0060296D01*
X0275483Y0059142D01*
X0272350Y0058064D01*
X0269191Y0057063D01*
X0266009Y0056140D01*
X0262805Y0055296D01*
X0259582Y0054530D01*
X0256340Y0053844D01*
X0253083Y0053238D01*
X0249812Y0052711D01*
X0246528Y0052265D01*
X0243235Y0051900D01*
X0239934Y0051616D01*
X0236627Y0051413D01*
X0233316Y0051291D01*
X0230003Y0051250D01*
X0226690Y0051291D01*
X0223379Y0051413D01*
X0220072Y0051616D01*
X0216771Y0051900D01*
X0213478Y0052265D01*
X0210194Y0052711D01*
X0206923Y0053238D01*
X0203666Y0053844D01*
X0200424Y0054530D01*
X0197201Y0055296D01*
X0193997Y0056140D01*
X0190815Y0057063D01*
X0187656Y0058064D01*
X0184523Y0059142D01*
X0181417Y0060296D01*
X0178341Y0061526D01*
X0175295Y0062832D01*
X0172283Y0064211D01*
X0169305Y0065665D01*
X0166364Y0067191D01*
X0163462Y0068788D01*
X0160599Y0070457D01*
X0157778Y0072195D01*
X0155001Y0074002D01*
X0152269Y0075876D01*
X0149584Y0077817D01*
X0146947Y0079823D01*
X0144360Y0081894D01*
X0141825Y0084027D01*
X0139343Y0086222D01*
X0136915Y0088477D01*
X0134544Y0090791D01*
X0132230Y0093162D01*
X0129975Y0095590D01*
X0127780Y0098072D01*
X0125647Y0100607D01*
X0123576Y0103194D01*
X0121570Y0105831D01*
X0119629Y0108516D01*
X0117755Y0111248D01*
X0115948Y0114025D01*
X0114210Y0116846D01*
X0112541Y0119709D01*
X0110944Y0122611D01*
X0109418Y0125552D01*
X0107964Y0128530D01*
X0106585Y0131542D01*
X0105279Y0134588D01*
X0104049Y0137664D01*
X0102895Y0140770D01*
X0101817Y0143903D01*
X0100816Y0147062D01*
X0099893Y0150244D01*
X0099049Y0153448D01*
X0098283Y0156671D01*
X0097597Y0159913D01*
X0096991Y0163170D01*
X0096464Y0166441D01*
X0096018Y0169725D01*
X0095653Y0173018D01*
X0095369Y0176319D01*
X0095166Y0179626D01*
X0095044Y0182937D01*
X0095003Y0186250D01*
X0152003Y0246250D02*
X0152003Y0246750D01*
D11*
X0152003Y0246250D02*
X0152003Y0229750D01*
X0138003Y0229750D02*
X0138003Y0246250D01*
X0138005Y0246420D01*
X0138011Y0246591D01*
X0138022Y0246761D01*
X0138036Y0246931D01*
X0138055Y0247100D01*
X0138078Y0247269D01*
X0138104Y0247438D01*
X0138135Y0247605D01*
X0138170Y0247772D01*
X0138210Y0247938D01*
X0138253Y0248103D01*
X0138300Y0248267D01*
X0138351Y0248429D01*
X0138406Y0248591D01*
X0138465Y0248751D01*
X0138528Y0248909D01*
X0138594Y0249066D01*
X0138665Y0249221D01*
X0138739Y0249375D01*
X0138817Y0249526D01*
X0138899Y0249676D01*
X0138984Y0249824D01*
X0139073Y0249969D01*
X0139165Y0250112D01*
X0139261Y0250253D01*
X0139360Y0250392D01*
X0139463Y0250528D01*
X0139568Y0250662D01*
X0139677Y0250793D01*
X0139790Y0250921D01*
X0139905Y0251047D01*
X0140023Y0251170D01*
X0140144Y0251289D01*
X0140269Y0251406D01*
X0140396Y0251520D01*
X0140525Y0251631D01*
X0140658Y0251738D01*
X0140793Y0251842D01*
X0140930Y0251943D01*
X0141070Y0252041D01*
X0141212Y0252135D01*
X0141356Y0252225D01*
X0141503Y0252312D01*
X0141652Y0252396D01*
X0141802Y0252475D01*
X0141955Y0252551D01*
X0142109Y0252624D01*
X0142265Y0252692D01*
X0142423Y0252757D01*
X0142582Y0252818D01*
X0142743Y0252875D01*
X0142905Y0252928D01*
X0143068Y0252977D01*
X0143232Y0253022D01*
X0143398Y0253063D01*
X0143564Y0253101D01*
X0143732Y0253134D01*
X0143900Y0253162D01*
X0144068Y0253187D01*
X0144237Y0253208D01*
X0144407Y0253225D01*
X0144577Y0253237D01*
X0144747Y0253245D01*
X0144918Y0253249D01*
X0145088Y0253249D01*
X0145259Y0253245D01*
X0145429Y0253237D01*
X0145599Y0253225D01*
X0145769Y0253208D01*
X0145938Y0253187D01*
X0146106Y0253162D01*
X0146274Y0253134D01*
X0146442Y0253101D01*
X0146608Y0253063D01*
X0146774Y0253022D01*
X0146938Y0252977D01*
X0147101Y0252928D01*
X0147263Y0252875D01*
X0147424Y0252818D01*
X0147583Y0252757D01*
X0147741Y0252692D01*
X0147897Y0252624D01*
X0148051Y0252551D01*
X0148204Y0252475D01*
X0148354Y0252396D01*
X0148503Y0252312D01*
X0148650Y0252225D01*
X0148794Y0252135D01*
X0148936Y0252041D01*
X0149076Y0251943D01*
X0149213Y0251842D01*
X0149348Y0251738D01*
X0149481Y0251631D01*
X0149610Y0251520D01*
X0149737Y0251406D01*
X0149862Y0251289D01*
X0149983Y0251170D01*
X0150101Y0251047D01*
X0150216Y0250921D01*
X0150329Y0250793D01*
X0150438Y0250662D01*
X0150543Y0250528D01*
X0150646Y0250392D01*
X0150745Y0250253D01*
X0150841Y0250112D01*
X0150933Y0249969D01*
X0151022Y0249824D01*
X0151107Y0249676D01*
X0151189Y0249526D01*
X0151267Y0249375D01*
X0151341Y0249221D01*
X0151412Y0249066D01*
X0151478Y0248909D01*
X0151541Y0248751D01*
X0151600Y0248591D01*
X0151655Y0248429D01*
X0151706Y0248267D01*
X0151753Y0248103D01*
X0151796Y0247938D01*
X0151836Y0247772D01*
X0151871Y0247605D01*
X0151902Y0247438D01*
X0151928Y0247269D01*
X0151951Y0247100D01*
X0151970Y0246931D01*
X0151984Y0246761D01*
X0151995Y0246591D01*
X0152001Y0246420D01*
X0152003Y0246250D01*
X0152003Y0229750D02*
X0152325Y0229574D01*
X0152643Y0229391D01*
X0152956Y0229200D01*
X0153264Y0229002D01*
X0153568Y0228796D01*
X0153866Y0228583D01*
X0154159Y0228362D01*
X0154447Y0228135D01*
X0154729Y0227900D01*
X0155005Y0227659D01*
X0155275Y0227410D01*
X0155539Y0227156D01*
X0155796Y0226895D01*
X0156048Y0226628D01*
X0156292Y0226354D01*
X0156530Y0226075D01*
X0156761Y0225790D01*
X0156985Y0225500D01*
X0157201Y0225204D01*
X0157411Y0224902D01*
X0157613Y0224596D01*
X0157807Y0224285D01*
X0157994Y0223970D01*
X0158173Y0223649D01*
X0158344Y0223325D01*
X0158507Y0222996D01*
X0158661Y0222664D01*
X0158808Y0222328D01*
X0158947Y0221988D01*
X0159077Y0221645D01*
X0159199Y0221300D01*
X0159312Y0220951D01*
X0159416Y0220599D01*
X0159512Y0220245D01*
X0159600Y0219889D01*
X0159678Y0219531D01*
X0159748Y0219171D01*
X0159809Y0218809D01*
X0159861Y0218446D01*
X0159904Y0218082D01*
X0159939Y0217717D01*
X0159964Y0217351D01*
X0159980Y0216984D01*
X0159988Y0216618D01*
X0159986Y0216251D01*
X0159975Y0215884D01*
X0159956Y0215518D01*
X0159927Y0215152D01*
X0159890Y0214788D01*
X0159843Y0214424D01*
X0159788Y0214061D01*
X0159724Y0213700D01*
X0159651Y0213341D01*
X0159569Y0212983D01*
X0159479Y0212628D01*
X0159380Y0212275D01*
X0159272Y0211924D01*
X0159156Y0211576D01*
X0159031Y0211231D01*
X0158898Y0210890D01*
X0158757Y0210551D01*
X0158607Y0210216D01*
X0158449Y0209885D01*
X0158283Y0209558D01*
X0158109Y0209235D01*
X0157928Y0208917D01*
X0157738Y0208603D01*
X0157541Y0208294D01*
X0157336Y0207989D01*
X0157125Y0207690D01*
X0156905Y0207396D01*
X0156679Y0207107D01*
X0156446Y0206824D01*
X0156205Y0206547D01*
X0155958Y0206276D01*
X0155705Y0206011D01*
X0155445Y0205752D01*
X0155179Y0205500D01*
X0154907Y0205254D01*
X0154628Y0205015D01*
X0154344Y0204783D01*
X0154055Y0204558D01*
X0153760Y0204340D01*
X0153460Y0204129D01*
X0153154Y0203926D01*
X0152844Y0203730D01*
X0152529Y0203542D01*
X0152210Y0203362D01*
X0151886Y0203190D01*
X0151559Y0203025D01*
X0151227Y0202869D01*
X0150891Y0202720D01*
X0150552Y0202580D01*
X0150210Y0202449D01*
X0149865Y0202326D01*
X0149516Y0202211D01*
X0149165Y0202105D01*
X0148812Y0202007D01*
X0148456Y0201918D01*
X0148098Y0201838D01*
X0147738Y0201767D01*
X0147377Y0201704D01*
X0147014Y0201651D01*
X0146650Y0201606D01*
X0146285Y0201570D01*
X0145919Y0201543D01*
X0145553Y0201525D01*
X0145186Y0201516D01*
X0144820Y0201516D01*
X0144453Y0201525D01*
X0144087Y0201543D01*
X0143721Y0201570D01*
X0143356Y0201606D01*
X0142992Y0201651D01*
X0142629Y0201704D01*
X0142268Y0201767D01*
X0141908Y0201838D01*
X0141550Y0201918D01*
X0141194Y0202007D01*
X0140841Y0202105D01*
X0140490Y0202211D01*
X0140141Y0202326D01*
X0139796Y0202449D01*
X0139454Y0202580D01*
X0139115Y0202720D01*
X0138779Y0202869D01*
X0138447Y0203025D01*
X0138120Y0203190D01*
X0137796Y0203362D01*
X0137477Y0203542D01*
X0137162Y0203730D01*
X0136852Y0203926D01*
X0136546Y0204129D01*
X0136246Y0204340D01*
X0135951Y0204558D01*
X0135662Y0204783D01*
X0135378Y0205015D01*
X0135099Y0205254D01*
X0134827Y0205500D01*
X0134561Y0205752D01*
X0134301Y0206011D01*
X0134048Y0206276D01*
X0133801Y0206547D01*
X0133560Y0206824D01*
X0133327Y0207107D01*
X0133101Y0207396D01*
X0132881Y0207690D01*
X0132670Y0207989D01*
X0132465Y0208294D01*
X0132268Y0208603D01*
X0132078Y0208917D01*
X0131897Y0209235D01*
X0131723Y0209558D01*
X0131557Y0209885D01*
X0131399Y0210216D01*
X0131249Y0210551D01*
X0131108Y0210890D01*
X0130975Y0211231D01*
X0130850Y0211576D01*
X0130734Y0211924D01*
X0130626Y0212275D01*
X0130527Y0212628D01*
X0130437Y0212983D01*
X0130355Y0213341D01*
X0130282Y0213700D01*
X0130218Y0214061D01*
X0130163Y0214424D01*
X0130116Y0214788D01*
X0130079Y0215152D01*
X0130050Y0215518D01*
X0130031Y0215884D01*
X0130020Y0216251D01*
X0130018Y0216618D01*
X0130026Y0216984D01*
X0130042Y0217351D01*
X0130067Y0217717D01*
X0130102Y0218082D01*
X0130145Y0218446D01*
X0130197Y0218809D01*
X0130258Y0219171D01*
X0130328Y0219531D01*
X0130406Y0219889D01*
X0130494Y0220245D01*
X0130590Y0220599D01*
X0130694Y0220951D01*
X0130807Y0221300D01*
X0130929Y0221645D01*
X0131059Y0221988D01*
X0131198Y0222328D01*
X0131345Y0222664D01*
X0131499Y0222996D01*
X0131662Y0223325D01*
X0131833Y0223649D01*
X0132012Y0223970D01*
X0132199Y0224285D01*
X0132393Y0224596D01*
X0132595Y0224902D01*
X0132805Y0225204D01*
X0133021Y0225500D01*
X0133245Y0225790D01*
X0133476Y0226075D01*
X0133714Y0226354D01*
X0133958Y0226628D01*
X0134210Y0226895D01*
X0134467Y0227156D01*
X0134731Y0227410D01*
X0135001Y0227659D01*
X0135277Y0227900D01*
X0135559Y0228135D01*
X0135847Y0228362D01*
X0136140Y0228583D01*
X0136438Y0228796D01*
X0136742Y0229002D01*
X0137050Y0229200D01*
X0137363Y0229391D01*
X0137681Y0229574D01*
X0138003Y0229750D01*
X0308003Y0229750D02*
X0308003Y0246250D01*
X0308005Y0246420D01*
X0308011Y0246591D01*
X0308022Y0246761D01*
X0308036Y0246931D01*
X0308055Y0247100D01*
X0308078Y0247269D01*
X0308104Y0247438D01*
X0308135Y0247605D01*
X0308170Y0247772D01*
X0308210Y0247938D01*
X0308253Y0248103D01*
X0308300Y0248267D01*
X0308351Y0248429D01*
X0308406Y0248591D01*
X0308465Y0248751D01*
X0308528Y0248909D01*
X0308594Y0249066D01*
X0308665Y0249221D01*
X0308739Y0249375D01*
X0308817Y0249526D01*
X0308899Y0249676D01*
X0308984Y0249824D01*
X0309073Y0249969D01*
X0309165Y0250112D01*
X0309261Y0250253D01*
X0309360Y0250392D01*
X0309463Y0250528D01*
X0309568Y0250662D01*
X0309677Y0250793D01*
X0309790Y0250921D01*
X0309905Y0251047D01*
X0310023Y0251170D01*
X0310144Y0251289D01*
X0310269Y0251406D01*
X0310396Y0251520D01*
X0310525Y0251631D01*
X0310658Y0251738D01*
X0310793Y0251842D01*
X0310930Y0251943D01*
X0311070Y0252041D01*
X0311212Y0252135D01*
X0311356Y0252225D01*
X0311503Y0252312D01*
X0311652Y0252396D01*
X0311802Y0252475D01*
X0311955Y0252551D01*
X0312109Y0252624D01*
X0312265Y0252692D01*
X0312423Y0252757D01*
X0312582Y0252818D01*
X0312743Y0252875D01*
X0312905Y0252928D01*
X0313068Y0252977D01*
X0313232Y0253022D01*
X0313398Y0253063D01*
X0313564Y0253101D01*
X0313732Y0253134D01*
X0313900Y0253162D01*
X0314068Y0253187D01*
X0314237Y0253208D01*
X0314407Y0253225D01*
X0314577Y0253237D01*
X0314747Y0253245D01*
X0314918Y0253249D01*
X0315088Y0253249D01*
X0315259Y0253245D01*
X0315429Y0253237D01*
X0315599Y0253225D01*
X0315769Y0253208D01*
X0315938Y0253187D01*
X0316106Y0253162D01*
X0316274Y0253134D01*
X0316442Y0253101D01*
X0316608Y0253063D01*
X0316774Y0253022D01*
X0316938Y0252977D01*
X0317101Y0252928D01*
X0317263Y0252875D01*
X0317424Y0252818D01*
X0317583Y0252757D01*
X0317741Y0252692D01*
X0317897Y0252624D01*
X0318051Y0252551D01*
X0318204Y0252475D01*
X0318354Y0252396D01*
X0318503Y0252312D01*
X0318650Y0252225D01*
X0318794Y0252135D01*
X0318936Y0252041D01*
X0319076Y0251943D01*
X0319213Y0251842D01*
X0319348Y0251738D01*
X0319481Y0251631D01*
X0319610Y0251520D01*
X0319737Y0251406D01*
X0319862Y0251289D01*
X0319983Y0251170D01*
X0320101Y0251047D01*
X0320216Y0250921D01*
X0320329Y0250793D01*
X0320438Y0250662D01*
X0320543Y0250528D01*
X0320646Y0250392D01*
X0320745Y0250253D01*
X0320841Y0250112D01*
X0320933Y0249969D01*
X0321022Y0249824D01*
X0321107Y0249676D01*
X0321189Y0249526D01*
X0321267Y0249375D01*
X0321341Y0249221D01*
X0321412Y0249066D01*
X0321478Y0248909D01*
X0321541Y0248751D01*
X0321600Y0248591D01*
X0321655Y0248429D01*
X0321706Y0248267D01*
X0321753Y0248103D01*
X0321796Y0247938D01*
X0321836Y0247772D01*
X0321871Y0247605D01*
X0321902Y0247438D01*
X0321928Y0247269D01*
X0321951Y0247100D01*
X0321970Y0246931D01*
X0321984Y0246761D01*
X0321995Y0246591D01*
X0322001Y0246420D01*
X0322003Y0246250D01*
X0322003Y0229750D01*
X0322325Y0229574D01*
X0322643Y0229391D01*
X0322956Y0229200D01*
X0323264Y0229002D01*
X0323568Y0228796D01*
X0323866Y0228583D01*
X0324159Y0228362D01*
X0324447Y0228135D01*
X0324729Y0227900D01*
X0325005Y0227659D01*
X0325275Y0227410D01*
X0325539Y0227156D01*
X0325796Y0226895D01*
X0326048Y0226628D01*
X0326292Y0226354D01*
X0326530Y0226075D01*
X0326761Y0225790D01*
X0326985Y0225500D01*
X0327201Y0225204D01*
X0327411Y0224902D01*
X0327613Y0224596D01*
X0327807Y0224285D01*
X0327994Y0223970D01*
X0328173Y0223649D01*
X0328344Y0223325D01*
X0328507Y0222996D01*
X0328661Y0222664D01*
X0328808Y0222328D01*
X0328947Y0221988D01*
X0329077Y0221645D01*
X0329199Y0221300D01*
X0329312Y0220951D01*
X0329416Y0220599D01*
X0329512Y0220245D01*
X0329600Y0219889D01*
X0329678Y0219531D01*
X0329748Y0219171D01*
X0329809Y0218809D01*
X0329861Y0218446D01*
X0329904Y0218082D01*
X0329939Y0217717D01*
X0329964Y0217351D01*
X0329980Y0216984D01*
X0329988Y0216618D01*
X0329986Y0216251D01*
X0329975Y0215884D01*
X0329956Y0215518D01*
X0329927Y0215152D01*
X0329890Y0214788D01*
X0329843Y0214424D01*
X0329788Y0214061D01*
X0329724Y0213700D01*
X0329651Y0213341D01*
X0329569Y0212983D01*
X0329479Y0212628D01*
X0329380Y0212275D01*
X0329272Y0211924D01*
X0329156Y0211576D01*
X0329031Y0211231D01*
X0328898Y0210890D01*
X0328757Y0210551D01*
X0328607Y0210216D01*
X0328449Y0209885D01*
X0328283Y0209558D01*
X0328109Y0209235D01*
X0327928Y0208917D01*
X0327738Y0208603D01*
X0327541Y0208294D01*
X0327336Y0207989D01*
X0327125Y0207690D01*
X0326905Y0207396D01*
X0326679Y0207107D01*
X0326446Y0206824D01*
X0326205Y0206547D01*
X0325958Y0206276D01*
X0325705Y0206011D01*
X0325445Y0205752D01*
X0325179Y0205500D01*
X0324907Y0205254D01*
X0324628Y0205015D01*
X0324344Y0204783D01*
X0324055Y0204558D01*
X0323760Y0204340D01*
X0323460Y0204129D01*
X0323154Y0203926D01*
X0322844Y0203730D01*
X0322529Y0203542D01*
X0322210Y0203362D01*
X0321886Y0203190D01*
X0321559Y0203025D01*
X0321227Y0202869D01*
X0320891Y0202720D01*
X0320552Y0202580D01*
X0320210Y0202449D01*
X0319865Y0202326D01*
X0319516Y0202211D01*
X0319165Y0202105D01*
X0318812Y0202007D01*
X0318456Y0201918D01*
X0318098Y0201838D01*
X0317738Y0201767D01*
X0317377Y0201704D01*
X0317014Y0201651D01*
X0316650Y0201606D01*
X0316285Y0201570D01*
X0315919Y0201543D01*
X0315553Y0201525D01*
X0315186Y0201516D01*
X0314820Y0201516D01*
X0314453Y0201525D01*
X0314087Y0201543D01*
X0313721Y0201570D01*
X0313356Y0201606D01*
X0312992Y0201651D01*
X0312629Y0201704D01*
X0312268Y0201767D01*
X0311908Y0201838D01*
X0311550Y0201918D01*
X0311194Y0202007D01*
X0310841Y0202105D01*
X0310490Y0202211D01*
X0310141Y0202326D01*
X0309796Y0202449D01*
X0309454Y0202580D01*
X0309115Y0202720D01*
X0308779Y0202869D01*
X0308447Y0203025D01*
X0308120Y0203190D01*
X0307796Y0203362D01*
X0307477Y0203542D01*
X0307162Y0203730D01*
X0306852Y0203926D01*
X0306546Y0204129D01*
X0306246Y0204340D01*
X0305951Y0204558D01*
X0305662Y0204783D01*
X0305378Y0205015D01*
X0305099Y0205254D01*
X0304827Y0205500D01*
X0304561Y0205752D01*
X0304301Y0206011D01*
X0304048Y0206276D01*
X0303801Y0206547D01*
X0303560Y0206824D01*
X0303327Y0207107D01*
X0303101Y0207396D01*
X0302881Y0207690D01*
X0302670Y0207989D01*
X0302465Y0208294D01*
X0302268Y0208603D01*
X0302078Y0208917D01*
X0301897Y0209235D01*
X0301723Y0209558D01*
X0301557Y0209885D01*
X0301399Y0210216D01*
X0301249Y0210551D01*
X0301108Y0210890D01*
X0300975Y0211231D01*
X0300850Y0211576D01*
X0300734Y0211924D01*
X0300626Y0212275D01*
X0300527Y0212628D01*
X0300437Y0212983D01*
X0300355Y0213341D01*
X0300282Y0213700D01*
X0300218Y0214061D01*
X0300163Y0214424D01*
X0300116Y0214788D01*
X0300079Y0215152D01*
X0300050Y0215518D01*
X0300031Y0215884D01*
X0300020Y0216251D01*
X0300018Y0216618D01*
X0300026Y0216984D01*
X0300042Y0217351D01*
X0300067Y0217717D01*
X0300102Y0218082D01*
X0300145Y0218446D01*
X0300197Y0218809D01*
X0300258Y0219171D01*
X0300328Y0219531D01*
X0300406Y0219889D01*
X0300494Y0220245D01*
X0300590Y0220599D01*
X0300694Y0220951D01*
X0300807Y0221300D01*
X0300929Y0221645D01*
X0301059Y0221988D01*
X0301198Y0222328D01*
X0301345Y0222664D01*
X0301499Y0222996D01*
X0301662Y0223325D01*
X0301833Y0223649D01*
X0302012Y0223970D01*
X0302199Y0224285D01*
X0302393Y0224596D01*
X0302595Y0224902D01*
X0302805Y0225204D01*
X0303021Y0225500D01*
X0303245Y0225790D01*
X0303476Y0226075D01*
X0303714Y0226354D01*
X0303958Y0226628D01*
X0304210Y0226895D01*
X0304467Y0227156D01*
X0304731Y0227410D01*
X0305001Y0227659D01*
X0305277Y0227900D01*
X0305559Y0228135D01*
X0305847Y0228362D01*
X0306140Y0228583D01*
X0306438Y0228796D01*
X0306742Y0229002D01*
X0307050Y0229200D01*
X0307363Y0229391D01*
X0307681Y0229574D01*
X0308003Y0229750D01*
X0322003Y0246250D02*
X0322003Y0246750D01*
D12*
X0316953Y0246941D02*
X0315969Y0245957D01*
X0312032Y0245957D01*
X0313016Y0244973D02*
X0313016Y0246941D01*
X0313016Y0242464D02*
X0316953Y0242464D01*
X0316953Y0239512D01*
X0315969Y0238527D01*
X0313016Y0238527D01*
X0314000Y0236019D02*
X0313016Y0235035D01*
X0313016Y0233066D01*
X0314000Y0232082D01*
X0315969Y0232082D01*
X0316953Y0233066D01*
X0316953Y0235035D01*
X0315969Y0236019D01*
X0314000Y0236019D01*
X0316953Y0223308D02*
X0316953Y0221339D01*
X0316953Y0222324D02*
X0311048Y0222324D01*
X0311048Y0221339D01*
X0311048Y0218027D02*
X0316953Y0218027D01*
X0316953Y0219011D02*
X0316953Y0217042D01*
X0316953Y0214714D02*
X0316953Y0212745D01*
X0316953Y0213730D02*
X0313016Y0213730D01*
X0313016Y0212745D01*
X0311048Y0213730D02*
X0310063Y0213730D01*
X0311048Y0217042D02*
X0311048Y0218027D01*
X0314000Y0210237D02*
X0316953Y0210237D01*
X0316953Y0208268D02*
X0314000Y0208268D01*
X0313016Y0209253D01*
X0314000Y0210237D01*
X0314000Y0208268D02*
X0313016Y0207284D01*
X0313016Y0206300D01*
X0316953Y0206300D01*
X0146953Y0206300D02*
X0143016Y0206300D01*
X0143016Y0207284D01*
X0144000Y0208268D01*
X0143016Y0209253D01*
X0144000Y0210237D01*
X0146953Y0210237D01*
X0146953Y0208268D02*
X0144000Y0208268D01*
X0143016Y0212745D02*
X0143016Y0213730D01*
X0146953Y0213730D01*
X0146953Y0214714D02*
X0146953Y0212745D01*
X0146953Y0217042D02*
X0146953Y0219011D01*
X0146953Y0218027D02*
X0141048Y0218027D01*
X0141048Y0217042D01*
X0141048Y0213730D02*
X0140063Y0213730D01*
X0141048Y0221339D02*
X0141048Y0222324D01*
X0146953Y0222324D01*
X0146953Y0223308D02*
X0146953Y0221339D01*
X0145969Y0232082D02*
X0144000Y0232082D01*
X0143016Y0233066D01*
X0143016Y0235035D01*
X0144000Y0236019D01*
X0145969Y0236019D01*
X0146953Y0235035D01*
X0146953Y0233066D01*
X0145969Y0232082D01*
X0145969Y0238527D02*
X0143016Y0238527D01*
X0145969Y0238527D02*
X0146953Y0239512D01*
X0146953Y0242464D01*
X0143016Y0242464D01*
X0143016Y0244973D02*
X0143016Y0246941D01*
X0142032Y0245957D02*
X0145969Y0245957D01*
X0146953Y0246941D01*
D13*
X0136503Y0186250D02*
X0136505Y0186404D01*
X0136511Y0186559D01*
X0136521Y0186713D01*
X0136535Y0186867D01*
X0136553Y0187020D01*
X0136574Y0187173D01*
X0136600Y0187326D01*
X0136630Y0187477D01*
X0136663Y0187628D01*
X0136701Y0187778D01*
X0136742Y0187927D01*
X0136787Y0188075D01*
X0136836Y0188221D01*
X0136889Y0188367D01*
X0136945Y0188510D01*
X0137005Y0188653D01*
X0137069Y0188793D01*
X0137136Y0188933D01*
X0137207Y0189070D01*
X0137281Y0189205D01*
X0137359Y0189339D01*
X0137440Y0189470D01*
X0137525Y0189599D01*
X0137613Y0189727D01*
X0137704Y0189851D01*
X0137798Y0189974D01*
X0137896Y0190094D01*
X0137996Y0190211D01*
X0138100Y0190326D01*
X0138206Y0190438D01*
X0138315Y0190547D01*
X0138427Y0190653D01*
X0138542Y0190757D01*
X0138659Y0190857D01*
X0138779Y0190955D01*
X0138902Y0191049D01*
X0139026Y0191140D01*
X0139154Y0191228D01*
X0139283Y0191313D01*
X0139414Y0191394D01*
X0139548Y0191472D01*
X0139683Y0191546D01*
X0139820Y0191617D01*
X0139960Y0191684D01*
X0140100Y0191748D01*
X0140243Y0191808D01*
X0140386Y0191864D01*
X0140532Y0191917D01*
X0140678Y0191966D01*
X0140826Y0192011D01*
X0140975Y0192052D01*
X0141125Y0192090D01*
X0141276Y0192123D01*
X0141427Y0192153D01*
X0141580Y0192179D01*
X0141733Y0192200D01*
X0141886Y0192218D01*
X0142040Y0192232D01*
X0142194Y0192242D01*
X0142349Y0192248D01*
X0142503Y0192250D01*
X0142657Y0192248D01*
X0142812Y0192242D01*
X0142966Y0192232D01*
X0143120Y0192218D01*
X0143273Y0192200D01*
X0143426Y0192179D01*
X0143579Y0192153D01*
X0143730Y0192123D01*
X0143881Y0192090D01*
X0144031Y0192052D01*
X0144180Y0192011D01*
X0144328Y0191966D01*
X0144474Y0191917D01*
X0144620Y0191864D01*
X0144763Y0191808D01*
X0144906Y0191748D01*
X0145046Y0191684D01*
X0145186Y0191617D01*
X0145323Y0191546D01*
X0145458Y0191472D01*
X0145592Y0191394D01*
X0145723Y0191313D01*
X0145852Y0191228D01*
X0145980Y0191140D01*
X0146104Y0191049D01*
X0146227Y0190955D01*
X0146347Y0190857D01*
X0146464Y0190757D01*
X0146579Y0190653D01*
X0146691Y0190547D01*
X0146800Y0190438D01*
X0146906Y0190326D01*
X0147010Y0190211D01*
X0147110Y0190094D01*
X0147208Y0189974D01*
X0147302Y0189851D01*
X0147393Y0189727D01*
X0147481Y0189599D01*
X0147566Y0189470D01*
X0147647Y0189339D01*
X0147725Y0189205D01*
X0147799Y0189070D01*
X0147870Y0188933D01*
X0147937Y0188793D01*
X0148001Y0188653D01*
X0148061Y0188510D01*
X0148117Y0188367D01*
X0148170Y0188221D01*
X0148219Y0188075D01*
X0148264Y0187927D01*
X0148305Y0187778D01*
X0148343Y0187628D01*
X0148376Y0187477D01*
X0148406Y0187326D01*
X0148432Y0187173D01*
X0148453Y0187020D01*
X0148471Y0186867D01*
X0148485Y0186713D01*
X0148495Y0186559D01*
X0148501Y0186404D01*
X0148503Y0186250D01*
X0148501Y0186096D01*
X0148495Y0185941D01*
X0148485Y0185787D01*
X0148471Y0185633D01*
X0148453Y0185480D01*
X0148432Y0185327D01*
X0148406Y0185174D01*
X0148376Y0185023D01*
X0148343Y0184872D01*
X0148305Y0184722D01*
X0148264Y0184573D01*
X0148219Y0184425D01*
X0148170Y0184279D01*
X0148117Y0184133D01*
X0148061Y0183990D01*
X0148001Y0183847D01*
X0147937Y0183707D01*
X0147870Y0183567D01*
X0147799Y0183430D01*
X0147725Y0183295D01*
X0147647Y0183161D01*
X0147566Y0183030D01*
X0147481Y0182901D01*
X0147393Y0182773D01*
X0147302Y0182649D01*
X0147208Y0182526D01*
X0147110Y0182406D01*
X0147010Y0182289D01*
X0146906Y0182174D01*
X0146800Y0182062D01*
X0146691Y0181953D01*
X0146579Y0181847D01*
X0146464Y0181743D01*
X0146347Y0181643D01*
X0146227Y0181545D01*
X0146104Y0181451D01*
X0145980Y0181360D01*
X0145852Y0181272D01*
X0145723Y0181187D01*
X0145592Y0181106D01*
X0145458Y0181028D01*
X0145323Y0180954D01*
X0145186Y0180883D01*
X0145046Y0180816D01*
X0144906Y0180752D01*
X0144763Y0180692D01*
X0144620Y0180636D01*
X0144474Y0180583D01*
X0144328Y0180534D01*
X0144180Y0180489D01*
X0144031Y0180448D01*
X0143881Y0180410D01*
X0143730Y0180377D01*
X0143579Y0180347D01*
X0143426Y0180321D01*
X0143273Y0180300D01*
X0143120Y0180282D01*
X0142966Y0180268D01*
X0142812Y0180258D01*
X0142657Y0180252D01*
X0142503Y0180250D01*
X0142349Y0180252D01*
X0142194Y0180258D01*
X0142040Y0180268D01*
X0141886Y0180282D01*
X0141733Y0180300D01*
X0141580Y0180321D01*
X0141427Y0180347D01*
X0141276Y0180377D01*
X0141125Y0180410D01*
X0140975Y0180448D01*
X0140826Y0180489D01*
X0140678Y0180534D01*
X0140532Y0180583D01*
X0140386Y0180636D01*
X0140243Y0180692D01*
X0140100Y0180752D01*
X0139960Y0180816D01*
X0139820Y0180883D01*
X0139683Y0180954D01*
X0139548Y0181028D01*
X0139414Y0181106D01*
X0139283Y0181187D01*
X0139154Y0181272D01*
X0139026Y0181360D01*
X0138902Y0181451D01*
X0138779Y0181545D01*
X0138659Y0181643D01*
X0138542Y0181743D01*
X0138427Y0181847D01*
X0138315Y0181953D01*
X0138206Y0182062D01*
X0138100Y0182174D01*
X0137996Y0182289D01*
X0137896Y0182406D01*
X0137798Y0182526D01*
X0137704Y0182649D01*
X0137613Y0182773D01*
X0137525Y0182901D01*
X0137440Y0183030D01*
X0137359Y0183161D01*
X0137281Y0183295D01*
X0137207Y0183430D01*
X0137136Y0183567D01*
X0137069Y0183707D01*
X0137005Y0183847D01*
X0136945Y0183990D01*
X0136889Y0184133D01*
X0136836Y0184279D01*
X0136787Y0184425D01*
X0136742Y0184573D01*
X0136701Y0184722D01*
X0136663Y0184872D01*
X0136630Y0185023D01*
X0136600Y0185174D01*
X0136574Y0185327D01*
X0136553Y0185480D01*
X0136535Y0185633D01*
X0136521Y0185787D01*
X0136511Y0185941D01*
X0136505Y0186096D01*
X0136503Y0186250D01*
M02*
