G75*
%MOIN*%
%OFA0B0*%
%FSLAX25Y25*%
%IPPOS*%
%LPD*%
%AMOC8*
5,1,8,0,0,1.08239X$1,22.5*
%
%ADD10C,0.01000*%
D10*
X0115539Y0115539D02*
X0109646Y0121971D01*
X0104335Y0128892D01*
X0099647Y0136250D01*
X0095619Y0143988D01*
X0092281Y0152048D01*
X0089657Y0160368D01*
X0087769Y0168885D01*
X0086631Y0177534D01*
X0086250Y0186250D01*
X0286250Y0186250D01*
X0285869Y0177534D01*
X0284731Y0168885D01*
X0282843Y0160368D01*
X0280219Y0152048D01*
X0276881Y0143988D01*
X0272853Y0136250D01*
X0268165Y0128892D01*
X0262854Y0121971D01*
X0256961Y0115539D01*
X0250529Y0109646D01*
X0243608Y0104335D01*
X0236250Y0099647D01*
X0228512Y0095619D01*
X0220452Y0092281D01*
X0212132Y0089657D01*
X0203615Y0087769D01*
X0194966Y0086631D01*
X0186250Y0086250D01*
X0177534Y0086631D01*
X0168885Y0087769D01*
X0160368Y0089657D01*
X0152048Y0092281D01*
X0143988Y0095619D01*
X0136250Y0099647D01*
X0128892Y0104335D01*
X0121971Y0109646D01*
X0115539Y0115539D01*
X0115740Y0115356D02*
X0256760Y0115356D01*
X0257707Y0116354D02*
X0114793Y0116354D01*
X0113878Y0117353D02*
X0258622Y0117353D01*
X0259537Y0118351D02*
X0112963Y0118351D01*
X0112048Y0119350D02*
X0260452Y0119350D01*
X0261367Y0120348D02*
X0111133Y0120348D01*
X0110218Y0121347D02*
X0262282Y0121347D01*
X0263141Y0122345D02*
X0109359Y0122345D01*
X0108592Y0123344D02*
X0263908Y0123344D01*
X0264674Y0124342D02*
X0107826Y0124342D01*
X0107060Y0125341D02*
X0265440Y0125341D01*
X0266206Y0126339D02*
X0106294Y0126339D01*
X0105528Y0127338D02*
X0266972Y0127338D01*
X0267739Y0128336D02*
X0104761Y0128336D01*
X0104053Y0129335D02*
X0268447Y0129335D01*
X0269083Y0130333D02*
X0103417Y0130333D01*
X0102781Y0131332D02*
X0269719Y0131332D01*
X0270355Y0132330D02*
X0102145Y0132330D01*
X0101508Y0133329D02*
X0270992Y0133329D01*
X0271628Y0134327D02*
X0100872Y0134327D01*
X0100236Y0135326D02*
X0272264Y0135326D01*
X0272891Y0136324D02*
X0099609Y0136324D01*
X0099089Y0137323D02*
X0273411Y0137323D01*
X0273931Y0138321D02*
X0098569Y0138321D01*
X0098049Y0139320D02*
X0274451Y0139320D01*
X0274970Y0140318D02*
X0097530Y0140318D01*
X0097010Y0141317D02*
X0275490Y0141317D01*
X0276010Y0142316D02*
X0096490Y0142316D01*
X0095970Y0143314D02*
X0276530Y0143314D01*
X0277015Y0144313D02*
X0095485Y0144313D01*
X0095071Y0145311D02*
X0277429Y0145311D01*
X0277842Y0146310D02*
X0094658Y0146310D01*
X0094244Y0147308D02*
X0278256Y0147308D01*
X0278670Y0148307D02*
X0093830Y0148307D01*
X0093417Y0149305D02*
X0279083Y0149305D01*
X0279497Y0150304D02*
X0093003Y0150304D01*
X0092590Y0151302D02*
X0279910Y0151302D01*
X0280299Y0152301D02*
X0092201Y0152301D01*
X0091886Y0153299D02*
X0280614Y0153299D01*
X0280929Y0154298D02*
X0091571Y0154298D01*
X0091257Y0155296D02*
X0281243Y0155296D01*
X0281558Y0156295D02*
X0090942Y0156295D01*
X0090627Y0157293D02*
X0281873Y0157293D01*
X0282188Y0158292D02*
X0090312Y0158292D01*
X0089997Y0159290D02*
X0282503Y0159290D01*
X0282818Y0160289D02*
X0089682Y0160289D01*
X0089454Y0161287D02*
X0283046Y0161287D01*
X0283268Y0162286D02*
X0089232Y0162286D01*
X0089011Y0163284D02*
X0283489Y0163284D01*
X0283710Y0164283D02*
X0088790Y0164283D01*
X0088568Y0165281D02*
X0283932Y0165281D01*
X0284153Y0166280D02*
X0088347Y0166280D01*
X0088125Y0167278D02*
X0284375Y0167278D01*
X0284596Y0168277D02*
X0087904Y0168277D01*
X0087718Y0169275D02*
X0284782Y0169275D01*
X0284914Y0170274D02*
X0087586Y0170274D01*
X0087455Y0171272D02*
X0285045Y0171272D01*
X0285177Y0172271D02*
X0087323Y0172271D01*
X0087192Y0173269D02*
X0285308Y0173269D01*
X0285439Y0174268D02*
X0087061Y0174268D01*
X0086929Y0175266D02*
X0285571Y0175266D01*
X0285702Y0176265D02*
X0086798Y0176265D01*
X0086666Y0177263D02*
X0285834Y0177263D01*
X0285901Y0178262D02*
X0086599Y0178262D01*
X0086555Y0179260D02*
X0285945Y0179260D01*
X0285988Y0180259D02*
X0086512Y0180259D01*
X0086468Y0181257D02*
X0286032Y0181257D01*
X0286076Y0182256D02*
X0086424Y0182256D01*
X0086381Y0183254D02*
X0286119Y0183254D01*
X0286163Y0184253D02*
X0086337Y0184253D01*
X0086294Y0185251D02*
X0286206Y0185251D01*
X0286250Y0186250D02*
X0285869Y0194966D01*
X0284731Y0203615D01*
X0282843Y0212132D01*
X0280219Y0220452D01*
X0276881Y0228512D01*
X0272853Y0236250D01*
X0268165Y0243608D01*
X0262854Y0250529D01*
X0256961Y0256961D01*
X0250529Y0262854D01*
X0243608Y0268165D01*
X0236250Y0272853D01*
X0228512Y0276881D01*
X0220452Y0280219D01*
X0212132Y0282843D01*
X0203615Y0284731D01*
X0194966Y0285869D01*
X0186250Y0286250D01*
X0177534Y0285869D01*
X0168885Y0284731D01*
X0160368Y0282843D01*
X0152048Y0280219D01*
X0143988Y0276881D01*
X0136250Y0272853D01*
X0128892Y0268165D01*
X0121971Y0262854D01*
X0115539Y0256961D01*
X0109646Y0250529D01*
X0104335Y0243608D01*
X0099647Y0236250D01*
X0095619Y0228512D01*
X0092281Y0220452D01*
X0089657Y0212132D01*
X0087769Y0203615D01*
X0086631Y0194966D01*
X0086250Y0186250D01*
X0086294Y0187249D02*
X0286206Y0187249D01*
X0286163Y0188247D02*
X0086337Y0188247D01*
X0086381Y0189246D02*
X0286119Y0189246D01*
X0286076Y0190244D02*
X0086424Y0190244D01*
X0086468Y0191243D02*
X0286032Y0191243D01*
X0285988Y0192241D02*
X0086512Y0192241D01*
X0086555Y0193240D02*
X0285945Y0193240D01*
X0285901Y0194238D02*
X0086599Y0194238D01*
X0086666Y0195237D02*
X0285834Y0195237D01*
X0285702Y0196235D02*
X0086798Y0196235D01*
X0086929Y0197234D02*
X0285571Y0197234D01*
X0285439Y0198232D02*
X0087061Y0198232D01*
X0087192Y0199231D02*
X0285308Y0199231D01*
X0285177Y0200229D02*
X0087323Y0200229D01*
X0087455Y0201228D02*
X0285045Y0201228D01*
X0284914Y0202226D02*
X0087586Y0202226D01*
X0087718Y0203225D02*
X0284782Y0203225D01*
X0284596Y0204223D02*
X0087904Y0204223D01*
X0088125Y0205222D02*
X0284375Y0205222D01*
X0284153Y0206220D02*
X0088347Y0206220D01*
X0088568Y0207219D02*
X0283932Y0207219D01*
X0283710Y0208217D02*
X0088790Y0208217D01*
X0089011Y0209216D02*
X0283489Y0209216D01*
X0283268Y0210214D02*
X0089232Y0210214D01*
X0089454Y0211213D02*
X0283046Y0211213D01*
X0282818Y0212211D02*
X0089682Y0212211D01*
X0089997Y0213210D02*
X0282503Y0213210D01*
X0282188Y0214208D02*
X0090312Y0214208D01*
X0090627Y0215207D02*
X0281873Y0215207D01*
X0281558Y0216205D02*
X0090942Y0216205D01*
X0091257Y0217204D02*
X0281243Y0217204D01*
X0280929Y0218202D02*
X0091571Y0218202D01*
X0091886Y0219201D02*
X0280614Y0219201D01*
X0280299Y0220199D02*
X0092201Y0220199D01*
X0092590Y0221198D02*
X0279910Y0221198D01*
X0279497Y0222196D02*
X0093003Y0222196D01*
X0093417Y0223195D02*
X0279083Y0223195D01*
X0278670Y0224193D02*
X0093830Y0224193D01*
X0094244Y0225192D02*
X0278256Y0225192D01*
X0277842Y0226190D02*
X0094658Y0226190D01*
X0095071Y0227189D02*
X0277429Y0227189D01*
X0277015Y0228187D02*
X0095485Y0228187D01*
X0095970Y0229186D02*
X0276530Y0229186D01*
X0276010Y0230184D02*
X0096490Y0230184D01*
X0097010Y0231183D02*
X0275490Y0231183D01*
X0274970Y0232182D02*
X0097530Y0232182D01*
X0098049Y0233180D02*
X0274451Y0233180D01*
X0273931Y0234179D02*
X0098569Y0234179D01*
X0099089Y0235177D02*
X0273411Y0235177D01*
X0272891Y0236176D02*
X0099609Y0236176D01*
X0100236Y0237174D02*
X0272264Y0237174D01*
X0271628Y0238173D02*
X0100872Y0238173D01*
X0101508Y0239171D02*
X0270992Y0239171D01*
X0270355Y0240170D02*
X0102145Y0240170D01*
X0102781Y0241168D02*
X0269719Y0241168D01*
X0269083Y0242167D02*
X0103417Y0242167D01*
X0104053Y0243165D02*
X0268447Y0243165D01*
X0267739Y0244164D02*
X0104761Y0244164D01*
X0105528Y0245162D02*
X0266972Y0245162D01*
X0266206Y0246161D02*
X0106294Y0246161D01*
X0107060Y0247159D02*
X0265440Y0247159D01*
X0264674Y0248158D02*
X0107826Y0248158D01*
X0108592Y0249156D02*
X0263908Y0249156D01*
X0263141Y0250155D02*
X0109359Y0250155D01*
X0110218Y0251153D02*
X0262282Y0251153D01*
X0261367Y0252152D02*
X0111133Y0252152D01*
X0112048Y0253150D02*
X0260452Y0253150D01*
X0259537Y0254149D02*
X0112963Y0254149D01*
X0113878Y0255147D02*
X0258622Y0255147D01*
X0257707Y0256146D02*
X0114793Y0256146D01*
X0115740Y0257144D02*
X0256760Y0257144D01*
X0255671Y0258143D02*
X0116829Y0258143D01*
X0117919Y0259141D02*
X0254581Y0259141D01*
X0253491Y0260140D02*
X0119009Y0260140D01*
X0120098Y0261138D02*
X0252402Y0261138D01*
X0251312Y0262137D02*
X0121188Y0262137D01*
X0122337Y0263135D02*
X0250163Y0263135D01*
X0248861Y0264134D02*
X0123639Y0264134D01*
X0124940Y0265132D02*
X0247560Y0265132D01*
X0246259Y0266131D02*
X0126241Y0266131D01*
X0127542Y0267129D02*
X0244958Y0267129D01*
X0243656Y0268128D02*
X0128844Y0268128D01*
X0130401Y0269126D02*
X0242099Y0269126D01*
X0240531Y0270125D02*
X0131969Y0270125D01*
X0133536Y0271123D02*
X0238964Y0271123D01*
X0237397Y0272122D02*
X0135103Y0272122D01*
X0136765Y0273120D02*
X0235735Y0273120D01*
X0233817Y0274119D02*
X0138683Y0274119D01*
X0140601Y0275118D02*
X0231899Y0275118D01*
X0229981Y0276116D02*
X0142519Y0276116D01*
X0144552Y0277115D02*
X0227948Y0277115D01*
X0225537Y0278113D02*
X0146963Y0278113D01*
X0149374Y0279112D02*
X0223126Y0279112D01*
X0220716Y0280110D02*
X0151784Y0280110D01*
X0154869Y0281109D02*
X0217631Y0281109D01*
X0214465Y0282107D02*
X0158035Y0282107D01*
X0161554Y0283106D02*
X0210945Y0283106D01*
X0206441Y0284104D02*
X0166058Y0284104D01*
X0171710Y0285103D02*
X0200790Y0285103D01*
X0189660Y0286101D02*
X0182840Y0286101D01*
X0116829Y0114357D02*
X0255671Y0114357D01*
X0254581Y0113359D02*
X0117919Y0113359D01*
X0119009Y0112360D02*
X0253491Y0112360D01*
X0252402Y0111362D02*
X0120098Y0111362D01*
X0121188Y0110363D02*
X0251312Y0110363D01*
X0250163Y0109365D02*
X0122337Y0109365D01*
X0123639Y0108366D02*
X0248861Y0108366D01*
X0247560Y0107368D02*
X0124940Y0107368D01*
X0126241Y0106369D02*
X0246259Y0106369D01*
X0244958Y0105371D02*
X0127542Y0105371D01*
X0128844Y0104372D02*
X0243656Y0104372D01*
X0242099Y0103374D02*
X0130401Y0103374D01*
X0131969Y0102375D02*
X0240531Y0102375D01*
X0238964Y0101377D02*
X0133536Y0101377D01*
X0135103Y0100378D02*
X0237397Y0100378D01*
X0235735Y0099380D02*
X0136765Y0099380D01*
X0138683Y0098381D02*
X0233817Y0098381D01*
X0231899Y0097382D02*
X0140601Y0097382D01*
X0142519Y0096384D02*
X0229981Y0096384D01*
X0227948Y0095385D02*
X0144552Y0095385D01*
X0146963Y0094387D02*
X0225537Y0094387D01*
X0223126Y0093388D02*
X0149374Y0093388D01*
X0151784Y0092390D02*
X0220716Y0092390D01*
X0217631Y0091391D02*
X0154869Y0091391D01*
X0158035Y0090393D02*
X0214465Y0090393D01*
X0210946Y0089394D02*
X0161555Y0089394D01*
X0166059Y0088396D02*
X0206442Y0088396D01*
X0200790Y0087397D02*
X0171710Y0087397D01*
X0182840Y0086399D02*
X0189660Y0086399D01*
M02*
