G75*
%MOIN*%
%OFA0B0*%
%FSLAX25Y25*%
%IPPOS*%
%LPD*%
%AMOC8*
5,1,8,0,0,1.08239X$1,22.5*
%
%ADD10C,0.07400*%
%ADD11C,0.25000*%
%ADD12C,0.02000*%
%ADD13C,0.01000*%
%ADD14C,0.00600*%
D10*
X0210003Y0061250D03*
X0220003Y0061250D03*
X0230003Y0061250D03*
X0240003Y0061250D03*
X0250003Y0061250D03*
D11*
X0230003Y0098750D03*
X0317503Y0186250D03*
X0230003Y0273750D03*
D12*
X0230003Y0304750D02*
X0230003Y0311250D01*
X0236503Y0311250D01*
X0230003Y0311250D02*
X0223503Y0311250D01*
X0230003Y0311250D02*
X0230003Y0317750D01*
X0140369Y0134500D02*
X0129111Y0128000D01*
X0137990Y0125621D02*
X0131490Y0136879D01*
X0332627Y0127000D02*
X0343885Y0120500D01*
X0341506Y0129379D02*
X0335006Y0118121D01*
D13*
X0336256Y0120286D02*
X0335685Y0120686D01*
X0335192Y0121179D01*
X0334792Y0121750D01*
X0334497Y0122382D01*
X0334317Y0123055D01*
X0334256Y0123750D01*
X0334317Y0124445D01*
X0334497Y0125118D01*
X0334792Y0125750D01*
X0335248Y0126387D01*
X0335821Y0126923D01*
X0336487Y0127337D01*
X0337221Y0127614D01*
X0337994Y0127741D01*
X0338778Y0127716D01*
X0339542Y0127538D01*
X0340256Y0127214D01*
X0340827Y0126814D01*
X0341320Y0126321D01*
X0341720Y0125750D01*
X0342015Y0125118D01*
X0342195Y0124445D01*
X0342256Y0123750D01*
X0342195Y0123055D01*
X0342015Y0122382D01*
X0341720Y0121750D01*
X0341320Y0121179D01*
X0340827Y0120686D01*
X0340256Y0120286D01*
X0339624Y0119991D01*
X0338950Y0119811D01*
X0338256Y0119750D01*
X0337561Y0119811D01*
X0336888Y0119991D01*
X0336256Y0120286D01*
X0336167Y0120348D02*
X0340345Y0120348D01*
X0341438Y0121347D02*
X0335074Y0121347D01*
X0334514Y0122345D02*
X0341998Y0122345D01*
X0342220Y0123344D02*
X0334291Y0123344D01*
X0334308Y0124342D02*
X0342204Y0124342D01*
X0341911Y0125341D02*
X0334601Y0125341D01*
X0335214Y0126339D02*
X0341302Y0126339D01*
X0339983Y0127338D02*
X0336488Y0127338D01*
X0340003Y0186250D02*
X0317403Y0186250D01*
X0340003Y0186250D02*
X0339971Y0183592D01*
X0339875Y0180936D01*
X0339714Y0178282D01*
X0339489Y0175633D01*
X0339201Y0172991D01*
X0338849Y0170356D01*
X0338433Y0167731D01*
X0337954Y0165116D01*
X0337412Y0162514D01*
X0336807Y0159925D01*
X0336139Y0157352D01*
X0335410Y0154796D01*
X0334619Y0152258D01*
X0333767Y0149740D01*
X0332855Y0147243D01*
X0331882Y0144770D01*
X0330850Y0142320D01*
X0329759Y0139896D01*
X0328610Y0137499D01*
X0327403Y0135130D01*
X0326139Y0132792D01*
X0324820Y0130484D01*
X0323444Y0128210D01*
X0322015Y0125969D01*
X0320531Y0123763D01*
X0318995Y0121594D01*
X0317407Y0119462D01*
X0315767Y0117370D01*
X0314078Y0115317D01*
X0312339Y0113307D01*
X0310553Y0111338D01*
X0308719Y0109414D01*
X0306839Y0107534D01*
X0304915Y0105700D01*
X0302946Y0103914D01*
X0300936Y0102175D01*
X0298883Y0100486D01*
X0296791Y0098846D01*
X0294659Y0097258D01*
X0292490Y0095722D01*
X0290284Y0094238D01*
X0288043Y0092809D01*
X0285769Y0091433D01*
X0283461Y0090114D01*
X0281123Y0088850D01*
X0278754Y0087643D01*
X0276357Y0086494D01*
X0273933Y0085403D01*
X0271483Y0084371D01*
X0269010Y0083398D01*
X0266513Y0082486D01*
X0263995Y0081634D01*
X0261457Y0080843D01*
X0258901Y0080114D01*
X0256328Y0079446D01*
X0253739Y0078841D01*
X0251137Y0078299D01*
X0248522Y0077820D01*
X0245897Y0077404D01*
X0243262Y0077052D01*
X0240620Y0076764D01*
X0237971Y0076539D01*
X0235317Y0076378D01*
X0232661Y0076282D01*
X0230003Y0076250D01*
X0230003Y0061250D01*
X0220003Y0061250D02*
X0220003Y0086250D01*
X0230003Y0098750D01*
X0137997Y0130367D02*
X0137908Y0130131D01*
X0137775Y0129916D01*
X0137602Y0129732D01*
X0137308Y0129521D01*
X0136613Y0129120D01*
X0136580Y0129000D01*
X0136480Y0128927D01*
X0136383Y0128340D01*
X0135826Y0128550D01*
X0135713Y0128499D01*
X0135593Y0128531D01*
X0134897Y0128129D01*
X0134568Y0127980D01*
X0134322Y0127923D01*
X0134069Y0127914D01*
X0133820Y0127956D01*
X0133583Y0128045D01*
X0133369Y0128178D01*
X0133184Y0128351D01*
X0132974Y0128645D01*
X0132572Y0129340D01*
X0132452Y0129372D01*
X0132380Y0129473D01*
X0131793Y0129570D01*
X0132003Y0130127D01*
X0131951Y0130240D01*
X0131983Y0130360D01*
X0131582Y0131055D01*
X0131433Y0131385D01*
X0131375Y0131631D01*
X0131367Y0131883D01*
X0131408Y0132133D01*
X0131497Y0132369D01*
X0131631Y0132584D01*
X0131803Y0132768D01*
X0132097Y0132979D01*
X0132793Y0133380D01*
X0132825Y0133500D01*
X0132926Y0133573D01*
X0133023Y0134160D01*
X0133580Y0133950D01*
X0133693Y0134001D01*
X0133813Y0133969D01*
X0134508Y0134371D01*
X0134837Y0134520D01*
X0135083Y0134577D01*
X0135336Y0134586D01*
X0135585Y0134544D01*
X0135822Y0134455D01*
X0136037Y0134322D01*
X0136221Y0134149D01*
X0136432Y0133855D01*
X0136833Y0133160D01*
X0136953Y0133128D01*
X0137025Y0133027D01*
X0137612Y0132930D01*
X0137403Y0132373D01*
X0137454Y0132260D01*
X0137422Y0132140D01*
X0137824Y0131445D01*
X0137973Y0131115D01*
X0138030Y0130869D01*
X0138038Y0130617D01*
X0137997Y0130367D01*
X0137984Y0130333D02*
X0131976Y0130333D01*
X0131457Y0131332D02*
X0137875Y0131332D01*
X0137422Y0132330D02*
X0131483Y0132330D01*
X0132703Y0133329D02*
X0136736Y0133329D01*
X0136028Y0134327D02*
X0134433Y0134327D01*
X0132575Y0129335D02*
X0136986Y0129335D01*
X0135256Y0128336D02*
X0133200Y0128336D01*
X0230003Y0258850D02*
X0230003Y0273750D01*
X0245603Y0273750D01*
X0245603Y0273650D01*
X0230003Y0273650D02*
X0229903Y0273650D01*
X0229903Y0289350D01*
X0229903Y0273750D02*
X0230003Y0273750D01*
X0229903Y0273650D02*
X0215003Y0273650D01*
X0228635Y0307491D02*
X0228003Y0307786D01*
X0227432Y0308186D01*
X0226939Y0308679D01*
X0226539Y0309250D01*
X0226244Y0309882D01*
X0226063Y0310555D01*
X0226003Y0311250D01*
X0226063Y0311945D01*
X0226244Y0312618D01*
X0226539Y0313250D01*
X0226939Y0313821D01*
X0227432Y0314314D01*
X0228003Y0314714D01*
X0228635Y0315009D01*
X0229308Y0315189D01*
X0230003Y0315250D01*
X0230697Y0315189D01*
X0231371Y0315009D01*
X0232003Y0314714D01*
X0232574Y0314314D01*
X0233067Y0313821D01*
X0233467Y0313250D01*
X0233761Y0312618D01*
X0233942Y0311945D01*
X0234003Y0311250D01*
X0233942Y0310555D01*
X0233761Y0309882D01*
X0233467Y0309250D01*
X0233067Y0308679D01*
X0232574Y0308186D01*
X0232003Y0307786D01*
X0231371Y0307491D01*
X0230697Y0307311D01*
X0230003Y0307250D01*
X0229308Y0307311D01*
X0228635Y0307491D01*
X0227599Y0308068D02*
X0232406Y0308068D01*
X0233339Y0309067D02*
X0226667Y0309067D01*
X0226195Y0310065D02*
X0233811Y0310065D01*
X0233986Y0311064D02*
X0226019Y0311064D01*
X0226095Y0312062D02*
X0233910Y0312062D01*
X0233555Y0313061D02*
X0226450Y0313061D01*
X0227177Y0314059D02*
X0232829Y0314059D01*
X0231187Y0315058D02*
X0228818Y0315058D01*
D14*
X0217706Y0105451D02*
X0124578Y0105451D01*
X0124133Y0106049D02*
X0218051Y0106049D01*
X0218397Y0106648D02*
X0123689Y0106648D01*
X0123244Y0107247D02*
X0218742Y0107247D01*
X0218800Y0107346D02*
X0216957Y0104154D01*
X0216003Y0100593D01*
X0216003Y0096907D01*
X0216957Y0093346D01*
X0218800Y0090154D01*
X0219780Y0089173D01*
X0218510Y0087586D01*
X0218003Y0087078D01*
X0218003Y0086952D01*
X0217923Y0086852D01*
X0218003Y0086139D01*
X0218003Y0066050D01*
X0217057Y0065658D01*
X0215594Y0064196D01*
X0214871Y0062448D01*
X0214636Y0063169D01*
X0214279Y0063871D01*
X0213816Y0064507D01*
X0213260Y0065064D01*
X0212623Y0065526D01*
X0211922Y0065884D01*
X0211174Y0066127D01*
X0210396Y0066250D01*
X0210303Y0066250D01*
X0210303Y0061550D01*
X0209703Y0061550D01*
X0209703Y0066250D01*
X0209609Y0066250D01*
X0208832Y0066127D01*
X0208083Y0065884D01*
X0207382Y0065526D01*
X0206745Y0065064D01*
X0206189Y0064507D01*
X0205726Y0063871D01*
X0205369Y0063169D01*
X0205126Y0062421D01*
X0205003Y0061644D01*
X0205003Y0061550D01*
X0209703Y0061550D01*
X0209703Y0060950D01*
X0210303Y0060950D01*
X0210303Y0056250D01*
X0210396Y0056250D01*
X0211174Y0056373D01*
X0211922Y0056616D01*
X0212623Y0056974D01*
X0213260Y0057436D01*
X0213816Y0057993D01*
X0214279Y0058629D01*
X0214636Y0059331D01*
X0214871Y0060052D01*
X0215594Y0058304D01*
X0217057Y0056842D01*
X0218968Y0056050D01*
X0221037Y0056050D01*
X0222948Y0056842D01*
X0224411Y0058304D01*
X0225003Y0059733D01*
X0225594Y0058304D01*
X0227057Y0056842D01*
X0228968Y0056050D01*
X0231037Y0056050D01*
X0232948Y0056842D01*
X0234411Y0058304D01*
X0235003Y0059733D01*
X0235594Y0058304D01*
X0237057Y0056842D01*
X0238968Y0056050D01*
X0241037Y0056050D01*
X0242948Y0056842D01*
X0244411Y0058304D01*
X0245003Y0059733D01*
X0245594Y0058304D01*
X0247057Y0056842D01*
X0248968Y0056050D01*
X0251037Y0056050D01*
X0252948Y0056842D01*
X0254411Y0058304D01*
X0255203Y0060216D01*
X0255203Y0060317D01*
X0256520Y0060544D01*
X0268675Y0063895D01*
X0280439Y0068430D01*
X0291697Y0074105D01*
X0291697Y0074105D01*
X0302341Y0080863D01*
X0312265Y0088640D01*
X0321373Y0097358D01*
X0329575Y0106933D01*
X0334851Y0114490D01*
X0335127Y0114355D01*
X0335501Y0114137D01*
X0335559Y0114028D01*
X0335829Y0113946D01*
X0339857Y0111596D01*
X0336763Y0106933D01*
X0327728Y0096035D01*
X0317585Y0086158D01*
X0306449Y0077416D01*
X0294448Y0069906D01*
X0281716Y0063715D01*
X0268399Y0058913D01*
X0254646Y0055553D01*
X0240614Y0053674D01*
X0226462Y0053297D01*
X0212350Y0054427D01*
X0198438Y0057050D01*
X0184884Y0061137D01*
X0171841Y0066641D01*
X0159457Y0073501D01*
X0147872Y0081639D01*
X0137218Y0090961D01*
X0127615Y0101364D01*
X0119172Y0112728D01*
X0111985Y0124925D01*
X0106135Y0137817D01*
X0101689Y0151257D01*
X0098696Y0165095D01*
X0097191Y0179171D01*
X0097191Y0193329D01*
X0098696Y0207405D01*
X0101689Y0221243D01*
X0106135Y0234683D01*
X0111985Y0247575D01*
X0119172Y0259772D01*
X0127615Y0271136D01*
X0137218Y0281539D01*
X0147872Y0290861D01*
X0159457Y0298999D01*
X0171841Y0305859D01*
X0184884Y0311363D01*
X0198438Y0315450D01*
X0212350Y0318073D01*
X0221373Y0318796D01*
X0221373Y0318172D01*
X0221373Y0314991D01*
X0221348Y0314919D01*
X0221343Y0314914D01*
X0221344Y0314905D01*
X0221341Y0314897D01*
X0221344Y0314891D01*
X0221355Y0314261D01*
X0221252Y0313615D01*
X0221368Y0313455D01*
X0221373Y0313183D01*
X0221373Y0312641D01*
X0221003Y0311747D01*
X0221003Y0310753D01*
X0221383Y0309834D01*
X0221402Y0309815D01*
X0221453Y0309233D01*
X0221453Y0308936D01*
X0221376Y0308804D01*
X0221453Y0308519D01*
X0221453Y0303892D01*
X0221470Y0303875D01*
X0222624Y0302720D01*
X0224281Y0302720D01*
X0224281Y0302720D01*
X0227251Y0302720D01*
X0227536Y0302644D01*
X0227669Y0302720D01*
X0227965Y0302720D01*
X0228203Y0302700D01*
X0228203Y0301995D01*
X0228203Y0301253D01*
X0228203Y0300504D01*
X0228728Y0299979D01*
X0229257Y0299450D01*
X0229257Y0299450D01*
X0229257Y0299450D01*
X0229996Y0299450D01*
X0230003Y0299450D01*
X0236416Y0299269D01*
X0249159Y0297822D01*
X0261658Y0294946D01*
X0273752Y0290676D01*
X0285287Y0285069D01*
X0296115Y0278195D01*
X0306097Y0270143D01*
X0315107Y0261015D01*
X0323028Y0250928D01*
X0329760Y0240012D01*
X0335217Y0228405D01*
X0339328Y0216256D01*
X0342041Y0203721D01*
X0343322Y0190960D01*
X0343154Y0178135D01*
X0341539Y0165412D01*
X0338497Y0152952D01*
X0334069Y0140915D01*
X0328310Y0129456D01*
X0321294Y0118720D01*
X0313110Y0108844D01*
X0303864Y0099956D01*
X0293674Y0092168D01*
X0282669Y0085581D01*
X0270991Y0080278D01*
X0258789Y0076328D01*
X0246219Y0073780D01*
X0239905Y0073050D01*
X0239257Y0073050D01*
X0239193Y0072986D01*
X0239104Y0072979D01*
X0238675Y0072467D01*
X0238203Y0071996D01*
X0238203Y0071906D01*
X0238145Y0071837D01*
X0238203Y0071172D01*
X0238203Y0066133D01*
X0237057Y0065658D01*
X0235594Y0064196D01*
X0235003Y0062767D01*
X0234411Y0064196D01*
X0232948Y0065658D01*
X0232003Y0066050D01*
X0232003Y0074250D01*
X0236292Y0074250D01*
X0248793Y0075658D01*
X0261057Y0078458D01*
X0272931Y0082612D01*
X0284265Y0088071D01*
X0294916Y0094763D01*
X0304751Y0102606D01*
X0313646Y0111502D01*
X0313646Y0111502D01*
X0321489Y0121337D01*
X0328182Y0131988D01*
X0333640Y0143322D01*
X0337795Y0155196D01*
X0340594Y0167460D01*
X0342003Y0179960D01*
X0342003Y0187078D01*
X0340831Y0188250D01*
X0331461Y0188250D01*
X0330549Y0191654D01*
X0328705Y0194846D01*
X0326099Y0197453D01*
X0322906Y0199296D01*
X0319346Y0200250D01*
X0319259Y0200250D01*
X0322271Y0201165D01*
X0326416Y0203942D01*
X0329575Y0207803D01*
X0331474Y0212417D01*
X0331949Y0217383D01*
X0330960Y0222273D01*
X0328592Y0226664D01*
X0325049Y0230176D01*
X0325049Y0230176D01*
X0323803Y0230835D01*
X0323803Y0248000D01*
X0322463Y0251235D01*
X0319987Y0253710D01*
X0316753Y0255050D01*
X0313252Y0255050D01*
X0310018Y0253710D01*
X0310018Y0253710D01*
X0307542Y0251235D01*
X0306203Y0248000D01*
X0306203Y0230835D01*
X0304956Y0230176D01*
X0301413Y0226664D01*
X0299045Y0222273D01*
X0299045Y0222273D01*
X0298056Y0217383D01*
X0298532Y0212417D01*
X0298532Y0212417D01*
X0300431Y0207803D01*
X0303590Y0203942D01*
X0307735Y0201165D01*
X0312508Y0199715D01*
X0313661Y0199715D01*
X0312099Y0199296D01*
X0308906Y0197453D01*
X0306300Y0194846D01*
X0304457Y0191654D01*
X0303503Y0188093D01*
X0303503Y0184407D01*
X0304457Y0180846D01*
X0306300Y0177654D01*
X0308906Y0175047D01*
X0312099Y0173204D01*
X0315660Y0172250D01*
X0319346Y0172250D01*
X0322906Y0173204D01*
X0326099Y0175047D01*
X0328705Y0177654D01*
X0330549Y0180846D01*
X0331461Y0184250D01*
X0337947Y0184250D01*
X0337833Y0180194D01*
X0336477Y0168159D01*
X0333782Y0156352D01*
X0329782Y0144920D01*
X0324527Y0134008D01*
X0318083Y0123753D01*
X0310532Y0114285D01*
X0301968Y0105721D01*
X0301968Y0105721D01*
X0292499Y0098169D01*
X0282244Y0091726D01*
X0271332Y0086471D01*
X0259901Y0082471D01*
X0248093Y0079776D01*
X0236058Y0078420D01*
X0230003Y0078250D01*
X0229174Y0078250D01*
X0228003Y0077078D01*
X0228003Y0066050D01*
X0227057Y0065658D01*
X0225594Y0064196D01*
X0225003Y0062767D01*
X0224411Y0064196D01*
X0222948Y0065658D01*
X0222003Y0066050D01*
X0222003Y0085548D01*
X0222908Y0086680D01*
X0224599Y0085704D01*
X0228160Y0084750D01*
X0231846Y0084750D01*
X0235406Y0085704D01*
X0238599Y0087547D01*
X0241205Y0090154D01*
X0243049Y0093346D01*
X0244003Y0096907D01*
X0244003Y0100593D01*
X0243049Y0104154D01*
X0241205Y0107346D01*
X0238599Y0109953D01*
X0235406Y0111796D01*
X0231846Y0112750D01*
X0228160Y0112750D01*
X0224599Y0111796D01*
X0221406Y0109953D01*
X0218800Y0107346D01*
X0219299Y0107845D02*
X0122799Y0107845D01*
X0122355Y0108444D02*
X0219897Y0108444D01*
X0220496Y0109042D02*
X0121910Y0109042D01*
X0121465Y0109641D02*
X0221094Y0109641D01*
X0221902Y0110239D02*
X0121021Y0110239D01*
X0120576Y0110838D02*
X0222939Y0110838D01*
X0223976Y0111436D02*
X0120131Y0111436D01*
X0119687Y0112035D02*
X0225490Y0112035D01*
X0227723Y0112633D02*
X0119242Y0112633D01*
X0118875Y0113232D02*
X0309479Y0113232D01*
X0310078Y0113830D02*
X0118522Y0113830D01*
X0118170Y0114429D02*
X0310647Y0114429D01*
X0311124Y0115027D02*
X0117817Y0115027D01*
X0117464Y0115626D02*
X0311602Y0115626D01*
X0312079Y0116224D02*
X0117112Y0116224D01*
X0116759Y0116823D02*
X0312556Y0116823D01*
X0313033Y0117421D02*
X0116406Y0117421D01*
X0116054Y0118020D02*
X0313511Y0118020D01*
X0313988Y0118618D02*
X0115701Y0118618D01*
X0115348Y0119217D02*
X0314465Y0119217D01*
X0314943Y0119815D02*
X0114996Y0119815D01*
X0114643Y0120414D02*
X0315420Y0120414D01*
X0315897Y0121012D02*
X0114290Y0121012D01*
X0113938Y0121611D02*
X0316375Y0121611D01*
X0316852Y0122209D02*
X0113585Y0122209D01*
X0113232Y0122808D02*
X0131494Y0122808D01*
X0131531Y0122744D02*
X0131555Y0122702D01*
X0133155Y0122274D01*
X0133197Y0122298D01*
X0134590Y0123102D01*
X0134590Y0123102D01*
X0136247Y0124059D01*
X0136540Y0124127D01*
X0136637Y0124284D01*
X0136819Y0124389D01*
X0137484Y0124690D01*
X0137523Y0124796D01*
X0137621Y0124852D01*
X0137810Y0125557D01*
X0137881Y0125745D01*
X0138079Y0125713D01*
X0138784Y0125524D01*
X0138882Y0125580D01*
X0138993Y0125562D01*
X0139587Y0125987D01*
X0139768Y0126092D01*
X0139953Y0126098D01*
X0140158Y0126317D01*
X0143209Y0128078D01*
X0143250Y0128102D01*
X0143679Y0129702D01*
X0143655Y0129744D01*
X0142851Y0131137D01*
X0142851Y0131137D01*
X0141894Y0132795D01*
X0141826Y0133087D01*
X0141669Y0133185D01*
X0141564Y0133366D01*
X0141263Y0134031D01*
X0141157Y0134071D01*
X0141101Y0134168D01*
X0140395Y0134357D01*
X0140207Y0134428D01*
X0140240Y0134626D01*
X0140429Y0135332D01*
X0140373Y0135429D01*
X0140391Y0135541D01*
X0139966Y0136134D01*
X0139861Y0136315D01*
X0139855Y0136500D01*
X0139636Y0136705D01*
X0137875Y0139756D01*
X0137851Y0139798D01*
X0136250Y0140226D01*
X0136209Y0140202D01*
X0134815Y0139398D01*
X0133158Y0138441D01*
X0132866Y0138373D01*
X0132768Y0138216D01*
X0132587Y0138111D01*
X0131922Y0137810D01*
X0131882Y0137704D01*
X0131784Y0137648D01*
X0131595Y0136943D01*
X0131525Y0136755D01*
X0131326Y0136787D01*
X0130621Y0136976D01*
X0130523Y0136920D01*
X0130412Y0136938D01*
X0129819Y0136513D01*
X0129637Y0136408D01*
X0129453Y0136402D01*
X0129247Y0136183D01*
X0126197Y0134422D01*
X0126155Y0134398D01*
X0125726Y0132798D01*
X0125750Y0132756D01*
X0126555Y0131363D01*
X0127512Y0129705D01*
X0127580Y0129413D01*
X0127737Y0129316D01*
X0127841Y0129134D01*
X0128143Y0128469D01*
X0128248Y0128429D01*
X0128305Y0128332D01*
X0129010Y0128143D01*
X0129198Y0128072D01*
X0129165Y0127874D01*
X0128976Y0127168D01*
X0129033Y0127071D01*
X0129014Y0126959D01*
X0129440Y0126366D01*
X0129544Y0126185D01*
X0129550Y0126000D01*
X0129769Y0125795D01*
X0131531Y0122744D01*
X0131148Y0123406D02*
X0112880Y0123406D01*
X0112527Y0124005D02*
X0130803Y0124005D01*
X0130457Y0124603D02*
X0112174Y0124603D01*
X0111859Y0125202D02*
X0130112Y0125202D01*
X0129763Y0125800D02*
X0111587Y0125800D01*
X0111316Y0126399D02*
X0129416Y0126399D01*
X0129021Y0126997D02*
X0111044Y0126997D01*
X0110773Y0127596D02*
X0129091Y0127596D01*
X0128817Y0128194D02*
X0110501Y0128194D01*
X0110230Y0128793D02*
X0127996Y0128793D01*
X0127615Y0129391D02*
X0109958Y0129391D01*
X0109686Y0129990D02*
X0127347Y0129990D01*
X0127002Y0130588D02*
X0109415Y0130588D01*
X0109143Y0131187D02*
X0126656Y0131187D01*
X0126555Y0131363D02*
X0126555Y0131363D01*
X0126311Y0131785D02*
X0108872Y0131785D01*
X0108600Y0132384D02*
X0125965Y0132384D01*
X0125776Y0132982D02*
X0108329Y0132982D01*
X0108057Y0133581D02*
X0125936Y0133581D01*
X0126097Y0134180D02*
X0107785Y0134180D01*
X0107514Y0134778D02*
X0126813Y0134778D01*
X0127850Y0135377D02*
X0107242Y0135377D01*
X0106971Y0135975D02*
X0128887Y0135975D01*
X0129903Y0136574D02*
X0106699Y0136574D01*
X0106427Y0137172D02*
X0131657Y0137172D01*
X0131907Y0137771D02*
X0106156Y0137771D01*
X0105952Y0138369D02*
X0132863Y0138369D01*
X0134070Y0138968D02*
X0105754Y0138968D01*
X0105556Y0139566D02*
X0135107Y0139566D01*
X0134815Y0139398D02*
X0134815Y0139398D01*
X0136143Y0140165D02*
X0105358Y0140165D01*
X0105160Y0140763D02*
X0327780Y0140763D01*
X0327492Y0140165D02*
X0136481Y0140165D01*
X0137984Y0139566D02*
X0327203Y0139566D01*
X0326915Y0138968D02*
X0138330Y0138968D01*
X0138675Y0138369D02*
X0326627Y0138369D01*
X0326339Y0137771D02*
X0139021Y0137771D01*
X0139366Y0137172D02*
X0326050Y0137172D01*
X0325762Y0136574D02*
X0139777Y0136574D01*
X0140080Y0135975D02*
X0325474Y0135975D01*
X0325186Y0135377D02*
X0140403Y0135377D01*
X0140281Y0134778D02*
X0324897Y0134778D01*
X0324609Y0134180D02*
X0141059Y0134180D01*
X0141466Y0133581D02*
X0324258Y0133581D01*
X0323882Y0132982D02*
X0141850Y0132982D01*
X0142131Y0132384D02*
X0323506Y0132384D01*
X0323130Y0131785D02*
X0142476Y0131785D01*
X0142822Y0131187D02*
X0322754Y0131187D01*
X0322378Y0130588D02*
X0143168Y0130588D01*
X0143513Y0129990D02*
X0322002Y0129990D01*
X0321626Y0129391D02*
X0143596Y0129391D01*
X0143435Y0128793D02*
X0321250Y0128793D01*
X0320874Y0128194D02*
X0143275Y0128194D01*
X0142374Y0127596D02*
X0320498Y0127596D01*
X0320122Y0126997D02*
X0141337Y0126997D01*
X0140300Y0126399D02*
X0319745Y0126399D01*
X0319369Y0125800D02*
X0139326Y0125800D01*
X0137715Y0125202D02*
X0318993Y0125202D01*
X0318617Y0124603D02*
X0137292Y0124603D01*
X0136154Y0124005D02*
X0318241Y0124005D01*
X0317806Y0123406D02*
X0135117Y0123406D01*
X0134080Y0122808D02*
X0317329Y0122808D01*
X0320753Y0120414D02*
X0322401Y0120414D01*
X0322792Y0121012D02*
X0321231Y0121012D01*
X0321662Y0121611D02*
X0323183Y0121611D01*
X0323574Y0122209D02*
X0322038Y0122209D01*
X0322414Y0122808D02*
X0323965Y0122808D01*
X0324356Y0123406D02*
X0322790Y0123406D01*
X0323166Y0124005D02*
X0324748Y0124005D01*
X0325139Y0124603D02*
X0323542Y0124603D01*
X0323918Y0125202D02*
X0325530Y0125202D01*
X0325921Y0125800D02*
X0324294Y0125800D01*
X0324670Y0126399D02*
X0326312Y0126399D01*
X0326703Y0126997D02*
X0325046Y0126997D01*
X0325422Y0127596D02*
X0327094Y0127596D01*
X0327485Y0128194D02*
X0325798Y0128194D01*
X0326174Y0128793D02*
X0327877Y0128793D01*
X0328268Y0129391D02*
X0326551Y0129391D01*
X0326927Y0129990D02*
X0328578Y0129990D01*
X0328879Y0130588D02*
X0327303Y0130588D01*
X0327679Y0131187D02*
X0329180Y0131187D01*
X0329481Y0131785D02*
X0328055Y0131785D01*
X0328373Y0132384D02*
X0329781Y0132384D01*
X0330082Y0132982D02*
X0328661Y0132982D01*
X0328949Y0133581D02*
X0330383Y0133581D01*
X0330684Y0134180D02*
X0329237Y0134180D01*
X0329526Y0134778D02*
X0330984Y0134778D01*
X0331285Y0135377D02*
X0329814Y0135377D01*
X0330102Y0135975D02*
X0331586Y0135975D01*
X0331887Y0136574D02*
X0330390Y0136574D01*
X0330679Y0137172D02*
X0332188Y0137172D01*
X0332488Y0137771D02*
X0330967Y0137771D01*
X0331255Y0138369D02*
X0332789Y0138369D01*
X0333090Y0138968D02*
X0331543Y0138968D01*
X0331832Y0139566D02*
X0333391Y0139566D01*
X0333692Y0140165D02*
X0332120Y0140165D01*
X0332408Y0140763D02*
X0333992Y0140763D01*
X0334233Y0141362D02*
X0332696Y0141362D01*
X0332984Y0141960D02*
X0334453Y0141960D01*
X0334673Y0142559D02*
X0333273Y0142559D01*
X0333561Y0143157D02*
X0334894Y0143157D01*
X0335114Y0143756D02*
X0333792Y0143756D01*
X0334001Y0144354D02*
X0335334Y0144354D01*
X0335554Y0144953D02*
X0334211Y0144953D01*
X0334420Y0145551D02*
X0335774Y0145551D01*
X0335995Y0146150D02*
X0334630Y0146150D01*
X0334839Y0146748D02*
X0336215Y0146748D01*
X0336435Y0147347D02*
X0335049Y0147347D01*
X0335258Y0147945D02*
X0336655Y0147945D01*
X0336876Y0148544D02*
X0335467Y0148544D01*
X0335677Y0149142D02*
X0337096Y0149142D01*
X0337316Y0149741D02*
X0335886Y0149741D01*
X0336096Y0150339D02*
X0337536Y0150339D01*
X0337756Y0150938D02*
X0336305Y0150938D01*
X0336515Y0151536D02*
X0337977Y0151536D01*
X0338197Y0152135D02*
X0336724Y0152135D01*
X0336933Y0152733D02*
X0338417Y0152733D01*
X0338590Y0153332D02*
X0337143Y0153332D01*
X0337352Y0153930D02*
X0338736Y0153930D01*
X0338882Y0154529D02*
X0337562Y0154529D01*
X0337771Y0155127D02*
X0339028Y0155127D01*
X0339174Y0155726D02*
X0337916Y0155726D01*
X0338053Y0156324D02*
X0339321Y0156324D01*
X0339467Y0156923D02*
X0338189Y0156923D01*
X0338326Y0157521D02*
X0339613Y0157521D01*
X0339759Y0158120D02*
X0338462Y0158120D01*
X0338599Y0158718D02*
X0339905Y0158718D01*
X0340051Y0159317D02*
X0338736Y0159317D01*
X0338872Y0159916D02*
X0340197Y0159916D01*
X0340343Y0160514D02*
X0339009Y0160514D01*
X0339145Y0161113D02*
X0340489Y0161113D01*
X0340635Y0161711D02*
X0339282Y0161711D01*
X0339419Y0162310D02*
X0340781Y0162310D01*
X0340928Y0162908D02*
X0339555Y0162908D01*
X0339692Y0163507D02*
X0341074Y0163507D01*
X0341220Y0164105D02*
X0339829Y0164105D01*
X0339965Y0164704D02*
X0341366Y0164704D01*
X0341512Y0165302D02*
X0340102Y0165302D01*
X0340238Y0165901D02*
X0341601Y0165901D01*
X0341677Y0166499D02*
X0340375Y0166499D01*
X0340512Y0167098D02*
X0341753Y0167098D01*
X0341829Y0167696D02*
X0340621Y0167696D01*
X0340688Y0168295D02*
X0341905Y0168295D01*
X0341981Y0168893D02*
X0340756Y0168893D01*
X0340823Y0169492D02*
X0342057Y0169492D01*
X0342133Y0170090D02*
X0340891Y0170090D01*
X0340958Y0170689D02*
X0342209Y0170689D01*
X0342284Y0171287D02*
X0341025Y0171287D01*
X0341093Y0171886D02*
X0342360Y0171886D01*
X0342436Y0172484D02*
X0341160Y0172484D01*
X0341228Y0173083D02*
X0342512Y0173083D01*
X0342588Y0173681D02*
X0341295Y0173681D01*
X0341363Y0174280D02*
X0342664Y0174280D01*
X0342740Y0174878D02*
X0341430Y0174878D01*
X0341498Y0175477D02*
X0342816Y0175477D01*
X0342892Y0176075D02*
X0341565Y0176075D01*
X0341632Y0176674D02*
X0342968Y0176674D01*
X0343044Y0177272D02*
X0341700Y0177272D01*
X0341767Y0177871D02*
X0343120Y0177871D01*
X0343158Y0178469D02*
X0341835Y0178469D01*
X0341902Y0179068D02*
X0343166Y0179068D01*
X0343174Y0179666D02*
X0341970Y0179666D01*
X0342003Y0180265D02*
X0343182Y0180265D01*
X0343190Y0180863D02*
X0342003Y0180863D01*
X0342003Y0181462D02*
X0343197Y0181462D01*
X0343205Y0182060D02*
X0342003Y0182060D01*
X0342003Y0182659D02*
X0343213Y0182659D01*
X0343221Y0183257D02*
X0342003Y0183257D01*
X0342003Y0183856D02*
X0343229Y0183856D01*
X0343237Y0184454D02*
X0342003Y0184454D01*
X0342003Y0185053D02*
X0343245Y0185053D01*
X0343252Y0185651D02*
X0342003Y0185651D01*
X0342003Y0186250D02*
X0343260Y0186250D01*
X0343268Y0186849D02*
X0342003Y0186849D01*
X0341634Y0187447D02*
X0343276Y0187447D01*
X0343284Y0188046D02*
X0341036Y0188046D01*
X0343292Y0188644D02*
X0331355Y0188644D01*
X0331195Y0189243D02*
X0343300Y0189243D01*
X0343307Y0189841D02*
X0331034Y0189841D01*
X0330874Y0190440D02*
X0343315Y0190440D01*
X0343314Y0191038D02*
X0330714Y0191038D01*
X0330553Y0191637D02*
X0343254Y0191637D01*
X0343194Y0192235D02*
X0330213Y0192235D01*
X0329867Y0192834D02*
X0343134Y0192834D01*
X0343074Y0193432D02*
X0329522Y0193432D01*
X0329176Y0194031D02*
X0343014Y0194031D01*
X0342954Y0194629D02*
X0328831Y0194629D01*
X0328324Y0195228D02*
X0342894Y0195228D01*
X0342834Y0195826D02*
X0327725Y0195826D01*
X0327127Y0196425D02*
X0342774Y0196425D01*
X0342713Y0197023D02*
X0326528Y0197023D01*
X0325806Y0197622D02*
X0342653Y0197622D01*
X0342593Y0198220D02*
X0324770Y0198220D01*
X0323733Y0198819D02*
X0342533Y0198819D01*
X0342473Y0199417D02*
X0322454Y0199417D01*
X0322271Y0201165D02*
X0322271Y0201165D01*
X0322341Y0201213D02*
X0342293Y0201213D01*
X0342233Y0201811D02*
X0323235Y0201811D01*
X0324129Y0202410D02*
X0342173Y0202410D01*
X0342113Y0203008D02*
X0325022Y0203008D01*
X0325916Y0203607D02*
X0342053Y0203607D01*
X0341936Y0204205D02*
X0326631Y0204205D01*
X0326416Y0203942D02*
X0326416Y0203942D01*
X0326416Y0203942D01*
X0327121Y0204804D02*
X0341807Y0204804D01*
X0341677Y0205402D02*
X0327611Y0205402D01*
X0328100Y0206001D02*
X0341548Y0206001D01*
X0341418Y0206599D02*
X0328590Y0206599D01*
X0329079Y0207198D02*
X0341289Y0207198D01*
X0341159Y0207796D02*
X0329569Y0207796D01*
X0329818Y0208395D02*
X0341030Y0208395D01*
X0340900Y0208993D02*
X0330065Y0208993D01*
X0330311Y0209592D02*
X0340771Y0209592D01*
X0340641Y0210190D02*
X0330557Y0210190D01*
X0330804Y0210789D02*
X0340511Y0210789D01*
X0340382Y0211387D02*
X0331050Y0211387D01*
X0331297Y0211986D02*
X0340252Y0211986D01*
X0340123Y0212584D02*
X0331490Y0212584D01*
X0331547Y0213183D02*
X0339993Y0213183D01*
X0339864Y0213782D02*
X0331605Y0213782D01*
X0331662Y0214380D02*
X0339734Y0214380D01*
X0339605Y0214979D02*
X0331719Y0214979D01*
X0331776Y0215577D02*
X0339475Y0215577D01*
X0339345Y0216176D02*
X0331834Y0216176D01*
X0331891Y0216774D02*
X0339153Y0216774D01*
X0338950Y0217373D02*
X0331948Y0217373D01*
X0331830Y0217971D02*
X0338748Y0217971D01*
X0338545Y0218570D02*
X0331709Y0218570D01*
X0331588Y0219168D02*
X0338343Y0219168D01*
X0338140Y0219767D02*
X0331467Y0219767D01*
X0331346Y0220365D02*
X0337938Y0220365D01*
X0337735Y0220964D02*
X0331225Y0220964D01*
X0331104Y0221562D02*
X0337532Y0221562D01*
X0337330Y0222161D02*
X0330983Y0222161D01*
X0330698Y0222759D02*
X0337127Y0222759D01*
X0336925Y0223358D02*
X0330375Y0223358D01*
X0330052Y0223956D02*
X0336722Y0223956D01*
X0336520Y0224555D02*
X0329730Y0224555D01*
X0329407Y0225153D02*
X0336317Y0225153D01*
X0336115Y0225752D02*
X0329084Y0225752D01*
X0328761Y0226350D02*
X0335912Y0226350D01*
X0335710Y0226949D02*
X0328305Y0226949D01*
X0328592Y0226664D02*
X0328592Y0226664D01*
X0327701Y0227547D02*
X0335507Y0227547D01*
X0335305Y0228146D02*
X0327097Y0228146D01*
X0326493Y0228744D02*
X0335057Y0228744D01*
X0334776Y0229343D02*
X0325890Y0229343D01*
X0325286Y0229941D02*
X0334495Y0229941D01*
X0334213Y0230540D02*
X0324361Y0230540D01*
X0325049Y0230176D02*
X0325049Y0230176D01*
X0323803Y0231138D02*
X0333932Y0231138D01*
X0333650Y0231737D02*
X0323803Y0231737D01*
X0323803Y0232335D02*
X0333369Y0232335D01*
X0333088Y0232934D02*
X0323803Y0232934D01*
X0323803Y0233532D02*
X0332806Y0233532D01*
X0332525Y0234131D02*
X0323803Y0234131D01*
X0323803Y0234729D02*
X0332244Y0234729D01*
X0331962Y0235328D02*
X0323803Y0235328D01*
X0323803Y0235926D02*
X0331681Y0235926D01*
X0331399Y0236525D02*
X0323803Y0236525D01*
X0323803Y0237123D02*
X0331118Y0237123D01*
X0330837Y0237722D02*
X0323803Y0237722D01*
X0323803Y0238320D02*
X0330555Y0238320D01*
X0330274Y0238919D02*
X0323803Y0238919D01*
X0323803Y0239518D02*
X0329993Y0239518D01*
X0329696Y0240116D02*
X0323803Y0240116D01*
X0323803Y0240715D02*
X0329327Y0240715D01*
X0328958Y0241313D02*
X0323803Y0241313D01*
X0323803Y0241912D02*
X0328589Y0241912D01*
X0328220Y0242510D02*
X0323803Y0242510D01*
X0323803Y0243109D02*
X0327851Y0243109D01*
X0327481Y0243707D02*
X0323803Y0243707D01*
X0323803Y0244306D02*
X0327112Y0244306D01*
X0326743Y0244904D02*
X0323803Y0244904D01*
X0323803Y0245503D02*
X0326374Y0245503D01*
X0326005Y0246101D02*
X0323803Y0246101D01*
X0323803Y0246700D02*
X0325636Y0246700D01*
X0325267Y0247298D02*
X0323803Y0247298D01*
X0323803Y0247897D02*
X0324898Y0247897D01*
X0324529Y0248495D02*
X0323598Y0248495D01*
X0323350Y0249094D02*
X0324160Y0249094D01*
X0323791Y0249692D02*
X0323102Y0249692D01*
X0322854Y0250291D02*
X0323421Y0250291D01*
X0323052Y0250889D02*
X0322606Y0250889D01*
X0322463Y0251235D02*
X0322463Y0251235D01*
X0322589Y0251488D02*
X0322210Y0251488D01*
X0322119Y0252086D02*
X0321612Y0252086D01*
X0321649Y0252685D02*
X0321013Y0252685D01*
X0321179Y0253283D02*
X0320414Y0253283D01*
X0319987Y0253710D02*
X0319987Y0253710D01*
X0319573Y0253882D02*
X0320709Y0253882D01*
X0320239Y0254480D02*
X0318128Y0254480D01*
X0319299Y0255677D02*
X0116759Y0255677D01*
X0116406Y0255079D02*
X0319769Y0255079D01*
X0318829Y0256276D02*
X0117112Y0256276D01*
X0117464Y0256874D02*
X0318359Y0256874D01*
X0317889Y0257473D02*
X0117817Y0257473D01*
X0118170Y0258071D02*
X0317419Y0258071D01*
X0316949Y0258670D02*
X0118522Y0258670D01*
X0118875Y0259268D02*
X0316479Y0259268D01*
X0316008Y0259867D02*
X0232282Y0259867D01*
X0231846Y0259750D02*
X0235406Y0260704D01*
X0238599Y0262547D01*
X0241205Y0265154D01*
X0243049Y0268346D01*
X0244003Y0271907D01*
X0244003Y0275593D01*
X0243049Y0279154D01*
X0241205Y0282346D01*
X0238599Y0284953D01*
X0235406Y0286796D01*
X0231846Y0287750D01*
X0228160Y0287750D01*
X0224599Y0286796D01*
X0221406Y0284953D01*
X0218800Y0282346D01*
X0216957Y0279154D01*
X0216003Y0275593D01*
X0216003Y0271907D01*
X0216957Y0268346D01*
X0218800Y0265154D01*
X0221406Y0262547D01*
X0224599Y0260704D01*
X0228160Y0259750D01*
X0231846Y0259750D01*
X0234516Y0260465D02*
X0315538Y0260465D01*
X0315107Y0261015D02*
X0315107Y0261015D01*
X0315059Y0261064D02*
X0236030Y0261064D01*
X0237066Y0261662D02*
X0314468Y0261662D01*
X0313877Y0262261D02*
X0238103Y0262261D01*
X0238911Y0262859D02*
X0313286Y0262859D01*
X0312696Y0263458D02*
X0239510Y0263458D01*
X0240108Y0264056D02*
X0312105Y0264056D01*
X0311514Y0264655D02*
X0240707Y0264655D01*
X0241263Y0265253D02*
X0310923Y0265253D01*
X0310332Y0265852D02*
X0241609Y0265852D01*
X0241954Y0266451D02*
X0309742Y0266451D01*
X0309151Y0267049D02*
X0242300Y0267049D01*
X0242645Y0267648D02*
X0308560Y0267648D01*
X0307969Y0268246D02*
X0242991Y0268246D01*
X0243182Y0268845D02*
X0307379Y0268845D01*
X0306788Y0269443D02*
X0243342Y0269443D01*
X0243503Y0270042D02*
X0306197Y0270042D01*
X0305481Y0270640D02*
X0243663Y0270640D01*
X0243824Y0271239D02*
X0304739Y0271239D01*
X0303997Y0271837D02*
X0243984Y0271837D01*
X0244003Y0272436D02*
X0303255Y0272436D01*
X0302513Y0273034D02*
X0244003Y0273034D01*
X0244003Y0273633D02*
X0301771Y0273633D01*
X0301029Y0274231D02*
X0244003Y0274231D01*
X0244003Y0274830D02*
X0300287Y0274830D01*
X0299545Y0275428D02*
X0244003Y0275428D01*
X0243887Y0276027D02*
X0298803Y0276027D01*
X0298061Y0276625D02*
X0243726Y0276625D01*
X0243566Y0277224D02*
X0297319Y0277224D01*
X0296577Y0277822D02*
X0243405Y0277822D01*
X0243245Y0278421D02*
X0295759Y0278421D01*
X0294817Y0279019D02*
X0243085Y0279019D01*
X0242781Y0279618D02*
X0293874Y0279618D01*
X0292931Y0280216D02*
X0242435Y0280216D01*
X0242090Y0280815D02*
X0291988Y0280815D01*
X0291045Y0281413D02*
X0241744Y0281413D01*
X0241399Y0282012D02*
X0290103Y0282012D01*
X0289160Y0282610D02*
X0240941Y0282610D01*
X0240343Y0283209D02*
X0288217Y0283209D01*
X0287274Y0283807D02*
X0239744Y0283807D01*
X0239146Y0284406D02*
X0286331Y0284406D01*
X0285389Y0285004D02*
X0238510Y0285004D01*
X0237473Y0285603D02*
X0284189Y0285603D01*
X0282957Y0286201D02*
X0236436Y0286201D01*
X0235392Y0286800D02*
X0281726Y0286800D01*
X0280495Y0287398D02*
X0233158Y0287398D01*
X0226847Y0287398D02*
X0143914Y0287398D01*
X0143230Y0286800D02*
X0224614Y0286800D01*
X0223569Y0286201D02*
X0142546Y0286201D01*
X0141862Y0285603D02*
X0222532Y0285603D01*
X0221496Y0285004D02*
X0141178Y0285004D01*
X0140494Y0284406D02*
X0220860Y0284406D01*
X0220261Y0283807D02*
X0139810Y0283807D01*
X0139126Y0283209D02*
X0219663Y0283209D01*
X0219064Y0282610D02*
X0138442Y0282610D01*
X0137758Y0282012D02*
X0218607Y0282012D01*
X0218261Y0281413D02*
X0137102Y0281413D01*
X0136549Y0280815D02*
X0217916Y0280815D01*
X0217570Y0280216D02*
X0135997Y0280216D01*
X0135444Y0279618D02*
X0217225Y0279618D01*
X0216921Y0279019D02*
X0134892Y0279019D01*
X0134339Y0278421D02*
X0216760Y0278421D01*
X0216600Y0277822D02*
X0133787Y0277822D01*
X0133234Y0277224D02*
X0216440Y0277224D01*
X0216279Y0276625D02*
X0132682Y0276625D01*
X0132129Y0276027D02*
X0216119Y0276027D01*
X0216003Y0275428D02*
X0131577Y0275428D01*
X0131024Y0274830D02*
X0216003Y0274830D01*
X0216003Y0274231D02*
X0130472Y0274231D01*
X0129919Y0273633D02*
X0216003Y0273633D01*
X0216003Y0273034D02*
X0129367Y0273034D01*
X0128814Y0272436D02*
X0216003Y0272436D01*
X0216021Y0271837D02*
X0128262Y0271837D01*
X0127709Y0271239D02*
X0216182Y0271239D01*
X0216342Y0270640D02*
X0127246Y0270640D01*
X0126801Y0270042D02*
X0216502Y0270042D01*
X0216663Y0269443D02*
X0126357Y0269443D01*
X0125912Y0268845D02*
X0216823Y0268845D01*
X0217015Y0268246D02*
X0125467Y0268246D01*
X0125023Y0267648D02*
X0217360Y0267648D01*
X0217706Y0267049D02*
X0124578Y0267049D01*
X0124133Y0266451D02*
X0218051Y0266451D01*
X0218397Y0265852D02*
X0123689Y0265852D01*
X0123244Y0265253D02*
X0218742Y0265253D01*
X0219299Y0264655D02*
X0122799Y0264655D01*
X0122355Y0264056D02*
X0219897Y0264056D01*
X0220496Y0263458D02*
X0121910Y0263458D01*
X0121465Y0262859D02*
X0221094Y0262859D01*
X0221902Y0262261D02*
X0121021Y0262261D01*
X0120576Y0261662D02*
X0222939Y0261662D01*
X0223976Y0261064D02*
X0120131Y0261064D01*
X0119687Y0260465D02*
X0225490Y0260465D01*
X0227723Y0259867D02*
X0119242Y0259867D01*
X0116054Y0254480D02*
X0141877Y0254480D01*
X0143252Y0255050D02*
X0140018Y0253710D01*
X0140018Y0253710D01*
X0137542Y0251235D01*
X0136203Y0248000D01*
X0136203Y0230835D01*
X0134956Y0230176D01*
X0131413Y0226664D01*
X0129045Y0222273D01*
X0129045Y0222273D01*
X0128056Y0217383D01*
X0128532Y0212417D01*
X0128532Y0212417D01*
X0130431Y0207803D01*
X0133590Y0203942D01*
X0137735Y0201165D01*
X0142508Y0199715D01*
X0147497Y0199715D01*
X0152271Y0201165D01*
X0156416Y0203942D01*
X0159575Y0207803D01*
X0159575Y0207803D01*
X0161474Y0212417D01*
X0161949Y0217383D01*
X0160960Y0222273D01*
X0158592Y0226664D01*
X0155049Y0230176D01*
X0153803Y0230835D01*
X0153803Y0245222D01*
X0154003Y0245422D01*
X0154003Y0247578D01*
X0153803Y0247778D01*
X0153803Y0248000D01*
X0152463Y0251235D01*
X0149987Y0253710D01*
X0146753Y0255050D01*
X0143252Y0255050D01*
X0140432Y0253882D02*
X0115701Y0253882D01*
X0115348Y0253283D02*
X0139591Y0253283D01*
X0138992Y0252685D02*
X0114996Y0252685D01*
X0114643Y0252086D02*
X0138394Y0252086D01*
X0137795Y0251488D02*
X0114290Y0251488D01*
X0113938Y0250889D02*
X0137399Y0250889D01*
X0137542Y0251235D02*
X0137542Y0251235D01*
X0137151Y0250291D02*
X0113585Y0250291D01*
X0113232Y0249692D02*
X0136903Y0249692D01*
X0136656Y0249094D02*
X0112880Y0249094D01*
X0112527Y0248495D02*
X0136408Y0248495D01*
X0136203Y0247897D02*
X0112174Y0247897D01*
X0111859Y0247298D02*
X0136203Y0247298D01*
X0136203Y0246700D02*
X0111587Y0246700D01*
X0111316Y0246101D02*
X0136203Y0246101D01*
X0136203Y0245503D02*
X0111044Y0245503D01*
X0110773Y0244904D02*
X0136203Y0244904D01*
X0136203Y0244306D02*
X0110501Y0244306D01*
X0110230Y0243707D02*
X0136203Y0243707D01*
X0136203Y0243109D02*
X0109958Y0243109D01*
X0109686Y0242510D02*
X0136203Y0242510D01*
X0136203Y0241912D02*
X0109415Y0241912D01*
X0109143Y0241313D02*
X0136203Y0241313D01*
X0136203Y0240715D02*
X0108872Y0240715D01*
X0108600Y0240116D02*
X0136203Y0240116D01*
X0136203Y0239518D02*
X0108329Y0239518D01*
X0108057Y0238919D02*
X0136203Y0238919D01*
X0136203Y0238320D02*
X0107785Y0238320D01*
X0107514Y0237722D02*
X0136203Y0237722D01*
X0136203Y0237123D02*
X0107242Y0237123D01*
X0106971Y0236525D02*
X0136203Y0236525D01*
X0136203Y0235926D02*
X0106699Y0235926D01*
X0106427Y0235328D02*
X0136203Y0235328D01*
X0136203Y0234729D02*
X0106156Y0234729D01*
X0105952Y0234131D02*
X0136203Y0234131D01*
X0136203Y0233532D02*
X0105754Y0233532D01*
X0105556Y0232934D02*
X0136203Y0232934D01*
X0136203Y0232335D02*
X0105358Y0232335D01*
X0105160Y0231737D02*
X0136203Y0231737D01*
X0136203Y0231138D02*
X0104962Y0231138D01*
X0104764Y0230540D02*
X0135644Y0230540D01*
X0134956Y0230176D02*
X0134956Y0230176D01*
X0134719Y0229941D02*
X0104566Y0229941D01*
X0104368Y0229343D02*
X0134116Y0229343D01*
X0133512Y0228744D02*
X0104170Y0228744D01*
X0103972Y0228146D02*
X0132908Y0228146D01*
X0132304Y0227547D02*
X0103774Y0227547D01*
X0103576Y0226949D02*
X0131701Y0226949D01*
X0131413Y0226664D02*
X0131413Y0226664D01*
X0131244Y0226350D02*
X0103378Y0226350D01*
X0103180Y0225752D02*
X0130921Y0225752D01*
X0130599Y0225153D02*
X0102982Y0225153D01*
X0102784Y0224555D02*
X0130276Y0224555D01*
X0129953Y0223956D02*
X0102586Y0223956D01*
X0102388Y0223358D02*
X0129630Y0223358D01*
X0129307Y0222759D02*
X0102190Y0222759D01*
X0101992Y0222161D02*
X0129022Y0222161D01*
X0128901Y0221562D02*
X0101794Y0221562D01*
X0101628Y0220964D02*
X0128780Y0220964D01*
X0128659Y0220365D02*
X0101499Y0220365D01*
X0101369Y0219767D02*
X0128538Y0219767D01*
X0128417Y0219168D02*
X0101240Y0219168D01*
X0101110Y0218570D02*
X0128296Y0218570D01*
X0128175Y0217971D02*
X0100981Y0217971D01*
X0100852Y0217373D02*
X0128057Y0217373D01*
X0128056Y0217383D02*
X0128056Y0217383D01*
X0128114Y0216774D02*
X0100722Y0216774D01*
X0100593Y0216176D02*
X0128172Y0216176D01*
X0128229Y0215577D02*
X0100463Y0215577D01*
X0100334Y0214979D02*
X0128286Y0214979D01*
X0128343Y0214380D02*
X0100204Y0214380D01*
X0100075Y0213782D02*
X0128401Y0213782D01*
X0128458Y0213183D02*
X0099945Y0213183D01*
X0099816Y0212584D02*
X0128515Y0212584D01*
X0128709Y0211986D02*
X0099687Y0211986D01*
X0099557Y0211387D02*
X0128955Y0211387D01*
X0129202Y0210789D02*
X0099428Y0210789D01*
X0099298Y0210190D02*
X0129448Y0210190D01*
X0129694Y0209592D02*
X0099169Y0209592D01*
X0099039Y0208993D02*
X0129941Y0208993D01*
X0130187Y0208395D02*
X0098910Y0208395D01*
X0098781Y0207796D02*
X0130436Y0207796D01*
X0130431Y0207803D02*
X0130431Y0207803D01*
X0130926Y0207198D02*
X0098674Y0207198D01*
X0098610Y0206599D02*
X0131416Y0206599D01*
X0131905Y0206001D02*
X0098546Y0206001D01*
X0098482Y0205402D02*
X0132395Y0205402D01*
X0132884Y0204804D02*
X0098418Y0204804D01*
X0098354Y0204205D02*
X0133374Y0204205D01*
X0133590Y0203942D02*
X0133590Y0203942D01*
X0133590Y0203942D01*
X0134089Y0203607D02*
X0098290Y0203607D01*
X0098226Y0203008D02*
X0134983Y0203008D01*
X0135877Y0202410D02*
X0098162Y0202410D01*
X0098098Y0201811D02*
X0136770Y0201811D01*
X0137664Y0201213D02*
X0098034Y0201213D01*
X0097970Y0200614D02*
X0139548Y0200614D01*
X0141517Y0200016D02*
X0097906Y0200016D01*
X0097842Y0199417D02*
X0312552Y0199417D01*
X0311517Y0200016D02*
X0148488Y0200016D01*
X0150457Y0200614D02*
X0309548Y0200614D01*
X0307735Y0201165D02*
X0307735Y0201165D01*
X0307664Y0201213D02*
X0152341Y0201213D01*
X0153235Y0201811D02*
X0306770Y0201811D01*
X0305877Y0202410D02*
X0154129Y0202410D01*
X0155022Y0203008D02*
X0304983Y0203008D01*
X0304089Y0203607D02*
X0155916Y0203607D01*
X0156416Y0203942D02*
X0156416Y0203942D01*
X0156631Y0204205D02*
X0303374Y0204205D01*
X0303590Y0203942D02*
X0303590Y0203942D01*
X0303590Y0203942D01*
X0302884Y0204804D02*
X0157121Y0204804D01*
X0157611Y0205402D02*
X0302395Y0205402D01*
X0301905Y0206001D02*
X0158100Y0206001D01*
X0158590Y0206599D02*
X0301416Y0206599D01*
X0300926Y0207198D02*
X0159079Y0207198D01*
X0159569Y0207796D02*
X0300436Y0207796D01*
X0300431Y0207803D02*
X0300431Y0207803D01*
X0300187Y0208395D02*
X0159818Y0208395D01*
X0160065Y0208993D02*
X0299941Y0208993D01*
X0299694Y0209592D02*
X0160311Y0209592D01*
X0160557Y0210190D02*
X0299448Y0210190D01*
X0299202Y0210789D02*
X0160804Y0210789D01*
X0161050Y0211387D02*
X0298955Y0211387D01*
X0298709Y0211986D02*
X0161297Y0211986D01*
X0161474Y0212417D02*
X0161474Y0212417D01*
X0161490Y0212584D02*
X0298515Y0212584D01*
X0298458Y0213183D02*
X0161547Y0213183D01*
X0161605Y0213782D02*
X0298401Y0213782D01*
X0298343Y0214380D02*
X0161662Y0214380D01*
X0161719Y0214979D02*
X0298286Y0214979D01*
X0298229Y0215577D02*
X0161776Y0215577D01*
X0161834Y0216176D02*
X0298172Y0216176D01*
X0298114Y0216774D02*
X0161891Y0216774D01*
X0161948Y0217373D02*
X0298057Y0217373D01*
X0298056Y0217383D02*
X0298056Y0217383D01*
X0298175Y0217971D02*
X0161830Y0217971D01*
X0161949Y0217383D02*
X0161949Y0217383D01*
X0161709Y0218570D02*
X0298296Y0218570D01*
X0298417Y0219168D02*
X0161588Y0219168D01*
X0161467Y0219767D02*
X0298538Y0219767D01*
X0298659Y0220365D02*
X0161346Y0220365D01*
X0161225Y0220964D02*
X0298780Y0220964D01*
X0298901Y0221562D02*
X0161104Y0221562D01*
X0160983Y0222161D02*
X0299022Y0222161D01*
X0299307Y0222759D02*
X0160698Y0222759D01*
X0160960Y0222273D02*
X0160960Y0222273D01*
X0160375Y0223358D02*
X0299630Y0223358D01*
X0299953Y0223956D02*
X0160052Y0223956D01*
X0159730Y0224555D02*
X0300276Y0224555D01*
X0300599Y0225153D02*
X0159407Y0225153D01*
X0159084Y0225752D02*
X0300921Y0225752D01*
X0301244Y0226350D02*
X0158761Y0226350D01*
X0158592Y0226664D02*
X0158592Y0226664D01*
X0158305Y0226949D02*
X0301701Y0226949D01*
X0301413Y0226664D02*
X0301413Y0226664D01*
X0302304Y0227547D02*
X0157701Y0227547D01*
X0157097Y0228146D02*
X0302908Y0228146D01*
X0303512Y0228744D02*
X0156494Y0228744D01*
X0155890Y0229343D02*
X0304116Y0229343D01*
X0304719Y0229941D02*
X0155286Y0229941D01*
X0155049Y0230176D02*
X0155049Y0230176D01*
X0154361Y0230540D02*
X0305644Y0230540D01*
X0304956Y0230176D02*
X0304956Y0230176D01*
X0306203Y0231138D02*
X0153803Y0231138D01*
X0153803Y0231737D02*
X0306203Y0231737D01*
X0306203Y0232335D02*
X0153803Y0232335D01*
X0153803Y0232934D02*
X0306203Y0232934D01*
X0306203Y0233532D02*
X0153803Y0233532D01*
X0153803Y0234131D02*
X0306203Y0234131D01*
X0306203Y0234729D02*
X0153803Y0234729D01*
X0153803Y0235328D02*
X0306203Y0235328D01*
X0306203Y0235926D02*
X0153803Y0235926D01*
X0153803Y0236525D02*
X0306203Y0236525D01*
X0306203Y0237123D02*
X0153803Y0237123D01*
X0153803Y0237722D02*
X0306203Y0237722D01*
X0306203Y0238320D02*
X0153803Y0238320D01*
X0153803Y0238919D02*
X0306203Y0238919D01*
X0306203Y0239518D02*
X0153803Y0239518D01*
X0153803Y0240116D02*
X0306203Y0240116D01*
X0306203Y0240715D02*
X0153803Y0240715D01*
X0153803Y0241313D02*
X0306203Y0241313D01*
X0306203Y0241912D02*
X0153803Y0241912D01*
X0153803Y0242510D02*
X0306203Y0242510D01*
X0306203Y0243109D02*
X0153803Y0243109D01*
X0153803Y0243707D02*
X0306203Y0243707D01*
X0306203Y0244306D02*
X0153803Y0244306D01*
X0153803Y0244904D02*
X0306203Y0244904D01*
X0306203Y0245503D02*
X0154003Y0245503D01*
X0154003Y0246101D02*
X0306203Y0246101D01*
X0306203Y0246700D02*
X0154003Y0246700D01*
X0154003Y0247298D02*
X0306203Y0247298D01*
X0306203Y0247897D02*
X0153803Y0247897D01*
X0153598Y0248495D02*
X0306408Y0248495D01*
X0306656Y0249094D02*
X0153350Y0249094D01*
X0153102Y0249692D02*
X0306903Y0249692D01*
X0307151Y0250291D02*
X0152854Y0250291D01*
X0152606Y0250889D02*
X0307399Y0250889D01*
X0307542Y0251235D02*
X0307542Y0251235D01*
X0307795Y0251488D02*
X0152210Y0251488D01*
X0152463Y0251235D02*
X0152463Y0251235D01*
X0151612Y0252086D02*
X0308394Y0252086D01*
X0308992Y0252685D02*
X0151013Y0252685D01*
X0150414Y0253283D02*
X0309591Y0253283D01*
X0310432Y0253882D02*
X0149573Y0253882D01*
X0149987Y0253710D02*
X0149987Y0253710D01*
X0148128Y0254480D02*
X0311877Y0254480D01*
X0279264Y0287997D02*
X0144598Y0287997D01*
X0145282Y0288595D02*
X0278033Y0288595D01*
X0276801Y0289194D02*
X0145966Y0289194D01*
X0146650Y0289792D02*
X0275570Y0289792D01*
X0274339Y0290391D02*
X0147334Y0290391D01*
X0148054Y0290989D02*
X0272865Y0290989D01*
X0271170Y0291588D02*
X0148906Y0291588D01*
X0149758Y0292187D02*
X0269474Y0292187D01*
X0267779Y0292785D02*
X0150611Y0292785D01*
X0151463Y0293384D02*
X0266083Y0293384D01*
X0264388Y0293982D02*
X0152315Y0293982D01*
X0153167Y0294581D02*
X0262692Y0294581D01*
X0260644Y0295179D02*
X0154019Y0295179D01*
X0154871Y0295778D02*
X0258043Y0295778D01*
X0255442Y0296376D02*
X0155723Y0296376D01*
X0156575Y0296975D02*
X0252842Y0296975D01*
X0250241Y0297573D02*
X0157427Y0297573D01*
X0158279Y0298172D02*
X0246081Y0298172D01*
X0240810Y0298770D02*
X0159131Y0298770D01*
X0160125Y0299369D02*
X0232887Y0299369D01*
X0230003Y0301250D02*
X0230003Y0311250D01*
X0221426Y0309543D02*
X0180572Y0309543D01*
X0179154Y0308945D02*
X0221453Y0308945D01*
X0221453Y0308346D02*
X0177736Y0308346D01*
X0176317Y0307748D02*
X0221453Y0307748D01*
X0221453Y0307149D02*
X0174899Y0307149D01*
X0173481Y0306551D02*
X0221453Y0306551D01*
X0221453Y0305952D02*
X0172063Y0305952D01*
X0170930Y0305354D02*
X0221453Y0305354D01*
X0221453Y0304755D02*
X0169849Y0304755D01*
X0168769Y0304157D02*
X0221453Y0304157D01*
X0221786Y0303558D02*
X0167688Y0303558D01*
X0166608Y0302960D02*
X0222385Y0302960D01*
X0228203Y0302361D02*
X0165527Y0302361D01*
X0164447Y0301763D02*
X0228203Y0301763D01*
X0228203Y0301995D02*
X0228203Y0301995D01*
X0228203Y0301164D02*
X0163366Y0301164D01*
X0162286Y0300566D02*
X0228203Y0300566D01*
X0228203Y0300504D02*
X0228203Y0300504D01*
X0228203Y0300504D01*
X0228740Y0299967D02*
X0161205Y0299967D01*
X0181990Y0310142D02*
X0221256Y0310142D01*
X0221008Y0310740D02*
X0183408Y0310740D01*
X0184826Y0311339D02*
X0221003Y0311339D01*
X0221081Y0311937D02*
X0186788Y0311937D01*
X0188773Y0312536D02*
X0221329Y0312536D01*
X0221373Y0313134D02*
X0190758Y0313134D01*
X0192743Y0313733D02*
X0221271Y0313733D01*
X0221353Y0314331D02*
X0194728Y0314331D01*
X0196713Y0314930D02*
X0221352Y0314930D01*
X0221373Y0315528D02*
X0198853Y0315528D01*
X0202028Y0316127D02*
X0221373Y0316127D01*
X0221373Y0316725D02*
X0205202Y0316725D01*
X0208376Y0317324D02*
X0221373Y0317324D01*
X0221373Y0317922D02*
X0211550Y0317922D01*
X0217943Y0318521D02*
X0221373Y0318521D01*
X0221373Y0318172D02*
X0221373Y0318172D01*
X0309199Y0197622D02*
X0097650Y0197622D01*
X0097714Y0198220D02*
X0310236Y0198220D01*
X0311272Y0198819D02*
X0097778Y0198819D01*
X0097586Y0197023D02*
X0308477Y0197023D01*
X0307878Y0196425D02*
X0097522Y0196425D01*
X0097458Y0195826D02*
X0307280Y0195826D01*
X0306681Y0195228D02*
X0144736Y0195228D01*
X0144125Y0195450D02*
X0140880Y0195450D01*
X0137832Y0194340D01*
X0137832Y0194340D01*
X0135346Y0192255D01*
X0133724Y0189445D01*
X0133161Y0186250D01*
X0097191Y0186250D01*
X0097191Y0186849D02*
X0133266Y0186849D01*
X0133372Y0187447D02*
X0097191Y0187447D01*
X0097191Y0188046D02*
X0133477Y0188046D01*
X0133583Y0188644D02*
X0097191Y0188644D01*
X0097191Y0189243D02*
X0133688Y0189243D01*
X0133724Y0189445D02*
X0133724Y0189445D01*
X0133953Y0189841D02*
X0097191Y0189841D01*
X0097191Y0190440D02*
X0134298Y0190440D01*
X0134644Y0191038D02*
X0097191Y0191038D01*
X0097191Y0191637D02*
X0134989Y0191637D01*
X0135335Y0192235D02*
X0097191Y0192235D01*
X0097191Y0192834D02*
X0136036Y0192834D01*
X0135346Y0192255D02*
X0135346Y0192255D01*
X0135346Y0192255D01*
X0136749Y0193432D02*
X0097202Y0193432D01*
X0097266Y0194031D02*
X0137463Y0194031D01*
X0138625Y0194629D02*
X0097330Y0194629D01*
X0097394Y0195228D02*
X0140270Y0195228D01*
X0144125Y0195450D02*
X0147174Y0194340D01*
X0147174Y0194340D01*
X0149659Y0192255D01*
X0149659Y0192255D01*
X0151281Y0189445D01*
X0151281Y0189445D01*
X0151845Y0186250D01*
X0303503Y0186250D01*
X0303503Y0186849D02*
X0151739Y0186849D01*
X0151634Y0187447D02*
X0303503Y0187447D01*
X0303503Y0188046D02*
X0151528Y0188046D01*
X0151422Y0188644D02*
X0303650Y0188644D01*
X0303811Y0189243D02*
X0151317Y0189243D01*
X0151053Y0189841D02*
X0303971Y0189841D01*
X0304131Y0190440D02*
X0150707Y0190440D01*
X0150362Y0191038D02*
X0304292Y0191038D01*
X0304452Y0191637D02*
X0150016Y0191637D01*
X0149670Y0192235D02*
X0304792Y0192235D01*
X0305138Y0192834D02*
X0148969Y0192834D01*
X0148256Y0193432D02*
X0305483Y0193432D01*
X0305829Y0194031D02*
X0147543Y0194031D01*
X0146380Y0194629D02*
X0306175Y0194629D01*
X0303503Y0185651D02*
X0151739Y0185651D01*
X0151634Y0185053D02*
X0303503Y0185053D01*
X0303503Y0184454D02*
X0151528Y0184454D01*
X0151422Y0183856D02*
X0303650Y0183856D01*
X0303811Y0183257D02*
X0151317Y0183257D01*
X0151281Y0183055D02*
X0151845Y0186250D01*
X0151845Y0186250D01*
X0151281Y0183055D02*
X0151281Y0183055D01*
X0149659Y0180245D01*
X0149659Y0180245D01*
X0149659Y0180245D01*
X0147174Y0178160D01*
X0147174Y0178160D01*
X0144125Y0177050D01*
X0141716Y0177050D01*
X0140880Y0177050D01*
X0137832Y0178160D01*
X0137832Y0178160D01*
X0135346Y0180245D01*
X0135346Y0180245D01*
X0133724Y0183055D01*
X0133724Y0183055D01*
X0133161Y0186250D01*
X0133161Y0186250D01*
X0133266Y0185651D02*
X0097191Y0185651D01*
X0097191Y0185053D02*
X0133372Y0185053D01*
X0133477Y0184454D02*
X0097191Y0184454D01*
X0097191Y0183856D02*
X0133583Y0183856D01*
X0133688Y0183257D02*
X0097191Y0183257D01*
X0097191Y0182659D02*
X0133953Y0182659D01*
X0134298Y0182060D02*
X0097191Y0182060D01*
X0097191Y0181462D02*
X0134644Y0181462D01*
X0134989Y0180863D02*
X0097191Y0180863D01*
X0097191Y0180265D02*
X0135335Y0180265D01*
X0136036Y0179666D02*
X0097191Y0179666D01*
X0097202Y0179068D02*
X0136749Y0179068D01*
X0137463Y0178469D02*
X0097266Y0178469D01*
X0097330Y0177871D02*
X0138625Y0177871D01*
X0140270Y0177272D02*
X0097394Y0177272D01*
X0097458Y0176674D02*
X0307280Y0176674D01*
X0306681Y0177272D02*
X0144736Y0177272D01*
X0146380Y0177871D02*
X0306175Y0177871D01*
X0305829Y0178469D02*
X0147543Y0178469D01*
X0148256Y0179068D02*
X0305483Y0179068D01*
X0305138Y0179666D02*
X0148969Y0179666D01*
X0149670Y0180265D02*
X0304792Y0180265D01*
X0304452Y0180863D02*
X0150016Y0180863D01*
X0150362Y0181462D02*
X0304292Y0181462D01*
X0304131Y0182060D02*
X0150707Y0182060D01*
X0151053Y0182659D02*
X0303971Y0182659D01*
X0307878Y0176075D02*
X0097522Y0176075D01*
X0097586Y0175477D02*
X0308477Y0175477D01*
X0309199Y0174878D02*
X0097650Y0174878D01*
X0097714Y0174280D02*
X0310236Y0174280D01*
X0311272Y0173681D02*
X0097778Y0173681D01*
X0097842Y0173083D02*
X0312552Y0173083D01*
X0314785Y0172484D02*
X0097906Y0172484D01*
X0097970Y0171886D02*
X0336897Y0171886D01*
X0336964Y0172484D02*
X0320220Y0172484D01*
X0322454Y0173083D02*
X0337031Y0173083D01*
X0337099Y0173681D02*
X0323733Y0173681D01*
X0324770Y0174280D02*
X0337166Y0174280D01*
X0337234Y0174878D02*
X0325806Y0174878D01*
X0326528Y0175477D02*
X0337301Y0175477D01*
X0337369Y0176075D02*
X0327127Y0176075D01*
X0327725Y0176674D02*
X0337436Y0176674D01*
X0337504Y0177272D02*
X0328324Y0177272D01*
X0328831Y0177871D02*
X0337571Y0177871D01*
X0337638Y0178469D02*
X0329176Y0178469D01*
X0329522Y0179068D02*
X0337706Y0179068D01*
X0337773Y0179666D02*
X0329867Y0179666D01*
X0330213Y0180265D02*
X0337835Y0180265D01*
X0337852Y0180863D02*
X0330553Y0180863D01*
X0330714Y0181462D02*
X0337868Y0181462D01*
X0337885Y0182060D02*
X0330874Y0182060D01*
X0331034Y0182659D02*
X0337902Y0182659D01*
X0337919Y0183257D02*
X0331195Y0183257D01*
X0331355Y0183856D02*
X0337936Y0183856D01*
X0336829Y0171287D02*
X0098034Y0171287D01*
X0098098Y0170689D02*
X0336762Y0170689D01*
X0336694Y0170090D02*
X0098162Y0170090D01*
X0098226Y0169492D02*
X0336627Y0169492D01*
X0336559Y0168893D02*
X0098290Y0168893D01*
X0098354Y0168295D02*
X0336492Y0168295D01*
X0336371Y0167696D02*
X0098418Y0167696D01*
X0098482Y0167098D02*
X0336234Y0167098D01*
X0336098Y0166499D02*
X0098546Y0166499D01*
X0098610Y0165901D02*
X0335961Y0165901D01*
X0335825Y0165302D02*
X0098674Y0165302D01*
X0098781Y0164704D02*
X0335688Y0164704D01*
X0335551Y0164105D02*
X0098910Y0164105D01*
X0099039Y0163507D02*
X0335415Y0163507D01*
X0335278Y0162908D02*
X0099169Y0162908D01*
X0099298Y0162310D02*
X0335142Y0162310D01*
X0335005Y0161711D02*
X0099428Y0161711D01*
X0099557Y0161113D02*
X0334868Y0161113D01*
X0334732Y0160514D02*
X0099687Y0160514D01*
X0099816Y0159916D02*
X0334595Y0159916D01*
X0334459Y0159317D02*
X0099945Y0159317D01*
X0100075Y0158718D02*
X0334322Y0158718D01*
X0334185Y0158120D02*
X0100204Y0158120D01*
X0100334Y0157521D02*
X0334049Y0157521D01*
X0333912Y0156923D02*
X0100463Y0156923D01*
X0100593Y0156324D02*
X0333772Y0156324D01*
X0333563Y0155726D02*
X0100722Y0155726D01*
X0100852Y0155127D02*
X0333353Y0155127D01*
X0333144Y0154529D02*
X0100981Y0154529D01*
X0101110Y0153930D02*
X0332934Y0153930D01*
X0332725Y0153332D02*
X0101240Y0153332D01*
X0101369Y0152733D02*
X0332516Y0152733D01*
X0332306Y0152135D02*
X0101499Y0152135D01*
X0101628Y0151536D02*
X0332097Y0151536D01*
X0331887Y0150938D02*
X0101794Y0150938D01*
X0101992Y0150339D02*
X0331678Y0150339D01*
X0331468Y0149741D02*
X0102190Y0149741D01*
X0102388Y0149142D02*
X0331259Y0149142D01*
X0331050Y0148544D02*
X0102586Y0148544D01*
X0102784Y0147945D02*
X0330840Y0147945D01*
X0330631Y0147347D02*
X0102982Y0147347D01*
X0103180Y0146748D02*
X0330421Y0146748D01*
X0330212Y0146150D02*
X0103378Y0146150D01*
X0103576Y0145551D02*
X0330002Y0145551D01*
X0329793Y0144953D02*
X0103774Y0144953D01*
X0103972Y0144354D02*
X0329509Y0144354D01*
X0329221Y0143756D02*
X0104170Y0143756D01*
X0104368Y0143157D02*
X0328933Y0143157D01*
X0328644Y0142559D02*
X0104566Y0142559D01*
X0104764Y0141960D02*
X0328356Y0141960D01*
X0328068Y0141362D02*
X0104962Y0141362D01*
X0125023Y0104852D02*
X0217360Y0104852D01*
X0217015Y0104254D02*
X0125467Y0104254D01*
X0125912Y0103655D02*
X0216823Y0103655D01*
X0216663Y0103057D02*
X0126357Y0103057D01*
X0126801Y0102458D02*
X0216502Y0102458D01*
X0216342Y0101860D02*
X0127246Y0101860D01*
X0127709Y0101261D02*
X0216182Y0101261D01*
X0216021Y0100663D02*
X0128262Y0100663D01*
X0128814Y0100064D02*
X0216003Y0100064D01*
X0216003Y0099466D02*
X0129367Y0099466D01*
X0129919Y0098867D02*
X0216003Y0098867D01*
X0216003Y0098269D02*
X0130472Y0098269D01*
X0131024Y0097670D02*
X0216003Y0097670D01*
X0216003Y0097072D02*
X0131577Y0097072D01*
X0132129Y0096473D02*
X0216119Y0096473D01*
X0216279Y0095875D02*
X0132682Y0095875D01*
X0133234Y0095276D02*
X0216440Y0095276D01*
X0216600Y0094678D02*
X0133787Y0094678D01*
X0134339Y0094079D02*
X0216760Y0094079D01*
X0216921Y0093481D02*
X0134892Y0093481D01*
X0135444Y0092882D02*
X0217225Y0092882D01*
X0217570Y0092284D02*
X0135997Y0092284D01*
X0136549Y0091685D02*
X0217916Y0091685D01*
X0218261Y0091087D02*
X0137102Y0091087D01*
X0137758Y0090488D02*
X0218607Y0090488D01*
X0219064Y0089890D02*
X0138442Y0089890D01*
X0139126Y0089291D02*
X0219663Y0089291D01*
X0219396Y0088693D02*
X0139810Y0088693D01*
X0140494Y0088094D02*
X0218917Y0088094D01*
X0218420Y0087496D02*
X0141178Y0087496D01*
X0141862Y0086897D02*
X0217959Y0086897D01*
X0217985Y0086299D02*
X0142546Y0086299D01*
X0143230Y0085700D02*
X0218003Y0085700D01*
X0218003Y0085102D02*
X0143914Y0085102D01*
X0144598Y0084503D02*
X0218003Y0084503D01*
X0218003Y0083905D02*
X0145282Y0083905D01*
X0145966Y0083306D02*
X0218003Y0083306D01*
X0218003Y0082708D02*
X0146650Y0082708D01*
X0147334Y0082109D02*
X0218003Y0082109D01*
X0218003Y0081511D02*
X0148054Y0081511D01*
X0148906Y0080912D02*
X0218003Y0080912D01*
X0218003Y0080313D02*
X0149758Y0080313D01*
X0150611Y0079715D02*
X0218003Y0079715D01*
X0218003Y0079116D02*
X0151463Y0079116D01*
X0152315Y0078518D02*
X0218003Y0078518D01*
X0218003Y0077919D02*
X0153167Y0077919D01*
X0154019Y0077321D02*
X0218003Y0077321D01*
X0218003Y0076722D02*
X0154871Y0076722D01*
X0155723Y0076124D02*
X0218003Y0076124D01*
X0218003Y0075525D02*
X0156575Y0075525D01*
X0157427Y0074927D02*
X0218003Y0074927D01*
X0218003Y0074328D02*
X0158279Y0074328D01*
X0159131Y0073730D02*
X0218003Y0073730D01*
X0218003Y0073131D02*
X0160125Y0073131D01*
X0161205Y0072533D02*
X0218003Y0072533D01*
X0218003Y0071934D02*
X0162286Y0071934D01*
X0163366Y0071336D02*
X0218003Y0071336D01*
X0218003Y0070737D02*
X0164447Y0070737D01*
X0165527Y0070139D02*
X0218003Y0070139D01*
X0218003Y0069540D02*
X0166608Y0069540D01*
X0167688Y0068942D02*
X0218003Y0068942D01*
X0218003Y0068343D02*
X0168769Y0068343D01*
X0169849Y0067745D02*
X0218003Y0067745D01*
X0218003Y0067146D02*
X0170930Y0067146D01*
X0172063Y0066548D02*
X0218003Y0066548D01*
X0217759Y0065949D02*
X0211720Y0065949D01*
X0212865Y0065351D02*
X0216749Y0065351D01*
X0216151Y0064752D02*
X0213572Y0064752D01*
X0214073Y0064154D02*
X0215577Y0064154D01*
X0215329Y0063555D02*
X0214440Y0063555D01*
X0214705Y0062957D02*
X0215081Y0062957D01*
X0214907Y0059964D02*
X0214842Y0059964D01*
X0214648Y0059366D02*
X0215155Y0059366D01*
X0215403Y0058767D02*
X0214349Y0058767D01*
X0213944Y0058169D02*
X0215730Y0058169D01*
X0216329Y0057570D02*
X0213394Y0057570D01*
X0212619Y0056972D02*
X0216927Y0056972D01*
X0218188Y0056373D02*
X0211173Y0056373D01*
X0210303Y0056373D02*
X0209703Y0056373D01*
X0209703Y0056250D02*
X0209703Y0060950D01*
X0205003Y0060950D01*
X0205003Y0060856D01*
X0205126Y0060079D01*
X0205369Y0059331D01*
X0205726Y0058629D01*
X0206189Y0057993D01*
X0206745Y0057436D01*
X0207382Y0056974D01*
X0208083Y0056616D01*
X0208832Y0056373D01*
X0209609Y0056250D01*
X0209703Y0056250D01*
X0209703Y0056972D02*
X0210303Y0056972D01*
X0210303Y0057570D02*
X0209703Y0057570D01*
X0209703Y0058169D02*
X0210303Y0058169D01*
X0210303Y0058767D02*
X0209703Y0058767D01*
X0209703Y0059366D02*
X0210303Y0059366D01*
X0210303Y0059964D02*
X0209703Y0059964D01*
X0209703Y0060563D02*
X0210303Y0060563D01*
X0210003Y0061250D02*
X0210003Y0071250D01*
X0209703Y0065949D02*
X0210303Y0065949D01*
X0210303Y0065351D02*
X0209703Y0065351D01*
X0209703Y0064752D02*
X0210303Y0064752D01*
X0210303Y0064154D02*
X0209703Y0064154D01*
X0209703Y0063555D02*
X0210303Y0063555D01*
X0210303Y0062957D02*
X0209703Y0062957D01*
X0209703Y0062358D02*
X0210303Y0062358D01*
X0210303Y0061760D02*
X0209703Y0061760D01*
X0209703Y0061161D02*
X0184826Y0061161D01*
X0183408Y0061760D02*
X0205021Y0061760D01*
X0205116Y0062358D02*
X0181990Y0062358D01*
X0180572Y0062957D02*
X0205300Y0062957D01*
X0205566Y0063555D02*
X0179154Y0063555D01*
X0177736Y0064154D02*
X0205932Y0064154D01*
X0206434Y0064752D02*
X0176317Y0064752D01*
X0174899Y0065351D02*
X0207140Y0065351D01*
X0208285Y0065949D02*
X0173481Y0065949D01*
X0186788Y0060563D02*
X0205049Y0060563D01*
X0205163Y0059964D02*
X0188773Y0059964D01*
X0190758Y0059366D02*
X0205358Y0059366D01*
X0205656Y0058767D02*
X0192743Y0058767D01*
X0194728Y0058169D02*
X0206061Y0058169D01*
X0206612Y0057570D02*
X0196713Y0057570D01*
X0198853Y0056972D02*
X0207386Y0056972D01*
X0208832Y0056373D02*
X0202028Y0056373D01*
X0205202Y0055775D02*
X0255553Y0055775D01*
X0258003Y0056373D02*
X0251817Y0056373D01*
X0251831Y0055176D02*
X0208376Y0055176D01*
X0211550Y0054578D02*
X0247361Y0054578D01*
X0248188Y0056373D02*
X0241817Y0056373D01*
X0243078Y0056972D02*
X0246927Y0056972D01*
X0246329Y0057570D02*
X0243677Y0057570D01*
X0244275Y0058169D02*
X0245730Y0058169D01*
X0245403Y0058767D02*
X0244603Y0058767D01*
X0244851Y0059366D02*
X0245155Y0059366D01*
X0240003Y0061250D02*
X0240003Y0071250D01*
X0238730Y0072533D02*
X0232003Y0072533D01*
X0232003Y0073131D02*
X0240609Y0073131D01*
X0242300Y0074927D02*
X0251878Y0074927D01*
X0250832Y0076124D02*
X0257784Y0076124D01*
X0258699Y0077919D02*
X0263706Y0077919D01*
X0262940Y0079116D02*
X0267404Y0079116D01*
X0266361Y0080313D02*
X0271069Y0080313D01*
X0272387Y0080912D02*
X0268071Y0080912D01*
X0269252Y0079715D02*
X0264650Y0079715D01*
X0265555Y0078518D02*
X0261229Y0078518D01*
X0261057Y0078458D02*
X0261057Y0078458D01*
X0261858Y0077321D02*
X0256077Y0077321D01*
X0254831Y0075525D02*
X0247612Y0075525D01*
X0248793Y0075658D02*
X0248793Y0075658D01*
X0248925Y0074328D02*
X0236988Y0074328D01*
X0238203Y0071934D02*
X0232003Y0071934D01*
X0232003Y0071336D02*
X0238188Y0071336D01*
X0238203Y0070737D02*
X0232003Y0070737D01*
X0232003Y0070139D02*
X0238203Y0070139D01*
X0238203Y0069540D02*
X0232003Y0069540D01*
X0232003Y0068942D02*
X0238203Y0068942D01*
X0238203Y0068343D02*
X0232003Y0068343D01*
X0232003Y0067745D02*
X0238203Y0067745D01*
X0238203Y0067146D02*
X0232003Y0067146D01*
X0232003Y0066548D02*
X0238203Y0066548D01*
X0237759Y0065949D02*
X0232246Y0065949D01*
X0233256Y0065351D02*
X0236749Y0065351D01*
X0236151Y0064752D02*
X0233854Y0064752D01*
X0234428Y0064154D02*
X0235577Y0064154D01*
X0235329Y0063555D02*
X0234676Y0063555D01*
X0234924Y0062957D02*
X0235081Y0062957D01*
X0235155Y0059366D02*
X0234851Y0059366D01*
X0234603Y0058767D02*
X0235403Y0058767D01*
X0235730Y0058169D02*
X0234275Y0058169D01*
X0233677Y0057570D02*
X0236329Y0057570D01*
X0236927Y0056972D02*
X0233078Y0056972D01*
X0231817Y0056373D02*
X0238188Y0056373D01*
X0242892Y0053979D02*
X0217943Y0053979D01*
X0221817Y0056373D02*
X0228188Y0056373D01*
X0226927Y0056972D02*
X0223078Y0056972D01*
X0223677Y0057570D02*
X0226329Y0057570D01*
X0225730Y0058169D02*
X0224275Y0058169D01*
X0224603Y0058767D02*
X0225403Y0058767D01*
X0225155Y0059366D02*
X0224851Y0059366D01*
X0224924Y0062957D02*
X0225081Y0062957D01*
X0225329Y0063555D02*
X0224676Y0063555D01*
X0224428Y0064154D02*
X0225577Y0064154D01*
X0226151Y0064752D02*
X0223854Y0064752D01*
X0223256Y0065351D02*
X0226749Y0065351D01*
X0227759Y0065949D02*
X0222246Y0065949D01*
X0222003Y0066548D02*
X0228003Y0066548D01*
X0228003Y0067146D02*
X0222003Y0067146D01*
X0222003Y0067745D02*
X0228003Y0067745D01*
X0228003Y0068343D02*
X0222003Y0068343D01*
X0222003Y0068942D02*
X0228003Y0068942D01*
X0228003Y0069540D02*
X0222003Y0069540D01*
X0222003Y0070139D02*
X0228003Y0070139D01*
X0228003Y0070737D02*
X0222003Y0070737D01*
X0222003Y0071336D02*
X0228003Y0071336D01*
X0228003Y0071934D02*
X0222003Y0071934D01*
X0222003Y0072533D02*
X0228003Y0072533D01*
X0228003Y0073131D02*
X0222003Y0073131D01*
X0222003Y0073730D02*
X0228003Y0073730D01*
X0228003Y0074328D02*
X0222003Y0074328D01*
X0222003Y0074927D02*
X0228003Y0074927D01*
X0228003Y0075525D02*
X0222003Y0075525D01*
X0222003Y0076124D02*
X0228003Y0076124D01*
X0228003Y0076722D02*
X0222003Y0076722D01*
X0222003Y0077321D02*
X0228245Y0077321D01*
X0228844Y0077919D02*
X0222003Y0077919D01*
X0222003Y0078518D02*
X0236929Y0078518D01*
X0233158Y0085102D02*
X0267419Y0085102D01*
X0269129Y0085700D02*
X0235392Y0085700D01*
X0236436Y0086299D02*
X0270840Y0086299D01*
X0272217Y0086897D02*
X0237473Y0086897D01*
X0238510Y0087496D02*
X0273460Y0087496D01*
X0274703Y0088094D02*
X0239146Y0088094D01*
X0239744Y0088693D02*
X0275946Y0088693D01*
X0277189Y0089291D02*
X0240343Y0089291D01*
X0240941Y0089890D02*
X0278431Y0089890D01*
X0279674Y0090488D02*
X0241399Y0090488D01*
X0241744Y0091087D02*
X0280917Y0091087D01*
X0282160Y0091685D02*
X0242090Y0091685D01*
X0242435Y0092284D02*
X0283132Y0092284D01*
X0284085Y0092882D02*
X0242781Y0092882D01*
X0243085Y0093481D02*
X0285037Y0093481D01*
X0285990Y0094079D02*
X0243245Y0094079D01*
X0243405Y0094678D02*
X0286942Y0094678D01*
X0287895Y0095276D02*
X0243566Y0095276D01*
X0243726Y0095875D02*
X0288847Y0095875D01*
X0289800Y0096473D02*
X0243886Y0096473D01*
X0244003Y0097072D02*
X0290752Y0097072D01*
X0291705Y0097670D02*
X0244003Y0097670D01*
X0244003Y0098269D02*
X0292624Y0098269D01*
X0292499Y0098169D02*
X0292499Y0098169D01*
X0293374Y0098867D02*
X0244003Y0098867D01*
X0244003Y0099466D02*
X0294125Y0099466D01*
X0294875Y0100064D02*
X0244003Y0100064D01*
X0243984Y0100663D02*
X0295626Y0100663D01*
X0296376Y0101261D02*
X0243824Y0101261D01*
X0243663Y0101860D02*
X0297127Y0101860D01*
X0297877Y0102458D02*
X0243503Y0102458D01*
X0243343Y0103057D02*
X0298628Y0103057D01*
X0299378Y0103655D02*
X0243182Y0103655D01*
X0242991Y0104254D02*
X0300129Y0104254D01*
X0300879Y0104852D02*
X0242645Y0104852D01*
X0242300Y0105451D02*
X0301630Y0105451D01*
X0302297Y0106049D02*
X0241954Y0106049D01*
X0241609Y0106648D02*
X0302895Y0106648D01*
X0303494Y0107247D02*
X0241263Y0107247D01*
X0240707Y0107845D02*
X0304093Y0107845D01*
X0304691Y0108444D02*
X0240108Y0108444D01*
X0239510Y0109042D02*
X0305290Y0109042D01*
X0305888Y0109641D02*
X0238911Y0109641D01*
X0238103Y0110239D02*
X0306487Y0110239D01*
X0307085Y0110838D02*
X0237066Y0110838D01*
X0236030Y0111436D02*
X0307684Y0111436D01*
X0308282Y0112035D02*
X0234516Y0112035D01*
X0232282Y0112633D02*
X0308881Y0112633D01*
X0311785Y0109641D02*
X0313770Y0109641D01*
X0314266Y0110239D02*
X0312384Y0110239D01*
X0312982Y0110838D02*
X0314762Y0110838D01*
X0315258Y0111436D02*
X0313581Y0111436D01*
X0314071Y0112035D02*
X0315754Y0112035D01*
X0316250Y0112633D02*
X0314549Y0112633D01*
X0315026Y0113232D02*
X0316746Y0113232D01*
X0317242Y0113830D02*
X0315503Y0113830D01*
X0315980Y0114429D02*
X0317738Y0114429D01*
X0318234Y0115027D02*
X0316458Y0115027D01*
X0316935Y0115626D02*
X0318730Y0115626D01*
X0319226Y0116224D02*
X0317412Y0116224D01*
X0317890Y0116823D02*
X0319722Y0116823D01*
X0320218Y0117421D02*
X0318367Y0117421D01*
X0318844Y0118020D02*
X0320714Y0118020D01*
X0321210Y0118618D02*
X0319322Y0118618D01*
X0319799Y0119217D02*
X0321619Y0119217D01*
X0322010Y0119815D02*
X0320276Y0119815D01*
X0313274Y0109042D02*
X0311187Y0109042D01*
X0310588Y0108444D02*
X0312693Y0108444D01*
X0312071Y0107845D02*
X0309990Y0107845D01*
X0309391Y0107247D02*
X0311448Y0107247D01*
X0310826Y0106648D02*
X0308793Y0106648D01*
X0308194Y0106049D02*
X0310203Y0106049D01*
X0309580Y0105451D02*
X0307596Y0105451D01*
X0306997Y0104852D02*
X0308958Y0104852D01*
X0308335Y0104254D02*
X0306399Y0104254D01*
X0305800Y0103655D02*
X0307713Y0103655D01*
X0307090Y0103057D02*
X0305202Y0103057D01*
X0304565Y0102458D02*
X0306467Y0102458D01*
X0305845Y0101860D02*
X0303815Y0101860D01*
X0303064Y0101261D02*
X0305222Y0101261D01*
X0304600Y0100663D02*
X0302314Y0100663D01*
X0301563Y0100064D02*
X0303977Y0100064D01*
X0303223Y0099466D02*
X0300813Y0099466D01*
X0300062Y0098867D02*
X0302440Y0098867D01*
X0301657Y0098269D02*
X0299312Y0098269D01*
X0298561Y0097670D02*
X0300874Y0097670D01*
X0300090Y0097072D02*
X0297811Y0097072D01*
X0297060Y0096473D02*
X0299307Y0096473D01*
X0298524Y0095875D02*
X0296310Y0095875D01*
X0295559Y0095276D02*
X0297741Y0095276D01*
X0296958Y0094678D02*
X0294780Y0094678D01*
X0293827Y0094079D02*
X0296174Y0094079D01*
X0295391Y0093481D02*
X0292875Y0093481D01*
X0291922Y0092882D02*
X0294608Y0092882D01*
X0293825Y0092284D02*
X0290970Y0092284D01*
X0290017Y0091685D02*
X0292867Y0091685D01*
X0291867Y0091087D02*
X0289065Y0091087D01*
X0288112Y0090488D02*
X0290867Y0090488D01*
X0289867Y0089890D02*
X0287160Y0089890D01*
X0286207Y0089291D02*
X0288868Y0089291D01*
X0287868Y0088693D02*
X0285255Y0088693D01*
X0284302Y0088094D02*
X0286868Y0088094D01*
X0285868Y0087496D02*
X0283071Y0087496D01*
X0284265Y0088071D02*
X0284265Y0088071D01*
X0284868Y0086897D02*
X0281828Y0086897D01*
X0280585Y0086299D02*
X0283868Y0086299D01*
X0282868Y0085700D02*
X0279342Y0085700D01*
X0278099Y0085102D02*
X0281614Y0085102D01*
X0280296Y0084503D02*
X0276857Y0084503D01*
X0275614Y0083905D02*
X0278978Y0083905D01*
X0277660Y0083306D02*
X0274371Y0083306D01*
X0275024Y0082109D02*
X0271492Y0082109D01*
X0272931Y0082612D02*
X0272931Y0082612D01*
X0273128Y0082708D02*
X0276342Y0082708D01*
X0273706Y0081511D02*
X0269782Y0081511D01*
X0265708Y0084503D02*
X0222003Y0084503D01*
X0222003Y0083905D02*
X0263998Y0083905D01*
X0262288Y0083306D02*
X0222003Y0083306D01*
X0222003Y0082708D02*
X0260577Y0082708D01*
X0258315Y0082109D02*
X0222003Y0082109D01*
X0222003Y0081511D02*
X0255693Y0081511D01*
X0253071Y0080912D02*
X0222003Y0080912D01*
X0222003Y0080313D02*
X0250449Y0080313D01*
X0247553Y0079715D02*
X0222003Y0079715D01*
X0222003Y0079116D02*
X0242241Y0079116D01*
X0245786Y0073730D02*
X0232003Y0073730D01*
X0226847Y0085102D02*
X0222003Y0085102D01*
X0222124Y0085700D02*
X0224614Y0085700D01*
X0223569Y0086299D02*
X0222603Y0086299D01*
X0253454Y0076722D02*
X0260009Y0076722D01*
X0267442Y0063555D02*
X0281272Y0063555D01*
X0282617Y0064154D02*
X0269345Y0064154D01*
X0268675Y0063895D02*
X0268675Y0063895D01*
X0270898Y0064752D02*
X0283848Y0064752D01*
X0285079Y0065351D02*
X0272450Y0065351D01*
X0274003Y0065949D02*
X0286310Y0065949D01*
X0287541Y0066548D02*
X0275555Y0066548D01*
X0277108Y0067146D02*
X0288772Y0067146D01*
X0290002Y0067745D02*
X0278660Y0067745D01*
X0280213Y0068343D02*
X0291233Y0068343D01*
X0292464Y0068942D02*
X0281453Y0068942D01*
X0280439Y0068430D02*
X0280439Y0068430D01*
X0282641Y0069540D02*
X0293695Y0069540D01*
X0294819Y0070139D02*
X0283828Y0070139D01*
X0285016Y0070737D02*
X0295776Y0070737D01*
X0296732Y0071336D02*
X0286203Y0071336D01*
X0287391Y0071934D02*
X0297689Y0071934D01*
X0298645Y0072533D02*
X0288578Y0072533D01*
X0289766Y0073131D02*
X0299602Y0073131D01*
X0300559Y0073730D02*
X0290953Y0073730D01*
X0292049Y0074328D02*
X0301515Y0074328D01*
X0302472Y0074927D02*
X0292992Y0074927D01*
X0293934Y0075525D02*
X0303428Y0075525D01*
X0304385Y0076124D02*
X0294877Y0076124D01*
X0295819Y0076722D02*
X0305341Y0076722D01*
X0306298Y0077321D02*
X0296762Y0077321D01*
X0297705Y0077919D02*
X0307091Y0077919D01*
X0307853Y0078518D02*
X0298647Y0078518D01*
X0299590Y0079116D02*
X0308616Y0079116D01*
X0309378Y0079715D02*
X0300532Y0079715D01*
X0301475Y0080313D02*
X0310140Y0080313D01*
X0310903Y0080912D02*
X0302403Y0080912D01*
X0302341Y0080863D02*
X0302341Y0080863D01*
X0303167Y0081511D02*
X0311665Y0081511D01*
X0312427Y0082109D02*
X0303930Y0082109D01*
X0304694Y0082708D02*
X0313190Y0082708D01*
X0313952Y0083306D02*
X0305458Y0083306D01*
X0306222Y0083905D02*
X0314714Y0083905D01*
X0315477Y0084503D02*
X0306986Y0084503D01*
X0307750Y0085102D02*
X0316239Y0085102D01*
X0317001Y0085700D02*
X0308513Y0085700D01*
X0309277Y0086299D02*
X0317729Y0086299D01*
X0318344Y0086897D02*
X0310041Y0086897D01*
X0310805Y0087496D02*
X0318958Y0087496D01*
X0319573Y0088094D02*
X0311569Y0088094D01*
X0312265Y0088640D02*
X0312265Y0088640D01*
X0312320Y0088693D02*
X0320188Y0088693D01*
X0320802Y0089291D02*
X0312945Y0089291D01*
X0313571Y0089890D02*
X0321417Y0089890D01*
X0322032Y0090488D02*
X0314196Y0090488D01*
X0314821Y0091087D02*
X0322646Y0091087D01*
X0323261Y0091685D02*
X0315447Y0091685D01*
X0316072Y0092284D02*
X0323876Y0092284D01*
X0324490Y0092882D02*
X0316697Y0092882D01*
X0317322Y0093481D02*
X0325105Y0093481D01*
X0325720Y0094079D02*
X0317948Y0094079D01*
X0318573Y0094678D02*
X0326334Y0094678D01*
X0326949Y0095276D02*
X0319198Y0095276D01*
X0319823Y0095875D02*
X0327564Y0095875D01*
X0327728Y0096035D02*
X0327728Y0096035D01*
X0328091Y0096473D02*
X0320449Y0096473D01*
X0321074Y0097072D02*
X0328588Y0097072D01*
X0329084Y0097670D02*
X0321640Y0097670D01*
X0321373Y0097358D02*
X0321373Y0097358D01*
X0321373Y0097358D01*
X0322153Y0098269D02*
X0329580Y0098269D01*
X0330076Y0098867D02*
X0322666Y0098867D01*
X0323179Y0099466D02*
X0330572Y0099466D01*
X0331069Y0100064D02*
X0323691Y0100064D01*
X0324204Y0100663D02*
X0331565Y0100663D01*
X0332061Y0101261D02*
X0324717Y0101261D01*
X0325230Y0101860D02*
X0332557Y0101860D01*
X0333053Y0102458D02*
X0325742Y0102458D01*
X0326255Y0103057D02*
X0333550Y0103057D01*
X0334046Y0103655D02*
X0326768Y0103655D01*
X0327281Y0104254D02*
X0334542Y0104254D01*
X0335038Y0104852D02*
X0327793Y0104852D01*
X0328306Y0105451D02*
X0335535Y0105451D01*
X0336031Y0106049D02*
X0328819Y0106049D01*
X0329332Y0106648D02*
X0336527Y0106648D01*
X0336971Y0107247D02*
X0329795Y0107247D01*
X0329575Y0106933D02*
X0329575Y0106933D01*
X0330212Y0107845D02*
X0337368Y0107845D01*
X0337765Y0108444D02*
X0330630Y0108444D01*
X0331048Y0109042D02*
X0338162Y0109042D01*
X0338559Y0109641D02*
X0331466Y0109641D01*
X0331884Y0110239D02*
X0338956Y0110239D01*
X0339353Y0110838D02*
X0332302Y0110838D01*
X0332719Y0111436D02*
X0339750Y0111436D01*
X0339105Y0112035D02*
X0333137Y0112035D01*
X0333555Y0112633D02*
X0338079Y0112633D01*
X0337053Y0113232D02*
X0333973Y0113232D01*
X0334391Y0113830D02*
X0336027Y0113830D01*
X0334976Y0114429D02*
X0334809Y0114429D01*
X0279612Y0062957D02*
X0265271Y0062957D01*
X0263101Y0062358D02*
X0277952Y0062358D01*
X0276293Y0061760D02*
X0260930Y0061760D01*
X0258760Y0061161D02*
X0274633Y0061161D01*
X0272973Y0060563D02*
X0256589Y0060563D01*
X0256520Y0060544D02*
X0256520Y0060544D01*
X0255098Y0059964D02*
X0271314Y0059964D01*
X0269654Y0059366D02*
X0254851Y0059366D01*
X0254603Y0058767D02*
X0267802Y0058767D01*
X0265352Y0058169D02*
X0254275Y0058169D01*
X0253677Y0057570D02*
X0262902Y0057570D01*
X0260453Y0056972D02*
X0253078Y0056972D01*
X0229593Y0053380D02*
X0225421Y0053380D01*
X0250003Y0061250D02*
X0252974Y0061797D01*
X0255931Y0062416D01*
X0258872Y0063106D01*
X0261796Y0063866D01*
X0264700Y0064696D01*
X0267584Y0065596D01*
X0270445Y0066565D01*
X0273283Y0067602D01*
X0276094Y0068708D01*
X0278878Y0069881D01*
X0281633Y0071120D01*
X0284357Y0072425D01*
X0287049Y0073796D01*
X0289708Y0075231D01*
X0292331Y0076729D01*
X0294917Y0078290D01*
X0297465Y0079913D01*
X0299974Y0081596D01*
X0302441Y0083340D01*
X0304865Y0085142D01*
X0307246Y0087002D01*
X0309580Y0088919D01*
X0311869Y0090891D01*
X0314109Y0092918D01*
X0316299Y0094998D01*
X0318439Y0097131D01*
X0320527Y0099314D01*
X0322562Y0101546D01*
X0324543Y0103827D01*
X0326468Y0106155D01*
X0328337Y0108529D01*
X0330148Y0110947D01*
X0331900Y0113408D01*
X0333593Y0115910D01*
X0335225Y0118452D01*
X0336795Y0121033D01*
X0338303Y0123650D01*
X0342413Y0200016D02*
X0320220Y0200016D01*
X0320457Y0200614D02*
X0342353Y0200614D01*
X0230003Y0301250D02*
X0232818Y0301216D01*
X0235632Y0301113D01*
X0238442Y0300941D01*
X0241248Y0300701D01*
X0244046Y0300392D01*
X0246837Y0300015D01*
X0249617Y0299570D01*
X0252386Y0299057D01*
X0255141Y0298476D01*
X0257881Y0297829D01*
X0260605Y0297114D01*
X0263310Y0296334D01*
X0265995Y0295487D01*
X0268659Y0294575D01*
X0271300Y0293598D01*
X0273916Y0292557D01*
X0276506Y0291452D01*
X0279068Y0290285D01*
X0281601Y0289055D01*
X0284103Y0287763D01*
X0286573Y0286411D01*
X0289009Y0284999D01*
X0291410Y0283528D01*
X0293774Y0281998D01*
X0296100Y0280412D01*
X0298387Y0278769D01*
X0300632Y0277070D01*
X0302836Y0275317D01*
X0304996Y0273511D01*
X0307111Y0271652D01*
X0309180Y0269743D01*
X0311202Y0267783D01*
X0313176Y0265775D01*
X0315099Y0263719D01*
X0316972Y0261616D01*
X0318793Y0259469D01*
X0320561Y0257277D01*
X0322275Y0255043D01*
X0323934Y0252768D01*
X0325537Y0250453D01*
X0327083Y0248100D01*
X0328570Y0245709D01*
X0329999Y0243283D01*
X0331368Y0240822D01*
X0332677Y0238329D01*
X0333924Y0235805D01*
X0335109Y0233251D01*
X0336232Y0230669D01*
X0337291Y0228060D01*
X0338286Y0225426D01*
X0339216Y0222768D01*
X0340081Y0220088D01*
X0340880Y0217389D01*
X0341613Y0214670D01*
X0342280Y0211934D01*
X0342879Y0209183D01*
X0343411Y0206418D01*
X0343876Y0203641D01*
X0344272Y0200853D01*
X0344600Y0198057D01*
X0344859Y0195253D01*
X0345051Y0192444D01*
X0345173Y0189631D01*
X0345226Y0186816D01*
X0345211Y0184000D01*
X0345127Y0181186D01*
X0344974Y0178374D01*
X0344753Y0175567D01*
X0344463Y0172766D01*
X0344104Y0169973D01*
X0343678Y0167190D01*
X0343183Y0164418D01*
X0342621Y0161659D01*
X0341992Y0158915D01*
X0341296Y0156186D01*
X0340533Y0153476D01*
X0339705Y0150785D01*
X0338811Y0148115D01*
X0337852Y0145468D01*
X0336828Y0142845D01*
X0335741Y0140247D01*
X0334591Y0137677D01*
X0333378Y0135136D01*
X0332103Y0132626D01*
X0330768Y0130147D01*
X0329372Y0127701D01*
X0327917Y0125291D01*
X0326403Y0122916D01*
X0324832Y0120580D01*
X0323204Y0118282D01*
X0321521Y0116025D01*
X0319783Y0113810D01*
X0317991Y0111638D01*
X0316147Y0109510D01*
X0314251Y0107428D01*
X0312305Y0105393D01*
X0310310Y0103406D01*
X0308267Y0101469D01*
X0306177Y0099582D01*
X0304042Y0097746D01*
X0301862Y0095964D01*
X0299640Y0094235D01*
X0297376Y0092561D01*
X0295072Y0090943D01*
X0292729Y0089381D01*
X0290348Y0087877D01*
X0287932Y0086432D01*
X0285480Y0085047D01*
X0282996Y0083721D01*
X0280480Y0082457D01*
X0277934Y0081255D01*
X0275359Y0080115D01*
X0272758Y0079039D01*
X0270130Y0078026D01*
X0267479Y0077078D01*
X0264805Y0076195D01*
X0262111Y0075378D01*
X0259397Y0074626D01*
X0256666Y0073941D01*
X0253919Y0073324D01*
X0251158Y0072773D01*
X0248384Y0072290D01*
X0245599Y0071875D01*
X0242804Y0071528D01*
X0240003Y0071250D01*
M02*
