G75*
%MOIN*%
%OFA0B0*%
%FSLAX25Y25*%
%IPPOS*%
%LPD*%
%AMOC8*
5,1,8,0,0,1.08239X$1,22.5*
%
%ADD10R,0.56496X0.00315*%
%ADD11R,0.58150X0.00276*%
%ADD12R,0.59252X0.00236*%
%ADD13R,0.60354X0.00276*%
%ADD14R,0.60906X0.00315*%
%ADD15R,0.61457X0.00236*%
%ADD16R,0.47126X0.00276*%
%ADD17R,0.07441X0.00276*%
%ADD18R,0.05512X0.00276*%
%ADD19R,0.06890X0.00276*%
%ADD20R,0.05236X0.00315*%
%ADD21R,0.31142X0.00315*%
%ADD22R,0.03307X0.00315*%
%ADD23R,0.06614X0.00315*%
%ADD24R,0.05787X0.00315*%
%ADD25R,0.04961X0.00276*%
%ADD26R,0.07992X0.00276*%
%ADD27R,0.21220X0.00276*%
%ADD28R,0.02756X0.00276*%
%ADD29R,0.06614X0.00276*%
%ADD30R,0.05787X0.00276*%
%ADD31R,0.05236X0.00236*%
%ADD32R,0.07717X0.00236*%
%ADD33R,0.20945X0.00236*%
%ADD34R,0.02205X0.00236*%
%ADD35R,0.06614X0.00236*%
%ADD36R,0.06063X0.00236*%
%ADD37R,0.07441X0.00315*%
%ADD38R,0.20945X0.00315*%
%ADD39R,0.01929X0.00315*%
%ADD40R,0.06890X0.00315*%
%ADD41R,0.06063X0.00315*%
%ADD42R,0.20945X0.00276*%
%ADD43R,0.09921X0.00276*%
%ADD44R,0.06339X0.00276*%
%ADD45R,0.07165X0.00276*%
%ADD46R,0.09646X0.00276*%
%ADD47R,0.05512X0.00236*%
%ADD48R,0.01654X0.00236*%
%ADD49R,0.07165X0.00236*%
%ADD50R,0.09646X0.00236*%
%ADD51R,0.06339X0.00236*%
%ADD52R,0.02480X0.00315*%
%ADD53R,0.01102X0.00315*%
%ADD54R,0.01378X0.00315*%
%ADD55R,0.00827X0.00315*%
%ADD56R,0.02756X0.00315*%
%ADD57R,0.03583X0.00315*%
%ADD58R,0.02205X0.00315*%
%ADD59R,0.01929X0.00276*%
%ADD60R,0.01378X0.00276*%
%ADD61R,0.01654X0.00276*%
%ADD62R,0.00276X0.00276*%
%ADD63R,0.00827X0.00276*%
%ADD64R,0.00551X0.00276*%
%ADD65R,0.02480X0.00276*%
%ADD66R,0.03031X0.00276*%
%ADD67R,0.01102X0.00276*%
%ADD68R,0.02205X0.00276*%
%ADD69R,0.03307X0.00276*%
%ADD70R,0.03583X0.00276*%
%ADD71R,0.01654X0.00315*%
%ADD72R,0.00551X0.00315*%
%ADD73R,0.03858X0.00276*%
%ADD74R,0.04134X0.00276*%
%ADD75R,0.04409X0.00276*%
%ADD76R,0.05236X0.00276*%
%ADD77R,0.01929X0.00236*%
%ADD78R,0.00827X0.00236*%
%ADD79R,0.01378X0.00236*%
%ADD80R,0.04685X0.00236*%
%ADD81R,0.01102X0.00236*%
%ADD82R,0.04961X0.00236*%
%ADD83R,0.04685X0.00276*%
%ADD84R,0.02480X0.00236*%
%ADD85R,0.03858X0.00236*%
%ADD86R,0.03583X0.00236*%
%ADD87R,0.02756X0.00236*%
%ADD88R,0.32795X0.00276*%
%ADD89R,0.27283X0.00276*%
%ADD90R,0.32244X0.00236*%
%ADD91R,0.27283X0.00236*%
%ADD92R,0.31969X0.00276*%
%ADD93R,0.27008X0.00276*%
%ADD94R,0.31693X0.00276*%
%ADD95R,0.30866X0.00236*%
%ADD96R,0.26457X0.00236*%
%ADD97R,0.30315X0.00276*%
%ADD98R,0.26181X0.00276*%
%ADD99R,0.29488X0.00276*%
%ADD100R,0.25354X0.00276*%
%ADD101C,0.00039*%
%ADD102C,0.00300*%
%ADD103R,0.00118X0.12638*%
%ADD104R,0.00079X0.12638*%
%ADD105R,0.00157X0.12638*%
%ADD106R,0.00118X0.03661*%
%ADD107R,0.00118X0.08268*%
%ADD108R,0.00157X0.03307*%
%ADD109R,0.00157X0.00827*%
%ADD110R,0.00157X0.01299*%
%ADD111R,0.00157X0.00472*%
%ADD112R,0.00157X0.02362*%
%ADD113R,0.00118X0.03071*%
%ADD114R,0.00118X0.00709*%
%ADD115R,0.00118X0.01299*%
%ADD116R,0.00118X0.00354*%
%ADD117R,0.00118X0.02126*%
%ADD118R,0.00118X0.02953*%
%ADD119R,0.00118X0.00591*%
%ADD120R,0.00118X0.01181*%
%ADD121R,0.00118X0.01890*%
%ADD122R,0.00118X0.02835*%
%ADD123R,0.00118X0.00472*%
%ADD124R,0.00118X0.01063*%
%ADD125R,0.00118X0.01772*%
%ADD126R,0.00157X0.02717*%
%ADD127R,0.00157X0.00945*%
%ADD128R,0.00157X0.00354*%
%ADD129R,0.00157X0.01654*%
%ADD130R,0.00118X0.02598*%
%ADD131R,0.00118X0.00945*%
%ADD132R,0.00118X0.01535*%
%ADD133R,0.00118X0.00827*%
%ADD134R,0.00118X0.02480*%
%ADD135R,0.00118X0.01417*%
%ADD136R,0.00157X0.02480*%
%ADD137R,0.00157X0.02244*%
%ADD138R,0.00157X0.00591*%
%ADD139R,0.00157X0.01063*%
%ADD140R,0.00157X0.01417*%
%ADD141R,0.00118X0.02362*%
%ADD142R,0.00157X0.00118*%
%ADD143R,0.00157X0.00236*%
%ADD144R,0.00157X0.01181*%
%ADD145R,0.00118X0.00236*%
%ADD146R,0.00118X0.02008*%
%ADD147R,0.00157X0.03189*%
%ADD148R,0.00157X0.00709*%
%ADD149R,0.00157X0.02126*%
%ADD150R,0.00118X0.03425*%
%ADD151R,0.00118X0.09094*%
%ADD152R,0.00079X0.09094*%
%ADD153R,0.00157X0.09094*%
%ADD154R,0.00157X0.01772*%
%ADD155R,0.00157X0.02598*%
%ADD156R,0.00118X0.01654*%
%ADD157R,0.00157X0.01890*%
%ADD158R,0.00118X0.00118*%
%ADD159R,0.00157X0.03661*%
%ADD160R,0.00118X0.02717*%
%ADD161R,0.00118X0.02244*%
%ADD162R,0.00118X0.16063*%
%ADD163R,0.00118X0.16181*%
%ADD164R,0.00079X0.16417*%
%ADD165R,0.00157X0.16535*%
%ADD166R,0.00118X0.16654*%
%ADD167R,0.00118X0.16772*%
%ADD168R,0.00079X0.16890*%
%ADD169R,0.00118X0.17008*%
%ADD170R,0.00157X0.02008*%
%ADD171R,0.00118X0.16890*%
%ADD172R,0.00118X0.16535*%
%ADD173R,0.00118X0.16417*%
%ADD174R,0.00118X0.17126*%
%ADD175R,0.00157X0.16772*%
%ADD176R,0.00118X0.09567*%
%ADD177R,0.00118X0.06378*%
%ADD178R,0.00157X0.03071*%
%ADD179R,0.00118X0.03189*%
%ADD180R,0.00118X0.03307*%
%ADD181R,0.00118X0.17598*%
%ADD182R,0.00118X0.17480*%
%ADD183R,0.00079X0.17362*%
%ADD184R,0.00157X0.17244*%
%ADD185R,0.00118X0.06850*%
%ADD186R,0.00157X0.02953*%
%ADD187R,0.00157X0.02835*%
%ADD188R,0.00157X0.03780*%
%ADD189R,0.00118X0.03898*%
%ADD190R,0.00118X0.03780*%
%ADD191R,0.00118X0.03543*%
%ADD192R,0.00157X0.03425*%
%ADD193R,0.00157X0.01535*%
%ADD194R,0.00118X0.17244*%
%ADD195R,0.00118X0.17362*%
D10*
X0228794Y0191262D03*
D11*
X0228794Y0190967D03*
D12*
X0228794Y0190711D03*
D13*
X0228794Y0190455D03*
D14*
X0228794Y0190159D03*
D15*
X0228794Y0189884D03*
D16*
X0236235Y0189628D03*
X0236511Y0189352D03*
D17*
X0246432Y0187935D03*
X0208125Y0189628D03*
D18*
X0200546Y0189628D03*
X0200270Y0189352D03*
X0199444Y0183526D03*
X0258144Y0183526D03*
X0258144Y0183801D03*
X0258144Y0184077D03*
X0258144Y0187659D03*
X0258144Y0187935D03*
D19*
X0208125Y0189352D03*
D20*
X0257731Y0189057D03*
X0258007Y0188230D03*
D21*
X0235684Y0189057D03*
D22*
X0229759Y0185199D03*
X0214601Y0189057D03*
D23*
X0207987Y0189057D03*
X0199719Y0187128D03*
X0199719Y0185199D03*
D24*
X0200133Y0189057D03*
X0258282Y0187128D03*
X0258282Y0185199D03*
D25*
X0257869Y0182699D03*
X0257869Y0188762D03*
X0222593Y0182423D03*
X0199444Y0183250D03*
D26*
X0246707Y0188762D03*
D27*
X0230723Y0188762D03*
D28*
X0217081Y0186557D03*
X0217081Y0186281D03*
X0217081Y0184904D03*
X0217081Y0184628D03*
X0214326Y0182423D03*
X0214326Y0188762D03*
D29*
X0207987Y0188762D03*
X0199719Y0186833D03*
X0199719Y0186557D03*
X0199719Y0186281D03*
X0199719Y0186006D03*
X0199719Y0185730D03*
X0199719Y0185455D03*
X0199719Y0184904D03*
X0199719Y0184628D03*
X0199719Y0184352D03*
D30*
X0200133Y0188762D03*
X0258282Y0186833D03*
X0258282Y0186557D03*
X0258282Y0186281D03*
X0258282Y0186006D03*
X0258282Y0185730D03*
X0258282Y0185455D03*
X0258282Y0184904D03*
X0258282Y0184628D03*
X0258282Y0184352D03*
D31*
X0258007Y0182994D03*
X0258007Y0188506D03*
X0222455Y0182167D03*
D32*
X0246570Y0188506D03*
D33*
X0230585Y0188506D03*
X0230585Y0187404D03*
D34*
X0214050Y0188506D03*
D35*
X0207987Y0188506D03*
D36*
X0199995Y0188506D03*
D37*
X0246432Y0188230D03*
D38*
X0230585Y0188230D03*
D39*
X0240093Y0185199D03*
X0244503Y0187128D03*
X0248637Y0187128D03*
X0252495Y0187128D03*
X0213912Y0188230D03*
D40*
X0208125Y0188230D03*
D41*
X0199995Y0188230D03*
D42*
X0230585Y0187935D03*
X0230585Y0187659D03*
D43*
X0209640Y0187935D03*
D44*
X0199857Y0187935D03*
X0199857Y0187659D03*
X0199857Y0184077D03*
X0199857Y0183801D03*
D45*
X0246294Y0187659D03*
D46*
X0209503Y0187659D03*
D47*
X0258144Y0187404D03*
D48*
X0252633Y0187404D03*
X0217633Y0187404D03*
D49*
X0246294Y0187404D03*
D50*
X0209503Y0187404D03*
D51*
X0199857Y0187404D03*
D52*
X0238715Y0187128D03*
D53*
X0235822Y0187128D03*
X0228932Y0187128D03*
X0213499Y0187128D03*
X0205231Y0187128D03*
D54*
X0208125Y0185199D03*
X0233479Y0187128D03*
X0236511Y0185199D03*
X0243400Y0185199D03*
D55*
X0249739Y0185199D03*
X0233479Y0185199D03*
X0231274Y0187128D03*
X0213361Y0185199D03*
X0210881Y0185199D03*
X0207298Y0187128D03*
X0205093Y0185199D03*
D56*
X0210192Y0187128D03*
X0217081Y0185199D03*
X0225900Y0187128D03*
D57*
X0221904Y0187128D03*
X0221904Y0185199D03*
D58*
X0217357Y0187128D03*
D59*
X0213912Y0183250D03*
X0210329Y0182423D03*
X0208125Y0184628D03*
X0210329Y0186833D03*
X0238991Y0182423D03*
X0240093Y0183801D03*
X0240093Y0184077D03*
X0240093Y0184352D03*
X0240093Y0184628D03*
X0240093Y0184904D03*
X0240093Y0185455D03*
X0246707Y0184904D03*
X0246707Y0184628D03*
X0246707Y0184352D03*
X0252495Y0183250D03*
X0252495Y0182699D03*
X0252495Y0186006D03*
X0252495Y0186281D03*
X0252495Y0186557D03*
X0252495Y0186833D03*
D60*
X0248912Y0186833D03*
X0243400Y0185455D03*
X0243400Y0184904D03*
X0243400Y0184628D03*
X0243400Y0184352D03*
X0243400Y0184077D03*
X0243400Y0183801D03*
X0243400Y0183526D03*
X0238991Y0186557D03*
X0236511Y0184077D03*
X0229070Y0185455D03*
X0213637Y0183801D03*
X0210605Y0182699D03*
X0208125Y0184077D03*
X0210605Y0186557D03*
X0248912Y0182423D03*
D61*
X0246570Y0184077D03*
X0243538Y0183250D03*
X0244365Y0186833D03*
X0238853Y0186833D03*
X0236648Y0184904D03*
X0236648Y0184628D03*
X0236648Y0184352D03*
X0239129Y0182699D03*
X0252633Y0183526D03*
X0252633Y0183801D03*
X0225900Y0186006D03*
X0225900Y0186281D03*
X0213774Y0183526D03*
X0207987Y0184352D03*
X0207987Y0184904D03*
D62*
X0225763Y0184904D03*
X0229070Y0186557D03*
X0235684Y0186833D03*
X0235684Y0182423D03*
D63*
X0233479Y0182423D03*
X0233479Y0182699D03*
X0233479Y0183250D03*
X0233479Y0183526D03*
X0233479Y0183801D03*
X0233479Y0184077D03*
X0233479Y0184352D03*
X0233479Y0184628D03*
X0233479Y0184904D03*
X0233479Y0185455D03*
X0233479Y0185730D03*
X0233479Y0186006D03*
X0233479Y0186281D03*
X0233479Y0186557D03*
X0233479Y0186833D03*
X0239266Y0186006D03*
X0239266Y0185730D03*
X0243952Y0186006D03*
X0244227Y0186281D03*
X0244227Y0186557D03*
X0246707Y0183801D03*
X0249463Y0183526D03*
X0249463Y0183250D03*
X0249739Y0183801D03*
X0249739Y0184077D03*
X0249739Y0184352D03*
X0249463Y0185730D03*
X0249463Y0186006D03*
X0249188Y0186281D03*
X0213361Y0186281D03*
X0213361Y0186006D03*
X0213361Y0185730D03*
X0213361Y0185455D03*
X0213361Y0184904D03*
X0213361Y0186557D03*
X0210881Y0185730D03*
X0210881Y0185455D03*
X0210881Y0184077D03*
X0210881Y0183801D03*
X0210881Y0183526D03*
X0205093Y0183526D03*
X0205093Y0183801D03*
X0205093Y0184077D03*
X0205093Y0184352D03*
X0205093Y0184628D03*
X0205093Y0184904D03*
X0205093Y0185455D03*
X0205093Y0185730D03*
X0205093Y0186006D03*
X0205093Y0186281D03*
X0205093Y0186557D03*
X0205093Y0186833D03*
X0205093Y0183250D03*
D64*
X0207987Y0183801D03*
X0207987Y0185455D03*
X0211018Y0184904D03*
X0211018Y0184628D03*
X0211018Y0184352D03*
X0228932Y0186006D03*
X0228932Y0186281D03*
X0228932Y0186833D03*
X0236648Y0185455D03*
X0236648Y0183801D03*
X0243814Y0185730D03*
X0249601Y0185455D03*
D65*
X0252495Y0182423D03*
X0226038Y0186833D03*
X0217219Y0186833D03*
X0217219Y0184352D03*
X0214188Y0182699D03*
D66*
X0216944Y0185455D03*
X0216944Y0185730D03*
X0216944Y0186006D03*
X0221629Y0186281D03*
X0221629Y0186557D03*
X0221629Y0186833D03*
X0243676Y0182423D03*
D67*
X0246570Y0185455D03*
X0249050Y0186557D03*
X0249877Y0184904D03*
X0249877Y0184628D03*
X0249050Y0182699D03*
X0239404Y0183250D03*
X0239404Y0183526D03*
X0239129Y0186281D03*
X0230585Y0185455D03*
X0228932Y0185730D03*
X0225900Y0185730D03*
X0225900Y0185455D03*
X0217633Y0183801D03*
X0213499Y0184077D03*
X0213499Y0184352D03*
X0213499Y0184628D03*
X0213499Y0186833D03*
X0210743Y0186281D03*
X0210743Y0186006D03*
X0210743Y0183250D03*
X0204955Y0182699D03*
X0204955Y0182423D03*
D68*
X0217357Y0184077D03*
X0225900Y0186557D03*
X0243538Y0182699D03*
D69*
X0221766Y0185730D03*
X0221766Y0186006D03*
D70*
X0221904Y0185455D03*
X0221904Y0184904D03*
X0229621Y0184904D03*
X0229621Y0184628D03*
D71*
X0246570Y0185199D03*
D72*
X0225900Y0185199D03*
D73*
X0229483Y0184352D03*
X0229483Y0184077D03*
X0222042Y0184352D03*
X0222042Y0184628D03*
D74*
X0222180Y0184077D03*
X0222180Y0183801D03*
X0229345Y0183801D03*
D75*
X0229207Y0183526D03*
X0229207Y0183250D03*
X0222318Y0183250D03*
X0222318Y0183526D03*
D76*
X0257731Y0182423D03*
X0258007Y0183250D03*
D77*
X0252495Y0182994D03*
X0243676Y0182994D03*
X0213912Y0182994D03*
X0204818Y0182167D03*
D78*
X0205093Y0182994D03*
X0207298Y0182167D03*
X0233479Y0182994D03*
X0249188Y0182994D03*
D79*
X0239266Y0182994D03*
X0233479Y0182167D03*
D80*
X0229345Y0182167D03*
X0229070Y0182994D03*
X0222455Y0182994D03*
X0199857Y0182167D03*
D81*
X0210743Y0182994D03*
X0235822Y0182167D03*
D82*
X0257593Y0182167D03*
X0199444Y0182994D03*
D83*
X0199581Y0182423D03*
X0199581Y0182699D03*
X0222455Y0182699D03*
X0229070Y0182699D03*
X0229070Y0182423D03*
D84*
X0238715Y0182167D03*
X0248912Y0182167D03*
X0252495Y0182167D03*
D85*
X0243538Y0182167D03*
D86*
X0214739Y0182167D03*
D87*
X0210192Y0182167D03*
D88*
X0243400Y0181872D03*
D89*
X0211432Y0181872D03*
D90*
X0243400Y0181616D03*
D91*
X0211707Y0181616D03*
D92*
X0243263Y0181321D03*
D93*
X0212121Y0181045D03*
X0211845Y0181321D03*
D94*
X0243125Y0181045D03*
D95*
X0242987Y0180789D03*
D96*
X0212396Y0180789D03*
D97*
X0242711Y0180494D03*
D98*
X0212810Y0180494D03*
D99*
X0242298Y0180219D03*
D100*
X0213223Y0180219D03*
D101*
X0216961Y0195022D02*
X0206503Y0195022D01*
X0206503Y0200644D01*
X0210277Y0200644D01*
X0208631Y0198230D01*
X0210193Y0198230D01*
X0211547Y0200301D01*
X0212911Y0198230D01*
X0214418Y0198230D01*
X0212762Y0200644D01*
X0216556Y0200644D01*
X0216556Y0196178D01*
X0216961Y0196178D01*
X0216961Y0195022D01*
X0216961Y0196178D01*
X0250346Y0196178D01*
X0250346Y0206322D01*
X0216556Y0206322D01*
X0216556Y0200644D01*
X0212762Y0200644D01*
X0212312Y0201299D01*
X0214328Y0204265D01*
X0212776Y0204265D01*
X0211507Y0202308D01*
X0210229Y0204265D01*
X0208721Y0204265D01*
X0210737Y0201317D01*
X0210277Y0200644D01*
X0206503Y0200644D01*
X0206503Y0207478D01*
X0216556Y0207478D01*
X0251503Y0207478D01*
X0251503Y0195022D01*
X0216961Y0195022D01*
X0216961Y0195038D02*
X0206503Y0195038D01*
X0206503Y0195076D02*
X0216961Y0195076D01*
X0251503Y0195076D01*
X0251503Y0195038D02*
X0216961Y0195038D01*
X0216961Y0195114D02*
X0206503Y0195114D01*
X0206503Y0195152D02*
X0216961Y0195152D01*
X0251503Y0195152D01*
X0251503Y0195114D02*
X0216961Y0195114D01*
X0216961Y0195190D02*
X0206503Y0195190D01*
X0206503Y0195228D02*
X0216961Y0195228D01*
X0251503Y0195228D01*
X0251503Y0195266D02*
X0216961Y0195266D01*
X0206503Y0195266D01*
X0206503Y0195304D02*
X0216961Y0195304D01*
X0251503Y0195304D01*
X0251503Y0195342D02*
X0216961Y0195342D01*
X0206503Y0195342D01*
X0206503Y0195379D02*
X0216961Y0195379D01*
X0251503Y0195379D01*
X0251503Y0195417D02*
X0216961Y0195417D01*
X0206503Y0195417D01*
X0206503Y0195455D02*
X0216961Y0195455D01*
X0251503Y0195455D01*
X0251503Y0195493D02*
X0216961Y0195493D01*
X0206503Y0195493D01*
X0206503Y0195531D02*
X0216961Y0195531D01*
X0251503Y0195531D01*
X0251503Y0195569D02*
X0216961Y0195569D01*
X0206503Y0195569D01*
X0206503Y0195607D02*
X0216961Y0195607D01*
X0251503Y0195607D01*
X0251503Y0195645D02*
X0216961Y0195645D01*
X0206503Y0195645D01*
X0206503Y0195682D02*
X0216961Y0195682D01*
X0251503Y0195682D01*
X0251503Y0195720D02*
X0216961Y0195720D01*
X0206503Y0195720D01*
X0206503Y0195758D02*
X0216961Y0195758D01*
X0251503Y0195758D01*
X0251503Y0195796D02*
X0216961Y0195796D01*
X0206503Y0195796D01*
X0206503Y0195834D02*
X0216961Y0195834D01*
X0251503Y0195834D01*
X0251503Y0195872D02*
X0216961Y0195872D01*
X0206503Y0195872D01*
X0206503Y0195910D02*
X0216961Y0195910D01*
X0251503Y0195910D01*
X0251503Y0195948D02*
X0216961Y0195948D01*
X0206503Y0195948D01*
X0206503Y0195986D02*
X0216961Y0195986D01*
X0251503Y0195986D01*
X0251503Y0196023D02*
X0216961Y0196023D01*
X0206503Y0196023D01*
X0206503Y0196061D02*
X0216961Y0196061D01*
X0251503Y0196061D01*
X0251503Y0196099D02*
X0216961Y0196099D01*
X0206503Y0196099D01*
X0206503Y0196137D02*
X0216961Y0196137D01*
X0251503Y0196137D01*
X0251503Y0196175D02*
X0216961Y0196175D01*
X0206503Y0196175D01*
X0206503Y0196213D02*
X0216556Y0196213D01*
X0216556Y0196251D02*
X0206503Y0196251D01*
X0206503Y0196289D02*
X0216556Y0196289D01*
X0216556Y0196326D02*
X0206503Y0196326D01*
X0206503Y0196364D02*
X0216556Y0196364D01*
X0216556Y0196402D02*
X0206503Y0196402D01*
X0206503Y0196440D02*
X0216556Y0196440D01*
X0216556Y0196478D02*
X0206503Y0196478D01*
X0206503Y0196516D02*
X0216556Y0196516D01*
X0216556Y0196554D02*
X0206503Y0196554D01*
X0206503Y0196592D02*
X0216556Y0196592D01*
X0216556Y0196630D02*
X0206503Y0196630D01*
X0206503Y0196667D02*
X0216556Y0196667D01*
X0216556Y0196705D02*
X0206503Y0196705D01*
X0206503Y0196743D02*
X0216556Y0196743D01*
X0216556Y0196781D02*
X0206503Y0196781D01*
X0206503Y0196819D02*
X0216556Y0196819D01*
X0216556Y0196857D02*
X0206503Y0196857D01*
X0206503Y0196895D02*
X0216556Y0196895D01*
X0216556Y0196933D02*
X0206503Y0196933D01*
X0206503Y0196970D02*
X0216556Y0196970D01*
X0216556Y0197008D02*
X0206503Y0197008D01*
X0206503Y0197046D02*
X0216556Y0197046D01*
X0216556Y0197084D02*
X0206503Y0197084D01*
X0206503Y0197122D02*
X0216556Y0197122D01*
X0216556Y0197160D02*
X0206503Y0197160D01*
X0206503Y0197198D02*
X0216556Y0197198D01*
X0216556Y0197236D02*
X0206503Y0197236D01*
X0206503Y0197273D02*
X0216556Y0197273D01*
X0216556Y0197311D02*
X0206503Y0197311D01*
X0206503Y0197349D02*
X0216556Y0197349D01*
X0216556Y0197387D02*
X0206503Y0197387D01*
X0206503Y0197425D02*
X0216556Y0197425D01*
X0216556Y0197463D02*
X0206503Y0197463D01*
X0206503Y0197501D02*
X0216556Y0197501D01*
X0216556Y0197539D02*
X0206503Y0197539D01*
X0206503Y0197577D02*
X0216556Y0197577D01*
X0216556Y0197614D02*
X0206503Y0197614D01*
X0206503Y0197652D02*
X0216556Y0197652D01*
X0216556Y0197690D02*
X0206503Y0197690D01*
X0206503Y0197728D02*
X0216556Y0197728D01*
X0216556Y0197766D02*
X0206503Y0197766D01*
X0206503Y0197804D02*
X0216556Y0197804D01*
X0216556Y0197842D02*
X0206503Y0197842D01*
X0206503Y0197880D02*
X0216556Y0197880D01*
X0216556Y0197917D02*
X0206503Y0197917D01*
X0206503Y0197955D02*
X0216556Y0197955D01*
X0216556Y0197993D02*
X0206503Y0197993D01*
X0206503Y0198031D02*
X0216556Y0198031D01*
X0216556Y0198069D02*
X0206503Y0198069D01*
X0206503Y0198107D02*
X0216556Y0198107D01*
X0216556Y0198145D02*
X0206503Y0198145D01*
X0206503Y0198183D02*
X0216556Y0198183D01*
X0216556Y0198221D02*
X0206503Y0198221D01*
X0206503Y0198258D02*
X0208650Y0198258D01*
X0208676Y0198296D02*
X0206503Y0198296D01*
X0206503Y0198334D02*
X0208702Y0198334D01*
X0208728Y0198372D02*
X0206503Y0198372D01*
X0206503Y0198410D02*
X0208754Y0198410D01*
X0208779Y0198448D02*
X0206503Y0198448D01*
X0206503Y0198486D02*
X0208805Y0198486D01*
X0208831Y0198524D02*
X0206503Y0198524D01*
X0206503Y0198561D02*
X0208857Y0198561D01*
X0208883Y0198599D02*
X0206503Y0198599D01*
X0206503Y0198637D02*
X0208909Y0198637D01*
X0208934Y0198675D02*
X0206503Y0198675D01*
X0206503Y0198713D02*
X0208960Y0198713D01*
X0208986Y0198751D02*
X0206503Y0198751D01*
X0206503Y0198789D02*
X0209012Y0198789D01*
X0209038Y0198827D02*
X0206503Y0198827D01*
X0206503Y0198865D02*
X0209064Y0198865D01*
X0209090Y0198902D02*
X0206503Y0198902D01*
X0206503Y0198940D02*
X0209115Y0198940D01*
X0209141Y0198978D02*
X0206503Y0198978D01*
X0206503Y0199016D02*
X0209167Y0199016D01*
X0209193Y0199054D02*
X0206503Y0199054D01*
X0206503Y0199092D02*
X0209219Y0199092D01*
X0209245Y0199130D02*
X0206503Y0199130D01*
X0206503Y0199168D02*
X0209270Y0199168D01*
X0209296Y0199205D02*
X0206503Y0199205D01*
X0206503Y0199243D02*
X0209322Y0199243D01*
X0209348Y0199281D02*
X0206503Y0199281D01*
X0206503Y0199319D02*
X0209374Y0199319D01*
X0209400Y0199357D02*
X0206503Y0199357D01*
X0206503Y0199395D02*
X0209425Y0199395D01*
X0209451Y0199433D02*
X0206503Y0199433D01*
X0206503Y0199471D02*
X0209477Y0199471D01*
X0209503Y0199508D02*
X0206503Y0199508D01*
X0206503Y0199546D02*
X0209529Y0199546D01*
X0209555Y0199584D02*
X0206503Y0199584D01*
X0206503Y0199622D02*
X0209580Y0199622D01*
X0209606Y0199660D02*
X0206503Y0199660D01*
X0206503Y0199698D02*
X0209632Y0199698D01*
X0209658Y0199736D02*
X0206503Y0199736D01*
X0206503Y0199774D02*
X0209684Y0199774D01*
X0209710Y0199812D02*
X0206503Y0199812D01*
X0206503Y0199849D02*
X0209736Y0199849D01*
X0209761Y0199887D02*
X0206503Y0199887D01*
X0206503Y0199925D02*
X0209787Y0199925D01*
X0209813Y0199963D02*
X0206503Y0199963D01*
X0206503Y0200001D02*
X0209839Y0200001D01*
X0209865Y0200039D02*
X0206503Y0200039D01*
X0206503Y0200077D02*
X0209891Y0200077D01*
X0209916Y0200115D02*
X0206503Y0200115D01*
X0206503Y0200152D02*
X0209942Y0200152D01*
X0209968Y0200190D02*
X0206503Y0200190D01*
X0206503Y0200228D02*
X0209994Y0200228D01*
X0210020Y0200266D02*
X0206503Y0200266D01*
X0206503Y0200304D02*
X0210046Y0200304D01*
X0210071Y0200342D02*
X0206503Y0200342D01*
X0206503Y0200380D02*
X0210097Y0200380D01*
X0210123Y0200418D02*
X0206503Y0200418D01*
X0206503Y0200456D02*
X0210149Y0200456D01*
X0210175Y0200493D02*
X0206503Y0200493D01*
X0206503Y0200531D02*
X0210201Y0200531D01*
X0210226Y0200569D02*
X0206503Y0200569D01*
X0206503Y0200607D02*
X0210252Y0200607D01*
X0210278Y0200645D02*
X0206503Y0200645D01*
X0206503Y0200683D02*
X0210304Y0200683D01*
X0210330Y0200721D02*
X0206503Y0200721D01*
X0206503Y0200759D02*
X0210356Y0200759D01*
X0210382Y0200796D02*
X0206503Y0200796D01*
X0206503Y0200834D02*
X0210407Y0200834D01*
X0210433Y0200872D02*
X0206503Y0200872D01*
X0206503Y0200910D02*
X0210459Y0200910D01*
X0210485Y0200948D02*
X0206503Y0200948D01*
X0206503Y0200986D02*
X0210511Y0200986D01*
X0210537Y0201024D02*
X0206503Y0201024D01*
X0206503Y0201062D02*
X0210563Y0201062D01*
X0210588Y0201100D02*
X0206503Y0201100D01*
X0206503Y0201137D02*
X0210614Y0201137D01*
X0210640Y0201175D02*
X0206503Y0201175D01*
X0206503Y0201213D02*
X0210666Y0201213D01*
X0210692Y0201251D02*
X0206503Y0201251D01*
X0206503Y0201289D02*
X0210718Y0201289D01*
X0210731Y0201327D02*
X0206503Y0201327D01*
X0206503Y0201365D02*
X0210705Y0201365D01*
X0210679Y0201403D02*
X0206503Y0201403D01*
X0206503Y0201440D02*
X0210653Y0201440D01*
X0210627Y0201478D02*
X0206503Y0201478D01*
X0206503Y0201516D02*
X0210601Y0201516D01*
X0210575Y0201554D02*
X0206503Y0201554D01*
X0206503Y0201592D02*
X0210549Y0201592D01*
X0210524Y0201630D02*
X0206503Y0201630D01*
X0206503Y0201668D02*
X0210498Y0201668D01*
X0210472Y0201706D02*
X0206503Y0201706D01*
X0206503Y0201743D02*
X0210446Y0201743D01*
X0210420Y0201781D02*
X0206503Y0201781D01*
X0206503Y0201819D02*
X0210394Y0201819D01*
X0210368Y0201857D02*
X0206503Y0201857D01*
X0206503Y0201895D02*
X0210342Y0201895D01*
X0210316Y0201933D02*
X0206503Y0201933D01*
X0206503Y0201971D02*
X0210290Y0201971D01*
X0210264Y0202009D02*
X0206503Y0202009D01*
X0206503Y0202047D02*
X0210239Y0202047D01*
X0210213Y0202084D02*
X0206503Y0202084D01*
X0206503Y0202122D02*
X0210187Y0202122D01*
X0210161Y0202160D02*
X0206503Y0202160D01*
X0206503Y0202198D02*
X0210135Y0202198D01*
X0210109Y0202236D02*
X0206503Y0202236D01*
X0206503Y0202274D02*
X0210083Y0202274D01*
X0210057Y0202312D02*
X0206503Y0202312D01*
X0206503Y0202350D02*
X0210031Y0202350D01*
X0210005Y0202387D02*
X0206503Y0202387D01*
X0206503Y0202425D02*
X0209979Y0202425D01*
X0209954Y0202463D02*
X0206503Y0202463D01*
X0206503Y0202501D02*
X0209928Y0202501D01*
X0209902Y0202539D02*
X0206503Y0202539D01*
X0206503Y0202577D02*
X0209876Y0202577D01*
X0209850Y0202615D02*
X0206503Y0202615D01*
X0206503Y0202653D02*
X0209824Y0202653D01*
X0209798Y0202691D02*
X0206503Y0202691D01*
X0206503Y0202728D02*
X0209772Y0202728D01*
X0209746Y0202766D02*
X0206503Y0202766D01*
X0206503Y0202804D02*
X0209720Y0202804D01*
X0209694Y0202842D02*
X0206503Y0202842D01*
X0206503Y0202880D02*
X0209669Y0202880D01*
X0209643Y0202918D02*
X0206503Y0202918D01*
X0206503Y0202956D02*
X0209617Y0202956D01*
X0209591Y0202994D02*
X0206503Y0202994D01*
X0206503Y0203031D02*
X0209565Y0203031D01*
X0209539Y0203069D02*
X0206503Y0203069D01*
X0206503Y0203107D02*
X0209513Y0203107D01*
X0209487Y0203145D02*
X0206503Y0203145D01*
X0206503Y0203183D02*
X0209461Y0203183D01*
X0209435Y0203221D02*
X0206503Y0203221D01*
X0206503Y0203259D02*
X0209409Y0203259D01*
X0209384Y0203297D02*
X0206503Y0203297D01*
X0206503Y0203335D02*
X0209358Y0203335D01*
X0209332Y0203372D02*
X0206503Y0203372D01*
X0206503Y0203410D02*
X0209306Y0203410D01*
X0209280Y0203448D02*
X0206503Y0203448D01*
X0206503Y0203486D02*
X0209254Y0203486D01*
X0209228Y0203524D02*
X0206503Y0203524D01*
X0206503Y0203562D02*
X0209202Y0203562D01*
X0209176Y0203600D02*
X0206503Y0203600D01*
X0206503Y0203638D02*
X0209150Y0203638D01*
X0209124Y0203675D02*
X0206503Y0203675D01*
X0206503Y0203713D02*
X0209099Y0203713D01*
X0209073Y0203751D02*
X0206503Y0203751D01*
X0206503Y0203789D02*
X0209047Y0203789D01*
X0209021Y0203827D02*
X0206503Y0203827D01*
X0206503Y0203865D02*
X0208995Y0203865D01*
X0208969Y0203903D02*
X0206503Y0203903D01*
X0206503Y0203941D02*
X0208943Y0203941D01*
X0208917Y0203978D02*
X0206503Y0203978D01*
X0206503Y0204016D02*
X0208891Y0204016D01*
X0208865Y0204054D02*
X0206503Y0204054D01*
X0206503Y0204092D02*
X0208839Y0204092D01*
X0208813Y0204130D02*
X0206503Y0204130D01*
X0206503Y0204168D02*
X0208788Y0204168D01*
X0208762Y0204206D02*
X0206503Y0204206D01*
X0206503Y0204244D02*
X0208736Y0204244D01*
X0210243Y0204244D02*
X0212762Y0204244D01*
X0212737Y0204206D02*
X0210267Y0204206D01*
X0210292Y0204168D02*
X0212713Y0204168D01*
X0212688Y0204130D02*
X0210317Y0204130D01*
X0210342Y0204092D02*
X0212664Y0204092D01*
X0212639Y0204054D02*
X0210366Y0204054D01*
X0210391Y0204016D02*
X0212615Y0204016D01*
X0212590Y0203978D02*
X0210416Y0203978D01*
X0210440Y0203941D02*
X0212565Y0203941D01*
X0212541Y0203903D02*
X0210465Y0203903D01*
X0210490Y0203865D02*
X0212516Y0203865D01*
X0212492Y0203827D02*
X0210515Y0203827D01*
X0210539Y0203789D02*
X0212467Y0203789D01*
X0212443Y0203751D02*
X0210564Y0203751D01*
X0210589Y0203713D02*
X0212418Y0203713D01*
X0212393Y0203675D02*
X0210614Y0203675D01*
X0210638Y0203638D02*
X0212369Y0203638D01*
X0212344Y0203600D02*
X0210663Y0203600D01*
X0210688Y0203562D02*
X0212320Y0203562D01*
X0212295Y0203524D02*
X0210713Y0203524D01*
X0210737Y0203486D02*
X0212271Y0203486D01*
X0212246Y0203448D02*
X0210762Y0203448D01*
X0210787Y0203410D02*
X0212222Y0203410D01*
X0212197Y0203372D02*
X0210811Y0203372D01*
X0210836Y0203335D02*
X0212172Y0203335D01*
X0212148Y0203297D02*
X0210861Y0203297D01*
X0210886Y0203259D02*
X0212123Y0203259D01*
X0212099Y0203221D02*
X0210910Y0203221D01*
X0210935Y0203183D02*
X0212074Y0203183D01*
X0212050Y0203145D02*
X0210960Y0203145D01*
X0210985Y0203107D02*
X0212025Y0203107D01*
X0212001Y0203069D02*
X0211009Y0203069D01*
X0211034Y0203031D02*
X0211976Y0203031D01*
X0211951Y0202994D02*
X0211059Y0202994D01*
X0211084Y0202956D02*
X0211927Y0202956D01*
X0211902Y0202918D02*
X0211108Y0202918D01*
X0211133Y0202880D02*
X0211878Y0202880D01*
X0211853Y0202842D02*
X0211158Y0202842D01*
X0211182Y0202804D02*
X0211829Y0202804D01*
X0211804Y0202766D02*
X0211207Y0202766D01*
X0211232Y0202728D02*
X0211780Y0202728D01*
X0211755Y0202691D02*
X0211257Y0202691D01*
X0211281Y0202653D02*
X0211730Y0202653D01*
X0211706Y0202615D02*
X0211306Y0202615D01*
X0211331Y0202577D02*
X0211681Y0202577D01*
X0211657Y0202539D02*
X0211356Y0202539D01*
X0211380Y0202501D02*
X0211632Y0202501D01*
X0211608Y0202463D02*
X0211405Y0202463D01*
X0211430Y0202425D02*
X0211583Y0202425D01*
X0211559Y0202387D02*
X0211454Y0202387D01*
X0211479Y0202350D02*
X0211534Y0202350D01*
X0211509Y0202312D02*
X0211504Y0202312D01*
X0212537Y0201630D02*
X0216556Y0201630D01*
X0216556Y0201668D02*
X0212563Y0201668D01*
X0212588Y0201706D02*
X0216556Y0201706D01*
X0216556Y0201743D02*
X0212614Y0201743D01*
X0212640Y0201781D02*
X0216556Y0201781D01*
X0216556Y0201819D02*
X0212666Y0201819D01*
X0212691Y0201857D02*
X0216556Y0201857D01*
X0216556Y0201895D02*
X0212717Y0201895D01*
X0212743Y0201933D02*
X0216556Y0201933D01*
X0216556Y0201971D02*
X0212769Y0201971D01*
X0212794Y0202009D02*
X0216556Y0202009D01*
X0216556Y0202047D02*
X0212820Y0202047D01*
X0212846Y0202084D02*
X0216556Y0202084D01*
X0216556Y0202122D02*
X0212872Y0202122D01*
X0212897Y0202160D02*
X0216556Y0202160D01*
X0216556Y0202198D02*
X0212923Y0202198D01*
X0212949Y0202236D02*
X0216556Y0202236D01*
X0216556Y0202274D02*
X0212975Y0202274D01*
X0213000Y0202312D02*
X0216556Y0202312D01*
X0216556Y0202350D02*
X0213026Y0202350D01*
X0213052Y0202387D02*
X0216556Y0202387D01*
X0216556Y0202425D02*
X0213078Y0202425D01*
X0213103Y0202463D02*
X0216556Y0202463D01*
X0216556Y0202501D02*
X0213129Y0202501D01*
X0213155Y0202539D02*
X0216556Y0202539D01*
X0216556Y0202577D02*
X0213181Y0202577D01*
X0213206Y0202615D02*
X0216556Y0202615D01*
X0216556Y0202653D02*
X0213232Y0202653D01*
X0213258Y0202691D02*
X0216556Y0202691D01*
X0216556Y0202728D02*
X0213284Y0202728D01*
X0213309Y0202766D02*
X0216556Y0202766D01*
X0216556Y0202804D02*
X0213335Y0202804D01*
X0213361Y0202842D02*
X0216556Y0202842D01*
X0216556Y0202880D02*
X0213387Y0202880D01*
X0213412Y0202918D02*
X0216556Y0202918D01*
X0216556Y0202956D02*
X0213438Y0202956D01*
X0213464Y0202994D02*
X0216556Y0202994D01*
X0216556Y0203031D02*
X0213490Y0203031D01*
X0213515Y0203069D02*
X0216556Y0203069D01*
X0216556Y0203107D02*
X0213541Y0203107D01*
X0213567Y0203145D02*
X0216556Y0203145D01*
X0216556Y0203183D02*
X0213593Y0203183D01*
X0213618Y0203221D02*
X0216556Y0203221D01*
X0216556Y0203259D02*
X0213644Y0203259D01*
X0213670Y0203297D02*
X0216556Y0203297D01*
X0216556Y0203335D02*
X0213696Y0203335D01*
X0213721Y0203372D02*
X0216556Y0203372D01*
X0216556Y0203410D02*
X0213747Y0203410D01*
X0213773Y0203448D02*
X0216556Y0203448D01*
X0216556Y0203486D02*
X0213799Y0203486D01*
X0213824Y0203524D02*
X0216556Y0203524D01*
X0216556Y0203562D02*
X0213850Y0203562D01*
X0213876Y0203600D02*
X0216556Y0203600D01*
X0216556Y0203638D02*
X0213902Y0203638D01*
X0213927Y0203675D02*
X0216556Y0203675D01*
X0216556Y0203713D02*
X0213953Y0203713D01*
X0213979Y0203751D02*
X0216556Y0203751D01*
X0216556Y0203789D02*
X0214005Y0203789D01*
X0214030Y0203827D02*
X0216556Y0203827D01*
X0216556Y0203865D02*
X0214056Y0203865D01*
X0214082Y0203903D02*
X0216556Y0203903D01*
X0216556Y0203941D02*
X0214108Y0203941D01*
X0214133Y0203978D02*
X0216556Y0203978D01*
X0216556Y0204016D02*
X0214159Y0204016D01*
X0214185Y0204054D02*
X0216556Y0204054D01*
X0216556Y0204092D02*
X0214211Y0204092D01*
X0214236Y0204130D02*
X0216556Y0204130D01*
X0216556Y0204168D02*
X0214262Y0204168D01*
X0214288Y0204206D02*
X0216556Y0204206D01*
X0216556Y0204244D02*
X0214314Y0204244D01*
X0216556Y0204282D02*
X0206503Y0204282D01*
X0206503Y0204319D02*
X0216556Y0204319D01*
X0216556Y0204357D02*
X0206503Y0204357D01*
X0206503Y0204395D02*
X0216556Y0204395D01*
X0216556Y0204433D02*
X0206503Y0204433D01*
X0206503Y0204471D02*
X0216556Y0204471D01*
X0216556Y0204509D02*
X0206503Y0204509D01*
X0206503Y0204547D02*
X0216556Y0204547D01*
X0216556Y0204585D02*
X0206503Y0204585D01*
X0206503Y0204622D02*
X0216556Y0204622D01*
X0216556Y0204660D02*
X0206503Y0204660D01*
X0206503Y0204698D02*
X0216556Y0204698D01*
X0216556Y0204736D02*
X0206503Y0204736D01*
X0206503Y0204774D02*
X0216556Y0204774D01*
X0216556Y0204812D02*
X0206503Y0204812D01*
X0206503Y0204850D02*
X0216556Y0204850D01*
X0216556Y0204888D02*
X0206503Y0204888D01*
X0206503Y0204926D02*
X0216556Y0204926D01*
X0216556Y0204963D02*
X0206503Y0204963D01*
X0206503Y0205001D02*
X0216556Y0205001D01*
X0216556Y0205039D02*
X0206503Y0205039D01*
X0206503Y0205077D02*
X0216556Y0205077D01*
X0216556Y0205115D02*
X0206503Y0205115D01*
X0206503Y0205153D02*
X0216556Y0205153D01*
X0216556Y0205191D02*
X0206503Y0205191D01*
X0206503Y0205229D02*
X0216556Y0205229D01*
X0216556Y0205266D02*
X0206503Y0205266D01*
X0206503Y0205304D02*
X0216556Y0205304D01*
X0216556Y0205342D02*
X0206503Y0205342D01*
X0206503Y0205380D02*
X0216556Y0205380D01*
X0216556Y0205418D02*
X0206503Y0205418D01*
X0206503Y0205456D02*
X0216556Y0205456D01*
X0216556Y0205494D02*
X0206503Y0205494D01*
X0206503Y0205532D02*
X0216556Y0205532D01*
X0216556Y0205570D02*
X0206503Y0205570D01*
X0206503Y0205607D02*
X0216556Y0205607D01*
X0216556Y0205645D02*
X0206503Y0205645D01*
X0206503Y0205683D02*
X0216556Y0205683D01*
X0216556Y0205721D02*
X0206503Y0205721D01*
X0206503Y0205759D02*
X0216556Y0205759D01*
X0216556Y0205797D02*
X0206503Y0205797D01*
X0206503Y0205835D02*
X0216556Y0205835D01*
X0216556Y0205873D02*
X0206503Y0205873D01*
X0206503Y0205910D02*
X0216556Y0205910D01*
X0216556Y0205948D02*
X0206503Y0205948D01*
X0206503Y0205986D02*
X0216556Y0205986D01*
X0216556Y0206024D02*
X0206503Y0206024D01*
X0206503Y0206062D02*
X0216556Y0206062D01*
X0216556Y0206100D02*
X0206503Y0206100D01*
X0206503Y0206138D02*
X0216556Y0206138D01*
X0216556Y0206176D02*
X0206503Y0206176D01*
X0206503Y0206213D02*
X0216556Y0206213D01*
X0216556Y0206251D02*
X0206503Y0206251D01*
X0206503Y0206289D02*
X0216556Y0206289D01*
X0218360Y0204265D02*
X0219962Y0204265D01*
X0221388Y0202730D01*
X0219834Y0202730D01*
X0218360Y0204265D01*
X0218381Y0204244D02*
X0219982Y0204244D01*
X0220017Y0204206D02*
X0218417Y0204206D01*
X0218453Y0204168D02*
X0220052Y0204168D01*
X0220087Y0204130D02*
X0218490Y0204130D01*
X0218526Y0204092D02*
X0220123Y0204092D01*
X0220158Y0204054D02*
X0218562Y0204054D01*
X0218599Y0204016D02*
X0220193Y0204016D01*
X0220228Y0203978D02*
X0218635Y0203978D01*
X0218671Y0203941D02*
X0220263Y0203941D01*
X0220298Y0203903D02*
X0218708Y0203903D01*
X0218744Y0203865D02*
X0220334Y0203865D01*
X0220369Y0203827D02*
X0218781Y0203827D01*
X0218817Y0203789D02*
X0220404Y0203789D01*
X0220439Y0203751D02*
X0218853Y0203751D01*
X0218890Y0203713D02*
X0220474Y0203713D01*
X0220509Y0203675D02*
X0218926Y0203675D01*
X0218962Y0203638D02*
X0220545Y0203638D01*
X0220580Y0203600D02*
X0218999Y0203600D01*
X0219035Y0203562D02*
X0220615Y0203562D01*
X0220650Y0203524D02*
X0219071Y0203524D01*
X0219108Y0203486D02*
X0220685Y0203486D01*
X0220721Y0203448D02*
X0219144Y0203448D01*
X0219180Y0203410D02*
X0220756Y0203410D01*
X0220791Y0203372D02*
X0219217Y0203372D01*
X0219253Y0203335D02*
X0220826Y0203335D01*
X0220861Y0203297D02*
X0219289Y0203297D01*
X0219326Y0203259D02*
X0220896Y0203259D01*
X0220932Y0203221D02*
X0219362Y0203221D01*
X0219399Y0203183D02*
X0220967Y0203183D01*
X0221002Y0203145D02*
X0219435Y0203145D01*
X0219471Y0203107D02*
X0221037Y0203107D01*
X0221072Y0203069D02*
X0219508Y0203069D01*
X0219544Y0203031D02*
X0221107Y0203031D01*
X0221143Y0202994D02*
X0219580Y0202994D01*
X0219617Y0202956D02*
X0221178Y0202956D01*
X0221213Y0202918D02*
X0219653Y0202918D01*
X0219689Y0202880D02*
X0221248Y0202880D01*
X0221283Y0202842D02*
X0219726Y0202842D01*
X0219762Y0202804D02*
X0221318Y0202804D01*
X0221354Y0202766D02*
X0219798Y0202766D01*
X0219834Y0202730D02*
X0220817Y0201705D01*
X0218248Y0198230D01*
X0219841Y0198230D01*
X0221713Y0200800D01*
X0222410Y0200076D01*
X0222410Y0198230D01*
X0223738Y0198230D01*
X0223738Y0202730D01*
X0222410Y0202730D01*
X0222410Y0204265D01*
X0223738Y0204265D01*
X0223738Y0202730D01*
X0222410Y0202730D01*
X0222410Y0201628D01*
X0221388Y0202730D01*
X0219834Y0202730D01*
X0219835Y0202728D02*
X0221389Y0202728D01*
X0221424Y0202691D02*
X0219871Y0202691D01*
X0219907Y0202653D02*
X0221459Y0202653D01*
X0221494Y0202615D02*
X0219944Y0202615D01*
X0219980Y0202577D02*
X0221529Y0202577D01*
X0221565Y0202539D02*
X0220016Y0202539D01*
X0220053Y0202501D02*
X0221600Y0202501D01*
X0221635Y0202463D02*
X0220089Y0202463D01*
X0220126Y0202425D02*
X0221670Y0202425D01*
X0221705Y0202387D02*
X0220162Y0202387D01*
X0220198Y0202350D02*
X0221740Y0202350D01*
X0221776Y0202312D02*
X0220235Y0202312D01*
X0220271Y0202274D02*
X0221811Y0202274D01*
X0221846Y0202236D02*
X0220307Y0202236D01*
X0220344Y0202198D02*
X0221881Y0202198D01*
X0221916Y0202160D02*
X0220380Y0202160D01*
X0220416Y0202122D02*
X0221951Y0202122D01*
X0221986Y0202084D02*
X0220453Y0202084D01*
X0220489Y0202047D02*
X0222022Y0202047D01*
X0222057Y0202009D02*
X0220525Y0202009D01*
X0220562Y0201971D02*
X0222092Y0201971D01*
X0222127Y0201933D02*
X0220598Y0201933D01*
X0220634Y0201895D02*
X0222162Y0201895D01*
X0222197Y0201857D02*
X0220671Y0201857D01*
X0220707Y0201819D02*
X0222233Y0201819D01*
X0222268Y0201781D02*
X0220743Y0201781D01*
X0220780Y0201743D02*
X0222303Y0201743D01*
X0222338Y0201706D02*
X0220816Y0201706D01*
X0220790Y0201668D02*
X0222373Y0201668D01*
X0222410Y0201668D02*
X0223738Y0201668D01*
X0223738Y0201706D02*
X0222410Y0201706D01*
X0222410Y0201743D02*
X0223738Y0201743D01*
X0223738Y0201781D02*
X0222410Y0201781D01*
X0222410Y0201819D02*
X0223738Y0201819D01*
X0223738Y0201857D02*
X0222410Y0201857D01*
X0222410Y0201895D02*
X0223738Y0201895D01*
X0223738Y0201933D02*
X0222410Y0201933D01*
X0222410Y0201971D02*
X0223738Y0201971D01*
X0223738Y0202009D02*
X0222410Y0202009D01*
X0222410Y0202047D02*
X0223738Y0202047D01*
X0223738Y0202084D02*
X0222410Y0202084D01*
X0222410Y0202122D02*
X0223738Y0202122D01*
X0223738Y0202160D02*
X0222410Y0202160D01*
X0222410Y0202198D02*
X0223738Y0202198D01*
X0223738Y0202236D02*
X0222410Y0202236D01*
X0222410Y0202274D02*
X0223738Y0202274D01*
X0223738Y0202312D02*
X0222410Y0202312D01*
X0222410Y0202350D02*
X0223738Y0202350D01*
X0223738Y0202387D02*
X0222410Y0202387D01*
X0222410Y0202425D02*
X0223738Y0202425D01*
X0223738Y0202463D02*
X0222410Y0202463D01*
X0222410Y0202501D02*
X0223738Y0202501D01*
X0223738Y0202539D02*
X0222410Y0202539D01*
X0222410Y0202577D02*
X0223738Y0202577D01*
X0223738Y0202615D02*
X0222410Y0202615D01*
X0222410Y0202653D02*
X0223738Y0202653D01*
X0223738Y0202691D02*
X0222410Y0202691D01*
X0222410Y0202728D02*
X0223738Y0202728D01*
X0223738Y0202766D02*
X0222410Y0202766D01*
X0222410Y0202804D02*
X0223738Y0202804D01*
X0223738Y0202842D02*
X0222410Y0202842D01*
X0222410Y0202880D02*
X0223738Y0202880D01*
X0223738Y0202918D02*
X0222410Y0202918D01*
X0222410Y0202956D02*
X0223738Y0202956D01*
X0223738Y0202994D02*
X0222410Y0202994D01*
X0222410Y0203031D02*
X0223738Y0203031D01*
X0223738Y0203069D02*
X0222410Y0203069D01*
X0222410Y0203107D02*
X0223738Y0203107D01*
X0223738Y0203145D02*
X0222410Y0203145D01*
X0222410Y0203183D02*
X0223738Y0203183D01*
X0223738Y0203221D02*
X0222410Y0203221D01*
X0222410Y0203259D02*
X0223738Y0203259D01*
X0223738Y0203297D02*
X0222410Y0203297D01*
X0222410Y0203335D02*
X0223738Y0203335D01*
X0223738Y0203372D02*
X0222410Y0203372D01*
X0222410Y0203410D02*
X0223738Y0203410D01*
X0223738Y0203448D02*
X0222410Y0203448D01*
X0222410Y0203486D02*
X0223738Y0203486D01*
X0223738Y0203524D02*
X0222410Y0203524D01*
X0222410Y0203562D02*
X0223738Y0203562D01*
X0223738Y0203600D02*
X0222410Y0203600D01*
X0222410Y0203638D02*
X0223738Y0203638D01*
X0223738Y0203675D02*
X0222410Y0203675D01*
X0222410Y0203713D02*
X0223738Y0203713D01*
X0223738Y0203751D02*
X0222410Y0203751D01*
X0222410Y0203789D02*
X0223738Y0203789D01*
X0223738Y0203827D02*
X0222410Y0203827D01*
X0222410Y0203865D02*
X0223738Y0203865D01*
X0223738Y0203903D02*
X0222410Y0203903D01*
X0222410Y0203941D02*
X0223738Y0203941D01*
X0223738Y0203978D02*
X0222410Y0203978D01*
X0222410Y0204016D02*
X0223738Y0204016D01*
X0223738Y0204054D02*
X0222410Y0204054D01*
X0222410Y0204092D02*
X0223738Y0204092D01*
X0223738Y0204130D02*
X0222410Y0204130D01*
X0222410Y0204168D02*
X0223738Y0204168D01*
X0223738Y0204206D02*
X0222410Y0204206D01*
X0222410Y0204244D02*
X0223738Y0204244D01*
X0225254Y0203410D02*
X0229975Y0203410D01*
X0229975Y0203372D02*
X0225233Y0203372D01*
X0225212Y0203335D02*
X0229975Y0203335D01*
X0229975Y0203297D02*
X0225192Y0203297D01*
X0225171Y0203259D02*
X0229975Y0203259D01*
X0229975Y0203221D02*
X0225150Y0203221D01*
X0225129Y0203183D02*
X0229975Y0203183D01*
X0229975Y0203145D02*
X0225109Y0203145D01*
X0225088Y0203108D02*
X0225275Y0203449D01*
X0225538Y0203738D01*
X0225868Y0203969D01*
X0226257Y0204134D01*
X0226707Y0204232D01*
X0227216Y0204265D01*
X0229975Y0204265D01*
X0229975Y0202730D01*
X0228647Y0202730D01*
X0228647Y0203068D01*
X0227329Y0203068D01*
X0226890Y0203014D01*
X0226559Y0202852D01*
X0226466Y0202730D01*
X0224981Y0202730D01*
X0225088Y0203108D01*
X0225088Y0203107D02*
X0229975Y0203107D01*
X0229975Y0203069D02*
X0225077Y0203069D01*
X0225066Y0203031D02*
X0227032Y0203031D01*
X0226848Y0202994D02*
X0225056Y0202994D01*
X0225045Y0202956D02*
X0226771Y0202956D01*
X0226693Y0202918D02*
X0225034Y0202918D01*
X0225023Y0202880D02*
X0226616Y0202880D01*
X0226552Y0202842D02*
X0225013Y0202842D01*
X0225002Y0202804D02*
X0226523Y0202804D01*
X0226494Y0202766D02*
X0224991Y0202766D01*
X0224981Y0202730D02*
X0224976Y0202715D01*
X0224939Y0202272D01*
X0224939Y0202253D01*
X0225030Y0201590D01*
X0225299Y0201061D01*
X0225712Y0200663D01*
X0226235Y0200386D01*
X0224759Y0198230D01*
X0226312Y0198230D01*
X0227603Y0200161D01*
X0228647Y0200161D01*
X0228647Y0198230D01*
X0229975Y0198230D01*
X0229975Y0202730D01*
X0228647Y0202730D01*
X0228647Y0201335D01*
X0227302Y0201335D01*
X0226866Y0201395D01*
X0226546Y0201570D01*
X0226349Y0201843D01*
X0226285Y0202191D01*
X0226285Y0202204D01*
X0226353Y0202582D01*
X0226466Y0202730D01*
X0224981Y0202730D01*
X0224980Y0202728D02*
X0226465Y0202728D01*
X0226436Y0202691D02*
X0224974Y0202691D01*
X0224971Y0202653D02*
X0226407Y0202653D01*
X0226378Y0202615D02*
X0224968Y0202615D01*
X0224965Y0202577D02*
X0226352Y0202577D01*
X0226345Y0202539D02*
X0224961Y0202539D01*
X0224958Y0202501D02*
X0226338Y0202501D01*
X0226331Y0202463D02*
X0224955Y0202463D01*
X0224952Y0202425D02*
X0226325Y0202425D01*
X0226318Y0202387D02*
X0224949Y0202387D01*
X0224946Y0202350D02*
X0226311Y0202350D01*
X0226304Y0202312D02*
X0224943Y0202312D01*
X0224939Y0202274D02*
X0226297Y0202274D01*
X0226290Y0202236D02*
X0224942Y0202236D01*
X0224947Y0202198D02*
X0226285Y0202198D01*
X0226290Y0202160D02*
X0224952Y0202160D01*
X0224957Y0202122D02*
X0226297Y0202122D01*
X0226304Y0202084D02*
X0224962Y0202084D01*
X0224967Y0202047D02*
X0226311Y0202047D01*
X0226318Y0202009D02*
X0224973Y0202009D01*
X0224978Y0201971D02*
X0226325Y0201971D01*
X0226332Y0201933D02*
X0224983Y0201933D01*
X0224988Y0201895D02*
X0226340Y0201895D01*
X0226347Y0201857D02*
X0224993Y0201857D01*
X0224998Y0201819D02*
X0226366Y0201819D01*
X0226393Y0201781D02*
X0225004Y0201781D01*
X0225009Y0201743D02*
X0226421Y0201743D01*
X0226448Y0201706D02*
X0225014Y0201706D01*
X0225019Y0201668D02*
X0226475Y0201668D01*
X0226502Y0201630D02*
X0225024Y0201630D01*
X0225029Y0201592D02*
X0226530Y0201592D01*
X0226574Y0201554D02*
X0225048Y0201554D01*
X0225067Y0201516D02*
X0226644Y0201516D01*
X0226713Y0201478D02*
X0225086Y0201478D01*
X0225106Y0201440D02*
X0226783Y0201440D01*
X0226852Y0201403D02*
X0225125Y0201403D01*
X0225144Y0201365D02*
X0227088Y0201365D01*
X0226231Y0200380D02*
X0229975Y0200380D01*
X0229975Y0200418D02*
X0226175Y0200418D01*
X0226104Y0200456D02*
X0229975Y0200456D01*
X0229975Y0200493D02*
X0226032Y0200493D01*
X0225961Y0200531D02*
X0229975Y0200531D01*
X0229975Y0200569D02*
X0225889Y0200569D01*
X0225817Y0200607D02*
X0229975Y0200607D01*
X0229975Y0200645D02*
X0225746Y0200645D01*
X0225691Y0200683D02*
X0229975Y0200683D01*
X0229975Y0200721D02*
X0225652Y0200721D01*
X0225613Y0200759D02*
X0229975Y0200759D01*
X0229975Y0200796D02*
X0225573Y0200796D01*
X0225534Y0200834D02*
X0229975Y0200834D01*
X0229975Y0200872D02*
X0225495Y0200872D01*
X0225456Y0200910D02*
X0229975Y0200910D01*
X0229975Y0200948D02*
X0225416Y0200948D01*
X0225377Y0200986D02*
X0229975Y0200986D01*
X0229975Y0201024D02*
X0225338Y0201024D01*
X0225299Y0201062D02*
X0229975Y0201062D01*
X0229975Y0201100D02*
X0225280Y0201100D01*
X0225260Y0201137D02*
X0229975Y0201137D01*
X0229975Y0201175D02*
X0225241Y0201175D01*
X0225222Y0201213D02*
X0229975Y0201213D01*
X0229975Y0201251D02*
X0225202Y0201251D01*
X0225183Y0201289D02*
X0229975Y0201289D01*
X0229975Y0201327D02*
X0225164Y0201327D01*
X0223738Y0201327D02*
X0220538Y0201327D01*
X0220566Y0201365D02*
X0223738Y0201365D01*
X0223738Y0201403D02*
X0220594Y0201403D01*
X0220622Y0201440D02*
X0223738Y0201440D01*
X0223738Y0201478D02*
X0220650Y0201478D01*
X0220678Y0201516D02*
X0223738Y0201516D01*
X0223738Y0201554D02*
X0220706Y0201554D01*
X0220734Y0201592D02*
X0223738Y0201592D01*
X0223738Y0201630D02*
X0222410Y0201630D01*
X0222408Y0201630D02*
X0220762Y0201630D01*
X0220510Y0201289D02*
X0223738Y0201289D01*
X0223738Y0201251D02*
X0220482Y0201251D01*
X0220454Y0201213D02*
X0223738Y0201213D01*
X0223738Y0201175D02*
X0220426Y0201175D01*
X0220398Y0201137D02*
X0223738Y0201137D01*
X0223738Y0201100D02*
X0220370Y0201100D01*
X0220342Y0201062D02*
X0223738Y0201062D01*
X0223738Y0201024D02*
X0220314Y0201024D01*
X0220286Y0200986D02*
X0223738Y0200986D01*
X0223738Y0200948D02*
X0220258Y0200948D01*
X0220230Y0200910D02*
X0223738Y0200910D01*
X0223738Y0200872D02*
X0220202Y0200872D01*
X0220174Y0200834D02*
X0223738Y0200834D01*
X0223738Y0200796D02*
X0221716Y0200796D01*
X0221710Y0200796D02*
X0220146Y0200796D01*
X0220118Y0200759D02*
X0221683Y0200759D01*
X0221655Y0200721D02*
X0220090Y0200721D01*
X0220062Y0200683D02*
X0221627Y0200683D01*
X0221600Y0200645D02*
X0220033Y0200645D01*
X0220005Y0200607D02*
X0221572Y0200607D01*
X0221545Y0200569D02*
X0219977Y0200569D01*
X0219949Y0200531D02*
X0221517Y0200531D01*
X0221489Y0200493D02*
X0219921Y0200493D01*
X0219893Y0200456D02*
X0221462Y0200456D01*
X0221434Y0200418D02*
X0219865Y0200418D01*
X0219837Y0200380D02*
X0221407Y0200380D01*
X0221379Y0200342D02*
X0219809Y0200342D01*
X0219781Y0200304D02*
X0221351Y0200304D01*
X0221324Y0200266D02*
X0219753Y0200266D01*
X0219725Y0200228D02*
X0221296Y0200228D01*
X0221269Y0200190D02*
X0219697Y0200190D01*
X0219669Y0200152D02*
X0221241Y0200152D01*
X0221213Y0200115D02*
X0219641Y0200115D01*
X0219613Y0200077D02*
X0221186Y0200077D01*
X0221158Y0200039D02*
X0219585Y0200039D01*
X0219557Y0200001D02*
X0221131Y0200001D01*
X0221103Y0199963D02*
X0219529Y0199963D01*
X0219501Y0199925D02*
X0221075Y0199925D01*
X0221048Y0199887D02*
X0219473Y0199887D01*
X0219445Y0199849D02*
X0221020Y0199849D01*
X0220993Y0199812D02*
X0219417Y0199812D01*
X0219389Y0199774D02*
X0220965Y0199774D01*
X0220937Y0199736D02*
X0219361Y0199736D01*
X0219333Y0199698D02*
X0220910Y0199698D01*
X0220882Y0199660D02*
X0219305Y0199660D01*
X0219277Y0199622D02*
X0220855Y0199622D01*
X0220827Y0199584D02*
X0219249Y0199584D01*
X0219221Y0199546D02*
X0220799Y0199546D01*
X0220772Y0199508D02*
X0219193Y0199508D01*
X0219165Y0199471D02*
X0220744Y0199471D01*
X0220717Y0199433D02*
X0219137Y0199433D01*
X0219109Y0199395D02*
X0220689Y0199395D01*
X0220661Y0199357D02*
X0219081Y0199357D01*
X0219053Y0199319D02*
X0220634Y0199319D01*
X0220606Y0199281D02*
X0219025Y0199281D01*
X0218997Y0199243D02*
X0220579Y0199243D01*
X0220551Y0199205D02*
X0218969Y0199205D01*
X0218941Y0199168D02*
X0220523Y0199168D01*
X0220496Y0199130D02*
X0218913Y0199130D01*
X0218885Y0199092D02*
X0220468Y0199092D01*
X0220441Y0199054D02*
X0218857Y0199054D01*
X0218829Y0199016D02*
X0220413Y0199016D01*
X0220385Y0198978D02*
X0218801Y0198978D01*
X0218773Y0198940D02*
X0220358Y0198940D01*
X0220330Y0198902D02*
X0218745Y0198902D01*
X0218717Y0198865D02*
X0220303Y0198865D01*
X0220275Y0198827D02*
X0218689Y0198827D01*
X0218661Y0198789D02*
X0220247Y0198789D01*
X0220220Y0198751D02*
X0218633Y0198751D01*
X0218605Y0198713D02*
X0220192Y0198713D01*
X0220165Y0198675D02*
X0218577Y0198675D01*
X0218548Y0198637D02*
X0220137Y0198637D01*
X0220109Y0198599D02*
X0218520Y0198599D01*
X0218492Y0198561D02*
X0220082Y0198561D01*
X0220054Y0198524D02*
X0218464Y0198524D01*
X0218436Y0198486D02*
X0220027Y0198486D01*
X0219999Y0198448D02*
X0218408Y0198448D01*
X0218380Y0198410D02*
X0219971Y0198410D01*
X0219944Y0198372D02*
X0218352Y0198372D01*
X0218324Y0198334D02*
X0219916Y0198334D01*
X0219889Y0198296D02*
X0218296Y0198296D01*
X0218268Y0198258D02*
X0219861Y0198258D01*
X0222410Y0198258D02*
X0223738Y0198258D01*
X0223738Y0198296D02*
X0222410Y0198296D01*
X0222410Y0198334D02*
X0223738Y0198334D01*
X0223738Y0198372D02*
X0222410Y0198372D01*
X0222410Y0198410D02*
X0223738Y0198410D01*
X0223738Y0198448D02*
X0222410Y0198448D01*
X0222410Y0198486D02*
X0223738Y0198486D01*
X0223738Y0198524D02*
X0222410Y0198524D01*
X0222410Y0198561D02*
X0223738Y0198561D01*
X0223738Y0198599D02*
X0222410Y0198599D01*
X0222410Y0198637D02*
X0223738Y0198637D01*
X0223738Y0198675D02*
X0222410Y0198675D01*
X0222410Y0198713D02*
X0223738Y0198713D01*
X0223738Y0198751D02*
X0222410Y0198751D01*
X0222410Y0198789D02*
X0223738Y0198789D01*
X0223738Y0198827D02*
X0222410Y0198827D01*
X0222410Y0198865D02*
X0223738Y0198865D01*
X0223738Y0198902D02*
X0222410Y0198902D01*
X0222410Y0198940D02*
X0223738Y0198940D01*
X0223738Y0198978D02*
X0222410Y0198978D01*
X0222410Y0199016D02*
X0223738Y0199016D01*
X0223738Y0199054D02*
X0222410Y0199054D01*
X0222410Y0199092D02*
X0223738Y0199092D01*
X0223738Y0199130D02*
X0222410Y0199130D01*
X0222410Y0199168D02*
X0223738Y0199168D01*
X0223738Y0199205D02*
X0222410Y0199205D01*
X0222410Y0199243D02*
X0223738Y0199243D01*
X0223738Y0199281D02*
X0222410Y0199281D01*
X0222410Y0199319D02*
X0223738Y0199319D01*
X0223738Y0199357D02*
X0222410Y0199357D01*
X0222410Y0199395D02*
X0223738Y0199395D01*
X0223738Y0199433D02*
X0222410Y0199433D01*
X0222410Y0199471D02*
X0223738Y0199471D01*
X0223738Y0199508D02*
X0222410Y0199508D01*
X0222410Y0199546D02*
X0223738Y0199546D01*
X0223738Y0199584D02*
X0222410Y0199584D01*
X0222410Y0199622D02*
X0223738Y0199622D01*
X0223738Y0199660D02*
X0222410Y0199660D01*
X0222410Y0199698D02*
X0223738Y0199698D01*
X0223738Y0199736D02*
X0222410Y0199736D01*
X0222410Y0199774D02*
X0223738Y0199774D01*
X0223738Y0199812D02*
X0222410Y0199812D01*
X0222410Y0199849D02*
X0223738Y0199849D01*
X0223738Y0199887D02*
X0222410Y0199887D01*
X0222410Y0199925D02*
X0223738Y0199925D01*
X0223738Y0199963D02*
X0222410Y0199963D01*
X0222410Y0200001D02*
X0223738Y0200001D01*
X0223738Y0200039D02*
X0222410Y0200039D01*
X0222409Y0200077D02*
X0223738Y0200077D01*
X0223738Y0200115D02*
X0222373Y0200115D01*
X0222336Y0200152D02*
X0223738Y0200152D01*
X0223738Y0200190D02*
X0222300Y0200190D01*
X0222263Y0200228D02*
X0223738Y0200228D01*
X0223738Y0200266D02*
X0222227Y0200266D01*
X0222190Y0200304D02*
X0223738Y0200304D01*
X0223738Y0200342D02*
X0222154Y0200342D01*
X0222117Y0200380D02*
X0223738Y0200380D01*
X0223738Y0200418D02*
X0222081Y0200418D01*
X0222044Y0200456D02*
X0223738Y0200456D01*
X0223738Y0200493D02*
X0222008Y0200493D01*
X0221971Y0200531D02*
X0223738Y0200531D01*
X0223738Y0200569D02*
X0221935Y0200569D01*
X0221898Y0200607D02*
X0223738Y0200607D01*
X0223738Y0200645D02*
X0221862Y0200645D01*
X0221826Y0200683D02*
X0223738Y0200683D01*
X0223738Y0200721D02*
X0221789Y0200721D01*
X0221753Y0200759D02*
X0223738Y0200759D01*
X0225608Y0199471D02*
X0227141Y0199471D01*
X0227167Y0199508D02*
X0225634Y0199508D01*
X0225660Y0199546D02*
X0227192Y0199546D01*
X0227217Y0199584D02*
X0225686Y0199584D01*
X0225712Y0199622D02*
X0227243Y0199622D01*
X0227268Y0199660D02*
X0225738Y0199660D01*
X0225764Y0199698D02*
X0227293Y0199698D01*
X0227319Y0199736D02*
X0225790Y0199736D01*
X0225816Y0199774D02*
X0227344Y0199774D01*
X0227369Y0199812D02*
X0225842Y0199812D01*
X0225868Y0199849D02*
X0227395Y0199849D01*
X0227420Y0199887D02*
X0225894Y0199887D01*
X0225920Y0199925D02*
X0227445Y0199925D01*
X0227471Y0199963D02*
X0225946Y0199963D01*
X0225972Y0200001D02*
X0227496Y0200001D01*
X0227521Y0200039D02*
X0225997Y0200039D01*
X0226023Y0200077D02*
X0227547Y0200077D01*
X0227572Y0200115D02*
X0226049Y0200115D01*
X0226075Y0200152D02*
X0227597Y0200152D01*
X0227116Y0199433D02*
X0225582Y0199433D01*
X0225556Y0199395D02*
X0227091Y0199395D01*
X0227065Y0199357D02*
X0225531Y0199357D01*
X0225505Y0199319D02*
X0227040Y0199319D01*
X0227015Y0199281D02*
X0225479Y0199281D01*
X0225453Y0199243D02*
X0226989Y0199243D01*
X0226964Y0199205D02*
X0225427Y0199205D01*
X0225401Y0199168D02*
X0226939Y0199168D01*
X0226913Y0199130D02*
X0225375Y0199130D01*
X0225349Y0199092D02*
X0226888Y0199092D01*
X0226863Y0199054D02*
X0225323Y0199054D01*
X0225297Y0199016D02*
X0226837Y0199016D01*
X0226812Y0198978D02*
X0225271Y0198978D01*
X0225245Y0198940D02*
X0226787Y0198940D01*
X0226761Y0198902D02*
X0225219Y0198902D01*
X0225193Y0198865D02*
X0226736Y0198865D01*
X0226710Y0198827D02*
X0225167Y0198827D01*
X0225141Y0198789D02*
X0226685Y0198789D01*
X0226660Y0198751D02*
X0225116Y0198751D01*
X0225090Y0198713D02*
X0226634Y0198713D01*
X0226609Y0198675D02*
X0225064Y0198675D01*
X0225038Y0198637D02*
X0226584Y0198637D01*
X0226558Y0198599D02*
X0225012Y0198599D01*
X0224986Y0198561D02*
X0226533Y0198561D01*
X0226508Y0198524D02*
X0224960Y0198524D01*
X0224934Y0198486D02*
X0226482Y0198486D01*
X0226457Y0198448D02*
X0224908Y0198448D01*
X0224882Y0198410D02*
X0226432Y0198410D01*
X0226406Y0198372D02*
X0224856Y0198372D01*
X0224830Y0198334D02*
X0226381Y0198334D01*
X0226356Y0198296D02*
X0224804Y0198296D01*
X0224778Y0198258D02*
X0226330Y0198258D01*
X0226101Y0200190D02*
X0229975Y0200190D01*
X0229975Y0200152D02*
X0228647Y0200152D01*
X0228647Y0200115D02*
X0229975Y0200115D01*
X0229975Y0200077D02*
X0228647Y0200077D01*
X0228647Y0200039D02*
X0229975Y0200039D01*
X0229975Y0200001D02*
X0228647Y0200001D01*
X0228647Y0199963D02*
X0229975Y0199963D01*
X0229975Y0199925D02*
X0228647Y0199925D01*
X0228647Y0199887D02*
X0229975Y0199887D01*
X0229975Y0199849D02*
X0228647Y0199849D01*
X0228647Y0199812D02*
X0229975Y0199812D01*
X0229975Y0199774D02*
X0228647Y0199774D01*
X0228647Y0199736D02*
X0229975Y0199736D01*
X0229975Y0199698D02*
X0228647Y0199698D01*
X0228647Y0199660D02*
X0229975Y0199660D01*
X0229975Y0199622D02*
X0228647Y0199622D01*
X0228647Y0199584D02*
X0229975Y0199584D01*
X0229975Y0199546D02*
X0228647Y0199546D01*
X0228647Y0199508D02*
X0229975Y0199508D01*
X0229975Y0199471D02*
X0228647Y0199471D01*
X0228647Y0199433D02*
X0229975Y0199433D01*
X0229975Y0199395D02*
X0228647Y0199395D01*
X0228647Y0199357D02*
X0229975Y0199357D01*
X0229975Y0199319D02*
X0228647Y0199319D01*
X0228647Y0199281D02*
X0229975Y0199281D01*
X0229975Y0199243D02*
X0228647Y0199243D01*
X0228647Y0199205D02*
X0229975Y0199205D01*
X0229975Y0199168D02*
X0228647Y0199168D01*
X0228647Y0199130D02*
X0229975Y0199130D01*
X0229975Y0199092D02*
X0228647Y0199092D01*
X0228647Y0199054D02*
X0229975Y0199054D01*
X0229975Y0199016D02*
X0228647Y0199016D01*
X0228647Y0198978D02*
X0229975Y0198978D01*
X0229975Y0198940D02*
X0228647Y0198940D01*
X0228647Y0198902D02*
X0229975Y0198902D01*
X0229975Y0198865D02*
X0228647Y0198865D01*
X0228647Y0198827D02*
X0229975Y0198827D01*
X0229975Y0198789D02*
X0228647Y0198789D01*
X0228647Y0198751D02*
X0229975Y0198751D01*
X0229975Y0198713D02*
X0228647Y0198713D01*
X0228647Y0198675D02*
X0229975Y0198675D01*
X0229975Y0198637D02*
X0228647Y0198637D01*
X0228647Y0198599D02*
X0229975Y0198599D01*
X0229975Y0198561D02*
X0228647Y0198561D01*
X0228647Y0198524D02*
X0229975Y0198524D01*
X0229975Y0198486D02*
X0228647Y0198486D01*
X0228647Y0198448D02*
X0229975Y0198448D01*
X0229975Y0198410D02*
X0228647Y0198410D01*
X0228647Y0198372D02*
X0229975Y0198372D01*
X0229975Y0198334D02*
X0228647Y0198334D01*
X0228647Y0198296D02*
X0229975Y0198296D01*
X0229975Y0198258D02*
X0228647Y0198258D01*
X0230906Y0198230D02*
X0232821Y0202730D01*
X0235391Y0202730D01*
X0234718Y0204310D01*
X0233494Y0204310D01*
X0232821Y0202730D01*
X0235391Y0202730D01*
X0237305Y0198230D01*
X0235951Y0198230D01*
X0234124Y0202712D01*
X0232297Y0198230D01*
X0230906Y0198230D01*
X0230918Y0198258D02*
X0232308Y0198258D01*
X0232323Y0198296D02*
X0230934Y0198296D01*
X0230950Y0198334D02*
X0232339Y0198334D01*
X0232354Y0198372D02*
X0230966Y0198372D01*
X0230983Y0198410D02*
X0232370Y0198410D01*
X0232385Y0198448D02*
X0230999Y0198448D01*
X0231015Y0198486D02*
X0232401Y0198486D01*
X0232416Y0198524D02*
X0231031Y0198524D01*
X0231047Y0198561D02*
X0232432Y0198561D01*
X0232447Y0198599D02*
X0231063Y0198599D01*
X0231079Y0198637D02*
X0232462Y0198637D01*
X0232478Y0198675D02*
X0231095Y0198675D01*
X0231112Y0198713D02*
X0232493Y0198713D01*
X0232509Y0198751D02*
X0231128Y0198751D01*
X0231144Y0198789D02*
X0232524Y0198789D01*
X0232540Y0198827D02*
X0231160Y0198827D01*
X0231176Y0198865D02*
X0232555Y0198865D01*
X0232571Y0198902D02*
X0231192Y0198902D01*
X0231208Y0198940D02*
X0232586Y0198940D01*
X0232601Y0198978D02*
X0231224Y0198978D01*
X0231241Y0199016D02*
X0232617Y0199016D01*
X0232632Y0199054D02*
X0231257Y0199054D01*
X0231273Y0199092D02*
X0232648Y0199092D01*
X0232663Y0199130D02*
X0231289Y0199130D01*
X0231305Y0199168D02*
X0232679Y0199168D01*
X0232694Y0199205D02*
X0231321Y0199205D01*
X0231337Y0199243D02*
X0232710Y0199243D01*
X0232725Y0199281D02*
X0231353Y0199281D01*
X0231370Y0199319D02*
X0232740Y0199319D01*
X0232756Y0199357D02*
X0231386Y0199357D01*
X0231402Y0199395D02*
X0232771Y0199395D01*
X0232787Y0199433D02*
X0231418Y0199433D01*
X0231434Y0199471D02*
X0232802Y0199471D01*
X0232818Y0199508D02*
X0231450Y0199508D01*
X0231466Y0199546D02*
X0232833Y0199546D01*
X0232849Y0199584D02*
X0231482Y0199584D01*
X0231499Y0199622D02*
X0232864Y0199622D01*
X0232879Y0199660D02*
X0231515Y0199660D01*
X0231531Y0199698D02*
X0232895Y0199698D01*
X0232910Y0199736D02*
X0231547Y0199736D01*
X0231563Y0199774D02*
X0232926Y0199774D01*
X0232941Y0199812D02*
X0231579Y0199812D01*
X0231595Y0199849D02*
X0232957Y0199849D01*
X0232972Y0199887D02*
X0231611Y0199887D01*
X0231628Y0199925D02*
X0232987Y0199925D01*
X0233003Y0199963D02*
X0231644Y0199963D01*
X0231660Y0200001D02*
X0233018Y0200001D01*
X0233034Y0200039D02*
X0231676Y0200039D01*
X0231692Y0200077D02*
X0233049Y0200077D01*
X0233065Y0200115D02*
X0231708Y0200115D01*
X0231724Y0200152D02*
X0233080Y0200152D01*
X0233096Y0200190D02*
X0231740Y0200190D01*
X0231757Y0200228D02*
X0233111Y0200228D01*
X0233126Y0200266D02*
X0231773Y0200266D01*
X0231789Y0200304D02*
X0233142Y0200304D01*
X0233157Y0200342D02*
X0231805Y0200342D01*
X0231821Y0200380D02*
X0233173Y0200380D01*
X0233188Y0200418D02*
X0231837Y0200418D01*
X0231853Y0200456D02*
X0233204Y0200456D01*
X0233219Y0200493D02*
X0231869Y0200493D01*
X0231886Y0200531D02*
X0233235Y0200531D01*
X0233250Y0200569D02*
X0231902Y0200569D01*
X0231918Y0200607D02*
X0233265Y0200607D01*
X0233281Y0200645D02*
X0231934Y0200645D01*
X0231950Y0200683D02*
X0233296Y0200683D01*
X0233312Y0200721D02*
X0231966Y0200721D01*
X0231982Y0200759D02*
X0233327Y0200759D01*
X0233343Y0200796D02*
X0231998Y0200796D01*
X0232014Y0200834D02*
X0233358Y0200834D01*
X0233374Y0200872D02*
X0232031Y0200872D01*
X0232047Y0200910D02*
X0233389Y0200910D01*
X0233404Y0200948D02*
X0232063Y0200948D01*
X0232079Y0200986D02*
X0233420Y0200986D01*
X0233435Y0201024D02*
X0232095Y0201024D01*
X0232111Y0201062D02*
X0233451Y0201062D01*
X0233466Y0201100D02*
X0232127Y0201100D01*
X0232143Y0201137D02*
X0233482Y0201137D01*
X0233497Y0201175D02*
X0232160Y0201175D01*
X0232176Y0201213D02*
X0233513Y0201213D01*
X0233528Y0201251D02*
X0232192Y0201251D01*
X0232208Y0201289D02*
X0233543Y0201289D01*
X0233559Y0201327D02*
X0232224Y0201327D01*
X0232240Y0201365D02*
X0233574Y0201365D01*
X0233590Y0201403D02*
X0232256Y0201403D01*
X0232272Y0201440D02*
X0233605Y0201440D01*
X0233621Y0201478D02*
X0232289Y0201478D01*
X0232305Y0201516D02*
X0233636Y0201516D01*
X0233651Y0201554D02*
X0232321Y0201554D01*
X0232337Y0201592D02*
X0233667Y0201592D01*
X0233682Y0201630D02*
X0232353Y0201630D01*
X0232369Y0201668D02*
X0233698Y0201668D01*
X0233713Y0201706D02*
X0232385Y0201706D01*
X0232401Y0201743D02*
X0233729Y0201743D01*
X0233744Y0201781D02*
X0232418Y0201781D01*
X0232434Y0201819D02*
X0233760Y0201819D01*
X0233775Y0201857D02*
X0232450Y0201857D01*
X0232466Y0201895D02*
X0233790Y0201895D01*
X0233806Y0201933D02*
X0232482Y0201933D01*
X0232498Y0201971D02*
X0233821Y0201971D01*
X0233837Y0202009D02*
X0232514Y0202009D01*
X0232530Y0202047D02*
X0233852Y0202047D01*
X0233868Y0202084D02*
X0232547Y0202084D01*
X0232563Y0202122D02*
X0233883Y0202122D01*
X0233899Y0202160D02*
X0232579Y0202160D01*
X0232595Y0202198D02*
X0233914Y0202198D01*
X0233929Y0202236D02*
X0232611Y0202236D01*
X0232627Y0202274D02*
X0233945Y0202274D01*
X0233960Y0202312D02*
X0232643Y0202312D01*
X0232659Y0202350D02*
X0233976Y0202350D01*
X0233991Y0202387D02*
X0232676Y0202387D01*
X0232692Y0202425D02*
X0234007Y0202425D01*
X0234022Y0202463D02*
X0232708Y0202463D01*
X0232724Y0202501D02*
X0234038Y0202501D01*
X0234053Y0202539D02*
X0232740Y0202539D01*
X0232756Y0202577D02*
X0234068Y0202577D01*
X0234084Y0202615D02*
X0232772Y0202615D01*
X0232788Y0202653D02*
X0234099Y0202653D01*
X0234115Y0202691D02*
X0232805Y0202691D01*
X0232821Y0202728D02*
X0235391Y0202728D01*
X0235407Y0202691D02*
X0234133Y0202691D01*
X0234148Y0202653D02*
X0235423Y0202653D01*
X0235440Y0202615D02*
X0234164Y0202615D01*
X0234179Y0202577D02*
X0235456Y0202577D01*
X0235472Y0202539D02*
X0234194Y0202539D01*
X0234210Y0202501D02*
X0235488Y0202501D01*
X0235504Y0202463D02*
X0234225Y0202463D01*
X0234241Y0202425D02*
X0235520Y0202425D01*
X0235536Y0202387D02*
X0234256Y0202387D01*
X0234272Y0202350D02*
X0235552Y0202350D01*
X0235568Y0202312D02*
X0234287Y0202312D01*
X0234303Y0202274D02*
X0235585Y0202274D01*
X0235601Y0202236D02*
X0234318Y0202236D01*
X0234333Y0202198D02*
X0235617Y0202198D01*
X0235633Y0202160D02*
X0234349Y0202160D01*
X0234364Y0202122D02*
X0235649Y0202122D01*
X0235665Y0202084D02*
X0234380Y0202084D01*
X0234395Y0202047D02*
X0235681Y0202047D01*
X0235697Y0202009D02*
X0234411Y0202009D01*
X0234426Y0201971D02*
X0235714Y0201971D01*
X0235730Y0201933D02*
X0234441Y0201933D01*
X0234457Y0201895D02*
X0235746Y0201895D01*
X0235762Y0201857D02*
X0234472Y0201857D01*
X0234488Y0201819D02*
X0235778Y0201819D01*
X0235794Y0201781D02*
X0234503Y0201781D01*
X0234519Y0201743D02*
X0235810Y0201743D01*
X0235826Y0201706D02*
X0234534Y0201706D01*
X0234550Y0201668D02*
X0235843Y0201668D01*
X0235859Y0201630D02*
X0234565Y0201630D01*
X0234580Y0201592D02*
X0235875Y0201592D01*
X0235891Y0201554D02*
X0234596Y0201554D01*
X0234611Y0201516D02*
X0235907Y0201516D01*
X0235923Y0201478D02*
X0234627Y0201478D01*
X0234642Y0201440D02*
X0235939Y0201440D01*
X0235955Y0201403D02*
X0234658Y0201403D01*
X0234673Y0201365D02*
X0235971Y0201365D01*
X0235988Y0201327D02*
X0234689Y0201327D01*
X0234704Y0201289D02*
X0236004Y0201289D01*
X0236020Y0201251D02*
X0234719Y0201251D01*
X0234735Y0201213D02*
X0236036Y0201213D01*
X0236052Y0201175D02*
X0234750Y0201175D01*
X0234766Y0201137D02*
X0236068Y0201137D01*
X0236084Y0201100D02*
X0234781Y0201100D01*
X0234797Y0201062D02*
X0236100Y0201062D01*
X0236117Y0201024D02*
X0234812Y0201024D01*
X0234828Y0200986D02*
X0236133Y0200986D01*
X0236149Y0200948D02*
X0234843Y0200948D01*
X0234858Y0200910D02*
X0236165Y0200910D01*
X0236181Y0200872D02*
X0234874Y0200872D01*
X0234889Y0200834D02*
X0236197Y0200834D01*
X0236213Y0200796D02*
X0234905Y0200796D01*
X0234920Y0200759D02*
X0236229Y0200759D01*
X0236246Y0200721D02*
X0234936Y0200721D01*
X0234951Y0200683D02*
X0236262Y0200683D01*
X0236278Y0200645D02*
X0234966Y0200645D01*
X0234982Y0200607D02*
X0236294Y0200607D01*
X0236310Y0200569D02*
X0234997Y0200569D01*
X0235013Y0200531D02*
X0236326Y0200531D01*
X0236342Y0200493D02*
X0235028Y0200493D01*
X0235044Y0200456D02*
X0236358Y0200456D01*
X0236374Y0200418D02*
X0235059Y0200418D01*
X0235075Y0200380D02*
X0236391Y0200380D01*
X0236407Y0200342D02*
X0235090Y0200342D01*
X0235105Y0200304D02*
X0236423Y0200304D01*
X0236439Y0200266D02*
X0235121Y0200266D01*
X0235136Y0200228D02*
X0236455Y0200228D01*
X0236471Y0200190D02*
X0235152Y0200190D01*
X0235167Y0200152D02*
X0236487Y0200152D01*
X0236503Y0200115D02*
X0235183Y0200115D01*
X0235198Y0200077D02*
X0236520Y0200077D01*
X0236536Y0200039D02*
X0235214Y0200039D01*
X0235229Y0200001D02*
X0236552Y0200001D01*
X0236568Y0199963D02*
X0235244Y0199963D01*
X0235260Y0199925D02*
X0236584Y0199925D01*
X0236600Y0199887D02*
X0235275Y0199887D01*
X0235291Y0199849D02*
X0236616Y0199849D01*
X0236632Y0199812D02*
X0235306Y0199812D01*
X0235322Y0199774D02*
X0236648Y0199774D01*
X0236665Y0199736D02*
X0235337Y0199736D01*
X0235353Y0199698D02*
X0236681Y0199698D01*
X0236697Y0199660D02*
X0235368Y0199660D01*
X0235383Y0199622D02*
X0236713Y0199622D01*
X0236729Y0199584D02*
X0235399Y0199584D01*
X0235414Y0199546D02*
X0236745Y0199546D01*
X0236761Y0199508D02*
X0235430Y0199508D01*
X0235445Y0199471D02*
X0236777Y0199471D01*
X0236794Y0199433D02*
X0235461Y0199433D01*
X0235476Y0199395D02*
X0236810Y0199395D01*
X0236826Y0199357D02*
X0235491Y0199357D01*
X0235507Y0199319D02*
X0236842Y0199319D01*
X0236858Y0199281D02*
X0235522Y0199281D01*
X0235538Y0199243D02*
X0236874Y0199243D01*
X0236890Y0199205D02*
X0235553Y0199205D01*
X0235569Y0199168D02*
X0236906Y0199168D01*
X0236923Y0199130D02*
X0235584Y0199130D01*
X0235600Y0199092D02*
X0236939Y0199092D01*
X0236955Y0199054D02*
X0235615Y0199054D01*
X0235630Y0199016D02*
X0236971Y0199016D01*
X0236987Y0198978D02*
X0235646Y0198978D01*
X0235661Y0198940D02*
X0237003Y0198940D01*
X0237019Y0198902D02*
X0235677Y0198902D01*
X0235692Y0198865D02*
X0237035Y0198865D01*
X0237052Y0198827D02*
X0235708Y0198827D01*
X0235723Y0198789D02*
X0237068Y0198789D01*
X0237084Y0198751D02*
X0235739Y0198751D01*
X0235754Y0198713D02*
X0237100Y0198713D01*
X0237116Y0198675D02*
X0235769Y0198675D01*
X0235785Y0198637D02*
X0237132Y0198637D01*
X0237148Y0198599D02*
X0235800Y0198599D01*
X0235816Y0198561D02*
X0237164Y0198561D01*
X0237180Y0198524D02*
X0235831Y0198524D01*
X0235847Y0198486D02*
X0237197Y0198486D01*
X0237213Y0198448D02*
X0235862Y0198448D01*
X0235878Y0198410D02*
X0237229Y0198410D01*
X0237245Y0198372D02*
X0235893Y0198372D01*
X0235908Y0198334D02*
X0237261Y0198334D01*
X0237277Y0198296D02*
X0235924Y0198296D01*
X0235939Y0198258D02*
X0237293Y0198258D01*
X0238682Y0200456D02*
X0242548Y0200456D01*
X0242548Y0200493D02*
X0238624Y0200493D01*
X0238565Y0200531D02*
X0242548Y0200531D01*
X0242548Y0200569D02*
X0238507Y0200569D01*
X0238484Y0200584D02*
X0238188Y0200885D01*
X0237962Y0201250D01*
X0237821Y0201679D01*
X0237773Y0202173D01*
X0237769Y0202163D01*
X0237769Y0202181D01*
X0237809Y0202627D01*
X0237838Y0202730D01*
X0239323Y0202730D01*
X0239402Y0202834D01*
X0239742Y0203010D01*
X0240190Y0203068D01*
X0241216Y0203068D01*
X0241216Y0202730D01*
X0242548Y0202730D01*
X0242548Y0204274D01*
X0240082Y0204274D01*
X0239565Y0204234D01*
X0239110Y0204121D01*
X0238715Y0203937D01*
X0238385Y0203694D01*
X0238120Y0203390D01*
X0237926Y0203032D01*
X0237838Y0202730D01*
X0239323Y0202730D01*
X0239186Y0202548D01*
X0239114Y0202155D01*
X0239114Y0202137D01*
X0239182Y0201780D01*
X0239389Y0201484D01*
X0239720Y0201287D01*
X0240163Y0201223D01*
X0241216Y0201223D01*
X0241216Y0202730D01*
X0242548Y0202730D01*
X0242548Y0198240D01*
X0241220Y0198240D01*
X0241220Y0200048D01*
X0240212Y0200048D01*
X0239720Y0200083D01*
X0239258Y0200184D01*
X0238843Y0200352D01*
X0238484Y0200584D01*
X0238461Y0200607D02*
X0242548Y0200607D01*
X0242548Y0200645D02*
X0238424Y0200645D01*
X0238387Y0200683D02*
X0242548Y0200683D01*
X0242548Y0200721D02*
X0238350Y0200721D01*
X0238312Y0200759D02*
X0242548Y0200759D01*
X0242548Y0200796D02*
X0238275Y0200796D01*
X0238238Y0200834D02*
X0242548Y0200834D01*
X0242548Y0200872D02*
X0238200Y0200872D01*
X0238172Y0200910D02*
X0242548Y0200910D01*
X0242548Y0200948D02*
X0238149Y0200948D01*
X0238125Y0200986D02*
X0242548Y0200986D01*
X0242548Y0201024D02*
X0238102Y0201024D01*
X0238079Y0201062D02*
X0242548Y0201062D01*
X0242548Y0201100D02*
X0238055Y0201100D01*
X0238032Y0201137D02*
X0242548Y0201137D01*
X0242548Y0201175D02*
X0238008Y0201175D01*
X0237985Y0201213D02*
X0242548Y0201213D01*
X0242548Y0201251D02*
X0241216Y0201251D01*
X0241216Y0201289D02*
X0242548Y0201289D01*
X0242548Y0201327D02*
X0241216Y0201327D01*
X0241216Y0201365D02*
X0242548Y0201365D01*
X0242548Y0201403D02*
X0241216Y0201403D01*
X0241216Y0201440D02*
X0242548Y0201440D01*
X0242548Y0201478D02*
X0241216Y0201478D01*
X0241216Y0201516D02*
X0242548Y0201516D01*
X0242548Y0201554D02*
X0241216Y0201554D01*
X0241216Y0201592D02*
X0242548Y0201592D01*
X0242548Y0201630D02*
X0241216Y0201630D01*
X0241216Y0201668D02*
X0242548Y0201668D01*
X0242548Y0201706D02*
X0241216Y0201706D01*
X0241216Y0201743D02*
X0242548Y0201743D01*
X0242548Y0201781D02*
X0241216Y0201781D01*
X0241216Y0201819D02*
X0242548Y0201819D01*
X0242548Y0201857D02*
X0241216Y0201857D01*
X0241216Y0201895D02*
X0242548Y0201895D01*
X0242548Y0201933D02*
X0241216Y0201933D01*
X0241216Y0201971D02*
X0242548Y0201971D01*
X0242548Y0202009D02*
X0241216Y0202009D01*
X0241216Y0202047D02*
X0242548Y0202047D01*
X0242548Y0202084D02*
X0241216Y0202084D01*
X0241216Y0202122D02*
X0242548Y0202122D01*
X0242548Y0202160D02*
X0241216Y0202160D01*
X0241216Y0202198D02*
X0242548Y0202198D01*
X0242548Y0202236D02*
X0241216Y0202236D01*
X0241216Y0202274D02*
X0242548Y0202274D01*
X0242548Y0202312D02*
X0241216Y0202312D01*
X0241216Y0202350D02*
X0242548Y0202350D01*
X0242548Y0202387D02*
X0241216Y0202387D01*
X0241216Y0202425D02*
X0242548Y0202425D01*
X0242548Y0202463D02*
X0241216Y0202463D01*
X0241216Y0202501D02*
X0242548Y0202501D01*
X0242548Y0202539D02*
X0241216Y0202539D01*
X0241216Y0202577D02*
X0242548Y0202577D01*
X0242548Y0202615D02*
X0241216Y0202615D01*
X0241216Y0202653D02*
X0242548Y0202653D01*
X0242548Y0202691D02*
X0241216Y0202691D01*
X0241216Y0202728D02*
X0242548Y0202728D01*
X0242548Y0202766D02*
X0241216Y0202766D01*
X0241216Y0202804D02*
X0242548Y0202804D01*
X0242548Y0202842D02*
X0241216Y0202842D01*
X0241216Y0202880D02*
X0242548Y0202880D01*
X0242548Y0202918D02*
X0241216Y0202918D01*
X0241216Y0202956D02*
X0242548Y0202956D01*
X0242548Y0202994D02*
X0241216Y0202994D01*
X0241216Y0203031D02*
X0242548Y0203031D01*
X0242548Y0203069D02*
X0237946Y0203069D01*
X0237926Y0203031D02*
X0239908Y0203031D01*
X0239710Y0202994D02*
X0237915Y0202994D01*
X0237904Y0202956D02*
X0239637Y0202956D01*
X0239564Y0202918D02*
X0237893Y0202918D01*
X0237882Y0202880D02*
X0239491Y0202880D01*
X0239418Y0202842D02*
X0237871Y0202842D01*
X0237860Y0202804D02*
X0239380Y0202804D01*
X0239351Y0202766D02*
X0237849Y0202766D01*
X0237838Y0202728D02*
X0239322Y0202728D01*
X0239294Y0202691D02*
X0237827Y0202691D01*
X0237816Y0202653D02*
X0239265Y0202653D01*
X0239236Y0202615D02*
X0237808Y0202615D01*
X0237804Y0202577D02*
X0239208Y0202577D01*
X0239184Y0202539D02*
X0237801Y0202539D01*
X0237797Y0202501D02*
X0239177Y0202501D01*
X0239170Y0202463D02*
X0237794Y0202463D01*
X0237791Y0202425D02*
X0239163Y0202425D01*
X0239157Y0202387D02*
X0237787Y0202387D01*
X0237784Y0202350D02*
X0239150Y0202350D01*
X0239143Y0202312D02*
X0237780Y0202312D01*
X0237777Y0202274D02*
X0239136Y0202274D01*
X0239129Y0202236D02*
X0237774Y0202236D01*
X0237770Y0202198D02*
X0239122Y0202198D01*
X0239115Y0202160D02*
X0237774Y0202160D01*
X0237778Y0202122D02*
X0239117Y0202122D01*
X0239124Y0202084D02*
X0237782Y0202084D01*
X0237785Y0202047D02*
X0239131Y0202047D01*
X0239139Y0202009D02*
X0237789Y0202009D01*
X0237793Y0201971D02*
X0239146Y0201971D01*
X0239153Y0201933D02*
X0237796Y0201933D01*
X0237800Y0201895D02*
X0239160Y0201895D01*
X0239167Y0201857D02*
X0237804Y0201857D01*
X0237807Y0201819D02*
X0239175Y0201819D01*
X0239182Y0201781D02*
X0237811Y0201781D01*
X0237814Y0201743D02*
X0239208Y0201743D01*
X0239234Y0201706D02*
X0237818Y0201706D01*
X0237824Y0201668D02*
X0239261Y0201668D01*
X0239287Y0201630D02*
X0237837Y0201630D01*
X0237849Y0201592D02*
X0239313Y0201592D01*
X0239340Y0201554D02*
X0237862Y0201554D01*
X0237874Y0201516D02*
X0239366Y0201516D01*
X0239398Y0201478D02*
X0237887Y0201478D01*
X0237899Y0201440D02*
X0239462Y0201440D01*
X0239526Y0201403D02*
X0237912Y0201403D01*
X0237924Y0201365D02*
X0239590Y0201365D01*
X0239654Y0201327D02*
X0237937Y0201327D01*
X0237949Y0201289D02*
X0239718Y0201289D01*
X0239970Y0201251D02*
X0237962Y0201251D01*
X0238741Y0200418D02*
X0242548Y0200418D01*
X0242548Y0200380D02*
X0238799Y0200380D01*
X0238866Y0200342D02*
X0242548Y0200342D01*
X0242548Y0200304D02*
X0238960Y0200304D01*
X0239054Y0200266D02*
X0242548Y0200266D01*
X0242548Y0200228D02*
X0239148Y0200228D01*
X0239241Y0200190D02*
X0242548Y0200190D01*
X0242548Y0200152D02*
X0239400Y0200152D01*
X0239573Y0200115D02*
X0242548Y0200115D01*
X0242548Y0200077D02*
X0239804Y0200077D01*
X0241220Y0200039D02*
X0242548Y0200039D01*
X0242548Y0200001D02*
X0241220Y0200001D01*
X0241220Y0199963D02*
X0242548Y0199963D01*
X0242548Y0199925D02*
X0241220Y0199925D01*
X0241220Y0199887D02*
X0242548Y0199887D01*
X0242548Y0199849D02*
X0241220Y0199849D01*
X0241220Y0199812D02*
X0242548Y0199812D01*
X0242548Y0199774D02*
X0241220Y0199774D01*
X0241220Y0199736D02*
X0242548Y0199736D01*
X0242548Y0199698D02*
X0241220Y0199698D01*
X0241220Y0199660D02*
X0242548Y0199660D01*
X0242548Y0199622D02*
X0241220Y0199622D01*
X0241220Y0199584D02*
X0242548Y0199584D01*
X0242548Y0199546D02*
X0241220Y0199546D01*
X0241220Y0199508D02*
X0242548Y0199508D01*
X0242548Y0199471D02*
X0241220Y0199471D01*
X0241220Y0199433D02*
X0242548Y0199433D01*
X0242548Y0199395D02*
X0241220Y0199395D01*
X0241220Y0199357D02*
X0242548Y0199357D01*
X0242548Y0199319D02*
X0241220Y0199319D01*
X0241220Y0199281D02*
X0242548Y0199281D01*
X0242548Y0199243D02*
X0241220Y0199243D01*
X0241220Y0199205D02*
X0242548Y0199205D01*
X0242548Y0199168D02*
X0241220Y0199168D01*
X0241220Y0199130D02*
X0242548Y0199130D01*
X0242548Y0199092D02*
X0241220Y0199092D01*
X0241220Y0199054D02*
X0242548Y0199054D01*
X0242548Y0199016D02*
X0241220Y0199016D01*
X0241220Y0198978D02*
X0242548Y0198978D01*
X0242548Y0198940D02*
X0241220Y0198940D01*
X0241220Y0198902D02*
X0242548Y0198902D01*
X0242548Y0198865D02*
X0241220Y0198865D01*
X0241220Y0198827D02*
X0242548Y0198827D01*
X0242548Y0198789D02*
X0241220Y0198789D01*
X0241220Y0198751D02*
X0242548Y0198751D01*
X0242548Y0198713D02*
X0241220Y0198713D01*
X0241220Y0198675D02*
X0242548Y0198675D01*
X0242548Y0198637D02*
X0241220Y0198637D01*
X0241220Y0198599D02*
X0242548Y0198599D01*
X0242548Y0198561D02*
X0241220Y0198561D01*
X0241220Y0198524D02*
X0242548Y0198524D01*
X0242548Y0198486D02*
X0241220Y0198486D01*
X0241220Y0198448D02*
X0242548Y0198448D01*
X0242548Y0198410D02*
X0241220Y0198410D01*
X0241220Y0198372D02*
X0242548Y0198372D01*
X0242548Y0198334D02*
X0241220Y0198334D01*
X0241220Y0198296D02*
X0242548Y0198296D01*
X0242548Y0198258D02*
X0241220Y0198258D01*
X0243862Y0199202D02*
X0243740Y0199577D01*
X0243700Y0199999D01*
X0243700Y0200035D01*
X0243731Y0200403D01*
X0243826Y0200715D01*
X0243982Y0200980D01*
X0244199Y0201209D01*
X0244802Y0201570D01*
X0245621Y0201840D01*
X0246265Y0202020D01*
X0246665Y0202181D01*
X0246868Y0202375D01*
X0246922Y0202631D01*
X0246922Y0202649D01*
X0246903Y0202730D01*
X0248217Y0202730D01*
X0248236Y0202528D01*
X0248236Y0202510D01*
X0248199Y0202099D01*
X0248092Y0201759D01*
X0247920Y0201481D01*
X0247691Y0201255D01*
X0247061Y0200912D01*
X0246229Y0200660D01*
X0245612Y0200480D01*
X0245239Y0200309D01*
X0245059Y0200125D01*
X0245009Y0199895D01*
X0245009Y0199877D01*
X0245067Y0199638D01*
X0245239Y0199459D01*
X0245513Y0199345D01*
X0245882Y0199306D01*
X0246380Y0199356D01*
X0246836Y0199504D01*
X0247267Y0199737D01*
X0247687Y0200040D01*
X0248470Y0199099D01*
X0247897Y0198670D01*
X0247264Y0198370D01*
X0246593Y0198191D01*
X0245909Y0198131D01*
X0245440Y0198162D01*
X0245014Y0198258D01*
X0244638Y0198410D01*
X0244316Y0198617D01*
X0244057Y0198883D01*
X0243862Y0199202D01*
X0243861Y0199205D02*
X0248381Y0199205D01*
X0248413Y0199168D02*
X0243883Y0199168D01*
X0243906Y0199130D02*
X0248444Y0199130D01*
X0248460Y0199092D02*
X0243929Y0199092D01*
X0243952Y0199054D02*
X0248409Y0199054D01*
X0248359Y0199016D02*
X0243975Y0199016D01*
X0243999Y0198978D02*
X0248308Y0198978D01*
X0248258Y0198940D02*
X0244022Y0198940D01*
X0244045Y0198902D02*
X0248207Y0198902D01*
X0248156Y0198865D02*
X0244075Y0198865D01*
X0244112Y0198827D02*
X0248106Y0198827D01*
X0248055Y0198789D02*
X0244149Y0198789D01*
X0244186Y0198751D02*
X0248005Y0198751D01*
X0247954Y0198713D02*
X0244223Y0198713D01*
X0244260Y0198675D02*
X0247903Y0198675D01*
X0247827Y0198637D02*
X0244297Y0198637D01*
X0244344Y0198599D02*
X0247747Y0198599D01*
X0247667Y0198561D02*
X0244403Y0198561D01*
X0244462Y0198524D02*
X0247587Y0198524D01*
X0247508Y0198486D02*
X0244521Y0198486D01*
X0244580Y0198448D02*
X0247428Y0198448D01*
X0247348Y0198410D02*
X0244640Y0198410D01*
X0244733Y0198372D02*
X0247268Y0198372D01*
X0247129Y0198334D02*
X0244826Y0198334D01*
X0244919Y0198296D02*
X0246987Y0198296D01*
X0246844Y0198258D02*
X0245011Y0198258D01*
X0245180Y0198221D02*
X0246702Y0198221D01*
X0246492Y0198183D02*
X0245349Y0198183D01*
X0245708Y0198145D02*
X0246060Y0198145D01*
X0246012Y0199319D02*
X0248286Y0199319D01*
X0248255Y0199357D02*
X0246383Y0199357D01*
X0246499Y0199395D02*
X0248223Y0199395D01*
X0248192Y0199433D02*
X0246616Y0199433D01*
X0246733Y0199471D02*
X0248160Y0199471D01*
X0248129Y0199508D02*
X0246844Y0199508D01*
X0246915Y0199546D02*
X0248097Y0199546D01*
X0248066Y0199584D02*
X0246985Y0199584D01*
X0247055Y0199622D02*
X0248034Y0199622D01*
X0248003Y0199660D02*
X0247125Y0199660D01*
X0247195Y0199698D02*
X0247971Y0199698D01*
X0247940Y0199736D02*
X0247265Y0199736D01*
X0247318Y0199774D02*
X0247908Y0199774D01*
X0247876Y0199812D02*
X0247371Y0199812D01*
X0247423Y0199849D02*
X0247845Y0199849D01*
X0247813Y0199887D02*
X0247476Y0199887D01*
X0247528Y0199925D02*
X0247782Y0199925D01*
X0247750Y0199963D02*
X0247581Y0199963D01*
X0247633Y0200001D02*
X0247719Y0200001D01*
X0247687Y0200039D02*
X0247686Y0200039D01*
X0248318Y0199281D02*
X0243836Y0199281D01*
X0243848Y0199243D02*
X0248350Y0199243D01*
X0250346Y0199243D02*
X0251503Y0199243D01*
X0251503Y0199205D02*
X0250346Y0199205D01*
X0250346Y0199168D02*
X0251503Y0199168D01*
X0251503Y0199130D02*
X0250346Y0199130D01*
X0250346Y0199092D02*
X0251503Y0199092D01*
X0251503Y0199054D02*
X0250346Y0199054D01*
X0250346Y0199016D02*
X0251503Y0199016D01*
X0251503Y0198978D02*
X0250346Y0198978D01*
X0250346Y0198940D02*
X0251503Y0198940D01*
X0251503Y0198902D02*
X0250346Y0198902D01*
X0250346Y0198865D02*
X0251503Y0198865D01*
X0251503Y0198827D02*
X0250346Y0198827D01*
X0250346Y0198789D02*
X0251503Y0198789D01*
X0251503Y0198751D02*
X0250346Y0198751D01*
X0250346Y0198713D02*
X0251503Y0198713D01*
X0251503Y0198675D02*
X0250346Y0198675D01*
X0250346Y0198637D02*
X0251503Y0198637D01*
X0251503Y0198599D02*
X0250346Y0198599D01*
X0250346Y0198561D02*
X0251503Y0198561D01*
X0251503Y0198524D02*
X0250346Y0198524D01*
X0250346Y0198486D02*
X0251503Y0198486D01*
X0251503Y0198448D02*
X0250346Y0198448D01*
X0250346Y0198410D02*
X0251503Y0198410D01*
X0251503Y0198372D02*
X0250346Y0198372D01*
X0250346Y0198334D02*
X0251503Y0198334D01*
X0251503Y0198296D02*
X0250346Y0198296D01*
X0250346Y0198258D02*
X0251503Y0198258D01*
X0251503Y0198221D02*
X0250346Y0198221D01*
X0250346Y0198183D02*
X0251503Y0198183D01*
X0251503Y0198145D02*
X0250346Y0198145D01*
X0250346Y0198107D02*
X0251503Y0198107D01*
X0251503Y0198069D02*
X0250346Y0198069D01*
X0250346Y0198031D02*
X0251503Y0198031D01*
X0251503Y0197993D02*
X0250346Y0197993D01*
X0250346Y0197955D02*
X0251503Y0197955D01*
X0251503Y0197917D02*
X0250346Y0197917D01*
X0250346Y0197880D02*
X0251503Y0197880D01*
X0251503Y0197842D02*
X0250346Y0197842D01*
X0250346Y0197804D02*
X0251503Y0197804D01*
X0251503Y0197766D02*
X0250346Y0197766D01*
X0250346Y0197728D02*
X0251503Y0197728D01*
X0251503Y0197690D02*
X0250346Y0197690D01*
X0250346Y0197652D02*
X0251503Y0197652D01*
X0251503Y0197614D02*
X0250346Y0197614D01*
X0250346Y0197577D02*
X0251503Y0197577D01*
X0251503Y0197539D02*
X0250346Y0197539D01*
X0250346Y0197501D02*
X0251503Y0197501D01*
X0251503Y0197463D02*
X0250346Y0197463D01*
X0250346Y0197425D02*
X0251503Y0197425D01*
X0251503Y0197387D02*
X0250346Y0197387D01*
X0250346Y0197349D02*
X0251503Y0197349D01*
X0251503Y0197311D02*
X0250346Y0197311D01*
X0250346Y0197273D02*
X0251503Y0197273D01*
X0251503Y0197236D02*
X0250346Y0197236D01*
X0250346Y0197198D02*
X0251503Y0197198D01*
X0251503Y0197160D02*
X0250346Y0197160D01*
X0250346Y0197122D02*
X0251503Y0197122D01*
X0251503Y0197084D02*
X0250346Y0197084D01*
X0250346Y0197046D02*
X0251503Y0197046D01*
X0251503Y0197008D02*
X0250346Y0197008D01*
X0250346Y0196970D02*
X0251503Y0196970D01*
X0251503Y0196933D02*
X0250346Y0196933D01*
X0250346Y0196895D02*
X0251503Y0196895D01*
X0251503Y0196857D02*
X0250346Y0196857D01*
X0250346Y0196819D02*
X0251503Y0196819D01*
X0251503Y0196781D02*
X0250346Y0196781D01*
X0250346Y0196743D02*
X0251503Y0196743D01*
X0251503Y0196705D02*
X0250346Y0196705D01*
X0250346Y0196667D02*
X0251503Y0196667D01*
X0251503Y0196630D02*
X0250346Y0196630D01*
X0250346Y0196592D02*
X0251503Y0196592D01*
X0251503Y0196554D02*
X0250346Y0196554D01*
X0250346Y0196516D02*
X0251503Y0196516D01*
X0251503Y0196478D02*
X0250346Y0196478D01*
X0250346Y0196440D02*
X0251503Y0196440D01*
X0251503Y0196402D02*
X0250346Y0196402D01*
X0250346Y0196364D02*
X0251503Y0196364D01*
X0251503Y0196326D02*
X0250346Y0196326D01*
X0250346Y0196289D02*
X0251503Y0196289D01*
X0251503Y0196251D02*
X0250346Y0196251D01*
X0250346Y0196213D02*
X0251503Y0196213D01*
X0251503Y0195190D02*
X0216961Y0195190D01*
X0216556Y0198258D02*
X0214399Y0198258D01*
X0214373Y0198296D02*
X0216556Y0198296D01*
X0216556Y0198334D02*
X0214347Y0198334D01*
X0214321Y0198372D02*
X0216556Y0198372D01*
X0216556Y0198410D02*
X0214295Y0198410D01*
X0214269Y0198448D02*
X0216556Y0198448D01*
X0216556Y0198486D02*
X0214243Y0198486D01*
X0214217Y0198524D02*
X0216556Y0198524D01*
X0216556Y0198561D02*
X0214191Y0198561D01*
X0214165Y0198599D02*
X0216556Y0198599D01*
X0216556Y0198637D02*
X0214139Y0198637D01*
X0214113Y0198675D02*
X0216556Y0198675D01*
X0216556Y0198713D02*
X0214087Y0198713D01*
X0214061Y0198751D02*
X0216556Y0198751D01*
X0216556Y0198789D02*
X0214035Y0198789D01*
X0214009Y0198827D02*
X0216556Y0198827D01*
X0216556Y0198865D02*
X0213983Y0198865D01*
X0213957Y0198902D02*
X0216556Y0198902D01*
X0216556Y0198940D02*
X0213931Y0198940D01*
X0213905Y0198978D02*
X0216556Y0198978D01*
X0216556Y0199016D02*
X0213879Y0199016D01*
X0213853Y0199054D02*
X0216556Y0199054D01*
X0216556Y0199092D02*
X0213827Y0199092D01*
X0213801Y0199130D02*
X0216556Y0199130D01*
X0216556Y0199168D02*
X0213775Y0199168D01*
X0213749Y0199205D02*
X0216556Y0199205D01*
X0216556Y0199243D02*
X0213723Y0199243D01*
X0213697Y0199281D02*
X0216556Y0199281D01*
X0216556Y0199319D02*
X0213671Y0199319D01*
X0213645Y0199357D02*
X0216556Y0199357D01*
X0216556Y0199395D02*
X0213619Y0199395D01*
X0213593Y0199433D02*
X0216556Y0199433D01*
X0216556Y0199471D02*
X0213567Y0199471D01*
X0213541Y0199508D02*
X0216556Y0199508D01*
X0216556Y0199546D02*
X0213515Y0199546D01*
X0213489Y0199584D02*
X0216556Y0199584D01*
X0216556Y0199622D02*
X0213463Y0199622D01*
X0213437Y0199660D02*
X0216556Y0199660D01*
X0216556Y0199698D02*
X0213411Y0199698D01*
X0213385Y0199736D02*
X0216556Y0199736D01*
X0216556Y0199774D02*
X0213359Y0199774D01*
X0213333Y0199812D02*
X0216556Y0199812D01*
X0216556Y0199849D02*
X0213307Y0199849D01*
X0213281Y0199887D02*
X0216556Y0199887D01*
X0216556Y0199925D02*
X0213255Y0199925D01*
X0213229Y0199963D02*
X0216556Y0199963D01*
X0216556Y0200001D02*
X0213203Y0200001D01*
X0213177Y0200039D02*
X0216556Y0200039D01*
X0216556Y0200077D02*
X0213151Y0200077D01*
X0213125Y0200115D02*
X0216556Y0200115D01*
X0216556Y0200152D02*
X0213099Y0200152D01*
X0213073Y0200190D02*
X0216556Y0200190D01*
X0216556Y0200228D02*
X0213047Y0200228D01*
X0213021Y0200266D02*
X0216556Y0200266D01*
X0216556Y0200304D02*
X0212995Y0200304D01*
X0212969Y0200342D02*
X0216556Y0200342D01*
X0216556Y0200380D02*
X0212943Y0200380D01*
X0212917Y0200418D02*
X0216556Y0200418D01*
X0216556Y0200456D02*
X0212891Y0200456D01*
X0212865Y0200493D02*
X0216556Y0200493D01*
X0216556Y0200531D02*
X0212839Y0200531D01*
X0212813Y0200569D02*
X0216556Y0200569D01*
X0216556Y0200607D02*
X0212787Y0200607D01*
X0212761Y0200645D02*
X0216556Y0200645D01*
X0216556Y0200683D02*
X0212735Y0200683D01*
X0212709Y0200721D02*
X0216556Y0200721D01*
X0216556Y0200759D02*
X0212683Y0200759D01*
X0212657Y0200796D02*
X0216556Y0200796D01*
X0216556Y0200834D02*
X0212631Y0200834D01*
X0212605Y0200872D02*
X0216556Y0200872D01*
X0216556Y0200910D02*
X0212579Y0200910D01*
X0212553Y0200948D02*
X0216556Y0200948D01*
X0216556Y0200986D02*
X0212527Y0200986D01*
X0212501Y0201024D02*
X0216556Y0201024D01*
X0216556Y0201062D02*
X0212475Y0201062D01*
X0212449Y0201100D02*
X0216556Y0201100D01*
X0216556Y0201137D02*
X0212423Y0201137D01*
X0212397Y0201175D02*
X0216556Y0201175D01*
X0216556Y0201213D02*
X0212371Y0201213D01*
X0212345Y0201251D02*
X0216556Y0201251D01*
X0216556Y0201289D02*
X0212319Y0201289D01*
X0212331Y0201327D02*
X0216556Y0201327D01*
X0216556Y0201365D02*
X0212356Y0201365D01*
X0212382Y0201403D02*
X0216556Y0201403D01*
X0216556Y0201440D02*
X0212408Y0201440D01*
X0212434Y0201478D02*
X0216556Y0201478D01*
X0216556Y0201516D02*
X0212459Y0201516D01*
X0212485Y0201554D02*
X0216556Y0201554D01*
X0216556Y0201592D02*
X0212511Y0201592D01*
X0211570Y0200266D02*
X0211525Y0200266D01*
X0211500Y0200228D02*
X0211595Y0200228D01*
X0211620Y0200190D02*
X0211475Y0200190D01*
X0211450Y0200152D02*
X0211645Y0200152D01*
X0211670Y0200115D02*
X0211426Y0200115D01*
X0211401Y0200077D02*
X0211695Y0200077D01*
X0211720Y0200039D02*
X0211376Y0200039D01*
X0211351Y0200001D02*
X0211744Y0200001D01*
X0211769Y0199963D02*
X0211326Y0199963D01*
X0211302Y0199925D02*
X0211794Y0199925D01*
X0211819Y0199887D02*
X0211277Y0199887D01*
X0211252Y0199849D02*
X0211844Y0199849D01*
X0211869Y0199812D02*
X0211227Y0199812D01*
X0211202Y0199774D02*
X0211894Y0199774D01*
X0211919Y0199736D02*
X0211178Y0199736D01*
X0211153Y0199698D02*
X0211944Y0199698D01*
X0211969Y0199660D02*
X0211128Y0199660D01*
X0211103Y0199622D02*
X0211994Y0199622D01*
X0212019Y0199584D02*
X0211078Y0199584D01*
X0211054Y0199546D02*
X0212044Y0199546D01*
X0212069Y0199508D02*
X0211029Y0199508D01*
X0211004Y0199471D02*
X0212094Y0199471D01*
X0212119Y0199433D02*
X0210979Y0199433D01*
X0210955Y0199395D02*
X0212144Y0199395D01*
X0212169Y0199357D02*
X0210930Y0199357D01*
X0210905Y0199319D02*
X0212194Y0199319D01*
X0212219Y0199281D02*
X0210880Y0199281D01*
X0210855Y0199243D02*
X0212244Y0199243D01*
X0212268Y0199205D02*
X0210831Y0199205D01*
X0210806Y0199168D02*
X0212293Y0199168D01*
X0212318Y0199130D02*
X0210781Y0199130D01*
X0210756Y0199092D02*
X0212343Y0199092D01*
X0212368Y0199054D02*
X0210731Y0199054D01*
X0210707Y0199016D02*
X0212393Y0199016D01*
X0212418Y0198978D02*
X0210682Y0198978D01*
X0210657Y0198940D02*
X0212443Y0198940D01*
X0212468Y0198902D02*
X0210632Y0198902D01*
X0210608Y0198865D02*
X0212493Y0198865D01*
X0212518Y0198827D02*
X0210583Y0198827D01*
X0210558Y0198789D02*
X0212543Y0198789D01*
X0212568Y0198751D02*
X0210533Y0198751D01*
X0210508Y0198713D02*
X0212593Y0198713D01*
X0212618Y0198675D02*
X0210484Y0198675D01*
X0210459Y0198637D02*
X0212643Y0198637D01*
X0212668Y0198599D02*
X0210434Y0198599D01*
X0210409Y0198561D02*
X0212693Y0198561D01*
X0212718Y0198524D02*
X0210384Y0198524D01*
X0210360Y0198486D02*
X0212743Y0198486D01*
X0212768Y0198448D02*
X0210335Y0198448D01*
X0210310Y0198410D02*
X0212792Y0198410D01*
X0212817Y0198372D02*
X0210285Y0198372D01*
X0210261Y0198334D02*
X0212842Y0198334D01*
X0212867Y0198296D02*
X0210236Y0198296D01*
X0210211Y0198258D02*
X0212892Y0198258D01*
X0206503Y0206327D02*
X0251503Y0206327D01*
X0251503Y0206289D02*
X0250346Y0206289D01*
X0250346Y0206251D02*
X0251503Y0206251D01*
X0251503Y0206213D02*
X0250346Y0206213D01*
X0250346Y0206176D02*
X0251503Y0206176D01*
X0251503Y0206138D02*
X0250346Y0206138D01*
X0250346Y0206100D02*
X0251503Y0206100D01*
X0251503Y0206062D02*
X0250346Y0206062D01*
X0250346Y0206024D02*
X0251503Y0206024D01*
X0251503Y0205986D02*
X0250346Y0205986D01*
X0250346Y0205948D02*
X0251503Y0205948D01*
X0251503Y0205910D02*
X0250346Y0205910D01*
X0250346Y0205873D02*
X0251503Y0205873D01*
X0251503Y0205835D02*
X0250346Y0205835D01*
X0250346Y0205797D02*
X0251503Y0205797D01*
X0251503Y0205759D02*
X0250346Y0205759D01*
X0250346Y0205721D02*
X0251503Y0205721D01*
X0251503Y0205683D02*
X0250346Y0205683D01*
X0250346Y0205645D02*
X0251503Y0205645D01*
X0251503Y0205607D02*
X0250346Y0205607D01*
X0250346Y0205570D02*
X0251503Y0205570D01*
X0251503Y0205532D02*
X0250346Y0205532D01*
X0250346Y0205494D02*
X0251503Y0205494D01*
X0251503Y0205456D02*
X0250346Y0205456D01*
X0250346Y0205418D02*
X0251503Y0205418D01*
X0251503Y0205380D02*
X0250346Y0205380D01*
X0250346Y0205342D02*
X0251503Y0205342D01*
X0251503Y0205304D02*
X0250346Y0205304D01*
X0250346Y0205266D02*
X0251503Y0205266D01*
X0251503Y0205229D02*
X0250346Y0205229D01*
X0250346Y0205191D02*
X0251503Y0205191D01*
X0251503Y0205153D02*
X0250346Y0205153D01*
X0250346Y0205115D02*
X0251503Y0205115D01*
X0251503Y0205077D02*
X0250346Y0205077D01*
X0250346Y0205039D02*
X0251503Y0205039D01*
X0251503Y0205001D02*
X0250346Y0205001D01*
X0250346Y0204963D02*
X0251503Y0204963D01*
X0251503Y0204926D02*
X0250346Y0204926D01*
X0250346Y0204888D02*
X0251503Y0204888D01*
X0251503Y0204850D02*
X0250346Y0204850D01*
X0250346Y0204812D02*
X0251503Y0204812D01*
X0251503Y0204774D02*
X0250346Y0204774D01*
X0250346Y0204736D02*
X0251503Y0204736D01*
X0251503Y0204698D02*
X0250346Y0204698D01*
X0250346Y0204660D02*
X0251503Y0204660D01*
X0251503Y0204622D02*
X0250346Y0204622D01*
X0250346Y0204585D02*
X0251503Y0204585D01*
X0251503Y0204547D02*
X0250346Y0204547D01*
X0250346Y0204509D02*
X0251503Y0204509D01*
X0251503Y0204471D02*
X0250346Y0204471D01*
X0250346Y0204433D02*
X0251503Y0204433D01*
X0251503Y0204395D02*
X0250346Y0204395D01*
X0250346Y0204357D02*
X0251503Y0204357D01*
X0251503Y0204319D02*
X0250346Y0204319D01*
X0250346Y0204282D02*
X0251503Y0204282D01*
X0251503Y0204244D02*
X0250346Y0204244D01*
X0250346Y0204206D02*
X0251503Y0204206D01*
X0251503Y0204168D02*
X0250346Y0204168D01*
X0250346Y0204130D02*
X0251503Y0204130D01*
X0251503Y0204092D02*
X0250346Y0204092D01*
X0250346Y0204054D02*
X0251503Y0204054D01*
X0251503Y0204016D02*
X0250346Y0204016D01*
X0250346Y0203978D02*
X0251503Y0203978D01*
X0251503Y0203941D02*
X0250346Y0203941D01*
X0250346Y0203903D02*
X0251503Y0203903D01*
X0251503Y0203865D02*
X0250346Y0203865D01*
X0250346Y0203827D02*
X0251503Y0203827D01*
X0251503Y0203789D02*
X0250346Y0203789D01*
X0250346Y0203751D02*
X0251503Y0203751D01*
X0251503Y0203713D02*
X0250346Y0203713D01*
X0250346Y0203675D02*
X0251503Y0203675D01*
X0251503Y0203638D02*
X0250346Y0203638D01*
X0250346Y0203600D02*
X0251503Y0203600D01*
X0251503Y0203562D02*
X0250346Y0203562D01*
X0250346Y0203524D02*
X0251503Y0203524D01*
X0251503Y0203486D02*
X0250346Y0203486D01*
X0250346Y0203448D02*
X0251503Y0203448D01*
X0251503Y0203410D02*
X0250346Y0203410D01*
X0250346Y0203372D02*
X0251503Y0203372D01*
X0251503Y0203335D02*
X0250346Y0203335D01*
X0250346Y0203297D02*
X0251503Y0203297D01*
X0251503Y0203259D02*
X0250346Y0203259D01*
X0250346Y0203221D02*
X0251503Y0203221D01*
X0251503Y0203183D02*
X0250346Y0203183D01*
X0250346Y0203145D02*
X0251503Y0203145D01*
X0251503Y0203107D02*
X0250346Y0203107D01*
X0250346Y0203069D02*
X0251503Y0203069D01*
X0251503Y0203031D02*
X0250346Y0203031D01*
X0250346Y0202994D02*
X0251503Y0202994D01*
X0251503Y0202956D02*
X0250346Y0202956D01*
X0250346Y0202918D02*
X0251503Y0202918D01*
X0251503Y0202880D02*
X0250346Y0202880D01*
X0250346Y0202842D02*
X0251503Y0202842D01*
X0251503Y0202804D02*
X0250346Y0202804D01*
X0250346Y0202766D02*
X0251503Y0202766D01*
X0251503Y0202728D02*
X0250346Y0202728D01*
X0250346Y0202691D02*
X0251503Y0202691D01*
X0251503Y0202653D02*
X0250346Y0202653D01*
X0250346Y0202615D02*
X0251503Y0202615D01*
X0251503Y0202577D02*
X0250346Y0202577D01*
X0250346Y0202539D02*
X0251503Y0202539D01*
X0251503Y0202501D02*
X0250346Y0202501D01*
X0250346Y0202463D02*
X0251503Y0202463D01*
X0251503Y0202425D02*
X0250346Y0202425D01*
X0250346Y0202387D02*
X0251503Y0202387D01*
X0251503Y0202350D02*
X0250346Y0202350D01*
X0250346Y0202312D02*
X0251503Y0202312D01*
X0251503Y0202274D02*
X0250346Y0202274D01*
X0250346Y0202236D02*
X0251503Y0202236D01*
X0251503Y0202198D02*
X0250346Y0202198D01*
X0250346Y0202160D02*
X0251503Y0202160D01*
X0251503Y0202122D02*
X0250346Y0202122D01*
X0250346Y0202084D02*
X0251503Y0202084D01*
X0251503Y0202047D02*
X0250346Y0202047D01*
X0250346Y0202009D02*
X0251503Y0202009D01*
X0251503Y0201971D02*
X0250346Y0201971D01*
X0250346Y0201933D02*
X0251503Y0201933D01*
X0251503Y0201895D02*
X0250346Y0201895D01*
X0250346Y0201857D02*
X0251503Y0201857D01*
X0251503Y0201819D02*
X0250346Y0201819D01*
X0250346Y0201781D02*
X0251503Y0201781D01*
X0251503Y0201743D02*
X0250346Y0201743D01*
X0250346Y0201706D02*
X0251503Y0201706D01*
X0251503Y0201668D02*
X0250346Y0201668D01*
X0250346Y0201630D02*
X0251503Y0201630D01*
X0251503Y0201592D02*
X0250346Y0201592D01*
X0250346Y0201554D02*
X0251503Y0201554D01*
X0251503Y0201516D02*
X0250346Y0201516D01*
X0250346Y0201478D02*
X0251503Y0201478D01*
X0251503Y0201440D02*
X0250346Y0201440D01*
X0250346Y0201403D02*
X0251503Y0201403D01*
X0251503Y0201365D02*
X0250346Y0201365D01*
X0250346Y0201327D02*
X0251503Y0201327D01*
X0251503Y0201289D02*
X0250346Y0201289D01*
X0250346Y0201251D02*
X0251503Y0201251D01*
X0251503Y0201213D02*
X0250346Y0201213D01*
X0250346Y0201175D02*
X0251503Y0201175D01*
X0251503Y0201137D02*
X0250346Y0201137D01*
X0250346Y0201100D02*
X0251503Y0201100D01*
X0251503Y0201062D02*
X0250346Y0201062D01*
X0250346Y0201024D02*
X0251503Y0201024D01*
X0251503Y0200986D02*
X0250346Y0200986D01*
X0250346Y0200948D02*
X0251503Y0200948D01*
X0251503Y0200910D02*
X0250346Y0200910D01*
X0250346Y0200872D02*
X0251503Y0200872D01*
X0251503Y0200834D02*
X0250346Y0200834D01*
X0250346Y0200796D02*
X0251503Y0200796D01*
X0251503Y0200759D02*
X0250346Y0200759D01*
X0250346Y0200721D02*
X0251503Y0200721D01*
X0251503Y0200683D02*
X0250346Y0200683D01*
X0250346Y0200645D02*
X0251503Y0200645D01*
X0251503Y0200607D02*
X0250346Y0200607D01*
X0250346Y0200569D02*
X0251503Y0200569D01*
X0251503Y0200531D02*
X0250346Y0200531D01*
X0250346Y0200493D02*
X0251503Y0200493D01*
X0251503Y0200456D02*
X0250346Y0200456D01*
X0250346Y0200418D02*
X0251503Y0200418D01*
X0251503Y0200380D02*
X0250346Y0200380D01*
X0250346Y0200342D02*
X0251503Y0200342D01*
X0251503Y0200304D02*
X0250346Y0200304D01*
X0250346Y0200266D02*
X0251503Y0200266D01*
X0251503Y0200228D02*
X0250346Y0200228D01*
X0250346Y0200190D02*
X0251503Y0200190D01*
X0251503Y0200152D02*
X0250346Y0200152D01*
X0250346Y0200115D02*
X0251503Y0200115D01*
X0251503Y0200077D02*
X0250346Y0200077D01*
X0250346Y0200039D02*
X0251503Y0200039D01*
X0251503Y0200001D02*
X0250346Y0200001D01*
X0250346Y0199963D02*
X0251503Y0199963D01*
X0251503Y0199925D02*
X0250346Y0199925D01*
X0250346Y0199887D02*
X0251503Y0199887D01*
X0251503Y0199849D02*
X0250346Y0199849D01*
X0250346Y0199812D02*
X0251503Y0199812D01*
X0251503Y0199774D02*
X0250346Y0199774D01*
X0250346Y0199736D02*
X0251503Y0199736D01*
X0251503Y0199698D02*
X0250346Y0199698D01*
X0250346Y0199660D02*
X0251503Y0199660D01*
X0251503Y0199622D02*
X0250346Y0199622D01*
X0250346Y0199584D02*
X0251503Y0199584D01*
X0251503Y0199546D02*
X0250346Y0199546D01*
X0250346Y0199508D02*
X0251503Y0199508D01*
X0251503Y0199471D02*
X0250346Y0199471D01*
X0250346Y0199433D02*
X0251503Y0199433D01*
X0251503Y0199395D02*
X0250346Y0199395D01*
X0250346Y0199357D02*
X0251503Y0199357D01*
X0251503Y0199319D02*
X0250346Y0199319D01*
X0250346Y0199281D02*
X0251503Y0199281D01*
X0247942Y0201516D02*
X0244713Y0201516D01*
X0244649Y0201478D02*
X0247917Y0201478D01*
X0247879Y0201440D02*
X0244586Y0201440D01*
X0244523Y0201403D02*
X0247841Y0201403D01*
X0247803Y0201365D02*
X0244459Y0201365D01*
X0244396Y0201327D02*
X0247764Y0201327D01*
X0247726Y0201289D02*
X0244332Y0201289D01*
X0244269Y0201251D02*
X0247685Y0201251D01*
X0247615Y0201213D02*
X0244205Y0201213D01*
X0244167Y0201175D02*
X0247545Y0201175D01*
X0247475Y0201137D02*
X0244131Y0201137D01*
X0244095Y0201100D02*
X0247406Y0201100D01*
X0247336Y0201062D02*
X0244059Y0201062D01*
X0244023Y0201024D02*
X0247266Y0201024D01*
X0247196Y0200986D02*
X0243987Y0200986D01*
X0243963Y0200948D02*
X0247127Y0200948D01*
X0247053Y0200910D02*
X0243941Y0200910D01*
X0243918Y0200872D02*
X0246928Y0200872D01*
X0246803Y0200834D02*
X0243896Y0200834D01*
X0243874Y0200796D02*
X0246678Y0200796D01*
X0246553Y0200759D02*
X0243852Y0200759D01*
X0243829Y0200721D02*
X0246428Y0200721D01*
X0246302Y0200683D02*
X0243816Y0200683D01*
X0243804Y0200645D02*
X0246175Y0200645D01*
X0246046Y0200607D02*
X0243793Y0200607D01*
X0243781Y0200569D02*
X0245916Y0200569D01*
X0245786Y0200531D02*
X0243770Y0200531D01*
X0243758Y0200493D02*
X0245656Y0200493D01*
X0245558Y0200456D02*
X0243747Y0200456D01*
X0243735Y0200418D02*
X0245475Y0200418D01*
X0245392Y0200380D02*
X0243729Y0200380D01*
X0243725Y0200342D02*
X0245309Y0200342D01*
X0245233Y0200304D02*
X0243722Y0200304D01*
X0243719Y0200266D02*
X0245196Y0200266D01*
X0245159Y0200228D02*
X0243716Y0200228D01*
X0243713Y0200190D02*
X0245122Y0200190D01*
X0245085Y0200152D02*
X0243710Y0200152D01*
X0243706Y0200115D02*
X0245056Y0200115D01*
X0245048Y0200077D02*
X0243703Y0200077D01*
X0243700Y0200039D02*
X0245040Y0200039D01*
X0245032Y0200001D02*
X0243700Y0200001D01*
X0243703Y0199963D02*
X0245024Y0199963D01*
X0245016Y0199925D02*
X0243707Y0199925D01*
X0243710Y0199887D02*
X0245009Y0199887D01*
X0245016Y0199849D02*
X0243714Y0199849D01*
X0243718Y0199812D02*
X0245025Y0199812D01*
X0245034Y0199774D02*
X0243721Y0199774D01*
X0243725Y0199736D02*
X0245043Y0199736D01*
X0245052Y0199698D02*
X0243729Y0199698D01*
X0243732Y0199660D02*
X0245061Y0199660D01*
X0245082Y0199622D02*
X0243736Y0199622D01*
X0243739Y0199584D02*
X0245118Y0199584D01*
X0245155Y0199546D02*
X0243750Y0199546D01*
X0243762Y0199508D02*
X0245191Y0199508D01*
X0245228Y0199471D02*
X0243775Y0199471D01*
X0243787Y0199433D02*
X0245302Y0199433D01*
X0245394Y0199395D02*
X0243799Y0199395D01*
X0243812Y0199357D02*
X0245485Y0199357D01*
X0245760Y0199319D02*
X0243824Y0199319D01*
X0244776Y0201554D02*
X0247965Y0201554D01*
X0247989Y0201592D02*
X0244870Y0201592D01*
X0244985Y0201630D02*
X0248012Y0201630D01*
X0248036Y0201668D02*
X0245100Y0201668D01*
X0245215Y0201706D02*
X0248059Y0201706D01*
X0248082Y0201743D02*
X0245330Y0201743D01*
X0245445Y0201781D02*
X0248099Y0201781D01*
X0248111Y0201819D02*
X0245560Y0201819D01*
X0245684Y0201857D02*
X0248123Y0201857D01*
X0248135Y0201895D02*
X0245820Y0201895D01*
X0245955Y0201933D02*
X0248147Y0201933D01*
X0248159Y0201971D02*
X0246090Y0201971D01*
X0246226Y0202009D02*
X0248171Y0202009D01*
X0248183Y0202047D02*
X0246332Y0202047D01*
X0246425Y0202084D02*
X0248195Y0202084D01*
X0248201Y0202122D02*
X0246519Y0202122D01*
X0246612Y0202160D02*
X0248205Y0202160D01*
X0248208Y0202198D02*
X0246683Y0202198D01*
X0246722Y0202236D02*
X0248211Y0202236D01*
X0248215Y0202274D02*
X0246762Y0202274D01*
X0246801Y0202312D02*
X0248218Y0202312D01*
X0248221Y0202350D02*
X0246841Y0202350D01*
X0246870Y0202387D02*
X0248225Y0202387D01*
X0248228Y0202425D02*
X0246878Y0202425D01*
X0246886Y0202463D02*
X0248232Y0202463D01*
X0248235Y0202501D02*
X0246894Y0202501D01*
X0246902Y0202539D02*
X0248235Y0202539D01*
X0248231Y0202577D02*
X0246910Y0202577D01*
X0246918Y0202615D02*
X0248227Y0202615D01*
X0248224Y0202653D02*
X0246921Y0202653D01*
X0246912Y0202691D02*
X0248220Y0202691D01*
X0248217Y0202728D02*
X0246903Y0202728D01*
X0246903Y0202730D02*
X0246874Y0202855D01*
X0246728Y0203023D01*
X0246485Y0203137D01*
X0246148Y0203176D01*
X0245761Y0203136D01*
X0245374Y0203019D01*
X0244849Y0202730D01*
X0244582Y0202582D01*
X0244480Y0202730D01*
X0244849Y0202730D01*
X0244480Y0202730D01*
X0243893Y0203581D01*
X0244382Y0203909D01*
X0244915Y0204148D01*
X0245497Y0204296D01*
X0246134Y0204346D01*
X0246580Y0204313D01*
X0246985Y0204216D01*
X0247345Y0204058D01*
X0247651Y0203847D01*
X0247897Y0203583D01*
X0248083Y0203275D01*
X0248198Y0202923D01*
X0248217Y0202730D01*
X0246903Y0202730D01*
X0246895Y0202766D02*
X0248213Y0202766D01*
X0248210Y0202804D02*
X0246886Y0202804D01*
X0246877Y0202842D02*
X0248206Y0202842D01*
X0248202Y0202880D02*
X0246852Y0202880D01*
X0246819Y0202918D02*
X0248199Y0202918D01*
X0248188Y0202956D02*
X0246786Y0202956D01*
X0246754Y0202994D02*
X0248175Y0202994D01*
X0248163Y0203031D02*
X0246710Y0203031D01*
X0246629Y0203069D02*
X0248150Y0203069D01*
X0248138Y0203107D02*
X0246548Y0203107D01*
X0246412Y0203145D02*
X0248125Y0203145D01*
X0248113Y0203183D02*
X0244168Y0203183D01*
X0244194Y0203145D02*
X0245849Y0203145D01*
X0245666Y0203107D02*
X0244220Y0203107D01*
X0244246Y0203069D02*
X0245541Y0203069D01*
X0245416Y0203031D02*
X0244272Y0203031D01*
X0244298Y0202994D02*
X0245328Y0202994D01*
X0245260Y0202956D02*
X0244324Y0202956D01*
X0244350Y0202918D02*
X0245191Y0202918D01*
X0245122Y0202880D02*
X0244376Y0202880D01*
X0244403Y0202842D02*
X0245053Y0202842D01*
X0244985Y0202804D02*
X0244429Y0202804D01*
X0244455Y0202766D02*
X0244916Y0202766D01*
X0244847Y0202728D02*
X0244481Y0202728D01*
X0244507Y0202691D02*
X0244779Y0202691D01*
X0244710Y0202653D02*
X0244533Y0202653D01*
X0244559Y0202615D02*
X0244641Y0202615D01*
X0244141Y0203221D02*
X0248100Y0203221D01*
X0248088Y0203259D02*
X0244115Y0203259D01*
X0244089Y0203297D02*
X0248070Y0203297D01*
X0248047Y0203335D02*
X0244063Y0203335D01*
X0244037Y0203372D02*
X0248024Y0203372D01*
X0248001Y0203410D02*
X0244011Y0203410D01*
X0243985Y0203448D02*
X0247978Y0203448D01*
X0247955Y0203486D02*
X0243959Y0203486D01*
X0243933Y0203524D02*
X0247933Y0203524D01*
X0247910Y0203562D02*
X0243906Y0203562D01*
X0243921Y0203600D02*
X0247881Y0203600D01*
X0247846Y0203638D02*
X0243978Y0203638D01*
X0244034Y0203675D02*
X0247810Y0203675D01*
X0247775Y0203713D02*
X0244091Y0203713D01*
X0244147Y0203751D02*
X0247740Y0203751D01*
X0247704Y0203789D02*
X0244204Y0203789D01*
X0244260Y0203827D02*
X0247669Y0203827D01*
X0247624Y0203865D02*
X0244317Y0203865D01*
X0244374Y0203903D02*
X0247569Y0203903D01*
X0247515Y0203941D02*
X0244454Y0203941D01*
X0244538Y0203978D02*
X0247460Y0203978D01*
X0247405Y0204016D02*
X0244622Y0204016D01*
X0244706Y0204054D02*
X0247350Y0204054D01*
X0247267Y0204092D02*
X0244790Y0204092D01*
X0244875Y0204130D02*
X0247180Y0204130D01*
X0247093Y0204168D02*
X0244993Y0204168D01*
X0245142Y0204206D02*
X0247007Y0204206D01*
X0246868Y0204244D02*
X0245291Y0204244D01*
X0245440Y0204282D02*
X0246710Y0204282D01*
X0246493Y0204319D02*
X0245796Y0204319D01*
X0242548Y0204244D02*
X0239685Y0204244D01*
X0239450Y0204206D02*
X0242548Y0204206D01*
X0242548Y0204168D02*
X0239298Y0204168D01*
X0239146Y0204130D02*
X0242548Y0204130D01*
X0242548Y0204092D02*
X0239048Y0204092D01*
X0238966Y0204054D02*
X0242548Y0204054D01*
X0242548Y0204016D02*
X0238885Y0204016D01*
X0238803Y0203978D02*
X0242548Y0203978D01*
X0242548Y0203941D02*
X0238722Y0203941D01*
X0238668Y0203903D02*
X0242548Y0203903D01*
X0242548Y0203865D02*
X0238617Y0203865D01*
X0238566Y0203827D02*
X0242548Y0203827D01*
X0242548Y0203789D02*
X0238514Y0203789D01*
X0238463Y0203751D02*
X0242548Y0203751D01*
X0242548Y0203713D02*
X0238412Y0203713D01*
X0238369Y0203675D02*
X0242548Y0203675D01*
X0242548Y0203638D02*
X0238336Y0203638D01*
X0238303Y0203600D02*
X0242548Y0203600D01*
X0242548Y0203562D02*
X0238270Y0203562D01*
X0238237Y0203524D02*
X0242548Y0203524D01*
X0242548Y0203486D02*
X0238204Y0203486D01*
X0238171Y0203448D02*
X0242548Y0203448D01*
X0242548Y0203410D02*
X0238138Y0203410D01*
X0238111Y0203372D02*
X0242548Y0203372D01*
X0242548Y0203335D02*
X0238090Y0203335D01*
X0238070Y0203297D02*
X0242548Y0203297D01*
X0242548Y0203259D02*
X0238049Y0203259D01*
X0238029Y0203221D02*
X0242548Y0203221D01*
X0242548Y0203183D02*
X0238008Y0203183D01*
X0237988Y0203145D02*
X0242548Y0203145D01*
X0242548Y0203107D02*
X0237967Y0203107D01*
X0235375Y0202766D02*
X0232837Y0202766D01*
X0232853Y0202804D02*
X0235359Y0202804D01*
X0235343Y0202842D02*
X0232869Y0202842D01*
X0232885Y0202880D02*
X0235327Y0202880D01*
X0235310Y0202918D02*
X0232901Y0202918D01*
X0232917Y0202956D02*
X0235294Y0202956D01*
X0235278Y0202994D02*
X0232934Y0202994D01*
X0232950Y0203031D02*
X0235262Y0203031D01*
X0235246Y0203069D02*
X0232966Y0203069D01*
X0232982Y0203107D02*
X0235230Y0203107D01*
X0235214Y0203145D02*
X0232998Y0203145D01*
X0233014Y0203183D02*
X0235198Y0203183D01*
X0235181Y0203221D02*
X0233030Y0203221D01*
X0233046Y0203259D02*
X0235165Y0203259D01*
X0235149Y0203297D02*
X0233062Y0203297D01*
X0233079Y0203335D02*
X0235133Y0203335D01*
X0235117Y0203372D02*
X0233095Y0203372D01*
X0233111Y0203410D02*
X0235101Y0203410D01*
X0235085Y0203448D02*
X0233127Y0203448D01*
X0233143Y0203486D02*
X0235069Y0203486D01*
X0235052Y0203524D02*
X0233159Y0203524D01*
X0233175Y0203562D02*
X0235036Y0203562D01*
X0235020Y0203600D02*
X0233191Y0203600D01*
X0233208Y0203638D02*
X0235004Y0203638D01*
X0234988Y0203675D02*
X0233224Y0203675D01*
X0233240Y0203713D02*
X0234972Y0203713D01*
X0234956Y0203751D02*
X0233256Y0203751D01*
X0233272Y0203789D02*
X0234939Y0203789D01*
X0234923Y0203827D02*
X0233288Y0203827D01*
X0233304Y0203865D02*
X0234907Y0203865D01*
X0234891Y0203903D02*
X0233320Y0203903D01*
X0233337Y0203941D02*
X0234875Y0203941D01*
X0234859Y0203978D02*
X0233353Y0203978D01*
X0233369Y0204016D02*
X0234843Y0204016D01*
X0234827Y0204054D02*
X0233385Y0204054D01*
X0233401Y0204092D02*
X0234810Y0204092D01*
X0234794Y0204130D02*
X0233417Y0204130D01*
X0233433Y0204168D02*
X0234778Y0204168D01*
X0234762Y0204206D02*
X0233449Y0204206D01*
X0233465Y0204244D02*
X0234746Y0204244D01*
X0234730Y0204282D02*
X0233482Y0204282D01*
X0229975Y0204244D02*
X0226887Y0204244D01*
X0226587Y0204206D02*
X0229975Y0204206D01*
X0229975Y0204168D02*
X0226414Y0204168D01*
X0226249Y0204130D02*
X0229975Y0204130D01*
X0229975Y0204092D02*
X0226159Y0204092D01*
X0226070Y0204054D02*
X0229975Y0204054D01*
X0229975Y0204016D02*
X0225980Y0204016D01*
X0225890Y0203978D02*
X0229975Y0203978D01*
X0229975Y0203941D02*
X0225827Y0203941D01*
X0225773Y0203903D02*
X0229975Y0203903D01*
X0229975Y0203865D02*
X0225719Y0203865D01*
X0225664Y0203827D02*
X0229975Y0203827D01*
X0229975Y0203789D02*
X0225610Y0203789D01*
X0225556Y0203751D02*
X0229975Y0203751D01*
X0229975Y0203713D02*
X0225515Y0203713D01*
X0225480Y0203675D02*
X0229975Y0203675D01*
X0229975Y0203638D02*
X0225446Y0203638D01*
X0225412Y0203600D02*
X0229975Y0203600D01*
X0229975Y0203562D02*
X0225377Y0203562D01*
X0225343Y0203524D02*
X0229975Y0203524D01*
X0229975Y0203486D02*
X0225309Y0203486D01*
X0225275Y0203448D02*
X0229975Y0203448D01*
X0229975Y0203031D02*
X0228647Y0203031D01*
X0228647Y0202994D02*
X0229975Y0202994D01*
X0229975Y0202956D02*
X0228647Y0202956D01*
X0228647Y0202918D02*
X0229975Y0202918D01*
X0229975Y0202880D02*
X0228647Y0202880D01*
X0228647Y0202842D02*
X0229975Y0202842D01*
X0229975Y0202804D02*
X0228647Y0202804D01*
X0228647Y0202766D02*
X0229975Y0202766D01*
X0229975Y0202728D02*
X0228647Y0202728D01*
X0228647Y0202691D02*
X0229975Y0202691D01*
X0229975Y0202653D02*
X0228647Y0202653D01*
X0228647Y0202615D02*
X0229975Y0202615D01*
X0229975Y0202577D02*
X0228647Y0202577D01*
X0228647Y0202539D02*
X0229975Y0202539D01*
X0229975Y0202501D02*
X0228647Y0202501D01*
X0228647Y0202463D02*
X0229975Y0202463D01*
X0229975Y0202425D02*
X0228647Y0202425D01*
X0228647Y0202387D02*
X0229975Y0202387D01*
X0229975Y0202350D02*
X0228647Y0202350D01*
X0228647Y0202312D02*
X0229975Y0202312D01*
X0229975Y0202274D02*
X0228647Y0202274D01*
X0228647Y0202236D02*
X0229975Y0202236D01*
X0229975Y0202198D02*
X0228647Y0202198D01*
X0228647Y0202160D02*
X0229975Y0202160D01*
X0229975Y0202122D02*
X0228647Y0202122D01*
X0228647Y0202084D02*
X0229975Y0202084D01*
X0229975Y0202047D02*
X0228647Y0202047D01*
X0228647Y0202009D02*
X0229975Y0202009D01*
X0229975Y0201971D02*
X0228647Y0201971D01*
X0228647Y0201933D02*
X0229975Y0201933D01*
X0229975Y0201895D02*
X0228647Y0201895D01*
X0228647Y0201857D02*
X0229975Y0201857D01*
X0229975Y0201819D02*
X0228647Y0201819D01*
X0228647Y0201781D02*
X0229975Y0201781D01*
X0229975Y0201743D02*
X0228647Y0201743D01*
X0228647Y0201706D02*
X0229975Y0201706D01*
X0229975Y0201668D02*
X0228647Y0201668D01*
X0228647Y0201630D02*
X0229975Y0201630D01*
X0229975Y0201592D02*
X0228647Y0201592D01*
X0228647Y0201554D02*
X0229975Y0201554D01*
X0229975Y0201516D02*
X0228647Y0201516D01*
X0228647Y0201478D02*
X0229975Y0201478D01*
X0229975Y0201440D02*
X0228647Y0201440D01*
X0228647Y0201403D02*
X0229975Y0201403D01*
X0229975Y0201365D02*
X0228647Y0201365D01*
X0229975Y0200342D02*
X0226205Y0200342D01*
X0226179Y0200304D02*
X0229975Y0200304D01*
X0229975Y0200266D02*
X0226153Y0200266D01*
X0226127Y0200228D02*
X0229975Y0200228D01*
X0251503Y0206365D02*
X0206503Y0206365D01*
X0206503Y0206403D02*
X0251503Y0206403D01*
X0251503Y0206441D02*
X0206503Y0206441D01*
X0206503Y0206479D02*
X0251503Y0206479D01*
X0251503Y0206517D02*
X0206503Y0206517D01*
X0206503Y0206554D02*
X0251503Y0206554D01*
X0251503Y0206592D02*
X0206503Y0206592D01*
X0206503Y0206630D02*
X0251503Y0206630D01*
X0251503Y0206668D02*
X0206503Y0206668D01*
X0206503Y0206706D02*
X0251503Y0206706D01*
X0251503Y0206744D02*
X0206503Y0206744D01*
X0206503Y0206782D02*
X0251503Y0206782D01*
X0251503Y0206820D02*
X0206503Y0206820D01*
X0206503Y0206857D02*
X0251503Y0206857D01*
X0251503Y0206895D02*
X0206503Y0206895D01*
X0206503Y0206933D02*
X0251503Y0206933D01*
X0251503Y0206971D02*
X0206503Y0206971D01*
X0206503Y0207009D02*
X0251503Y0207009D01*
X0251503Y0207047D02*
X0206503Y0207047D01*
X0206503Y0207085D02*
X0251503Y0207085D01*
X0251503Y0207123D02*
X0206503Y0207123D01*
X0206503Y0207161D02*
X0251503Y0207161D01*
X0251503Y0207198D02*
X0206503Y0207198D01*
X0206503Y0207236D02*
X0251503Y0207236D01*
X0251503Y0207274D02*
X0206503Y0207274D01*
X0206503Y0207312D02*
X0251503Y0207312D01*
X0251503Y0207350D02*
X0206503Y0207350D01*
X0206503Y0207388D02*
X0251503Y0207388D01*
X0251503Y0207426D02*
X0206503Y0207426D01*
X0206503Y0207464D02*
X0251503Y0207464D01*
D102*
X0231202Y0176019D02*
X0228803Y0176019D01*
X0228481Y0172843D01*
X0227413Y0172502D01*
X0226417Y0171989D01*
X0223943Y0174006D01*
X0222247Y0172310D01*
X0224264Y0169836D01*
X0223751Y0168839D01*
X0223409Y0167772D01*
X0220233Y0167450D01*
X0220233Y0165050D01*
X0223409Y0164728D01*
X0223751Y0163661D01*
X0224264Y0162664D01*
X0222247Y0160190D01*
X0223943Y0158494D01*
X0226417Y0160511D01*
X0227413Y0159998D01*
X0228826Y0163408D01*
X0228270Y0163709D01*
X0227787Y0164116D01*
X0227398Y0164614D01*
X0227119Y0165180D01*
X0226961Y0165792D01*
X0226932Y0166423D01*
X0227032Y0167046D01*
X0227257Y0167636D01*
X0227598Y0168168D01*
X0228040Y0168619D01*
X0228566Y0168970D01*
X0229151Y0169206D01*
X0229773Y0169317D01*
X0230404Y0169300D01*
X0231019Y0169153D01*
X0231590Y0168885D01*
X0232095Y0168505D01*
X0232511Y0168030D01*
X0232822Y0167480D01*
X0233014Y0166878D01*
X0233079Y0166250D01*
X0233020Y0165650D01*
X0232845Y0165073D01*
X0232560Y0164541D01*
X0232178Y0164075D01*
X0231712Y0163692D01*
X0231180Y0163408D01*
X0232592Y0159998D01*
X0233589Y0160511D01*
X0236063Y0158494D01*
X0237759Y0160190D01*
X0235741Y0162664D01*
X0236254Y0163661D01*
X0236596Y0164728D01*
X0239772Y0165050D01*
X0239772Y0167450D01*
X0236596Y0167772D01*
X0236254Y0168839D01*
X0235741Y0169836D01*
X0237759Y0172310D01*
X0236063Y0174006D01*
X0233589Y0171989D01*
X0232592Y0172502D01*
X0231525Y0172843D01*
X0231202Y0176019D01*
X0231224Y0175802D02*
X0228781Y0175802D01*
X0228751Y0175504D02*
X0231255Y0175504D01*
X0231285Y0175205D02*
X0228720Y0175205D01*
X0228690Y0174907D02*
X0231315Y0174907D01*
X0231346Y0174608D02*
X0228660Y0174608D01*
X0228629Y0174310D02*
X0231376Y0174310D01*
X0231406Y0174011D02*
X0228599Y0174011D01*
X0228569Y0173713D02*
X0231436Y0173713D01*
X0231467Y0173414D02*
X0228539Y0173414D01*
X0228508Y0173116D02*
X0231497Y0173116D01*
X0231607Y0172817D02*
X0228398Y0172817D01*
X0227466Y0172518D02*
X0232540Y0172518D01*
X0233139Y0172220D02*
X0226866Y0172220D01*
X0226133Y0172220D02*
X0222320Y0172220D01*
X0222455Y0172518D02*
X0225767Y0172518D01*
X0225401Y0172817D02*
X0222754Y0172817D01*
X0223052Y0173116D02*
X0225035Y0173116D01*
X0224669Y0173414D02*
X0223351Y0173414D01*
X0223649Y0173713D02*
X0224303Y0173713D01*
X0222563Y0171921D02*
X0237442Y0171921D01*
X0237198Y0171623D02*
X0222807Y0171623D01*
X0223050Y0171324D02*
X0236955Y0171324D01*
X0236712Y0171026D02*
X0223294Y0171026D01*
X0223537Y0170727D02*
X0236468Y0170727D01*
X0236225Y0170429D02*
X0223781Y0170429D01*
X0224024Y0170130D02*
X0235981Y0170130D01*
X0235743Y0169832D02*
X0224262Y0169832D01*
X0224108Y0169533D02*
X0235897Y0169533D01*
X0236051Y0169235D02*
X0230676Y0169235D01*
X0231480Y0168936D02*
X0236204Y0168936D01*
X0236319Y0168638D02*
X0231918Y0168638D01*
X0232240Y0168339D02*
X0236414Y0168339D01*
X0236510Y0168041D02*
X0232502Y0168041D01*
X0232674Y0167742D02*
X0236889Y0167742D01*
X0239772Y0167444D02*
X0232834Y0167444D01*
X0232929Y0167145D02*
X0239772Y0167145D01*
X0239772Y0166847D02*
X0233017Y0166847D01*
X0233048Y0166548D02*
X0239772Y0166548D01*
X0239772Y0166250D02*
X0233079Y0166250D01*
X0233049Y0165951D02*
X0239772Y0165951D01*
X0239772Y0165653D02*
X0233020Y0165653D01*
X0232930Y0165354D02*
X0239772Y0165354D01*
X0239772Y0165056D02*
X0232835Y0165056D01*
X0232676Y0164757D02*
X0236884Y0164757D01*
X0236510Y0164459D02*
X0232493Y0164459D01*
X0232248Y0164160D02*
X0236414Y0164160D01*
X0236319Y0163862D02*
X0231918Y0163862D01*
X0231470Y0163563D02*
X0236204Y0163563D01*
X0236050Y0163265D02*
X0231239Y0163265D01*
X0231363Y0162966D02*
X0235897Y0162966D01*
X0235743Y0162668D02*
X0231487Y0162668D01*
X0231610Y0162369D02*
X0235982Y0162369D01*
X0236225Y0162071D02*
X0231734Y0162071D01*
X0231858Y0161772D02*
X0236469Y0161772D01*
X0236712Y0161474D02*
X0231981Y0161474D01*
X0232105Y0161175D02*
X0236955Y0161175D01*
X0237199Y0160877D02*
X0232229Y0160877D01*
X0232352Y0160578D02*
X0237442Y0160578D01*
X0237686Y0160280D02*
X0233873Y0160280D01*
X0234239Y0159981D02*
X0237549Y0159981D01*
X0237251Y0159682D02*
X0234605Y0159682D01*
X0234971Y0159384D02*
X0236952Y0159384D01*
X0236654Y0159085D02*
X0235337Y0159085D01*
X0235703Y0158787D02*
X0236355Y0158787D01*
X0233139Y0160280D02*
X0232476Y0160280D01*
X0228271Y0162071D02*
X0223780Y0162071D01*
X0224023Y0162369D02*
X0228395Y0162369D01*
X0228519Y0162668D02*
X0224262Y0162668D01*
X0224109Y0162966D02*
X0228642Y0162966D01*
X0228766Y0163265D02*
X0223955Y0163265D01*
X0223801Y0163563D02*
X0228539Y0163563D01*
X0228089Y0163862D02*
X0223687Y0163862D01*
X0223591Y0164160D02*
X0227753Y0164160D01*
X0227519Y0164459D02*
X0223496Y0164459D01*
X0223121Y0164757D02*
X0227327Y0164757D01*
X0227180Y0165056D02*
X0220233Y0165056D01*
X0220233Y0165354D02*
X0227074Y0165354D01*
X0226997Y0165653D02*
X0220233Y0165653D01*
X0220233Y0165951D02*
X0226954Y0165951D01*
X0226940Y0166250D02*
X0220233Y0166250D01*
X0220233Y0166548D02*
X0226952Y0166548D01*
X0227000Y0166847D02*
X0220233Y0166847D01*
X0220233Y0167145D02*
X0227069Y0167145D01*
X0227183Y0167444D02*
X0220233Y0167444D01*
X0223116Y0167742D02*
X0227325Y0167742D01*
X0227516Y0168041D02*
X0223495Y0168041D01*
X0223591Y0168339D02*
X0227766Y0168339D01*
X0228069Y0168638D02*
X0223686Y0168638D01*
X0223801Y0168936D02*
X0228516Y0168936D01*
X0229314Y0169235D02*
X0223955Y0169235D01*
X0223537Y0161772D02*
X0228148Y0161772D01*
X0228024Y0161474D02*
X0223293Y0161474D01*
X0223050Y0161175D02*
X0227900Y0161175D01*
X0227777Y0160877D02*
X0222806Y0160877D01*
X0222563Y0160578D02*
X0227653Y0160578D01*
X0227530Y0160280D02*
X0226867Y0160280D01*
X0226132Y0160280D02*
X0222320Y0160280D01*
X0222456Y0159981D02*
X0225766Y0159981D01*
X0225400Y0159682D02*
X0222754Y0159682D01*
X0223053Y0159384D02*
X0225034Y0159384D01*
X0224668Y0159085D02*
X0223351Y0159085D01*
X0223650Y0158787D02*
X0224302Y0158787D01*
X0233872Y0172220D02*
X0237685Y0172220D01*
X0237550Y0172518D02*
X0234238Y0172518D01*
X0234604Y0172817D02*
X0237251Y0172817D01*
X0236953Y0173116D02*
X0234971Y0173116D01*
X0235337Y0173414D02*
X0236654Y0173414D01*
X0236356Y0173713D02*
X0235703Y0173713D01*
D103*
X0212345Y0070386D03*
X0212227Y0070386D03*
X0211873Y0070386D03*
X0211755Y0070386D03*
X0208329Y0070386D03*
X0208211Y0070386D03*
X0208093Y0070386D03*
X0208014Y0070386D03*
X0207896Y0070386D03*
X0207778Y0070386D03*
X0207660Y0070386D03*
D104*
X0211656Y0070386D03*
X0212129Y0070386D03*
D105*
X0212011Y0070386D03*
D106*
X0211558Y0065898D03*
X0219392Y0066098D03*
X0249786Y0074674D03*
D107*
X0211558Y0072571D03*
D108*
X0211420Y0065721D03*
X0240003Y0074579D03*
D109*
X0240475Y0077473D03*
X0239058Y0070386D03*
X0240003Y0068851D03*
X0249058Y0070304D03*
X0250003Y0068769D03*
X0230003Y0071331D03*
X0229058Y0078063D03*
X0211420Y0069205D03*
X0209058Y0070741D03*
D110*
X0211420Y0070977D03*
X0210003Y0076056D03*
X0219058Y0069287D03*
X0230003Y0075111D03*
X0241420Y0072512D03*
X0241420Y0070622D03*
X0251420Y0072430D03*
D111*
X0250475Y0072017D03*
X0249530Y0070127D03*
X0239530Y0070209D03*
X0239058Y0072217D03*
X0231420Y0076705D03*
X0229530Y0077886D03*
X0228585Y0076705D03*
X0211420Y0072453D03*
X0209530Y0070563D03*
X0210948Y0069382D03*
D112*
X0210003Y0065248D03*
X0219058Y0072181D03*
X0211420Y0075524D03*
X0250948Y0075915D03*
D113*
X0239392Y0074697D03*
X0211282Y0065603D03*
X0208723Y0065603D03*
D114*
X0209786Y0067611D03*
X0210219Y0067611D03*
X0209196Y0068083D03*
X0210731Y0069264D03*
X0211282Y0069264D03*
X0210613Y0071272D03*
X0209274Y0070681D03*
X0210731Y0073752D03*
X0219274Y0067574D03*
X0230731Y0072807D03*
X0229274Y0078004D03*
X0229196Y0078004D03*
X0230731Y0078477D03*
X0239196Y0077414D03*
X0240337Y0077414D03*
X0240140Y0078831D03*
X0239392Y0079067D03*
X0238841Y0072335D03*
X0239274Y0070327D03*
X0240613Y0070918D03*
X0241085Y0072335D03*
X0248920Y0072135D03*
X0249196Y0070245D03*
X0249274Y0070245D03*
X0250731Y0070718D03*
D115*
X0248841Y0075383D03*
X0248723Y0075383D03*
X0248920Y0077627D03*
X0248841Y0079753D03*
X0238920Y0079244D03*
X0230219Y0075111D03*
X0230140Y0075111D03*
X0229865Y0075111D03*
X0229786Y0075111D03*
X0221282Y0072712D03*
X0221203Y0072712D03*
X0221085Y0072712D03*
X0220810Y0070468D03*
X0218920Y0069287D03*
X0211282Y0070977D03*
X0210219Y0076056D03*
X0210140Y0076056D03*
X0209865Y0076056D03*
X0209786Y0076056D03*
X0241282Y0070622D03*
D116*
X0240140Y0071095D03*
X0239786Y0070150D03*
X0238920Y0069087D03*
X0238841Y0069087D03*
X0238723Y0069087D03*
X0241085Y0069087D03*
X0241203Y0069087D03*
X0241282Y0069087D03*
X0240731Y0072158D03*
X0240613Y0072158D03*
X0239392Y0072158D03*
X0239274Y0072158D03*
X0239865Y0077237D03*
X0240219Y0077237D03*
X0231203Y0076764D03*
X0231085Y0076764D03*
X0230810Y0076764D03*
X0230731Y0076764D03*
X0230613Y0076764D03*
X0230337Y0076764D03*
X0230219Y0076764D03*
X0230140Y0076764D03*
X0229865Y0076764D03*
X0229786Y0076764D03*
X0229668Y0076764D03*
X0229392Y0076764D03*
X0229274Y0076764D03*
X0229196Y0076764D03*
X0228920Y0076764D03*
X0228841Y0076764D03*
X0228723Y0076764D03*
X0229668Y0077827D03*
X0229786Y0077827D03*
X0230219Y0078654D03*
X0231085Y0071567D03*
X0231203Y0071567D03*
X0231282Y0071567D03*
X0228920Y0071567D03*
X0228841Y0071567D03*
X0228723Y0071567D03*
X0228723Y0068851D03*
X0228841Y0068851D03*
X0228920Y0068851D03*
X0219865Y0070468D03*
X0219786Y0070468D03*
X0219668Y0067633D03*
X0211282Y0072512D03*
X0211203Y0072512D03*
X0211085Y0072512D03*
X0210810Y0072512D03*
X0210731Y0072512D03*
X0210613Y0072512D03*
X0210337Y0072512D03*
X0210219Y0072512D03*
X0210140Y0072512D03*
X0209865Y0072512D03*
X0209786Y0072512D03*
X0209668Y0072512D03*
X0209392Y0072512D03*
X0209274Y0072512D03*
X0209196Y0072512D03*
X0208920Y0072512D03*
X0208841Y0072512D03*
X0208723Y0072512D03*
X0210140Y0071449D03*
X0209786Y0070504D03*
X0209786Y0069441D03*
X0209865Y0069441D03*
X0209668Y0069441D03*
X0209392Y0069441D03*
X0209274Y0069441D03*
X0209196Y0069441D03*
X0208920Y0069441D03*
X0248723Y0069005D03*
X0248841Y0069005D03*
X0248920Y0069005D03*
X0249668Y0070068D03*
X0249786Y0070068D03*
X0250219Y0070895D03*
X0250219Y0071958D03*
X0250140Y0071958D03*
X0250337Y0071958D03*
X0249865Y0071958D03*
X0249786Y0071958D03*
X0249668Y0071958D03*
X0251085Y0069005D03*
X0251203Y0069005D03*
X0251282Y0069005D03*
X0249865Y0077627D03*
D117*
X0231282Y0074697D03*
X0219392Y0072299D03*
X0218448Y0069228D03*
X0210613Y0068556D03*
X0211282Y0075642D03*
D118*
X0211203Y0065544D03*
X0208841Y0065544D03*
D119*
X0209865Y0067552D03*
X0210140Y0067552D03*
X0210810Y0069323D03*
X0211203Y0069323D03*
X0210337Y0071331D03*
X0209392Y0070622D03*
X0208723Y0069323D03*
X0208448Y0072512D03*
X0209196Y0073693D03*
X0220140Y0070468D03*
X0228448Y0071567D03*
X0229196Y0072748D03*
X0229392Y0077945D03*
X0230613Y0078536D03*
X0239865Y0078890D03*
X0240219Y0078890D03*
X0240337Y0078890D03*
X0239196Y0073811D03*
X0238920Y0072276D03*
X0240337Y0070977D03*
X0239392Y0070268D03*
X0238448Y0069087D03*
X0249392Y0070186D03*
X0250613Y0070777D03*
X0250810Y0072076D03*
X0249196Y0072076D03*
X0249196Y0073730D03*
D120*
X0251282Y0070481D03*
X0250337Y0078985D03*
X0250219Y0078985D03*
X0248920Y0079694D03*
X0241203Y0070681D03*
X0238723Y0070563D03*
X0230337Y0073044D03*
X0230219Y0073044D03*
X0230140Y0073044D03*
X0229865Y0073044D03*
X0229786Y0073044D03*
X0229668Y0073044D03*
X0231282Y0078241D03*
X0220731Y0070527D03*
X0219196Y0069228D03*
X0211203Y0071036D03*
X0208723Y0070918D03*
X0209668Y0073989D03*
X0209786Y0073989D03*
X0209865Y0073989D03*
X0210140Y0073989D03*
X0210219Y0073989D03*
X0210337Y0073989D03*
X0209668Y0067847D03*
D121*
X0208841Y0075760D03*
X0211203Y0075760D03*
X0219865Y0072417D03*
X0228841Y0074815D03*
X0231203Y0074815D03*
X0231203Y0080485D03*
X0228841Y0080485D03*
X0250810Y0079104D03*
D122*
X0218448Y0065685D03*
X0211085Y0065485D03*
X0208920Y0065485D03*
D123*
X0208841Y0069382D03*
X0210140Y0069382D03*
X0210219Y0069382D03*
X0211085Y0069382D03*
X0209668Y0070563D03*
X0210219Y0071390D03*
X0219196Y0067574D03*
X0220810Y0068756D03*
X0228448Y0068910D03*
X0230810Y0071508D03*
X0231282Y0076705D03*
X0230337Y0078595D03*
X0228448Y0076705D03*
X0239786Y0077296D03*
X0239786Y0078949D03*
X0239668Y0078949D03*
X0239196Y0072217D03*
X0240219Y0071036D03*
X0239668Y0070209D03*
X0240810Y0069028D03*
X0240810Y0072217D03*
X0248448Y0068946D03*
X0250810Y0068946D03*
X0250337Y0070836D03*
X0250613Y0072017D03*
X0250731Y0072017D03*
X0249392Y0072017D03*
X0249274Y0072017D03*
X0249786Y0077568D03*
D124*
X0250140Y0079044D03*
X0249274Y0079399D03*
X0249196Y0079517D03*
X0249274Y0073730D03*
X0250613Y0073730D03*
X0251282Y0072312D03*
X0251203Y0070541D03*
X0248841Y0070422D03*
X0248723Y0070422D03*
X0241085Y0070741D03*
X0238841Y0070504D03*
X0239274Y0073811D03*
X0240613Y0073811D03*
X0240810Y0079126D03*
X0231203Y0078300D03*
X0228841Y0078181D03*
X0228723Y0078181D03*
X0229392Y0072985D03*
X0220613Y0070468D03*
X0220219Y0068815D03*
X0220337Y0068696D03*
X0219274Y0069287D03*
X0211085Y0071095D03*
X0208841Y0070859D03*
X0208448Y0069205D03*
X0209392Y0073930D03*
D125*
X0208920Y0075819D03*
X0211085Y0075819D03*
X0220140Y0072476D03*
X0220219Y0072476D03*
X0221282Y0070468D03*
X0229196Y0068142D03*
X0229274Y0068142D03*
X0229392Y0068142D03*
X0229668Y0068142D03*
X0229786Y0068142D03*
X0229865Y0068142D03*
X0230140Y0068142D03*
X0230219Y0068142D03*
X0230337Y0068142D03*
X0230613Y0068142D03*
X0230731Y0068142D03*
X0230810Y0068142D03*
X0231085Y0068142D03*
X0231203Y0068142D03*
X0231282Y0068142D03*
X0231085Y0074874D03*
X0228920Y0074874D03*
X0228723Y0080426D03*
X0231282Y0080426D03*
X0241282Y0079244D03*
X0248448Y0079871D03*
X0248448Y0077627D03*
X0249274Y0075383D03*
D126*
X0221420Y0065626D03*
X0210948Y0065426D03*
X0209058Y0065426D03*
D127*
X0210948Y0071154D03*
X0219530Y0069228D03*
X0220003Y0068992D03*
X0220475Y0070527D03*
X0230948Y0078359D03*
X0239530Y0077532D03*
X0240948Y0070800D03*
X0249530Y0079222D03*
X0250948Y0070600D03*
D128*
X0250948Y0069005D03*
X0251420Y0069005D03*
X0249058Y0069005D03*
X0248585Y0069005D03*
X0249530Y0071958D03*
X0250003Y0071958D03*
X0241420Y0069087D03*
X0240948Y0069087D03*
X0239058Y0069087D03*
X0238585Y0069087D03*
X0240475Y0072158D03*
X0231420Y0071567D03*
X0230948Y0071567D03*
X0229058Y0071567D03*
X0228585Y0071567D03*
X0228585Y0068851D03*
X0221420Y0068815D03*
X0220948Y0068815D03*
X0229058Y0076764D03*
X0229530Y0076764D03*
X0230003Y0076764D03*
X0230475Y0076764D03*
X0230948Y0076764D03*
X0210948Y0072512D03*
X0210475Y0072512D03*
X0210003Y0072512D03*
X0209530Y0072512D03*
X0209058Y0072512D03*
X0208585Y0072512D03*
X0209058Y0069441D03*
X0209530Y0069441D03*
X0210003Y0069441D03*
D129*
X0210948Y0075878D03*
X0209058Y0075878D03*
X0220475Y0072535D03*
X0220475Y0068401D03*
X0229058Y0074933D03*
X0230948Y0074933D03*
X0231420Y0080367D03*
X0228585Y0080367D03*
X0248585Y0077568D03*
X0248585Y0075324D03*
D130*
X0251282Y0075915D03*
X0251282Y0079222D03*
X0238448Y0065367D03*
X0228448Y0065367D03*
X0221282Y0065567D03*
X0221203Y0065567D03*
X0221085Y0065567D03*
X0220810Y0065567D03*
X0219668Y0065567D03*
X0210810Y0065367D03*
X0210731Y0065367D03*
X0209274Y0065367D03*
X0209196Y0065367D03*
X0228448Y0074579D03*
X0229668Y0080839D03*
X0229786Y0080839D03*
X0229865Y0080839D03*
X0230140Y0080839D03*
X0230219Y0080839D03*
X0230337Y0080839D03*
D131*
X0231085Y0078359D03*
X0228920Y0078122D03*
X0230613Y0072926D03*
X0229668Y0071272D03*
X0238920Y0070445D03*
X0239668Y0068792D03*
X0240810Y0070800D03*
X0241282Y0072453D03*
X0239668Y0077532D03*
X0239392Y0077532D03*
X0239274Y0077532D03*
X0239196Y0079185D03*
X0240731Y0079067D03*
X0249392Y0079340D03*
X0249786Y0079104D03*
X0249865Y0079104D03*
X0248723Y0072253D03*
X0248920Y0070363D03*
X0249668Y0068710D03*
X0251085Y0070600D03*
X0251203Y0072253D03*
X0220140Y0068874D03*
X0219786Y0069110D03*
X0219668Y0069110D03*
X0219392Y0069228D03*
X0210810Y0071154D03*
X0208920Y0070800D03*
X0209392Y0067965D03*
X0210613Y0073870D03*
D132*
X0210731Y0075937D03*
X0210810Y0075937D03*
X0209274Y0075937D03*
X0209196Y0075937D03*
X0218841Y0069287D03*
X0220613Y0068342D03*
X0220731Y0068342D03*
X0221085Y0070468D03*
X0221203Y0070468D03*
X0220731Y0072594D03*
X0220613Y0072594D03*
X0229196Y0074993D03*
X0229274Y0074993D03*
X0230731Y0074993D03*
X0230810Y0074993D03*
X0239196Y0075465D03*
X0240731Y0075465D03*
X0241282Y0075465D03*
X0241203Y0079244D03*
X0248723Y0077627D03*
X0250613Y0079044D03*
X0248448Y0072430D03*
D133*
X0248841Y0072194D03*
X0251085Y0072194D03*
X0250810Y0070659D03*
X0250219Y0068769D03*
X0250140Y0068769D03*
X0249865Y0068769D03*
X0249786Y0068769D03*
X0250731Y0073730D03*
X0249668Y0079163D03*
X0240613Y0079008D03*
X0239274Y0079126D03*
X0240613Y0077473D03*
X0240731Y0077473D03*
X0240731Y0073811D03*
X0241203Y0072394D03*
X0240731Y0070859D03*
X0239196Y0070386D03*
X0239786Y0068851D03*
X0239865Y0068851D03*
X0240140Y0068851D03*
X0240219Y0068851D03*
X0238723Y0072394D03*
X0230219Y0071331D03*
X0230140Y0071331D03*
X0229865Y0071331D03*
X0229786Y0071331D03*
X0229274Y0072867D03*
X0230810Y0078418D03*
X0220337Y0070468D03*
X0220219Y0070468D03*
X0219865Y0069051D03*
X0210731Y0068024D03*
X0209274Y0068024D03*
X0209196Y0070741D03*
X0210731Y0071213D03*
X0209274Y0073811D03*
D134*
X0208448Y0075465D03*
X0218723Y0072122D03*
X0218841Y0072122D03*
X0218723Y0065507D03*
X0219196Y0065507D03*
X0219786Y0065507D03*
X0219865Y0065507D03*
X0220140Y0065507D03*
X0220219Y0065507D03*
X0220337Y0065507D03*
X0220613Y0065507D03*
X0220731Y0065507D03*
X0228723Y0065307D03*
X0228841Y0065307D03*
X0228920Y0065307D03*
X0229196Y0065307D03*
X0229274Y0065307D03*
X0229392Y0065307D03*
X0229668Y0065307D03*
X0229786Y0065307D03*
X0229865Y0065307D03*
X0230140Y0065307D03*
X0230219Y0065307D03*
X0230337Y0065307D03*
X0230613Y0065307D03*
X0230731Y0065307D03*
X0230810Y0065307D03*
X0231085Y0065307D03*
X0231203Y0065307D03*
X0231282Y0065307D03*
X0238723Y0065307D03*
X0238841Y0065307D03*
X0238920Y0065307D03*
X0239196Y0065307D03*
X0239274Y0065307D03*
X0239392Y0065307D03*
X0239668Y0065307D03*
X0239786Y0065307D03*
X0239865Y0065307D03*
X0240140Y0065307D03*
X0240219Y0065307D03*
X0240337Y0065307D03*
X0240613Y0065307D03*
X0240731Y0065307D03*
X0240810Y0065307D03*
X0241085Y0065307D03*
X0241203Y0065307D03*
X0241282Y0065307D03*
X0248448Y0065226D03*
X0248723Y0065226D03*
X0248841Y0065226D03*
X0248920Y0065226D03*
X0249196Y0065226D03*
X0249274Y0065226D03*
X0249392Y0065226D03*
X0249668Y0065226D03*
X0249786Y0065226D03*
X0249865Y0065226D03*
X0250140Y0065226D03*
X0250219Y0065226D03*
X0250337Y0065226D03*
X0250613Y0065226D03*
X0250731Y0065226D03*
X0250810Y0065226D03*
X0251085Y0065226D03*
X0251203Y0065226D03*
X0251282Y0065226D03*
X0250613Y0075737D03*
X0251203Y0075974D03*
X0210613Y0065307D03*
X0210337Y0065307D03*
X0210219Y0065307D03*
X0210140Y0065307D03*
X0209865Y0065307D03*
X0209786Y0065307D03*
X0209668Y0065307D03*
X0209392Y0065307D03*
D135*
X0208448Y0070918D03*
X0209392Y0075996D03*
X0209668Y0075996D03*
X0210337Y0075996D03*
X0210613Y0075996D03*
X0220810Y0072653D03*
X0229392Y0075052D03*
X0229668Y0075052D03*
X0230337Y0075052D03*
X0230613Y0075052D03*
X0228448Y0078241D03*
X0238841Y0079304D03*
X0241085Y0079185D03*
X0241085Y0075524D03*
X0241203Y0075524D03*
X0240810Y0075524D03*
X0238920Y0075524D03*
X0238841Y0075524D03*
X0238723Y0075524D03*
X0238448Y0072571D03*
X0238448Y0070563D03*
X0248448Y0070481D03*
X0248920Y0075442D03*
X0248841Y0077568D03*
X0248723Y0079812D03*
D136*
X0248585Y0065226D03*
X0249058Y0065226D03*
X0249530Y0065226D03*
X0250003Y0065226D03*
X0250475Y0065226D03*
X0250948Y0065226D03*
X0251420Y0065226D03*
X0241420Y0065307D03*
X0240948Y0065307D03*
X0240475Y0065307D03*
X0240003Y0065307D03*
X0239530Y0065307D03*
X0239058Y0065307D03*
X0238585Y0065307D03*
X0231420Y0065307D03*
X0230948Y0065307D03*
X0230475Y0065307D03*
X0230003Y0065307D03*
X0229530Y0065307D03*
X0229058Y0065307D03*
X0228585Y0065307D03*
X0220475Y0065507D03*
X0220003Y0065507D03*
X0219058Y0065507D03*
X0210475Y0065307D03*
X0209530Y0065307D03*
X0231420Y0074638D03*
X0230475Y0080780D03*
X0229530Y0080780D03*
D137*
X0228585Y0074756D03*
X0210475Y0068496D03*
D138*
X0210003Y0067552D03*
X0210475Y0071331D03*
X0220003Y0070468D03*
X0230475Y0078536D03*
X0239530Y0079008D03*
X0240948Y0072276D03*
X0240475Y0070977D03*
X0249058Y0072076D03*
X0250475Y0070777D03*
D139*
X0250003Y0079044D03*
X0239058Y0079244D03*
X0238585Y0072512D03*
X0230475Y0072985D03*
X0229530Y0072985D03*
X0210475Y0073930D03*
X0209530Y0073930D03*
X0209530Y0067906D03*
D140*
X0209530Y0075996D03*
X0210475Y0075996D03*
X0220948Y0072653D03*
X0221420Y0072653D03*
X0220948Y0070527D03*
X0229530Y0075052D03*
X0230475Y0075052D03*
X0231420Y0078241D03*
X0239058Y0075524D03*
X0240948Y0075524D03*
X0249058Y0075442D03*
X0250475Y0078985D03*
X0251420Y0070481D03*
D141*
X0250731Y0075796D03*
X0250810Y0075915D03*
X0251085Y0075915D03*
X0251203Y0079222D03*
X0230731Y0080721D03*
X0230613Y0080721D03*
X0229392Y0080721D03*
X0229274Y0080721D03*
X0218920Y0072181D03*
X0218920Y0065448D03*
X0218841Y0065448D03*
X0210337Y0068437D03*
D142*
X0210003Y0070386D03*
X0219530Y0070468D03*
X0230003Y0077709D03*
X0240003Y0070032D03*
X0250003Y0069950D03*
D143*
X0250003Y0070954D03*
X0250003Y0077568D03*
X0240003Y0077178D03*
X0240003Y0072099D03*
X0239530Y0072099D03*
X0240003Y0071154D03*
X0230003Y0078713D03*
X0210003Y0071508D03*
D144*
X0208585Y0070918D03*
X0210003Y0073989D03*
X0228585Y0078241D03*
X0230003Y0073044D03*
X0238585Y0070563D03*
X0248585Y0070481D03*
X0248585Y0072371D03*
X0249058Y0077568D03*
X0249058Y0079576D03*
X0240948Y0079185D03*
D145*
X0240140Y0077178D03*
X0240140Y0072099D03*
X0240219Y0072099D03*
X0240337Y0072099D03*
X0239865Y0072099D03*
X0239786Y0072099D03*
X0239668Y0072099D03*
X0239865Y0071154D03*
X0239865Y0070091D03*
X0229865Y0077768D03*
X0230140Y0078713D03*
X0221282Y0068756D03*
X0221203Y0068756D03*
X0221085Y0068756D03*
X0209865Y0070445D03*
X0209865Y0071508D03*
X0249865Y0070009D03*
X0250140Y0070954D03*
D146*
X0250337Y0068178D03*
X0250613Y0068178D03*
X0250731Y0068178D03*
X0249392Y0068178D03*
X0249274Y0068178D03*
X0249196Y0068178D03*
X0248448Y0075265D03*
X0238448Y0075347D03*
X0239196Y0068260D03*
X0239274Y0068260D03*
X0239392Y0068260D03*
X0240337Y0068260D03*
X0240613Y0068260D03*
X0240731Y0068260D03*
X0230731Y0070741D03*
X0230613Y0070741D03*
X0230337Y0070741D03*
X0229392Y0070741D03*
X0229274Y0070741D03*
X0229196Y0070741D03*
X0228723Y0074756D03*
X0228920Y0080544D03*
X0231085Y0080544D03*
X0219786Y0072358D03*
X0219668Y0072358D03*
X0208723Y0075701D03*
D147*
X0208585Y0065662D03*
X0239530Y0074638D03*
D148*
X0240003Y0078831D03*
X0240475Y0078949D03*
X0250948Y0072135D03*
X0208585Y0069264D03*
D149*
X0208585Y0075642D03*
X0219530Y0072299D03*
X0229058Y0080603D03*
X0230948Y0080603D03*
X0241420Y0079185D03*
D150*
X0208448Y0065780D03*
D151*
X0217660Y0068815D03*
X0217778Y0068815D03*
X0217896Y0068815D03*
X0218014Y0068815D03*
X0218093Y0068815D03*
X0218211Y0068815D03*
X0218329Y0068815D03*
X0221558Y0068815D03*
X0221755Y0068815D03*
X0221873Y0068815D03*
X0222227Y0068815D03*
X0222345Y0068815D03*
D152*
X0222129Y0068815D03*
X0221656Y0068815D03*
D153*
X0222011Y0068815D03*
D154*
X0221420Y0070468D03*
X0229058Y0068142D03*
X0229530Y0068142D03*
X0230003Y0068142D03*
X0230475Y0068142D03*
X0230948Y0068142D03*
X0231420Y0068142D03*
X0238585Y0075465D03*
D155*
X0230003Y0080839D03*
X0218585Y0072063D03*
X0218585Y0065567D03*
X0220948Y0065567D03*
D156*
X0218723Y0069228D03*
X0220337Y0072535D03*
X0228448Y0080248D03*
X0238723Y0079304D03*
X0239274Y0075406D03*
X0240613Y0075406D03*
X0249196Y0075442D03*
X0250731Y0079104D03*
D157*
X0241420Y0075406D03*
X0238585Y0079304D03*
X0220003Y0072417D03*
X0218585Y0069228D03*
D158*
X0219668Y0070468D03*
X0229865Y0078772D03*
X0250140Y0077627D03*
X0249865Y0071013D03*
D159*
X0219530Y0066098D03*
D160*
X0219274Y0065626D03*
X0218448Y0072004D03*
D161*
X0219196Y0072240D03*
X0219274Y0072240D03*
X0229196Y0080662D03*
X0230810Y0080662D03*
X0238448Y0079244D03*
X0251085Y0079163D03*
D162*
X0232345Y0072099D03*
X0227660Y0072099D03*
D163*
X0227778Y0072158D03*
X0232227Y0072158D03*
D164*
X0232129Y0072276D03*
X0241656Y0072276D03*
D165*
X0232011Y0072335D03*
D166*
X0231873Y0072394D03*
X0228093Y0072394D03*
X0238093Y0072394D03*
X0241873Y0072394D03*
D167*
X0238014Y0072453D03*
X0231755Y0072453D03*
X0228211Y0072453D03*
D168*
X0231656Y0072512D03*
X0242129Y0072512D03*
X0251656Y0072430D03*
D169*
X0251755Y0072489D03*
X0248211Y0072489D03*
X0242227Y0072571D03*
X0237778Y0072571D03*
X0231558Y0072571D03*
D170*
X0230475Y0070741D03*
X0229530Y0070741D03*
X0239530Y0068260D03*
X0240475Y0068260D03*
X0249530Y0068178D03*
X0250475Y0068178D03*
X0250948Y0079163D03*
D171*
X0248329Y0072430D03*
X0237896Y0072512D03*
X0228329Y0072512D03*
D172*
X0228014Y0072335D03*
X0238211Y0072335D03*
X0241755Y0072335D03*
D173*
X0238329Y0072276D03*
X0227896Y0072276D03*
D174*
X0237660Y0072630D03*
X0242345Y0072630D03*
X0248093Y0072548D03*
X0251873Y0072548D03*
D175*
X0242011Y0072453D03*
D176*
X0241558Y0068851D03*
X0251558Y0068769D03*
D177*
X0241558Y0077178D03*
D178*
X0240475Y0074697D03*
D179*
X0240337Y0074638D03*
X0240219Y0074638D03*
X0239668Y0074638D03*
D180*
X0239786Y0074579D03*
X0239865Y0074579D03*
X0240140Y0074579D03*
X0249392Y0074733D03*
D181*
X0247660Y0072785D03*
X0252345Y0072785D03*
D182*
X0252227Y0072726D03*
X0247778Y0072726D03*
D183*
X0252129Y0072667D03*
D184*
X0252011Y0072607D03*
D185*
X0251558Y0077332D03*
D186*
X0251420Y0075856D03*
D187*
X0251420Y0079222D03*
D188*
X0250475Y0074970D03*
X0250003Y0074733D03*
D189*
X0250140Y0074793D03*
X0250337Y0074911D03*
D190*
X0250219Y0074852D03*
X0249865Y0074733D03*
D191*
X0249668Y0074733D03*
D192*
X0249530Y0074674D03*
D193*
X0248585Y0079871D03*
D194*
X0248014Y0072607D03*
D195*
X0247896Y0072667D03*
M02*
